<svg width="39" height="39" viewBox="0 0 39 39" fill="none" xmlns="http://www.w3.org/2000/svg">
<path d="M12.7573 26.4697C14.3277 28.6839 15.8956 30.6643 16.9347 31.9398C17.086 32.1254 17.2277 32.2976 17.365 32.4634H14.2293C13.8783 32.4634 13.5938 32.7479 13.5938 33.0989C13.5938 33.45 13.8783 33.7345 14.2293 33.7345H24.3978C24.7488 33.7345 25.0333 33.45 25.0333 33.0989C25.0333 32.7479 24.7488 32.4634 24.3978 32.4634H21.2621C21.3994 32.2976 21.5411 32.1253 21.693 31.9398C22.7315 30.6687 24.2988 28.6839 25.8698 26.4697C27.4285 24.3169 28.8315 22.0557 30.0682 19.7031C31.3659 17.1546 32.0244 15.0389 32.0244 13.4145C32.0287 10.0391 30.6893 6.80082 28.302 4.41457C28.1426 4.24923 27.9063 4.18279 27.6841 4.24081C27.4618 4.29883 27.2882 4.47221 27.2298 4.69438C27.1715 4.91654 27.2376 5.15286 27.4027 5.31254C29.5515 7.46077 30.7571 10.3759 30.7533 13.4144C30.7533 14.8368 30.1419 16.7586 28.9357 19.126C27.727 21.424 26.3558 23.6329 24.8326 25.7357C23.2832 27.9213 21.7344 29.8794 20.708 31.1377C20.3667 31.5559 20.0597 31.9258 19.7979 32.2385C19.6757 32.3781 19.4992 32.4581 19.3136 32.4581C19.1281 32.4581 18.9516 32.378 18.8294 32.2385C18.5675 31.9258 18.2606 31.5559 17.9193 31.1377C16.8929 29.88 15.3441 27.9219 13.7946 25.7357C12.2715 23.6329 10.9003 21.424 9.6916 19.126C8.4841 16.7586 7.87398 14.8368 7.87398 13.4144C7.87361 8.81104 10.6266 4.65386 14.8649 2.85747C17.7128 1.6633 20.921 1.6633 23.7689 2.85747C23.978 2.94609 24.2185 2.91653 24.3998 2.77971C24.5812 2.64297 24.6758 2.41984 24.648 2.19439C24.6202 1.96895 24.4743 1.77546 24.2652 1.68683C17.7933 -1.04292 10.3337 1.98936 7.60199 8.4604C6.93951 10.0279 6.59974 11.7128 6.60295 13.4144C6.60295 15.0388 7.2614 17.1546 8.55917 19.7063C9.79564 22.0577 11.1987 24.318 12.7573 26.4697Z" fill="#FD9C45"/>
<path d="M19.3135 7.67742C19.6645 7.67742 19.949 7.39292 19.949 7.0419C19.949 6.69089 19.6645 6.40639 19.3135 6.40639C16.2815 6.40631 13.6717 8.54814 13.0801 11.5219C12.4885 14.4956 14.08 17.4731 16.8812 18.6334C19.6824 19.7938 22.9131 18.8137 24.5977 16.2927C26.2822 13.7718 25.9513 10.4119 23.8074 8.26788C23.6478 8.10269 23.4115 8.0364 23.1893 8.09457C22.9671 8.15274 22.7936 8.32627 22.7354 8.54843C22.6773 8.77067 22.7435 9.00692 22.9087 9.16652C24.6239 10.8817 24.8887 13.5695 23.5412 15.5863C22.1937 17.6032 19.6091 18.3873 17.3681 17.4591C15.1272 16.531 13.8539 14.1491 14.327 11.77C14.8001 9.391 16.8879 7.6775 19.3135 7.67742Z" fill="#FD9C45"/>
<path d="M38.1401 35.3686L34.2315 28.3776C33.8781 27.7565 33.2169 27.3747 32.5022 27.3792H27.9727C27.6217 27.3792 27.3372 27.6637 27.3372 28.0147C27.3372 28.3657 27.6217 28.6502 27.9727 28.6502H32.5022C32.7567 28.6453 32.994 28.7779 33.1232 28.9972L37.0305 35.9881C37.1369 36.17 37.1347 36.3956 37.0247 36.5754C36.8949 36.7899 36.6602 36.9184 36.4095 36.9123H2.21749C1.9671 36.9182 1.73265 36.7897 1.60291 36.5754C1.49298 36.3956 1.49082 36.17 1.59717 35.9881L5.50448 28.9972C5.6334 28.778 5.87054 28.6453 6.12473 28.6502H10.6542C11.0052 28.6502 11.2897 28.3657 11.2897 28.0147C11.2897 27.6637 11.0052 27.3792 10.6542 27.3792H6.1248C5.40982 27.3745 4.74801 27.7562 4.39424 28.3776L0.486266 35.3686C0.160428 35.9441 0.16795 36.6502 0.506003 37.2187C0.862154 37.824 1.51525 38.1922 2.21749 38.1834H36.4095C37.1116 38.1919 37.7644 37.8239 38.1204 37.2187C38.4585 36.6501 38.466 35.9441 38.1401 35.3686Z" fill="#FD9C45"/>
<path d="M31.3888 30.5569H28.8467C28.7212 30.5571 28.5985 30.5942 28.4939 30.6637L26.5873 31.9348C26.2953 32.1296 26.2165 32.5243 26.4113 32.8163C26.6061 33.1083 27.0007 33.1871 27.2928 32.9924L29.0373 31.8281H31.3888C31.7398 31.8281 32.0243 31.5435 32.0243 31.1925C32.0243 30.8414 31.7398 30.5569 31.3888 30.5569Z" fill="#FD9C45"/>
<path d="M27.5756 35.0056C27.5756 35.3567 27.8601 35.6412 28.2111 35.6412H33.2954C33.6464 35.6412 33.9309 35.3567 33.9309 35.0056C33.9309 34.6546 33.6464 34.3701 33.2954 34.3701H28.2111C27.8601 34.3701 27.5756 34.6546 27.5756 35.0056Z" fill="#FD9C45"/>
<path d="M11.687 33.099C11.9672 33.0994 12.2145 32.9162 12.2959 32.6481C12.3773 32.3799 12.2735 32.0901 12.0404 31.9347L10.1338 30.6636C10.0291 30.594 9.90609 30.5569 9.78038 30.5568H7.23824C6.88723 30.5568 6.60272 30.8414 6.60272 31.1923C6.60272 31.5433 6.8873 31.8278 7.23824 31.8278H9.58971L11.3362 32.9921C11.4401 33.0616 11.5622 33.0987 11.687 33.099Z" fill="#FD9C45"/>
<path d="M5.33162 34.3701C4.98061 34.3701 4.6961 34.6546 4.6961 35.0056C4.6961 35.3567 4.98061 35.6412 5.33162 35.6412H10.416C10.767 35.6412 11.0515 35.3567 11.0515 35.0056C11.0515 34.6546 10.767 34.3701 10.416 34.3701H5.33162Z" fill="#FD9C45"/>
</svg>
