<svg width="61" height="62" viewBox="0 0 61 62" fill="none" xmlns="http://www.w3.org/2000/svg">
<circle cx="30.5" cy="30.5605" r="30.5" fill="#D9D9D9"/>
<path d="M35.0858 36.3945C33.7108 35.6606 34.4447 34.2856 35.0858 33.6445C35.9108 32.8195 36.9197 29.9784 36.9197 29.9784C38.5697 29.2445 38.7536 28.0534 38.9358 27.2284C39.6697 24.8445 37.8358 24.4784 37.8358 24.4784C37.8358 24.4784 39.3019 20.5373 38.1108 17.5123C36.5519 13.5713 30.2269 12.1034 29.1269 15.7713C21.6108 14.1196 23.168 24.4767 23.168 24.4767C23.168 24.4767 21.334 24.8428 22.068 27.2267C22.2519 28.0517 22.4341 29.2428 24.084 29.9767C24.084 29.9767 25.093 32.8178 25.918 33.6428C26.559 34.2838 27.293 35.6588 25.918 36.3928C23.168 37.8588 14.918 38.2267 14.918 44.6428H46.084C46.0858 38.2267 37.8358 37.8606 35.0858 36.3945Z" fill="black"/>
</svg>
