<svg width="55" height="80" viewBox="0 0 55 80" fill="none" xmlns="http://www.w3.org/2000/svg">
<path d="M53.5396 51.4333C51.0366 47.3162 49.767 42.9896 49.767 38.5744C49.767 37.936 49.2498 37.4188 48.6114 37.4188H48.364L53.3893 27.1546C53.8419 26.2302 53.907 25.1851 53.5728 24.2124C53.2385 23.2396 52.5451 22.4552 51.6201 22.0038L46.4717 19.4924C44.5643 18.5619 42.2526 19.3554 41.3191 21.2622L33.4094 37.4188H30.4502C30.443 37.4188 30.4352 37.4194 30.4279 37.4194C30.4201 37.4194 30.4128 37.4188 30.4056 37.4188H29.9844V30.3703C29.9844 28.8792 27.6727 28.8792 27.6727 30.3703V37.4188H25.6693V30.3703C25.6693 28.8792 23.3576 28.8792 23.3576 30.3703V37.4188H18.5109L15.1776 27.6229C15.1107 27.4262 14.987 27.2445 14.827 27.1106L5.97847 19.6752C5.66711 19.4139 5.24109 19.3349 4.85731 19.4677C4.47294 19.6004 4.18691 19.9257 4.10364 20.3233L1.70021 31.8269C1.65858 32.0273 1.67125 32.2427 1.73702 32.4358L3.43264 37.4188H2.35794C1.83297 37.4188 1.37376 37.7724 1.2398 38.2799C1.19756 38.4404 0.203727 42.2698 0.188642 47.3596C0.168729 54.1722 1.95003 59.9802 5.33885 64.1552C6.28803 65.3241 8.06872 63.8499 7.13342 62.6986C0.77215 54.8613 2.6144 43.0023 3.28299 39.7299H29.2042C28.8717 43.9207 26.7832 46.373 25.6241 47.4278C24.1747 46.0037 22.3101 45.355 20.9276 45.355C17.359 45.355 14.4553 48.2587 14.4553 51.8279C14.4553 54.8384 16.5209 57.3752 19.3099 58.0957C16.6289 63.4336 12.0332 65.8895 10.8915 66.4338C10.2718 66.4549 9.7752 66.9624 9.7752 67.5875V78.4799C9.7752 79.1183 10.2929 79.636 10.9308 79.636H29.1173C29.7557 79.636 30.2734 79.1183 30.2734 78.4799V73.3556H33.238C42.5362 73.3556 50.1586 66.0434 50.657 56.8671C51.9019 56.8201 53.0007 56.1436 53.6108 55.0436C54.245 53.8995 54.2184 52.5496 53.5396 51.4333ZM43.3948 22.279C43.769 21.5151 44.6946 21.1977 45.4585 21.57L50.6069 24.0814C51.3612 24.4501 51.6822 25.3842 51.3129 26.1379L50.406 27.9898L48.3761 26.9996C47.0359 26.3461 46.0221 28.4236 47.3623 29.0771L49.3898 30.0661L47.6212 33.6788L44.3253 32.0713C42.9857 31.4172 41.972 33.4954 43.3122 34.1483L46.605 35.7552L45.7904 37.4188H35.983L43.3948 22.279ZM12.1104 37.4188L10.5953 32.8461L13.5665 30.0637L16.0689 37.4188H12.1104ZM5.49091 24.9859L7.79236 24.2196L12.3428 28.0429L8.86343 31.3007L4.23458 30.9972L5.49091 24.9859ZM4.48319 33.3301L8.40604 33.5877L9.67503 37.4188H5.87408L4.48319 33.3301ZM51.5887 53.923C51.4843 54.1113 51.1723 54.5506 50.5345 54.5584H49.5274C48.7949 54.5584 48.3284 55.2276 48.3713 55.9107C48.3713 64.2554 41.5822 71.0439 33.238 71.0439H29.1173C28.4789 71.0439 27.9617 71.5616 27.9617 72.2001V77.3243H12.0869V68.4269C13.896 67.5404 19.3515 64.3906 22.0778 57.5737C22.3155 56.9812 22.0271 56.309 21.4339 56.0718C21.2776 56.0091 21.1159 55.9843 20.9578 55.9903C20.9476 55.9903 20.9379 55.9891 20.9276 55.9891C18.6334 55.9891 16.767 54.1222 16.767 51.8279C16.767 49.5337 18.6334 47.6668 20.9276 47.6668C21.9885 47.6668 23.57 48.3643 24.5391 49.6973C24.8982 50.1903 25.5776 50.3206 26.0923 49.9941C26.3041 49.8602 31.0404 46.7743 31.5189 39.7306H47.4818C47.684 44.1717 49.0549 48.5067 51.5646 52.6341C51.8065 53.0324 51.8156 53.5139 51.5887 53.923Z" fill="#71018D"/>
<path d="M39.3869 43.3028C37.0505 43.3028 35.1497 45.2042 35.1497 47.5406C35.1497 49.0317 37.4614 49.0317 37.4614 47.5406C37.4614 46.4786 38.3249 45.6145 39.3869 45.6145C40.4495 45.6145 41.313 46.4786 41.313 47.5406C41.313 49.0317 43.6247 49.0317 43.6247 47.5406C43.6247 45.2042 41.724 43.3028 39.3869 43.3028Z" fill="#71018D"/>
<path d="M7.1123 10.9184H8.3107V12.1168C8.3107 13.6078 10.6224 13.6078 10.6224 12.1168V10.9184H11.8208C13.3119 10.9184 13.3119 8.60667 11.8208 8.60667H10.6224V7.40827C10.6224 5.91722 8.3107 5.91722 8.3107 7.40827V8.60667H7.1123C5.62125 8.60667 5.62125 10.9184 7.1123 10.9184Z" fill="#71018D"/>
<path d="M37.2224 5.21664H38.4208V6.41444C38.4208 7.90549 40.7325 7.90549 40.7325 6.41444V5.21664H41.9315C43.422 5.21664 43.422 2.90494 41.9315 2.90494H40.7325V1.70594C40.7325 0.214882 38.4208 0.214882 38.4208 1.70594V2.90433H37.2224C35.732 2.90494 35.732 5.21664 37.2224 5.21664Z" fill="#71018D"/>
<path d="M45.2365 13.8468H46.4349V15.0446C46.4349 16.5356 48.7466 16.5356 48.7466 15.0446V13.8468H49.945C51.436 13.8468 51.436 11.5351 49.945 11.5351H48.7466V10.3361C48.7466 8.84562 46.4349 8.84562 46.4349 10.3361V11.5351H45.2365C43.7454 11.5351 43.7454 13.8468 45.2365 13.8468Z" fill="#71018D"/>
<path d="M18.2038 29.3167C18.6407 29.4736 19.197 29.3185 19.4903 28.9571C19.5386 28.8979 20.638 27.5414 21.8026 25.9743C23.0831 27.1788 24.769 27.8534 26.5708 27.8534H26.5889C28.3956 27.8492 30.0936 27.1655 31.3892 25.9514C32.5339 27.5088 33.614 28.8545 33.661 28.9136C34.32 29.7331 35.7121 29.2576 35.7181 28.1955L35.7573 20.9859C35.7628 20.0518 35.4007 19.1714 34.7382 18.5064C34.4183 18.186 34.0466 17.9362 33.6423 17.76L33.6695 12.8433C33.6936 8.42383 31.4887 4.15221 27.4603 0.81589C26.312 -0.135706 24.8378 1.64499 25.9855 2.59598C28.6858 4.83287 30.4388 7.5193 31.082 10.3439L22.2696 10.365C22.5792 9.06527 23.1241 7.79325 23.9025 6.56167C24.699 5.30112 22.7451 4.06652 21.948 5.32647C20.4401 7.71179 19.6683 10.2462 19.6544 12.8596L19.6273 17.7877C18.3697 18.3368 17.4845 19.5763 17.4767 21.013L17.4374 28.2227C17.4344 28.7127 17.7416 29.152 18.2038 29.3167ZM19.7884 21.0257C19.792 20.3505 20.3671 19.8001 21.0694 19.7983H21.0731C21.4176 19.7983 21.7374 19.9287 21.974 20.1664C22.184 20.377 22.3046 20.6504 22.3179 20.9412C22.1592 21.4819 21.0797 23.0797 19.7673 24.8375L19.7884 21.0257ZM33.4251 24.8188C32.1332 23.0695 31.0718 21.4777 30.9173 20.9376C30.9535 20.2907 31.5147 19.7724 32.1965 19.7706H32.1996C32.5441 19.7706 32.8645 19.9015 33.1011 20.1393C33.3249 20.3637 33.4474 20.6606 33.4462 20.9738L33.4251 24.8188ZM31.356 12.655C31.3566 12.7136 31.3578 12.7721 31.3578 12.8312L31.3318 17.5651C29.7756 17.9488 28.6128 19.3379 28.6038 20.9859C28.6014 21.4288 28.7311 22.0762 30.0375 24.0356C29.1426 24.9932 27.9056 25.5387 26.5829 25.5417C26.5787 25.5417 26.5751 25.5417 26.5708 25.5417C25.2596 25.5417 24.0407 25.0083 23.1639 24.0669C24.4914 22.1022 24.6278 21.4553 24.6308 21.0136C24.6357 20.0789 24.2736 19.1985 23.6111 18.5342C23.1452 18.0665 22.5689 17.7485 21.9402 17.5946L21.9661 12.8723C21.9661 12.8071 21.9691 12.7425 21.9704 12.678L31.356 12.655Z" fill="#71018D"/>
<path d="M20.6193 50.6102C19.1319 50.6102 19.1294 52.9219 20.6193 52.9219C22.1067 52.9219 22.1091 50.6102 20.6193 50.6102Z" fill="#71018D"/>
</svg>
