<svg width="27" height="25" viewBox="0 0 27 25" fill="none" xmlns="http://www.w3.org/2000/svg">
<path d="M1.02707 23.1587C0.0404564 22.2655 0.040457 20.8172 1.02707 19.924L21.6396 1.26198C22.6262 0.368728 24.2258 0.368729 25.2124 1.26198C26.199 2.15523 26.199 3.60347 25.2124 4.49672L4.5999 23.1587C3.61329 24.052 2.01368 24.052 1.02707 23.1587Z" fill="white"/>
<path d="M25.5936 23.5168C26.5802 22.6235 26.5802 21.1753 25.5936 20.2821L4.98106 1.62006C3.99445 0.726808 2.39484 0.726809 1.40823 1.62006C0.421622 2.51331 0.421622 3.96155 1.40823 4.8548L22.0207 23.5168C23.0073 24.41 24.6069 24.41 25.5936 23.5168Z" fill="white"/>
</svg>
