<svg width="113" height="126" viewBox="0 0 113 126" fill="none" xmlns="http://www.w3.org/2000/svg">
<path d="M0.14502 32.1294V98.7961C0.14502 100.454 0.8035 102.043 1.9756 103.215C3.14771 104.388 4.73742 105.046 6.39502 105.046H16.8117V120.234C16.8051 121.31 17.1097 122.365 17.6889 123.273C18.2681 124.18 19.0971 124.901 20.0763 125.348C21.0568 125.805 22.1483 125.969 23.2198 125.821C24.2914 125.674 25.2976 125.22 26.1179 124.515L48.8325 105.046H106.395C108.053 105.046 109.642 104.388 110.814 103.215C111.987 102.043 112.645 100.454 112.645 98.7961V32.1294C112.645 30.4718 111.987 28.8821 110.814 27.71C109.642 26.5379 108.053 25.8794 106.395 25.8794H79.0034C78.2721 25.1454 77.503 24.45 76.6992 23.7961H77.2492C77.8017 23.7961 78.3316 23.5766 78.7223 23.1859C79.113 22.7952 79.3325 22.2653 79.3325 21.7127C79.3325 21.1602 79.113 20.6303 78.7223 20.2396C78.3316 19.8489 77.8017 19.6294 77.2492 19.6294H73.1471L76.9096 10.8523C77.1808 10.2187 77.2906 9.52767 77.2292 8.84118C77.1677 8.15469 76.9369 7.49417 76.5574 6.91879C76.178 6.34341 75.6617 5.87115 75.0549 5.54432C74.4481 5.21748 73.7697 5.04629 73.0804 5.04606H63.4784L63.0367 3.72315C62.7592 2.89429 62.228 2.1737 61.5184 1.66335C60.8088 1.153 59.9566 0.878747 59.0825 0.879396H54.3346C53.6403 0.8795 52.957 1.0531 52.3469 1.38442C51.7368 1.71574 51.2191 2.19428 50.8409 2.77654C50.4627 3.35881 50.236 4.02635 50.1815 4.7185C50.1269 5.41065 50.2461 6.10547 50.5284 6.73981L56.2575 19.6294H52.2492C51.6967 19.6294 51.1668 19.8489 50.7761 20.2396C50.3853 20.6303 50.1659 21.1602 50.1659 21.7127C50.1659 22.2653 50.3853 22.7952 50.7761 23.1859C51.1668 23.5766 51.6967 23.7961 52.2492 23.7961H52.8742C52.0707 24.451 51.3009 25.1464 50.5679 25.8794H6.39502C4.73742 25.8794 3.14771 26.5379 1.9756 27.71C0.8035 28.8821 0.14502 30.4718 0.14502 32.1294ZM87.645 55.8648C87.6274 57.8969 87.3251 59.9166 86.7471 61.8648L82.3721 64.5732C82.0702 63.5662 81.4892 62.6652 80.6965 61.9747C79.9039 61.2841 78.9318 60.8321 77.8929 60.6711L41.8242 55.3586C42.02 43.5877 50.8742 26.9398 61.1867 23.8169L68.3159 23.7961C78.8284 26.9211 87.7054 43.9294 87.645 55.8648ZM40.5888 59.3877L77.2554 64.7877C77.5815 64.841 77.8783 65.0074 78.0939 65.2577C78.3095 65.508 78.4301 65.8262 78.4346 66.1565C78.4398 66.5163 78.3028 66.8637 78.0534 67.1232C77.7833 67.3878 77.421 67.5372 77.0429 67.5398H45.9784C45.4258 67.5398 44.8959 67.7593 44.5052 68.15C44.1145 68.5407 43.895 69.0706 43.895 69.6232C43.895 70.1757 44.1145 70.7056 44.5052 71.0963C44.8959 71.487 45.4258 71.7065 45.9784 71.7065H51.7721L62.295 78.8273C63.0053 79.3052 63.8384 79.5679 64.6943 79.5837C65.5502 79.5996 66.3925 79.3681 67.12 78.9169L98.0825 59.7419C98.4019 59.567 98.7771 59.5242 99.1276 59.6228C99.4781 59.7213 99.7761 59.9533 99.9575 60.269C100.077 60.4808 100.142 60.7194 100.145 60.9627C100.144 61.1756 100.095 61.3855 100.002 61.5769C99.909 61.7684 99.7742 61.9365 99.6075 62.069L65.3263 89.5523C64.7822 89.9736 64.1461 90.26 63.47 90.3882C62.794 90.5164 62.0972 90.4827 61.4367 90.2898L28.6867 79.8148C28.2144 79.6684 27.7228 79.5933 27.2284 79.5919V63.319L34.4367 59.9482C36.4076 59.2469 38.5236 59.0542 40.5888 59.3877ZM70.8492 71.7127L64.92 75.3857C64.8764 75.4132 64.8258 75.4279 64.7742 75.4279C64.7226 75.4279 64.672 75.4132 64.6284 75.3857L59.2075 71.7127H70.8492ZM54.3346 5.04606H59.0825L60.0013 7.78981L61.3742 11.944C61.5107 12.3613 61.7756 12.7248 62.1311 12.9825C62.4865 13.2403 62.9143 13.3792 63.3534 13.3794C63.575 13.3796 63.7953 13.3437 64.0054 13.2731C64.5296 13.0999 64.9635 12.7257 65.2119 12.2327C65.4603 11.7397 65.503 11.1683 65.3304 10.644L64.8575 9.21273H73.0825L68.6159 19.6294H60.8159L54.3346 5.04606ZM4.31169 32.1294C4.31169 31.5769 4.53118 31.047 4.92188 30.6563C5.31258 30.2656 5.84249 30.0461 6.39502 30.0461H46.9742C41.4995 37.3213 38.2661 46.0356 37.67 55.1211C36.0255 55.2108 34.4029 55.54 32.8534 56.0981L26.7596 58.9419C26.2919 57.7917 25.4923 56.8069 24.4626 56.1131C23.433 55.4192 22.22 55.0477 20.9784 55.0461H14.7284C13.0708 55.0461 11.481 55.7045 10.3089 56.8766C9.13683 58.0488 8.47835 59.6385 8.47835 61.2961V82.1294C8.47835 83.787 9.13683 85.3767 10.3089 86.5488C11.481 87.7209 13.0708 88.3794 14.7284 88.3794H20.9784C22.3407 88.3733 23.6638 87.9223 24.7462 87.0949C25.8285 86.2675 26.6109 85.1091 26.9742 83.7961C27.127 83.7667 27.2839 83.7667 27.4367 83.7961L60.2075 94.269C61.5156 94.6577 62.8977 94.7282 64.2385 94.4746C65.5794 94.2209 66.8402 93.6504 67.9159 92.8106L102.21 65.3106C103.281 64.429 103.985 63.1787 104.182 61.8051C104.379 60.4315 104.055 59.0338 103.275 57.8864C102.494 56.739 101.313 55.9248 99.9633 55.6036C98.6133 55.2824 97.192 55.4773 95.9784 56.1502L91.6034 58.8586C91.7284 57.8744 91.798 56.8839 91.8117 55.8919C91.4176 46.543 88.2023 37.5325 82.5888 30.0461H106.395C106.948 30.0461 107.477 30.2656 107.868 30.6563C108.259 31.047 108.478 31.5769 108.478 32.1294V98.7961C108.478 99.3486 108.259 99.8785 107.868 100.269C107.477 100.66 106.948 100.879 106.395 100.879H48.0617C47.5642 100.879 47.0831 101.058 46.7054 101.381L23.4242 121.352C23.208 121.54 22.9414 121.66 22.6576 121.697C22.3738 121.734 22.0855 121.686 21.8284 121.561C21.5722 121.447 21.355 121.261 21.2039 121.025C21.0528 120.789 20.9743 120.514 20.9784 120.234V102.963C20.9784 102.41 20.7589 101.88 20.3682 101.49C19.9775 101.099 19.4476 100.879 18.895 100.879H6.39502C5.84249 100.879 5.31258 100.66 4.92188 100.269C4.53118 99.8785 4.31169 99.3486 4.31169 98.7961V32.1294ZM23.0617 63.3794H18.895C18.3425 63.3794 17.8126 63.5989 17.4219 63.9896C17.0312 64.3803 16.8117 64.9102 16.8117 65.4627C16.8117 66.0153 17.0312 66.5452 17.4219 66.9359C17.8126 67.3266 18.3425 67.5461 18.895 67.5461H23.0617V75.8794H18.895C18.3425 75.8794 17.8126 76.0989 17.4219 76.4896C17.0312 76.8803 16.8117 77.4102 16.8117 77.9627C16.8117 78.5153 17.0312 79.0452 17.4219 79.4359C17.8126 79.8266 18.3425 80.0461 18.895 80.0461H23.0617V82.1294C23.0617 82.6819 22.8422 83.2118 22.4515 83.6025C22.0608 83.9932 21.5309 84.2127 20.9784 84.2127H14.7284C14.1758 84.2127 13.6459 83.9932 13.2552 83.6025C12.8645 83.2118 12.645 82.6819 12.645 82.1294V61.2961C12.645 60.7435 12.8645 60.2136 13.2552 59.8229C13.6459 59.4322 14.1758 59.2127 14.7284 59.2127H20.9784C21.5309 59.2127 22.0608 59.4322 22.4515 59.8229C22.8422 60.2136 23.0617 60.7435 23.0617 61.2961V63.3794Z" fill="#9900CC"/>
<path d="M64.7492 40.4627C64.3836 40.4624 64.0245 40.3658 63.708 40.1827C63.3915 39.9996 63.1288 39.7365 62.9462 39.4197C62.7637 39.103 62.6677 38.7437 62.6679 38.3781C62.6681 38.0125 62.7645 37.6534 62.9475 37.3369C63.1305 37.0203 63.3935 36.7575 63.7102 36.5748C64.0269 36.3921 64.3861 36.296 64.7517 36.2961C65.1173 36.2962 65.4765 36.3925 65.7931 36.5753C66.1097 36.7581 66.3726 37.0211 66.5554 37.3377C66.6857 37.5867 66.8649 37.8068 67.0824 37.9846C67.2999 38.1625 67.5511 38.2946 67.821 38.3729C68.0908 38.4512 68.3737 38.4741 68.6527 38.4402C68.9316 38.4063 69.2008 38.3164 69.444 38.1757C69.6873 38.0351 69.8996 37.8468 70.0682 37.622C70.2367 37.3972 70.3581 37.1406 70.425 36.8677C70.4918 36.5948 70.5028 36.3112 70.4572 36.0339C70.4116 35.7567 70.3103 35.4915 70.1596 35.2544C69.4045 33.9851 68.2232 33.0253 66.8263 32.5461V32.1294C66.8263 31.5769 66.6068 31.047 66.2161 30.6563C65.8254 30.2656 65.2955 30.0461 64.7429 30.0461C64.1904 30.0461 63.6605 30.2656 63.2698 30.6563C62.8791 31.047 62.6596 31.5769 62.6596 32.1294V32.5127C61.2707 33.0019 60.0997 33.9669 59.3541 35.2368C58.6085 36.5066 58.3363 37.9993 58.5859 39.4506C58.8354 40.9019 59.5905 42.218 60.7174 43.1659C61.8444 44.1137 63.2704 44.6322 64.7429 44.6294C65.1086 44.6298 65.4676 44.7263 65.7841 44.9094C66.1006 45.0925 66.3633 45.3556 66.5459 45.6724C66.7285 45.9891 66.8245 46.3484 66.8242 46.714C66.824 47.0796 66.7276 47.4387 66.5446 47.7553C66.3617 48.0718 66.0986 48.3346 65.7819 48.5173C65.4652 48.7 65.106 48.7962 64.7404 48.7961C64.3748 48.796 64.0156 48.6997 63.699 48.5168C63.3824 48.334 63.1195 48.071 62.9367 47.7544C62.6517 47.2938 62.1985 46.9622 61.6733 46.8301C61.148 46.6979 60.5919 46.7756 60.1229 47.0465C59.6538 47.3175 59.3088 47.7604 59.1609 48.2815C59.0129 48.8026 59.0738 49.3608 59.3304 49.8377C60.0858 51.1068 61.267 52.0665 62.6638 52.5461V52.9627C62.6638 53.5153 62.8833 54.0452 63.274 54.4359C63.6647 54.8266 64.1946 55.0461 64.7471 55.0461C65.2996 55.0461 65.8295 54.8266 66.2202 54.4359C66.6109 54.0452 66.8304 53.5153 66.8304 52.9627V52.5794C68.2194 52.0902 69.3903 51.1252 70.1359 49.8554C70.8815 48.5855 71.1537 47.0928 70.9042 45.6415C70.6546 44.1903 69.8995 42.8741 68.7726 41.9263C67.6457 40.9784 66.2197 40.4599 64.7471 40.4627H64.7492Z" fill="#9900CC"/>
</svg>
