<svg width="62" height="58" viewBox="0 0 62 58" fill="none" xmlns="http://www.w3.org/2000/svg">
<path d="M61.3844 38.6127L56.0172 33.2455C55.4349 32.6632 55.0314 31.9225 54.8558 31.1263L59.515 26.467C59.5827 26.3993 59.6374 26.3232 59.6789 26.2424C60.9706 24.5351 60.8385 22.0861 59.2824 20.5306C58.4587 19.7068 57.364 19.2533 56.1989 19.2533C56.1489 19.2533 56.0989 19.2552 56.0494 19.2571C56.402 17.8229 56.0195 16.2435 54.9015 15.1251C54.0367 14.2602 52.8962 13.8362 51.7605 13.8511C52.1757 12.3801 51.8063 10.732 50.6509 9.57667C49.9112 8.83695 48.9693 8.41945 48.0012 8.32325C48.3229 7.70821 48.4943 7.02033 48.4943 6.30629C48.4943 5.14113 48.0409 4.04602 47.2171 3.2227C46.3933 2.39892 45.2982 1.94546 44.1335 1.94546C42.9688 1.94546 41.8737 2.39892 41.0499 3.2227L39.6167 4.65545L36.4075 1.58727C35.4086 0.632264 34.0977 0.105957 32.7159 0.105957H25.1183C23.834 0.105957 22.7889 1.1511 22.7889 2.43534C22.7889 3.11436 22.8888 3.77049 23.0724 4.3916C21.8115 4.26224 20.5048 4.6788 19.5405 5.64315C18.7167 6.46693 18.2632 7.56204 18.2632 8.72674C18.2632 9.26518 18.3613 9.78869 18.5472 10.2776C17.4558 10.3257 16.4363 10.7727 15.6592 11.5502C14.4946 12.7144 14.128 14.3793 14.5585 15.8592C13.4317 15.8513 12.302 16.2753 11.4437 17.1336C10.1674 18.4099 9.84933 20.2873 10.4891 21.8629C9.45658 21.9213 8.44133 22.3435 7.65397 23.1303C6.01995 24.7648 5.95737 27.3833 7.46437 29.0939C7.40366 29.5833 7.35323 30.0737 7.314 30.5561C7.23181 31.5676 6.78909 32.5231 6.06618 33.2455L0.698976 38.6127C0.530857 38.7808 0.436523 39.0087 0.436523 39.2469C0.436523 39.4846 0.530857 39.7125 0.698976 39.8806L4.09825 43.2799C4.27338 43.455 4.50314 43.5424 4.73244 43.5424C4.96173 43.5424 5.19103 43.455 5.36615 43.2799C5.7164 42.9296 5.7164 42.3622 5.36615 42.0125L2.60059 39.2469L7.33408 34.5134C8.34793 33.4996 8.97231 32.1607 9.097 30.7401L9.50188 31.1454C10.3518 31.9954 11.4689 32.4203 12.5855 32.4203C13.7021 32.4203 14.8191 31.9954 15.6691 31.145C16.5568 30.2577 16.9799 29.0794 16.9407 27.9143C17.2802 27.9979 17.6323 28.0413 17.991 28.0413C19.1557 28.0413 20.2508 27.5878 21.0746 26.7641C21.9385 25.8996 22.3625 24.7606 22.3485 23.6258C22.731 23.7337 23.1307 23.7907 23.5394 23.7907C24.7041 23.7907 25.7992 23.3372 26.623 22.5134C27.3631 21.7733 27.7811 20.8304 27.8764 19.8618C28.5059 20.1897 29.1994 20.3536 29.8929 20.3536C31.0095 20.3536 32.1261 19.9286 32.976 19.0787H32.9765C34.5204 17.5348 34.6619 15.1115 33.4019 13.4061L42.3178 4.49013C42.8026 4.00492 43.4475 3.7378 44.1335 3.7378C44.8195 3.7378 45.4644 4.00492 45.9492 4.49013C46.9504 5.49137 46.9504 7.12073 45.9492 8.12197L36.8726 17.1985C36.5462 17.5245 36.5247 18.0639 36.825 18.4146C37.1603 18.8059 37.7758 18.8307 38.1405 18.466L45.8623 10.7442C46.8701 9.84706 48.4177 9.87882 49.383 10.8441C50.3843 11.8453 50.3843 13.4747 49.383 14.4759L42.8212 21.0377C42.5994 21.26 42.3762 21.4804 42.1558 21.7037C41.7341 22.1296 41.8027 22.8562 42.35 23.1476C42.6938 23.3307 43.1295 23.2648 43.405 22.9898L50.0027 16.392C50.4875 15.9073 51.1324 15.6402 51.818 15.6402C52.5035 15.6402 53.1484 15.9073 53.6336 16.3925C54.6349 17.3937 54.6349 19.0226 53.6336 20.0239L47.7205 25.937C47.3941 26.2634 47.3721 26.8028 47.6729 27.1535C48.0082 27.5449 48.6237 27.5692 48.9884 27.2049L54.5121 21.6808C54.98 21.2712 55.5717 21.0457 56.1989 21.0457C56.8849 21.0457 57.5298 21.3128 58.0145 21.7975C59.0163 22.7988 59.0163 24.4281 58.0145 25.4294L53.7177 29.7267H53.7172C53.7046 29.7393 53.693 29.7519 53.6813 29.765L50.7607 32.6856C50.4291 33.0172 50.4132 33.5649 50.7247 33.9152C51.0624 34.2953 51.6685 34.3131 52.0286 33.9535L53.4333 32.5488C53.7392 33.2791 54.1889 33.9526 54.7493 34.513L59.4828 39.2464L48.8661 49.8632C48.5158 50.2134 48.5158 50.7808 48.8661 51.1311C49.0412 51.3062 49.2705 51.3935 49.4998 51.3935C49.7291 51.3935 49.9588 51.3062 50.134 51.1311L61.3844 39.8802C61.5525 39.712 61.6473 39.4841 61.6473 39.2464C61.6469 39.0087 61.5525 38.7808 61.3844 38.6127ZM14.4016 29.8775C13.4004 30.8788 11.771 30.8788 10.7698 29.8775L8.92187 28.0296C7.92063 27.0284 7.92063 25.3995 8.92187 24.3982C9.88389 23.4362 11.4226 23.4012 12.4304 24.2866L14.5142 26.3704C15.3982 27.3777 15.3627 28.916 14.4016 29.8775ZM19.8067 25.4962C19.3219 25.9809 18.677 26.248 17.991 26.248C17.3054 26.248 16.6605 25.9809 16.1753 25.4962L15.8479 25.1683C15.7905 25.1039 15.7312 25.0399 15.6691 24.9778C15.641 24.9498 15.6111 24.925 15.5808 24.9012L13.8982 23.2186C13.8744 23.1883 13.8496 23.1584 13.8216 23.1303C13.76 23.0687 13.6965 23.0099 13.632 22.9524L12.712 22.0324C11.7108 21.0312 11.7108 19.4023 12.712 18.4011C13.7133 17.3998 15.3422 17.3998 16.3434 18.4011C16.3439 18.4011 16.3439 18.4015 16.3439 18.4015L19.8071 21.8643C20.8079 22.866 20.8079 24.4949 19.8067 25.4962ZM25.3551 21.246C24.3543 22.2473 22.7249 22.2473 21.7237 21.246L16.9271 16.4495C15.9254 15.4482 15.9254 13.8189 16.9271 12.8176C17.4119 12.3324 18.0568 12.0653 18.7428 12.0653C19.3775 12.0653 19.9752 12.2965 20.445 12.7149L25.4531 17.723C26.3521 18.7303 26.3213 20.2793 25.3551 21.246ZM31.7086 17.8108C30.7073 18.812 29.078 18.812 28.0767 17.8108L26.7925 16.5265C26.7378 16.4654 26.6818 16.4051 26.623 16.3467C26.5963 16.3201 26.5683 16.2963 26.5398 16.2739L21.8988 11.6333C21.8764 11.6044 21.8526 11.5764 21.8264 11.5502C21.7676 11.4914 21.7073 11.4353 21.6462 11.3807L20.8079 10.5424C20.3232 10.0572 20.056 9.41229 20.056 8.72674C20.056 8.04072 20.3232 7.39579 20.8084 6.91058C21.309 6.41043 21.9665 6.15965 22.6241 6.15965C23.2816 6.15965 23.9391 6.40996 24.4397 6.91058L24.5602 7.03153C24.7059 7.19171 24.8591 7.34536 25.0198 7.49059L31.7081 14.1794C32.7098 15.1806 32.7098 16.8095 31.7086 17.8108ZM32.1686 12.1036L29.367 9.30208L31.3387 9.61917C31.5787 10.1422 32.0102 10.9851 32.5772 11.6945L32.1686 12.1036ZM33.8554 10.4168C33.3566 9.73732 32.948 8.85423 32.8013 8.4839C32.6851 8.18875 32.4221 7.9772 32.1092 7.92677L28.8104 7.39719C27.8115 7.23655 26.9246 6.79477 26.2241 6.15918L25.8884 5.82388C25.0711 4.92724 24.5817 3.73546 24.5817 2.43487C24.5817 2.13927 24.8227 1.89876 25.1183 1.89876H32.7159C33.634 1.89876 34.5049 2.24808 35.1685 2.88273L38.3488 5.92335L33.8554 10.4168Z" fill="#71018D"/>
<path d="M46.3303 52.399L43.6646 55.0646L38.9606 50.3605C37.8374 49.2374 36.4005 48.437 34.8566 48.0643C39.8619 45.9833 43.3555 42.6214 43.7436 42.238C43.745 42.2366 43.7459 42.2357 43.7468 42.2348C43.7576 42.2245 43.7664 42.2156 43.772 42.21L49.4928 36.4893C49.843 36.139 49.843 35.5716 49.4928 35.2214C49.143 34.8711 48.5751 34.8711 48.2249 35.2214L42.5042 40.9421C42.5023 40.944 42.4948 40.9514 42.4836 40.9627C42.1908 41.2475 38.9344 44.3549 34.3648 46.3159C33.2431 46.7969 32.0826 47.1919 30.8932 47.4689C30.1189 47.6496 29.3231 47.7827 28.5115 47.8541C26.4745 48.0325 24.5607 48.9226 23.1228 50.3605L18.4187 55.0646L7.90195 44.5478C7.5517 44.1975 6.9843 44.1975 6.63405 44.5478C6.28427 44.8976 6.28427 45.4655 6.63405 45.8152L17.785 56.9662C18.1301 57.3113 18.7078 57.3113 19.0529 56.9662L24.3907 51.6284C25.5311 50.488 27.0503 49.7819 28.6684 49.6399C29.4805 49.5685 30.2753 49.4424 31.0492 49.2738C31.8435 49.4471 32.6388 49.5718 33.4154 49.6399C35.0336 49.7814 36.5527 50.488 37.6931 51.6284L43.0309 56.9662C43.376 57.3113 43.9537 57.3113 44.2988 56.9662L47.5982 53.6664C47.9484 53.3166 47.9484 52.7487 47.5982 52.399C47.2479 52.0492 46.6805 52.0492 46.3303 52.399Z" fill="#71018D"/>
</svg>
