<svg width="67" height="72" viewBox="0 0 67 72" fill="none" xmlns="http://www.w3.org/2000/svg">
<path d="M7.45097 32.6204L3.73985 35.6955C3.3004 36.0596 3.23901 36.7117 3.6036 37.1517C3.96766 37.5912 4.61984 37.652 5.05983 37.288L8.77041 34.2129C9.20986 33.8483 9.27126 33.1967 8.90666 32.7567C8.5426 32.3167 7.89043 32.2558 7.45097 32.6204Z" fill="#71018D"/>
<path d="M8.77041 13.3809L5.05929 10.3058C4.61984 9.94118 3.9682 10.002 3.6036 10.442C3.23901 10.8815 3.3004 11.5337 3.73985 11.8982L7.45043 14.9733C7.89043 15.3379 8.5426 15.276 8.90666 14.8371C9.27126 14.3971 9.20986 13.7449 8.77041 13.3809Z" fill="#71018D"/>
<path d="M0.128906 23.7969C0.128906 24.3677 0.591517 24.8309 1.16291 24.8309H5.59838C6.16977 24.8309 6.63238 24.3677 6.63238 23.7969C6.63238 23.2255 6.16977 22.7629 5.59838 22.7629H1.16291C0.591517 22.7629 0.128906 23.2255 0.128906 23.7969Z" fill="#71018D"/>
<path d="M57.365 32.7567C57.0009 33.1967 57.0618 33.8483 57.5018 34.2129L61.2124 37.288C61.6524 37.6526 62.3045 37.5906 62.6686 37.1517C63.0326 36.7117 62.9718 36.0601 62.5318 35.6955L58.8212 32.6204C58.3818 32.2564 57.7296 32.3167 57.365 32.7567Z" fill="#71018D"/>
<path d="M62.6686 10.442C62.304 10.0026 61.6518 9.94118 61.2124 10.3058L57.5018 13.3809C57.0618 13.7449 57.0009 14.3971 57.365 14.8371C57.7296 15.2765 58.3818 15.3374 58.8212 14.9733L62.5318 11.8982C62.9718 11.5337 63.0326 10.882 62.6686 10.442Z" fill="#71018D"/>
<path d="M66.1428 23.7969C66.1428 23.2255 65.6801 22.7629 65.1087 22.7629H60.6733C60.1024 22.7629 59.6393 23.2255 59.6393 23.7969C59.6393 24.3677 60.1024 24.8309 60.6733 24.8309H65.1087C65.6801 24.8309 66.1428 24.3677 66.1428 23.7969Z" fill="#71018D"/>
<path d="M56.2599 26.3108C56.3159 25.7426 55.9007 25.2364 55.332 25.1804C54.7644 25.1249 54.2576 25.5396 54.2016 26.1083C53.7002 31.2013 51.4205 35.8404 47.7347 39.3398C47.207 38.9887 46.8117 38.8201 46.7524 38.7954C46.746 38.7927 46.739 38.79 46.7325 38.7873C39.1702 35.8592 40.2861 36.2911 37.7937 35.3255V33.5069C39.1961 32.3748 40.1795 30.7447 40.4703 28.8872C42.1694 28.5673 43.5583 27.1633 43.5583 25.4346C43.5583 24.6661 43.2815 23.9294 42.772 23.3192V20.4972C42.772 15.1387 38.4125 10.7792 33.054 10.7792C27.6954 10.7792 23.3359 15.1387 23.3359 20.4972V23.3817C22.827 23.9811 22.5502 24.6984 22.5502 25.4346C22.5502 27.1493 23.9224 28.5668 25.6436 28.8883C25.9382 30.7016 26.9183 32.4422 28.4683 33.6264V35.3261C28.1957 35.4316 19.8607 38.6634 19.5392 38.7878C19.5327 38.7905 19.5262 38.7927 19.5198 38.7954C19.46 38.8201 19.0652 38.9882 18.538 39.3393C14.3207 35.3304 11.9435 29.8044 11.9651 23.9294C12.0087 12.049 21.9799 2.44408 33.8731 2.84961C44.2272 3.20343 52.9484 11.2235 54.159 21.5048C54.2258 22.0719 54.7407 22.4764 55.3067 22.4107C55.8743 22.3444 56.2798 21.8301 56.213 21.263C54.8823 9.95895 45.4507 1.17635 33.9436 0.782669C20.9141 0.33783 9.94498 10.8422 9.89705 23.9218C9.87066 31.1669 13.1504 37.7258 18.5219 42.0757C19.9835 43.2594 20.8214 45.0425 20.8214 46.9678V50.4005C19.5973 50.7107 18.6877 51.8185 18.6877 53.1374V54.4304C18.6877 55.1106 18.929 55.7348 19.3308 56.2232C18.929 56.7112 18.6877 57.3353 18.6877 58.0155V59.3086C18.6877 60.8671 19.9555 62.1349 21.514 62.1349H22.4522C22.3848 62.3767 22.3461 62.6303 22.3461 62.8931V64.1867C22.3461 65.7453 23.6138 67.013 25.1724 67.013H29.6633V68.3416C29.6633 70.0046 31.0161 71.3575 32.6786 71.3575H33.5936C35.2561 71.3575 36.6089 70.0046 36.6089 68.3416V67.013H41.0998C42.6584 67.013 43.9261 65.7453 43.9261 64.1867V62.8931C43.9261 62.6303 43.8874 62.3767 43.8195 62.1349H44.7582C46.3167 62.1349 47.5845 60.8671 47.5845 59.3086V58.0155C47.5845 57.3353 47.3432 56.7112 46.9414 56.2232C47.3432 55.7348 47.5845 55.1106 47.5845 54.4304V53.1374C47.5845 51.8185 46.6749 50.7102 45.4502 50.4005V47.0324C45.4502 46.6646 45.4804 46.3022 45.5385 45.9473C45.8977 43.7651 47.0195 42.7057 48.1381 41.7531C52.7847 37.826 55.6643 32.3603 56.2599 26.3108ZM40.5602 26.7007V24.169C41.0686 24.4092 41.4903 24.8783 41.4903 25.4346C41.4903 25.9893 41.0686 26.4632 40.5602 26.7007ZM33.054 12.8472C37.2724 12.8472 40.704 16.2788 40.704 20.4972V22.0337C40.6992 22.0326 40.5694 22.0024 40.5581 22.0003C40.5414 21.5506 40.3566 21.2937 39.9533 20.8381C39.6425 20.4864 39.1406 19.964 38.0878 18.8326C37.5465 18.2509 36.6719 18.1454 36.009 18.5789C33.5047 20.2145 30.3456 21.137 27.3255 20.9286C26.8241 20.8941 26.3927 21.0551 26.069 21.3556C25.9468 21.4472 25.7314 21.7461 25.6366 22.0202C25.5585 22.0374 25.4809 22.0563 25.4039 22.0778V20.4972C25.4039 16.2788 28.8355 12.8472 33.054 12.8472ZM24.6182 25.4346C24.6182 24.9079 25.0792 24.4706 25.5483 24.2331V26.7007C25.0377 26.4621 24.6182 25.9877 24.6182 25.4346ZM27.6163 27.7363V23.016C30.7231 23.1329 34.0422 22.2389 36.8249 20.5112C37.7075 21.4574 38.2579 22.0342 38.4922 22.3035V27.7363C38.4922 31.3284 35.0003 33.9754 31.3274 32.8057C29.0186 32.0652 27.6163 29.9115 27.6163 27.7363ZM20.3017 40.7099L26.8408 38.175C28.9691 40.5198 29.2637 40.9016 30.2169 41.4364C30.7151 41.7164 31.3452 41.5393 31.6247 41.0411C31.9042 40.543 31.7275 39.9129 31.2294 39.6333C30.5987 39.279 30.4205 39.0329 28.9077 37.3741C29.1667 37.2734 29.0526 37.3176 29.3962 37.1846C30.6736 36.6891 30.5363 35.4736 30.5363 34.7283C32.2768 35.3223 34.1833 35.2652 35.7257 34.6873C35.7257 35.5167 35.6498 36.0251 36.1016 36.6105C36.4479 37.0591 36.8114 37.1636 37.2412 37.3294C35.6805 39.042 35.541 39.2284 35.0067 39.5574C34.521 39.8563 34.3691 40.4934 34.668 40.9797C34.968 41.466 35.6045 41.6179 36.0908 41.3185C36.8938 40.8246 37.1076 40.5553 39.3086 38.1303L45.9678 40.7094C45.985 40.7169 46.0308 40.7379 46.0986 40.7724C44.3564 42.3729 43.3822 44.6499 43.3822 47.0324V50.3111H22.89V46.9678C22.89 44.6354 21.9475 42.4117 20.2339 40.8268C20.2145 40.8085 20.1962 40.7896 20.1768 40.7718C20.1763 40.7713 20.1763 40.7713 20.1757 40.7708C20.2441 40.7363 20.2883 40.7164 20.3017 40.7099ZM34.5409 68.3416C34.5409 68.864 34.116 69.2894 33.5931 69.2894H32.6786C32.1562 69.2894 31.7313 68.864 31.7313 68.3416V67.013H34.5409V68.3416ZM41.8576 62.8931V64.1867C41.8576 64.6046 41.5177 64.945 41.0993 64.945C39.3932 64.945 26.8472 64.945 25.1724 64.945C24.7544 64.945 24.4141 64.6046 24.4141 64.1867V62.8931C24.4141 62.4752 24.7544 62.1349 25.1724 62.1349H41.0993C41.5177 62.1349 41.8576 62.4752 41.8576 62.8931ZM45.5165 59.3086C45.5165 59.727 45.1761 60.0668 44.7582 60.0668C44.1146 60.0668 22.1689 60.0668 21.514 60.0668C21.0961 60.0668 20.7557 59.727 20.7557 59.3086V58.0155C20.7557 57.5971 21.0961 57.2572 21.514 57.2572H44.7582C45.1761 57.2572 45.5165 57.5971 45.5165 58.0155V59.3086ZM45.5165 54.4304C45.5165 54.8489 45.1761 55.1892 44.7582 55.1892H21.514C21.0961 55.1892 20.7557 54.8489 20.7557 54.4304V53.1374C20.7557 52.7195 21.0961 52.3791 21.514 52.3791H44.7582C45.1761 52.3791 45.5165 52.7195 45.5165 53.1374V54.4304Z" fill="#71018D"/>
</svg>
