<svg width="17" height="16" viewBox="0 0 17 16" fill="none" xmlns="http://www.w3.org/2000/svg">
<path d="M11.9832 1.26587H4.86941C2.90498 1.26587 1.3125 2.85835 1.3125 4.82278V11.9366C1.3125 13.901 2.90498 15.4935 4.86941 15.4935H11.9832C13.9477 15.4935 15.5401 13.901 15.5401 11.9366V4.82278C15.5401 2.85835 13.9477 1.26587 11.9832 1.26587Z" stroke="white" stroke-linecap="round" stroke-linejoin="round"/>
<path d="M11.2726 7.93131C11.3604 8.52336 11.2593 9.12801 10.9836 9.65927C10.7079 10.1905 10.2718 10.6213 9.73716 10.8904C9.20254 11.1595 8.59668 11.2532 8.00577 11.1581C7.41485 11.063 6.86896 10.784 6.44574 10.3608C6.02253 9.93758 5.74353 9.39169 5.64845 8.80077C5.55336 8.20986 5.64702 7.604 5.91611 7.06938C6.1852 6.53477 6.61601 6.09861 7.14727 5.82295C7.67853 5.54729 8.28318 5.44616 8.87523 5.53396C9.47914 5.62351 10.0382 5.90492 10.4699 6.33661C10.9016 6.76831 11.183 7.3274 11.2726 7.93131Z" stroke="white" stroke-linecap="round" stroke-linejoin="round"/>
<path d="M12.3389 4.46704H12.346" stroke="white" stroke-linecap="round" stroke-linejoin="round"/>
</svg>
