<svg width="20" height="20" viewBox="0 0 20 20" fill="none" xmlns="http://www.w3.org/2000/svg">
<path d="M9.91519 2.35725V6.36735C11.0561 6.34157 12.1866 6.14407 13.2687 5.78149C12.5314 3.8219 11.2755 2.54243 9.91519 2.35725Z" fill="white"/>
<path d="M12.1913 2.80843C12.9559 3.58068 13.539 4.51345 13.8984 5.53907C14.336 5.3551 14.7544 5.12842 15.1475 4.8623C14.3471 3.94374 13.3314 3.23804 12.1913 2.80843Z" fill="white"/>
<path d="M9.91519 9.40439H13.9421C13.9183 8.39507 13.7621 7.39325 13.4775 6.42459C12.3276 6.80699 11.1268 7.01469 9.91519 7.04075V9.40439Z" fill="white"/>
<path d="M15.6408 15.465H14.2923C14.4659 15.825 14.6929 16.1567 14.9657 16.4488C15.2391 16.1568 15.4667 15.8251 15.6408 15.465Z" fill="white"/>
<path d="M11.262 19.1687H18.6694C18.7587 19.1687 18.8443 19.1332 18.9075 19.0701C18.9706 19.0069 19.0061 18.9213 19.0061 18.832V13.4448C19.0061 13.3555 18.9706 13.2699 18.9075 13.2067C18.8443 13.1436 18.7587 13.1081 18.6694 13.1081H15.6391C15.576 13.1085 15.5141 13.091 15.4606 13.0576L13.2822 11.694V12.7714C13.2822 12.8607 13.2467 12.9463 13.1836 13.0095C13.1204 13.0726 13.0348 13.1081 12.9455 13.1081H11.262C11.1727 13.1081 11.0871 13.1436 11.0239 13.2067C10.9608 13.2699 10.9253 13.3555 10.9253 13.4448V18.832C10.9253 18.9213 10.9608 19.0069 11.0239 19.0701C11.0871 19.1332 11.1727 19.1687 11.262 19.1687ZM12.9455 14.7916H14.629V14.4549C14.629 14.3656 14.6645 14.28 14.7276 14.2168C14.7908 14.1537 14.8764 14.1182 14.9657 14.1182C15.055 14.1182 15.1406 14.1537 15.2038 14.2168C15.2669 14.28 15.3024 14.3656 15.3024 14.4549V14.7916H16.9859C17.0752 14.7916 17.1608 14.8271 17.224 14.8902C17.2871 14.9534 17.3226 15.039 17.3226 15.1283C17.3226 15.2176 17.2871 15.3032 17.224 15.3664C17.1608 15.4295 17.0752 15.465 16.9859 15.465H16.3664C16.156 15.9961 15.8491 16.4836 15.4613 16.903C15.6017 17.0115 15.7489 17.1108 15.9021 17.2003L16.4792 17.5293C16.5568 17.5735 16.6136 17.6467 16.6372 17.7329C16.6609 17.819 16.6493 17.911 16.6051 17.9886C16.5609 18.0662 16.4877 18.123 16.4015 18.1466C16.3154 18.1703 16.2234 18.1587 16.1458 18.1145L15.5667 17.7845C15.3562 17.6605 15.1552 17.5209 14.9657 17.3667C14.7768 17.5206 14.5766 17.6599 14.3667 17.7835L13.7856 18.1145C13.708 18.1587 13.616 18.1703 13.5299 18.1466C13.4437 18.123 13.3705 18.0662 13.3263 17.9886C13.2821 17.911 13.2705 17.819 13.2942 17.7329C13.3178 17.6467 13.3746 17.5735 13.4522 17.5293L14.0314 17.1993C14.1834 17.1099 14.3296 17.011 14.4691 16.903C14.0815 16.4836 13.775 15.996 13.565 15.465H12.9455C12.8562 15.465 12.7706 15.4295 12.7074 15.3664C12.6443 15.3032 12.6088 15.2176 12.6088 15.1283C12.6088 15.039 12.6443 14.9534 12.7074 14.8902C12.7706 14.8271 12.8562 14.7916 12.9455 14.7916Z" fill="white"/>
<path d="M11.262 12.4347H12.6088V11.0879C12.6095 11.0281 12.626 10.9695 12.6567 10.9181C12.6874 10.8668 12.731 10.8244 12.7833 10.7953C12.8356 10.7663 12.8947 10.7516 12.9545 10.7527C13.0143 10.7538 13.0728 10.7707 13.1239 10.8017L13.8613 11.263C13.9108 10.8697 13.94 10.4741 13.9489 10.0778H9.91519V12.4448C10.2384 12.4515 10.5684 12.4717 10.9017 12.502C11.017 12.459 11.1389 12.4362 11.262 12.4347Z" fill="white"/>
<path d="M14.1138 6.1788C14.4266 7.22646 14.5976 8.31131 14.6223 9.40439H16.9724C16.912 7.95599 16.4208 6.55856 15.5617 5.39092C15.1074 5.70265 14.6223 5.96668 14.1138 6.1788Z" fill="white"/>
<path d="M9.91519 17.1384C10.0263 17.1317 10.1408 17.1249 10.2519 17.1148V13.4448C10.2539 13.3383 10.2721 13.2327 10.3058 13.1317C10.1745 13.1249 10.0465 13.1216 9.91519 13.1182V17.1384Z" fill="white"/>
<path d="M14.4842 11.6535L15.7367 12.4347H16.4707C16.7663 11.6821 16.9347 10.8856 16.9691 10.0778H14.6223C14.6085 10.6054 14.5624 11.1316 14.4842 11.6535Z" fill="white"/>
<path d="M4.27748 1.99698H4.10509L3.60004 3.68048H4.78253L4.27748 1.99698Z" fill="white"/>
<path d="M9.24179 7.03738C8.91519 7.03065 8.58859 7.01045 8.25526 6.98014C8.13994 7.02316 8.01806 7.04595 7.89499 7.04749H6.54819V8.39429C6.54811 8.45436 6.53179 8.51329 6.50098 8.56486C6.47016 8.61642 6.42597 8.6587 6.3731 8.68722C6.32433 8.7165 6.26837 8.73165 6.21149 8.73099C6.14848 8.73094 6.08672 8.71346 6.03304 8.68048L5.29566 8.2192C5.24852 8.60978 5.21822 9.00371 5.20812 9.40439H9.24179V7.03738Z" fill="white"/>
<path d="M9.24179 17.1249V13.1148C8.10087 13.1406 6.97034 13.3381 5.88825 13.7007C6.62563 15.6603 7.88152 16.9397 9.24179 17.1249Z" fill="white"/>
<path d="M9.24179 2.34378C9.13068 2.35051 9.0162 2.35725 8.90509 2.36735V6.03738C8.90308 6.14389 8.88492 6.24947 8.85122 6.35052C8.98253 6.35725 9.11048 6.36062 9.24179 6.36398V2.34378Z" fill="white"/>
<path d="M6.9657 16.6738C6.20109 15.9015 5.61796 14.9687 5.25862 13.9431C4.821 14.1271 4.40258 14.3538 4.00947 14.6199C4.80986 15.5384 5.8256 16.2441 6.9657 16.6738Z" fill="white"/>
<path d="M9.24179 10.0778H5.21485C5.23869 11.0871 5.39491 12.0889 5.6795 13.0576C6.82943 12.6752 8.03023 12.4675 9.24179 12.4414V10.0778Z" fill="white"/>
<path d="M5.04314 13.3034C4.73036 12.2557 4.55937 11.1709 4.53472 10.0778H2.18455C2.24498 11.5262 2.73619 12.9236 3.59532 14.0913C4.04954 13.7795 4.53471 13.5155 5.04314 13.3034Z" fill="white"/>
<path d="M2.68287 7.04749C2.38843 7.80027 2.22117 8.59676 2.18792 9.40439H4.53472C4.54807 8.8779 4.59418 8.35276 4.67277 7.832L3.42024 7.04749H2.68287Z" fill="white"/>
<path d="M0.487579 6.37408H3.51788C3.58095 6.37366 3.64284 6.39118 3.69633 6.42459L5.87479 7.78823V6.71078C5.87479 6.62149 5.91026 6.53585 5.9734 6.4727C6.03655 6.40956 6.12219 6.37408 6.21149 6.37408H7.89499C7.98429 6.37408 8.06993 6.33861 8.13307 6.27547C8.19622 6.21232 8.23169 6.12668 8.23169 6.03738V0.650177C8.23169 0.560878 8.19622 0.475237 8.13307 0.412094C8.06993 0.34895 7.98429 0.313477 7.89499 0.313477H0.487579C0.398281 0.313477 0.31264 0.34895 0.249496 0.412094C0.186353 0.475237 0.150879 0.560878 0.150879 0.650177V6.03738C0.150879 6.12668 0.186353 6.21232 0.249496 6.27547C0.31264 6.33861 0.398281 6.37408 0.487579 6.37408ZM2.52192 4.93065L3.53202 1.56365C3.55281 1.49426 3.59543 1.43342 3.65353 1.39018C3.71164 1.34693 3.78215 1.32357 3.85458 1.32358H4.52798C4.60042 1.32357 4.67093 1.34693 4.72903 1.39018C4.78714 1.43342 4.82975 1.49426 4.85054 1.56365L5.86064 4.93065C5.87334 4.97301 5.87756 5.01745 5.87308 5.06144C5.86859 5.10544 5.85549 5.14811 5.83451 5.18704C5.81353 5.22597 5.78509 5.26038 5.75081 5.28831C5.71653 5.31625 5.67708 5.33715 5.63472 5.34984C5.60334 5.35912 5.57081 5.36388 5.53809 5.36398C5.46565 5.36399 5.39514 5.34063 5.33704 5.29739C5.27893 5.25414 5.23632 5.1933 5.21553 5.12392L4.98455 4.35388H3.39802L3.16704 5.12392C3.14141 5.20946 3.08285 5.28133 3.00424 5.3237C2.92562 5.36607 2.8334 5.37547 2.74785 5.34984C2.6623 5.32421 2.59044 5.26565 2.54807 5.18704C2.5057 5.10842 2.49629 5.0162 2.52192 4.93065Z" fill="white"/>
</svg>
