<svg width="19" height="18" viewBox="0 0 19 18" fill="none" xmlns="http://www.w3.org/2000/svg">
<path d="M12.8193 6.15951C14.1101 6.15951 15.348 6.67228 16.2608 7.58503C17.1735 8.49777 17.6863 9.73572 17.6863 11.0265V16.7047H14.4416V11.0265C14.4416 10.5963 14.2707 10.1836 13.9665 9.87936C13.6622 9.57511 13.2496 9.40419 12.8193 9.40419C12.389 9.40419 11.9764 9.57511 11.6721 9.87936C11.3679 10.1836 11.1969 10.5963 11.1969 11.0265V16.7047H7.95226V11.0265C7.95226 9.73572 8.46503 8.49777 9.37778 7.58503C10.2905 6.67228 11.5285 6.15951 12.8193 6.15951Z" stroke="white" stroke-linecap="round" stroke-linejoin="round"/>
<path d="M4.70757 6.97068H1.46289V16.7047H4.70757V6.97068Z" stroke="white" stroke-linecap="round" stroke-linejoin="round"/>
<path d="M3.08523 4.53716C3.98123 4.53716 4.70757 3.81082 4.70757 2.91482C4.70757 2.01883 3.98123 1.29248 3.08523 1.29248C2.18924 1.29248 1.46289 2.01883 1.46289 2.91482C1.46289 3.81082 2.18924 4.53716 3.08523 4.53716Z" stroke="white" stroke-linecap="round" stroke-linejoin="round"/>
</svg>
