<svg width="39" height="39" viewBox="0 0 39 39" fill="none" xmlns="http://www.w3.org/2000/svg">
<path d="M28.5575 18.338L18.225 27.3655C17.9362 27.6213 17.502 27.6213 17.2132 27.3655L6.88 18.338C6.71206 18.1896 6.47754 18.1426 6.26536 18.2146C6.05317 18.2866 5.89578 18.4667 5.85286 18.6867C5.80994 18.9066 5.88801 19.1326 6.0575 19.2792L16.3912 28.3086C17.1487 28.9811 18.2894 28.9811 19.0469 28.3086L29.38 19.2792C29.6378 19.0516 29.6632 18.6584 29.4369 18.3995C29.2107 18.1405 28.8177 18.113 28.5575 18.338Z" fill="#FD9C45"/>
<path d="M12.9019 27.7417L6.02688 34.6167C5.86443 34.7737 5.79924 35.006 5.85645 35.2245C5.91365 35.4431 6.0843 35.6137 6.30278 35.6709C6.52126 35.7281 6.75366 35.6629 6.91062 35.5004L13.7856 28.6255C14.0225 28.3803 14.0191 27.9904 13.778 27.7494C13.5369 27.5083 13.1471 27.5049 12.9019 27.7417Z" fill="#FD9C45"/>
<path d="M22.5313 27.7398C22.2858 27.4992 21.8921 27.502 21.65 27.7461C21.4094 27.9916 21.4122 28.3853 21.6562 28.6273L28.5313 35.4498C28.6849 35.6282 28.9258 35.7052 29.1543 35.649C29.3829 35.5927 29.5605 35.4127 29.6138 35.1833C29.667 34.9539 29.5868 34.7141 29.4063 34.5629L22.5313 27.7398Z" fill="#FD9C45"/>
<path d="M35.2187 16.9336C34.8735 16.9336 34.5938 17.2134 34.5938 17.5586V21.5898C34.5987 21.7744 34.4533 21.9281 34.2688 21.9336H32.0938V17.2773C32.0979 16.4028 31.3934 15.6898 30.5188 15.6836H15.4775L17.5356 13.6255C17.7724 13.3803 17.7691 12.9904 17.528 12.7494C17.2868 12.5083 16.897 12.5049 16.6518 12.7417L13.71 15.6836H8.34375V2.27734C8.33884 2.09277 8.48423 1.93904 8.66873 1.93362H34.2687C34.4533 1.93904 34.5986 2.09277 34.5937 2.27734V6.30859C34.5937 6.65378 34.8735 6.93357 35.2187 6.93357C35.5638 6.93357 35.8436 6.65378 35.8436 6.30859V2.27734C35.8479 1.40276 35.1434 0.689819 34.2688 0.683594H8.66873C7.79414 0.689819 7.08962 1.40276 7.09373 2.27734V15.6836H4.91873C4.04414 15.6898 3.33955 16.4028 3.34373 17.2773V21.9336C3.34373 22.2788 3.62351 22.5585 3.9687 22.5585C4.31389 22.5585 4.59368 22.2788 4.59368 21.9336V17.2773C4.58877 17.0928 4.73416 16.939 4.91865 16.9336H30.5186C30.7032 16.939 30.8485 17.0928 30.8436 17.2773V36.5898C30.8485 36.7744 30.7031 36.9282 30.5186 36.9336H4.91873C4.73416 36.9282 4.58884 36.7744 4.59375 36.5898V33.1836C4.59375 32.8384 4.31396 32.5586 3.96877 32.5586C3.62358 32.5586 3.3438 32.8384 3.3438 33.1836V36.5898C3.33962 37.4644 4.04421 38.1774 4.9188 38.1836H30.5188C31.3934 38.1774 32.0979 37.4644 32.0938 36.5898V23.1836H34.2688C35.1434 23.1774 35.8479 22.4644 35.8438 21.5898V17.5586C35.8438 17.2134 35.5639 16.9336 35.2187 16.9336Z" fill="#FD9C45"/>
<path d="M32.3075 3.33796L21.975 12.3655C21.6862 12.6213 21.252 12.6213 20.9632 12.3655L10.63 3.33796C10.4621 3.18965 10.2275 3.14263 10.0154 3.21462C9.80317 3.28669 9.64578 3.46672 9.60286 3.68667C9.55994 3.90662 9.63794 4.13264 9.8075 4.2792L20.1412 13.3086C20.8987 13.9811 22.0394 13.9811 22.7969 13.3086L33.13 4.2792C33.3899 4.05208 33.4165 3.65723 33.1894 3.39729C32.9623 3.13743 32.5674 3.11084 32.3075 3.33796Z" fill="#FD9C45"/>
<path d="M6.46875 31.3086C6.81394 31.3086 7.09373 31.0288 7.09373 30.6836C7.09373 30.3384 6.81394 30.0586 6.46875 30.0586H3.34373C2.99854 30.0586 2.71875 30.3384 2.71875 30.6836C2.71875 31.0288 2.99861 31.3086 3.34373 31.3086H6.46875Z" fill="#FD9C45"/>
<path d="M4.59375 25.0586C4.93894 25.0586 5.21873 24.7788 5.21873 24.4336C5.21873 24.0884 4.93894 23.8086 4.59375 23.8086H1.46873C1.12354 23.8086 0.84375 24.0884 0.84375 24.4336C0.84375 24.7788 1.12354 25.0586 1.46873 25.0586H4.59375Z" fill="#FD9C45"/>
<path d="M5.84377 27.5586C5.84377 27.2134 5.56399 26.9336 5.2188 26.9336H2.09377C1.74858 26.9336 1.4688 27.2134 1.4688 27.5586C1.4688 27.9038 1.74858 28.1835 2.09377 28.1835H5.2188C5.56392 28.1836 5.84377 27.9038 5.84377 27.5586Z" fill="#FD9C45"/>
<path d="M35.8438 14.4336H32.7188C32.3736 14.4336 32.0938 14.7134 32.0938 15.0585C32.0938 15.4037 32.3736 15.6835 32.7188 15.6835H35.8438C36.189 15.6835 36.4688 15.4037 36.4688 15.0585C36.4688 14.7134 36.189 14.4336 35.8438 14.4336Z" fill="#FD9C45"/>
<path d="M37.7188 8.18359H34.5938C34.2486 8.18359 33.9688 8.46338 33.9688 8.80857C33.9688 9.15376 34.2486 9.43355 34.5938 9.43355H37.7188C38.064 9.43355 38.3438 9.15376 38.3438 8.80857C38.3438 8.46338 38.064 8.18359 37.7188 8.18359Z" fill="#FD9C45"/>
<path d="M37.0937 11.3086H33.9687C33.6235 11.3086 33.3437 11.5885 33.3437 11.9336C33.3437 12.2788 33.6236 12.5586 33.9687 12.5586H37.0937C37.4389 12.5586 37.7187 12.2787 37.7187 11.9336C37.7188 11.5884 37.4389 11.3086 37.0937 11.3086Z" fill="#FD9C45"/>
</svg>
