<svg width="115" height="115" viewBox="0 0 115 115" fill="none" xmlns="http://www.w3.org/2000/svg">
<path d="M107.112 94.1884H7.67854C5.56987 94.1884 3.85416 92.4726 3.85416 90.364V13.6374C3.85416 11.5288 5.56987 9.81306 7.67854 9.81306H28.7126C29.7686 9.81306 30.6248 8.95688 30.6248 7.90087C30.6248 6.84487 29.7686 5.98868 28.7126 5.98868H7.67854C3.46097 5.98868 0.0297852 9.41987 0.0297852 13.6374V90.364C0.0297852 94.5815 3.46097 98.0127 7.67854 98.0127H41.0116L38.3519 107.453C37.3237 111.112 40.0672 114.744 43.8739 114.744H70.917C74.7177 114.744 77.4689 111.118 76.4389 107.453C76.1533 106.437 75.0973 105.844 74.0807 106.13C73.0641 106.416 72.4716 107.471 72.7572 108.488C73.1009 109.711 72.1824 110.92 70.917 110.92H43.8739C42.607 110.92 41.6904 109.71 42.0334 108.489L44.9848 98.0127H107.112C108.168 98.0127 109.024 97.1565 109.024 96.1005C109.024 95.0445 108.168 94.1884 107.112 94.1884Z" fill="#9900CC"/>
<path d="M107.112 5.98868H88.2295C87.1734 5.98868 86.3173 6.84487 86.3173 7.90087C86.3173 8.95688 87.1734 9.81306 88.2295 9.81306H107.112C109.221 9.81306 110.937 11.5288 110.937 13.6374V82.2372H88.9465V81.2106C88.9465 75.9387 85.5978 71.2423 80.6137 69.5238L72.3126 66.661C69.2732 65.6129 67.1144 62.9535 66.6535 59.8368C73.9253 56.2596 78.4295 48.8604 78.4295 40.9401V31.564H81.8815C83.1414 31.564 84.1661 32.5889 84.1661 33.8485V40.9915C84.1661 42.2165 83.2088 43.2192 81.9866 43.2737C81.1116 43.3129 80.3749 43.9418 80.199 44.7999C79.1279 50.0228 76.6024 54.8183 72.8949 58.6685C71.7218 59.8868 72.6019 61.907 74.2722 61.907C74.7736 61.907 75.2746 61.711 75.6499 61.3212C79.5574 57.263 82.3093 52.2787 83.6577 46.8399C86.1786 46.0799 87.9904 43.746 87.9904 40.9915V33.8485C87.9904 31.024 86.0632 28.6419 83.4547 27.9459V17.3246C83.4607 7.75794 75.6774 0.0147698 66.0555 0.0090332H52.8688C46.1114 0.0090332 40.0784 3.80831 37.185 9.78485C33.8416 10.3905 31.2976 13.3054 31.2952 16.8019V22.3348C31.2952 23.3908 32.1514 24.247 33.2074 24.247C34.2634 24.247 35.1196 23.3908 35.1196 22.3348V16.8033C35.1208 14.9779 36.626 13.4938 38.4755 13.4938C39.2698 13.4938 39.9639 13.0114 40.2522 12.2975C42.3281 7.15488 47.2795 3.83341 52.87 3.83341H66.0545C73.5644 3.83795 79.6349 9.87186 79.6303 17.3234V27.7398C76.3653 27.7398 76.2866 27.693 75.8296 27.8694C65.8437 29.0767 55.9276 26.4018 47.9356 20.2763C46.919 19.4973 45.4371 19.9192 44.9839 21.1177C43.812 24.2152 41.4487 26.6678 38.1884 27.7398H32.9096C29.5411 27.7398 26.8007 30.4802 26.8007 33.8488V40.9918C26.8007 43.2159 28.0108 45.266 29.9591 46.3418C30.8815 46.8514 32.046 46.5187 32.5575 45.5925C33.0681 44.6679 32.7325 43.5046 31.8082 42.9941C31.0785 42.5911 30.6253 41.8238 30.6253 40.9918V33.8488C30.6253 32.5889 31.6502 31.5642 32.9099 31.5642H36.3618V40.7284C36.3621 45.0227 37.6332 49.1695 40.038 52.7209C40.6301 53.5952 41.8187 53.8242 42.6936 53.2319C43.5679 52.6399 43.7969 51.451 43.2046 50.5766C41.2298 47.6603 40.1862 44.2544 40.1862 40.7272V31.083C43.2077 29.8925 45.7942 27.7152 47.5166 24.6918C55.6745 30.2584 65.2203 32.5934 74.6056 31.8388V40.9401C74.6056 53.1657 62.1532 61.5375 50.8775 56.8648C49.6422 56.3519 48.2628 57.2444 48.2351 58.5913C48.1495 62.5878 45.6766 65.5584 42.4784 66.661L34.1588 69.5297C31.448 70.4693 29.1347 72.3363 27.6435 74.7887C26.8669 76.0661 27.7955 77.6948 29.2755 77.6948C29.9211 77.6948 30.5512 77.3678 30.9111 76.776C31.9437 75.0779 33.5464 73.7865 35.4241 73.139C44.4055 70.042 44.5513 70.0783 45.9797 69.2343C49.2772 76.0388 57.7673 78.0877 63.9592 74.4845C64.8721 73.9531 65.1814 72.7826 64.6503 71.87C64.1189 70.9572 62.9482 70.6481 62.0358 71.179C57.5137 73.8111 51.0666 72.2085 49.0427 66.6732C50.3825 65.1229 51.3316 63.2484 51.7745 61.2115C55.4096 62.2245 59.332 62.2335 63.0189 61.2182C63.9246 65.3722 66.9351 68.8523 71.0664 70.2769L79.3679 73.1392C82.8098 74.326 85.1226 77.5698 85.1226 81.2108V82.2374H15.7822C14.7261 82.2374 13.87 83.0936 13.87 84.1496C13.87 85.2056 14.7261 86.0618 15.7822 86.0618H112.849C113.905 86.0618 114.761 85.2056 114.761 84.1496V13.6377C114.761 9.41987 111.33 5.98868 107.112 5.98868Z" fill="#9900CC"/>
</svg>
