<svg width="33" height="41" viewBox="0 0 33 41" fill="none" xmlns="http://www.w3.org/2000/svg">
<path d="M11.5433 36.1886C11.175 36.1886 10.8765 36.4872 10.8765 36.8555C10.8765 37.2238 11.175 37.5223 11.5433 37.5223H12.8771C13.2454 37.5223 13.5439 37.2238 13.5439 36.8555C13.5439 36.4872 13.2454 36.1886 12.8771 36.1886H11.5433Z" fill="#FD9C45"/>
<path d="M30.2156 12.1814H24.2138V10.1808C24.2138 9.81245 23.9152 9.51392 23.547 9.51392C23.1787 9.51392 22.8801 9.81245 22.8801 10.1808V12.1814H12.8771C11.7722 12.1814 10.8765 13.077 10.8765 14.182V26.1856C10.8765 27.2905 11.7722 28.1862 12.8771 28.1862H22.8801V32.8543H20.8795C20.5112 32.8543 20.2127 33.1528 20.2127 33.5211C20.2127 33.8894 20.5112 34.188 20.8795 34.188H22.8801V38.1892C22.8801 38.5575 22.5816 38.856 22.2133 38.856H2.20723C1.83891 38.856 1.54038 38.5575 1.54038 38.1892V34.188H16.8784C17.2467 34.188 17.5452 33.8894 17.5452 33.5211C17.5452 33.1528 17.2467 32.8543 16.8784 32.8543H1.54031V6.8464H3.54091C3.90923 6.8464 4.20776 6.54787 4.20776 6.17955C4.20776 5.81124 3.90923 5.51271 3.54091 5.51271H1.54031V2.17834C1.54031 1.81003 1.83883 1.5115 2.20715 1.5115H22.2132C22.5815 1.5115 22.8801 1.81003 22.8801 2.17834V5.51271H7.54213C7.17381 5.51271 6.87528 5.81124 6.87528 6.17955C6.87528 6.54787 7.17381 6.8464 7.54213 6.8464H23.547C23.9153 6.8464 24.2138 6.54787 24.2138 6.17955V2.17834C24.2138 1.07347 23.3181 0.177734 22.2132 0.177734H2.20715C1.10228 0.177734 0.206543 1.0734 0.206543 2.17834V38.1893C0.206543 39.2941 1.10221 40.1899 2.20715 40.1899H22.2132C23.3181 40.1899 24.2138 39.2942 24.2138 38.1893V28.1862H30.2156C31.3205 28.1862 32.2162 27.2905 32.2162 26.1856V14.182C32.2162 13.0771 31.3206 12.1814 30.2156 12.1814ZM30.8825 26.1856C30.8825 26.5539 30.584 26.8525 30.2156 26.8525H12.877C12.5087 26.8525 12.2102 26.5539 12.2102 26.1856V14.182C12.2102 13.8137 12.5087 13.5151 12.877 13.5151H30.2156C30.584 13.5151 30.8825 13.8137 30.8825 14.182V26.1856Z" fill="#FD9C45"/>
<path d="M28.9852 15.5228C28.81 15.4951 28.6309 15.5384 28.4878 15.643L21.5464 20.6932L14.6029 15.643C14.4102 15.5029 14.1573 15.4764 13.9397 15.5732C13.722 15.6701 13.5725 15.8757 13.5475 16.1126C13.5225 16.3496 13.6259 16.5819 13.8187 16.722L21.1543 22.0569C21.1759 22.0691 21.1981 22.08 21.221 22.0896C21.2424 22.1021 21.2647 22.1132 21.2876 22.123C21.3688 22.1608 21.4568 22.1817 21.5464 22.1843C21.6368 22.182 21.7258 22.1611 21.8078 22.123C21.8307 22.1133 21.8529 22.1021 21.8744 22.0896C21.8973 22.08 21.9195 22.0691 21.9411 22.0569L29.2767 16.722C29.5738 16.5046 29.6386 16.0876 29.4214 15.7904C29.3174 15.6468 29.1604 15.5504 28.9852 15.5228Z" fill="#FD9C45"/>
<path d="M16.7402 21.3795L13.7393 24.3804C13.566 24.5479 13.4964 24.7957 13.5575 25.0289C13.6185 25.2621 13.8006 25.4441 14.0337 25.5052C14.2668 25.5662 14.5148 25.4967 14.6823 25.3233L17.6832 22.3224C17.9359 22.0608 17.9323 21.6448 17.675 21.3876C17.4179 21.1304 17.0019 21.1267 16.7402 21.3795Z" fill="#FD9C45"/>
<path d="M26.3524 21.3795C26.0908 21.1267 25.6748 21.1303 25.4176 21.3876C25.1604 21.6449 25.1568 22.0608 25.4095 22.3224L28.4104 25.3233C28.672 25.5761 29.088 25.5725 29.3452 25.3152C29.6025 25.0579 29.6061 24.642 29.3533 24.3804L26.3524 21.3795Z" fill="#FD9C45"/>
</svg>
