<svg version="1.1" xmlns="http://www.w3.org/2000/svg" xmlns:xlink="http://www.w3.org/1999/xlink" width="512px" height="512px" viewBox="0,0,255.98959,255.98959"><g fill="#ffffff" fill-rule="nonzero" stroke="none" stroke-width="1" stroke-linecap="butt" stroke-linejoin="miter" stroke-miterlimit="10" stroke-dasharray="" stroke-dashoffset="0" font-family="none" font-weight="none" font-size="none" text-anchor="none" style="mix-blend-mode: normal"><g transform="translate(-0.0052,-0.0052) scale(0.5,0.5)"><path d="M381,236h-105v-105c0,-11 -9,-20 -20,-20c-11,0 -20,9 -20,20v105h-105c-11,0 -20,9 -20,20c0,11 9,20 20,20h105v105c0,11 9,20 20,20c11,0 20,-9 20,-20v-105h105c11,0 20,-9 20,-20c0,-11 -9,-20 -20,-20z"></path></g></g></svg>