<svg width="60" height="57" viewBox="0 0 60 57" fill="none" xmlns="http://www.w3.org/2000/svg">
<path d="M18.0126 24.5514C18.0126 23.992 17.9114 23.4429 17.7189 22.9282H25.3528C25.8364 22.9282 26.2286 22.5359 26.2286 22.052V16.269C26.6466 16.391 27.0827 16.4534 27.5269 16.4534C30.0829 16.4534 32.1625 14.3737 32.1625 11.8178C32.1625 9.26225 30.0829 7.1826 27.5269 7.1826C27.0827 7.1826 26.6466 7.24497 26.2286 7.36698V1.58355C26.2286 1.10001 25.8364 0.707764 25.3528 0.707764H2.88883C1.58555 0.707764 0.525391 1.76838 0.525391 3.07121V22.052C0.525391 22.5359 0.917641 22.9282 1.40118 22.9282H9.03514C8.84263 23.4429 8.74141 23.992 8.74141 24.5514C8.74141 27.1074 10.8211 29.187 13.377 29.187C15.933 29.187 18.0126 27.1074 18.0126 24.5514ZM10.4934 24.5514C10.4934 23.8442 10.7528 23.1632 11.2237 22.6349C11.4533 22.3769 11.5102 22.0086 11.3692 21.6936C11.2278 21.3786 10.9151 21.1762 10.5698 21.1762H2.27741V3.07121C2.27741 2.73409 2.55172 2.45978 2.88883 2.45978H24.4771V8.75206C24.4771 9.07969 24.6601 9.37975 24.9511 9.53023C25.2421 9.68071 25.5928 9.65586 25.8603 9.46606C26.3497 9.1181 26.9264 8.93417 27.5274 8.93417C29.1172 8.93417 30.411 10.228 30.411 11.8178C30.411 13.408 29.1172 14.7013 27.5274 14.7013C26.9264 14.7013 26.3497 14.5174 25.8603 14.1699C25.5933 13.9801 25.2421 13.9552 24.9511 14.1053C24.6601 14.2558 24.4771 14.5558 24.4771 14.8839V21.1762H16.1847C15.8394 21.1762 15.5262 21.3786 15.3853 21.6936C15.2438 22.0086 15.3008 22.3769 15.5303 22.6349C16.0012 23.1632 16.2606 23.8442 16.2606 24.5514C16.2606 26.1417 14.9672 27.435 13.377 27.435C11.7872 27.435 10.4934 26.1417 10.4934 24.5514Z" fill="#71018D"/>
<path d="M57.3935 13.5517H43.245C42.761 13.5517 42.3687 13.9439 42.3687 14.4279C42.3687 14.9115 42.761 15.3037 43.245 15.3037H57.3935C57.7307 15.3037 58.005 15.578 58.005 15.9151V34.0201H51.1632C51.4108 33.4476 51.541 32.8248 51.541 32.18C51.541 29.624 49.4613 27.5444 46.9054 27.5444C44.3494 27.5444 42.2702 29.624 42.2702 32.18C42.2702 32.8248 42.3999 33.4476 42.6476 34.0201H35.8053V27.9136C36.3065 28.0943 36.8384 28.1892 37.3788 28.1892C39.9348 28.1892 42.014 26.1096 42.014 23.5536C42.014 20.9977 39.9348 18.9185 37.3788 18.9185C36.8384 18.9185 36.3065 19.0134 35.8053 19.1941V15.3037H39.7414C40.2249 15.3037 40.6172 14.9115 40.6172 14.4275C40.6172 13.9439 40.2249 13.5517 39.7414 13.5517H34.9295C34.446 13.5517 34.0537 13.9439 34.0537 14.4275V20.703C34.0537 21.0451 34.253 21.356 34.5644 21.4988C34.8753 21.6416 35.2413 21.5901 35.5007 21.3669C36.0231 20.9177 36.6901 20.67 37.3788 20.67C38.9691 20.67 40.2624 21.9638 40.2624 23.5536C40.2624 25.1434 38.9691 26.4372 37.3788 26.4372C36.6901 26.4372 36.0231 26.1896 35.5007 25.7404C35.2413 25.5171 34.8753 25.4656 34.5644 25.6084C34.253 25.7512 34.0537 26.0621 34.0537 26.4047V34.0197H24.9371C24.6135 34.0197 24.3166 34.1977 24.1643 34.4833C24.0121 34.7685 24.0292 35.1142 24.2091 35.383C24.5268 35.8575 24.6949 36.4111 24.6949 36.9846C24.6949 38.5744 23.4011 39.8677 21.8113 39.8677C20.2211 39.8677 18.9277 38.5744 18.9277 36.9846C18.9277 36.4111 19.0954 35.8575 19.4131 35.383C19.5929 35.1146 19.6101 34.7685 19.4578 34.4833C19.3055 34.1982 19.0086 34.0197 18.685 34.0197H10.9779C10.4943 34.0197 10.1021 34.4119 10.1021 34.8959V43.083C10.1021 43.5665 10.4943 43.9588 10.9779 43.9588C11.4619 43.9588 11.8541 43.5665 11.8541 43.083V35.7717H17.3361C17.2299 36.1639 17.1757 36.5711 17.1757 36.9841C17.1757 39.5401 19.2549 41.6197 21.8108 41.6197C24.3668 41.6197 26.4464 39.5401 26.4464 36.9841C26.4464 36.5711 26.3922 36.1639 26.286 35.7717H34.0533V42.2723C34.0533 42.5895 34.2246 42.8819 34.5011 43.0364C34.7777 43.1914 35.1166 43.1851 35.3869 43.0193C35.8383 42.7427 36.3584 42.5963 36.8908 42.5963C38.4806 42.5963 39.7744 43.8901 39.7744 45.4799C39.7744 47.0701 38.4806 48.3635 36.8908 48.3635C36.3584 48.3635 35.8383 48.2175 35.3869 47.9405C35.1166 47.7751 34.7781 47.7683 34.5011 47.9233C34.2246 48.0783 34.0533 48.3707 34.0533 48.6875V54.4881H12.4655C12.1284 54.4881 11.8541 54.2138 11.8541 53.8762V46.5866C11.8541 46.103 11.4619 45.7108 10.9779 45.7108C10.4943 45.7108 10.1021 46.103 10.1021 46.5866V53.8762C10.1021 55.1795 11.1622 56.2401 12.4655 56.2401H57.3935C58.6968 56.2401 59.757 55.1795 59.757 53.8762V15.9151C59.757 14.6119 58.6968 13.5517 57.3935 13.5517ZM57.3935 54.4885H35.8053V49.9871C36.1587 50.0721 36.5234 50.1155 36.8908 50.1155C39.4467 50.1155 41.5264 48.0363 41.5264 45.4803C41.5264 42.9244 39.4467 40.8452 36.8908 40.8452C36.5229 40.8452 36.1587 40.8886 35.8053 40.9735V35.7717H44.3078C44.6653 35.7717 44.987 35.5543 45.1204 35.2222C45.2537 34.89 45.1719 34.5104 44.9129 34.2628C44.3381 33.7133 44.0218 32.9731 44.0218 32.18C44.0218 30.5897 45.3151 29.2964 46.9054 29.2964C48.4952 29.2964 49.789 30.5897 49.789 32.18C49.789 32.9731 49.4722 33.7133 48.8973 34.2632C48.6389 34.5104 48.5566 34.89 48.6899 35.2222C48.8232 35.5543 49.145 35.7717 49.5029 35.7717H58.005V53.8766C58.005 54.2142 57.7307 54.4885 57.3935 54.4885Z" fill="#71018D"/>
</svg>
