<svg width="60" height="68" viewBox="0 0 60 68" fill="none" xmlns="http://www.w3.org/2000/svg">
<path d="M59.0916 60.1937C58.9727 59.6576 58.4421 59.3192 57.9056 59.438C57.3694 59.5569 57.0311 60.0879 57.1499 60.6241C57.2164 60.924 57.2501 61.2333 57.2501 61.5438C57.2501 63.8743 55.3541 65.7703 53.0237 65.7703C52.4745 65.7703 52.0293 66.2155 52.0293 66.7647C52.0293 67.3138 52.4745 67.7591 53.0237 67.7591C56.4507 67.7591 59.239 64.971 59.239 61.5438C59.2388 61.0888 59.1893 60.6344 59.0916 60.1937Z" fill="#71018D"/>
<path d="M29.6244 26.5739C33.1493 26.5739 36.0168 23.7062 36.0168 20.1815C36.0168 16.6566 33.1491 13.7889 29.6244 13.7889C26.0997 13.7889 23.232 16.6566 23.232 20.1815C23.232 23.7062 26.0996 26.5739 29.6244 26.5739ZM29.6244 15.7776C32.0525 15.7776 34.028 17.7531 34.028 20.1813C34.028 22.6095 32.0525 24.5851 29.6244 24.5851C27.1963 24.5851 25.2208 22.6096 25.2208 20.1813C25.2208 17.7532 27.1963 15.7776 29.6244 15.7776Z" fill="#71018D"/>
<path d="M12.8153 38.9149H19.209V42.8289C18.2322 43.1006 17.5125 43.9957 17.5125 45.058V47.1418C17.5125 48.4186 18.5512 49.4574 19.8281 49.4574H21.5582L22.7274 52.1533C23.1103 53.0362 23.9794 53.6068 24.9418 53.6068H34.3071C35.2695 53.6068 36.1387 53.0362 36.5216 52.1533L37.6907 49.4573H39.4207C40.6976 49.4573 41.7363 48.4186 41.7363 47.1417V45.0578C41.7363 43.9956 41.0165 43.1005 40.0398 42.8288V38.9148H46.4341C47.6451 38.9148 48.6304 37.9295 48.6304 36.7184V32.2238C48.6304 31.6978 48.4414 31.1887 48.0981 30.7903L40.0398 21.4371V17.3338C40.0398 12.489 38.3453 7.82289 35.2684 4.19492C34.2754 3.02403 33.1729 1.92743 31.9919 0.936061C30.62 -0.215666 28.6288 -0.215666 27.257 0.936061C26.0759 1.92743 24.9735 3.02403 23.9805 4.19492C20.9037 7.82289 19.2092 12.489 19.2092 17.3338V21.4376L16.3816 24.7196C16.0232 25.1357 16.0698 25.7636 16.4859 26.122C16.9019 26.4804 17.5298 26.4337 17.8884 26.0177L19.2092 24.4846V36.9258H12.8155C12.701 36.9258 12.6079 36.8327 12.6079 36.7183V32.2237C12.6079 32.174 12.6257 32.1259 12.6581 32.0883L14.895 29.4921C15.2535 29.076 15.2067 28.4481 14.7907 28.0896C14.3746 27.7312 13.7467 27.7778 13.3881 28.1939L11.1513 30.7901C10.8081 31.1886 10.6191 31.6977 10.6191 32.2237V36.7183C10.6191 37.9297 11.6042 38.9149 12.8153 38.9149ZM46.5911 32.0886C46.6236 32.1263 46.6415 32.1744 46.6415 32.2241V36.7186C46.6415 36.8331 46.5484 36.9262 46.4339 36.9262H40.0401L40.0397 24.4845L46.5911 32.0886ZM34.6968 51.3622C34.6295 51.5177 34.4764 51.618 34.307 51.618H24.9416C24.7723 51.618 24.6192 51.5175 24.5518 51.3621L23.7258 49.4574H35.5228L34.6968 51.3622ZM25.4973 5.48149C26.418 4.39587 27.4404 3.37912 28.5358 2.4594C29.1666 1.92994 30.0824 1.92981 30.7132 2.4594C31.8086 3.37899 32.8309 4.39574 33.7517 5.48149C34.0213 5.7993 35.1251 7.33309 35.1443 7.3631H24.1045C24.1323 7.32 25.1584 5.881 25.4973 5.48149ZM21.1979 21.8V17.334C21.1979 14.5384 21.8225 11.8104 22.9966 9.35192H36.2521C37.4261 11.8104 38.0509 14.5383 38.0509 17.334V42.7425H21.1979L21.1984 21.8067C21.1984 21.8044 21.198 21.8023 21.1979 21.8ZM19.5013 45.058C19.5013 44.8778 19.6479 44.7312 19.8281 44.7312H39.4206C39.6008 44.7312 39.7474 44.8778 39.7474 45.058V47.1418C39.7474 47.322 39.6008 47.4686 39.4206 47.4686H19.8281C19.6479 47.4686 19.5013 47.322 19.5013 47.1418V45.058Z" fill="#71018D"/>
<path d="M8.03259 49.3726C8.58175 49.3726 9.027 48.9273 9.027 48.3782V42.4917C9.027 41.9425 8.58175 41.4973 8.03259 41.4973C7.48343 41.4973 7.03818 41.9425 7.03818 42.4917V48.3782C7.03818 48.9273 7.4833 49.3726 8.03259 49.3726Z" fill="#71018D"/>
<path d="M11.3086 42.4917V44.5694C11.3086 45.1185 11.7539 45.5638 12.303 45.5638C12.8522 45.5638 13.2975 45.1185 13.2975 44.5694V42.4917C13.2975 41.9425 12.8522 41.4973 12.303 41.4973C11.7539 41.4973 11.3086 41.9425 11.3086 42.4917Z" fill="#71018D"/>
<path d="M51.2163 49.3726C51.7654 49.3726 52.2107 48.9273 52.2107 48.3782V42.4917C52.2107 41.9425 51.7654 41.4973 51.2163 41.4973C50.6671 41.4973 50.2219 41.9425 50.2219 42.4917V48.3782C50.2219 48.9273 50.6671 49.3726 51.2163 49.3726Z" fill="#71018D"/>
<path d="M45.9514 42.4917V44.5694C45.9514 45.1185 46.3966 45.5638 46.9458 45.5638C47.495 45.5638 47.9402 45.1185 47.9402 44.5694V42.4917C47.9402 41.9425 47.495 41.4973 46.9458 41.4973C46.3965 41.4973 45.9514 41.9425 45.9514 42.4917Z" fill="#71018D"/>
<path d="M52.5073 56.3373C52.503 56.8548 52.8963 57.2892 53.4118 57.336C53.9393 57.384 54.4462 57.5285 54.9181 57.7656C55.409 58.0122 56.0065 57.8142 56.2531 57.3235C56.4996 56.8328 56.3017 56.2351 55.811 55.9885C55.3688 55.7663 54.9061 55.5995 54.4281 55.4891C54.0291 53.0875 51.9372 51.2506 49.4243 51.2506C47.9423 51.2506 46.5401 51.9076 45.5855 53.0102C44.6455 52.614 43.63 52.4072 42.6044 52.4072C39.8447 52.4072 37.3487 53.8642 35.9842 56.1958C35.2706 55.9025 34.4951 55.742 33.6897 55.742C32.1743 55.742 30.7238 56.3222 29.6243 57.3309C28.5248 56.3223 27.0742 55.742 25.5589 55.742C24.7536 55.742 23.978 55.9025 23.2644 56.1958C21.8998 53.8642 19.4039 52.4072 16.6442 52.4072C15.6186 52.4072 14.6031 52.614 13.6631 53.0102C12.7085 51.9076 11.3063 51.2506 9.82416 51.2506C7.3117 51.2506 5.22003 53.0867 4.82066 55.4878C2.02608 56.1239 0.00976562 58.595 0.00976562 61.5438C0.00976562 64.9709 2.79786 67.7591 6.22502 67.7591C6.77418 67.7591 7.21943 67.3138 7.21943 66.7647C7.21943 66.2155 6.77418 65.7703 6.22502 65.7703C3.8946 65.7703 1.99858 63.8743 1.99858 61.5438C1.99858 59.3438 3.6487 57.5349 5.83688 57.336C6.35233 57.2892 6.74562 56.8548 6.74126 56.3373L6.74073 56.3151C6.74509 54.6185 8.12672 53.2394 9.82416 53.2394C10.9163 53.2394 11.9376 53.8271 12.4893 54.7729C12.7639 55.2436 13.3659 55.4057 13.8396 55.1365C14.6918 54.6521 15.6616 54.396 16.6441 54.396C18.7071 54.396 20.5704 55.4955 21.5754 57.2505C21.0133 57.7496 20.5379 58.357 20.186 59.0582C19.9397 59.5491 20.1379 60.1466 20.6287 60.393C20.7719 60.465 20.9241 60.4989 21.074 60.4989C21.4382 60.4989 21.7889 60.2981 21.9636 59.9504C22.2869 59.3062 22.7644 58.7787 23.3375 58.3988C23.348 58.3926 23.3588 58.3873 23.3691 58.3807C23.6738 58.1821 24.002 58.0293 24.3437 57.9189C24.7301 57.7973 25.1383 57.7309 25.5589 57.7309C26.8384 57.7309 28.0507 58.348 28.8066 59.3822C28.8692 59.4724 28.9468 59.5544 29.0408 59.6223C29.3838 59.8702 29.8723 59.8646 30.2078 59.622C30.3006 59.5549 30.3776 59.4742 30.4397 59.3853C31.1954 58.3492 32.4087 57.7309 33.6897 57.7309C34.1679 57.7309 34.6311 57.8139 35.063 57.9698C35.0627 57.9711 35.0626 57.9725 35.0623 57.9736C35.3476 58.0775 35.6219 58.2128 35.8796 58.3806C35.8897 58.387 35.9004 58.3922 35.9105 58.3984C36.4839 58.7785 36.9617 59.306 37.285 59.9503C37.4595 60.298 37.8104 60.4989 38.1746 60.4988C38.3245 60.4988 38.4768 60.4647 38.6199 60.3929C39.1107 60.1466 39.3089 59.5489 39.0626 59.0581C38.7107 58.3569 38.2353 57.7496 37.6732 57.2504C38.6781 55.4954 40.5414 54.3959 42.6045 54.3959C43.587 54.3959 44.5568 54.652 45.409 55.1364C45.8827 55.4057 46.4848 55.2434 46.7593 54.7728C47.3109 53.8269 48.3322 53.2393 49.4243 53.2393C51.1207 53.2393 52.5015 54.6164 52.5079 56.3114C52.5076 56.3207 52.5073 56.3312 52.5073 56.3373Z" fill="#71018D"/>
<path d="M8.96209 61.778C8.58505 61.5819 8.27518 61.281 8.0659 60.9081C7.92128 60.65 7.83138 60.372 7.79912 60.0816C7.73831 59.5357 7.24679 59.1428 6.70081 59.2034C6.15495 59.2642 5.76179 59.756 5.8226 60.3017C5.8846 60.8581 6.0558 61.3894 6.33144 61.8809C6.73068 62.5926 7.32294 63.1671 8.04449 63.5424C8.1911 63.6187 8.34802 63.6548 8.50256 63.6548C8.86162 63.6548 9.20838 63.4597 9.38566 63.1191C9.63882 62.6318 9.44925 62.0313 8.96209 61.778Z" fill="#71018D"/>
<path d="M42.3905 58.0203C41.9258 57.7271 41.3118 57.8662 41.0189 58.3306C40.7259 58.795 40.8647 59.4091 41.3292 59.7022C41.6885 59.929 41.9722 60.2545 42.1496 60.6437C42.2724 60.913 42.3386 61.1975 42.3467 61.4896C42.3616 62.0293 42.8037 62.4567 43.3402 62.4567C43.3494 62.4567 43.3588 62.4565 43.3681 62.4563C43.9171 62.4411 44.3498 61.9839 44.3347 61.4349C44.3193 60.8753 44.193 60.3317 43.9593 59.8189C43.6207 59.0763 43.0783 58.4544 42.3905 58.0203Z" fill="#71018D"/>
</svg>
