<svg width="90" height="64" viewBox="0 0 90 64" fill="none" xmlns="http://www.w3.org/2000/svg">
<path d="M0.134766 50.4387V60.6481C0.134766 60.9062 0.765967 61.1644 1.91144 61.4226C2.98678 61.6573 4.55306 61.8685 6.49335 62.0563C7.61544 62.1736 8.87776 62.2675 10.257 62.3848C11.6596 62.4787 13.1791 62.5726 14.8389 62.6665C16.0779 62.7369 17.387 62.7838 18.7429 62.8542C20.2156 62.9246 21.7351 62.9716 23.3248 63.0185C24.5404 63.0654 25.8027 63.0889 27.0884 63.1359C28.5845 63.1593 30.1041 63.2063 31.6703 63.2297C33.0262 63.2532 34.4288 63.2767 35.8314 63.2767C37.3276 63.3001 38.847 63.3002 40.4133 63.3002C41.1146 63.3002 41.8159 63.3002 42.5172 63.3002C43.0783 63.3002 43.616 63.3002 44.177 63.3002C45.7199 63.3002 47.2394 63.2767 48.7589 63.2767C50.2316 63.2532 51.681 63.2532 53.107 63.2297C54.6733 63.2063 56.1928 63.1828 57.6889 63.1359C58.9746 63.1124 60.237 63.0654 61.4526 63.042C63.0422 62.995 64.5617 62.9246 66.0345 62.8777C67.4839 62.8073 68.8865 62.7603 70.1956 62.6899C71.832 62.596 73.3748 62.5022 74.7774 62.4083C76.1567 62.3144 77.4191 62.1971 78.5412 62.0797C80.4814 61.892 82.0243 61.6807 83.123 61.446C84.2685 61.2113 84.8997 60.9532 84.8997 60.6715V50.4621H0.134766V50.4387Z" fill="url(#paint0_radial_503_224)"/>
<g opacity="0.7">
<path d="M78.4707 50.4387V62.0562C80.411 61.8685 81.9539 61.6573 83.0526 61.4226V50.4387H78.4707Z" fill="url(#paint1_linear_503_224)"/>
<path d="M70.1255 50.4387V62.6665C71.7619 62.5726 73.3047 62.4787 74.7073 62.3848V50.4387H70.1255Z" fill="url(#paint2_linear_503_224)"/>
<path d="M61.4053 50.4387V63.042C62.9949 62.995 64.5144 62.9246 65.9872 62.8777V50.4387H61.4053Z" fill="url(#paint3_linear_503_224)"/>
<path d="M53.0601 50.4387V63.2297C54.6263 63.2063 56.1458 63.1828 57.6419 63.1359V50.4387H53.0601Z" fill="url(#paint4_linear_503_224)"/>
<path d="M44.1309 50.4387V63.3002C45.6737 63.3002 47.1932 63.2767 48.7127 63.2767V50.4387H44.1309V50.4387Z" fill="url(#paint5_linear_503_224)"/>
<path d="M35.8086 50.4387V63.2767C37.3047 63.3001 38.8242 63.3002 40.3905 63.3002V50.4387H35.8086V50.4387Z" fill="url(#paint6_linear_503_224)"/>
<path d="M27.0649 50.4387V63.1359C28.5611 63.1593 30.0805 63.2063 31.6468 63.2297V50.4387H27.0649Z" fill="url(#paint7_linear_503_224)"/>
<path d="M18.7192 50.4387V62.8542C20.192 62.9246 21.7115 62.9716 23.3011 63.0185V50.4387H18.7192Z" fill="url(#paint8_linear_503_224)"/>
<path d="M10.2573 50.4387V62.3848C11.6599 62.4787 13.1795 62.5726 14.8392 62.6665V50.4387H10.2573Z" fill="url(#paint9_linear_503_224)"/>
<path d="M1.91113 50.4387V61.4226C2.98647 61.6573 4.55275 61.8685 6.49304 62.0562V50.4387H1.91113Z" fill="url(#paint10_linear_503_224)"/>
</g>
<path d="M42.471 53.0906C65.8523 53.0906 84.8067 51.9033 84.8067 50.4385C84.8067 48.9738 65.8523 47.7864 42.471 47.7864C19.0896 47.7864 0.135254 48.9738 0.135254 50.4385C0.135254 51.9033 19.0896 53.0906 42.471 53.0906Z" fill="url(#paint11_linear_503_224)"/>
<path d="M2.23877 38.8446V49.054C2.23877 49.3122 2.86997 49.5703 4.01544 49.8285C5.09078 50.0632 6.65706 50.2744 8.59735 50.4622C9.71945 50.5795 10.9818 50.6734 12.361 50.7908C13.7636 50.8847 15.2832 50.9785 16.9429 51.0724C18.1819 51.1428 19.491 51.1898 20.8469 51.2602C22.3196 51.3306 23.8391 51.3775 25.4288 51.4245C26.6444 51.4714 27.9067 51.4949 29.1924 51.5418C30.6886 51.5653 32.2081 51.6122 33.7743 51.6357C35.1302 51.6592 36.5328 51.6826 37.9354 51.6826C39.4316 51.7061 40.951 51.7061 42.5173 51.7061C43.2186 51.7061 43.9199 51.7061 44.6212 51.7061C45.1823 51.7061 45.72 51.7061 46.281 51.7061C47.8239 51.7061 49.3434 51.6826 50.8629 51.6826C52.3356 51.6592 53.785 51.6592 55.211 51.6357C56.7773 51.6122 58.2968 51.5887 59.7929 51.5418C61.0786 51.5183 62.341 51.4714 63.5566 51.4479C65.1462 51.401 66.6657 51.3306 68.1385 51.2836C69.5879 51.2132 70.9905 51.1663 72.2996 51.0959C73.936 51.002 75.4788 50.9081 76.8814 50.8142C78.2607 50.7204 79.5231 50.603 80.6452 50.4857C82.5854 50.2979 84.1283 50.0867 85.227 49.852C86.3725 49.6173 87.0037 49.3591 87.0037 49.0775V38.8681H2.23877V38.8446Z" fill="url(#paint12_radial_503_224)"/>
<g opacity="0.7">
<path d="M80.5757 38.8447V50.4623C82.516 50.2745 84.0589 50.0633 85.1576 49.8286V38.8447H80.5757Z" fill="url(#paint13_linear_503_224)"/>
<path d="M72.23 38.8447V51.0725C73.8664 50.9786 75.4092 50.8847 76.8118 50.7908V38.8447H72.23Z" fill="url(#paint14_linear_503_224)"/>
<path d="M63.5103 38.8447V51.4481C65.0999 51.4011 66.6194 51.3307 68.0922 51.2838V38.8447H63.5103Z" fill="url(#paint15_linear_503_224)"/>
<path d="M55.165 38.8447V51.6357C56.7313 51.6123 58.2508 51.5888 59.7469 51.5419V38.8447H55.165Z" fill="url(#paint16_linear_503_224)"/>
<path d="M46.2344 38.8448V51.7063C47.7773 51.7063 49.2967 51.6828 50.8162 51.6828V38.8448H46.2344V38.8448Z" fill="url(#paint17_linear_503_224)"/>
<path d="M37.9121 38.8447V51.6828C39.4082 51.7062 40.9278 51.7062 42.494 51.7062V38.8447H37.9121V38.8447Z" fill="url(#paint18_linear_503_224)"/>
<path d="M29.1694 38.8447V51.5419C30.6656 51.5654 32.185 51.6123 33.7513 51.6358V38.8447H29.1694Z" fill="url(#paint19_linear_503_224)"/>
<path d="M20.8237 38.8447V51.2602C22.2965 51.3306 23.816 51.3776 25.4056 51.4245V38.8447H20.8237Z" fill="url(#paint20_linear_503_224)"/>
<path d="M12.3613 38.8447V50.7908C13.7639 50.8847 15.2835 50.9786 16.9432 51.0725V38.8447H12.3613Z" fill="url(#paint21_linear_503_224)"/>
<path d="M4.01562 38.8446V49.8285C5.09097 50.0632 6.65725 50.2744 8.59753 50.4622V38.8446H4.01562Z" fill="url(#paint22_linear_503_224)"/>
</g>
<path d="M44.5745 41.4966C67.9558 41.4966 86.9102 40.3092 86.9102 38.8445C86.9102 37.3798 67.9558 36.1924 44.5745 36.1924C21.1931 36.1924 2.23877 37.3798 2.23877 38.8445C2.23877 40.3092 21.1931 41.4966 44.5745 41.4966Z" fill="url(#paint23_linear_503_224)"/>
<path d="M4.08545 27.0859V37.2953C4.08545 37.5535 4.71659 37.8117 5.86206 38.0698C6.93741 38.3045 8.50368 38.5158 10.444 38.7035C11.5661 38.8209 12.8284 38.9148 14.2077 39.0321C15.6103 39.126 17.1298 39.2199 18.7895 39.3137C20.0285 39.3842 21.3376 39.4311 22.6935 39.5015C24.1662 39.5719 25.6858 39.6189 27.2754 39.6658C28.491 39.7127 29.7534 39.7362 31.0391 39.7831C32.5352 39.8066 34.0547 39.8536 35.621 39.877C36.9768 39.9005 38.3795 39.924 39.7821 39.924C41.2782 39.9474 42.7977 39.9474 44.364 39.9474C45.0653 39.9474 45.7666 39.9474 46.4679 39.9474C47.029 39.9474 47.5666 39.9474 48.1276 39.9474C49.6705 39.9474 51.19 39.924 52.7095 39.924C54.1823 39.9005 55.6316 39.9005 57.0576 39.877C58.6239 39.8536 60.1434 39.8301 61.6395 39.7831C62.9253 39.7597 64.1876 39.7127 65.4032 39.6893C66.9929 39.6423 68.5124 39.5719 69.9851 39.525C71.4345 39.4546 72.8371 39.4076 74.1462 39.3372C75.7826 39.2433 77.3255 39.1495 78.7281 39.0556C80.1074 38.9617 81.3697 38.8443 82.4918 38.727C84.4321 38.5392 85.975 38.328 87.0737 38.0933C88.2192 37.8586 88.8503 37.6004 88.8503 37.3188V27.1094H4.08545V27.0859Z" fill="url(#paint24_radial_503_224)"/>
<g opacity="0.7">
<path d="M82.4219 27.0858V38.7034C84.3622 38.5157 85.9051 38.3044 87.0038 38.0697V27.0858H82.4219V27.0858Z" fill="url(#paint25_linear_503_224)"/>
<path d="M74.0762 27.0858V39.3136C75.7126 39.2197 77.2555 39.1259 78.6581 39.032V27.0858H74.0762Z" fill="url(#paint26_linear_503_224)"/>
<path d="M65.3335 27.0858V39.6891C66.9231 39.6422 68.4426 39.5718 69.9153 39.5249V27.0858H65.3335Z" fill="url(#paint27_linear_503_224)"/>
<path d="M56.9878 27.0858V39.8769C58.554 39.8534 60.0735 39.83 61.5696 39.783V27.0858H56.9878Z" fill="url(#paint28_linear_503_224)"/>
<path d="M48.0811 27.0857V39.9472C49.6239 39.9472 51.1435 39.9237 52.663 39.9237V27.0857H48.0811V27.0857Z" fill="url(#paint29_linear_503_224)"/>
<path d="M39.7354 27.0858V39.9238C41.2315 39.9473 42.7509 39.9473 44.3172 39.9473V27.0858H39.7354V27.0858Z" fill="url(#paint30_linear_503_224)"/>
<path d="M30.9922 27.0858V39.783C32.4883 39.8065 34.0078 39.8534 35.5741 39.8769V27.0858H30.9922Z" fill="url(#paint31_linear_503_224)"/>
<path d="M22.6699 27.0858V39.5014C24.1427 39.5718 25.6621 39.6187 27.2518 39.6657V27.0858H22.6699Z" fill="url(#paint32_linear_503_224)"/>
<path d="M14.1846 27.0858V39.032C15.5872 39.1259 17.1067 39.2197 18.7665 39.3136V27.0858H14.1846Z" fill="url(#paint33_linear_503_224)"/>
<path d="M5.8623 27.0859V38.0698C6.93765 38.3045 8.50392 38.5158 10.4442 38.7035V27.0859H5.8623Z" fill="url(#paint34_linear_503_224)"/>
</g>
<path d="M46.4211 29.7381C69.8025 29.7381 88.7568 28.5507 88.7568 27.086C88.7568 25.6213 69.8025 24.4339 46.4211 24.4339C23.0398 24.4339 4.08545 25.6213 4.08545 27.086C4.08545 28.5507 23.0398 29.7381 46.4211 29.7381Z" fill="url(#paint35_linear_503_224)"/>
<path d="M1.79541 16.243V26.4524C1.79541 26.7106 2.42661 26.9688 3.57208 27.2269C4.64742 27.4616 6.21365 27.6729 8.15393 27.8606C9.27603 27.978 10.5384 28.0719 11.9176 28.1892C13.3203 28.2831 14.8397 28.377 16.4995 28.4708C17.7385 28.5413 19.0476 28.5882 20.4035 28.6586C21.8763 28.729 23.3957 28.776 24.9854 28.8229C26.201 28.8698 27.4633 28.8933 28.7491 28.9402C30.2452 28.9637 31.7647 29.0107 33.3309 29.0341C34.6868 29.0576 36.0894 29.0811 37.492 29.0811C38.9882 29.1045 40.5077 29.1045 42.0739 29.1045C42.7752 29.1045 43.4766 29.1045 44.1779 29.1045C44.7389 29.1045 45.2766 29.1045 45.8376 29.1045C47.3805 29.1045 48.9 29.0811 50.4195 29.0811C51.8923 29.0576 53.3417 29.0576 54.7676 29.0341C56.3339 29.0107 57.8534 28.9872 59.3495 28.9402C60.6352 28.9168 61.8976 28.8698 63.1132 28.8464C64.7028 28.7994 66.2223 28.729 67.6951 28.6821C69.1444 28.6117 70.5471 28.5647 71.8562 28.4943C73.4926 28.4004 75.0355 28.3066 76.4381 28.2127C77.8173 28.1188 79.0797 28.0014 80.2017 27.8841C82.142 27.6963 83.6849 27.4851 84.7837 27.2504C85.9291 27.0157 86.5603 26.7575 86.5603 26.4759V16.2665H1.79541V16.243Z" fill="url(#paint36_radial_503_224)"/>
<g opacity="0.7">
<path d="M80.1313 16.2429V27.8605C82.0716 27.6728 83.6145 27.4615 84.7132 27.2268V16.2429H80.1313V16.2429Z" fill="url(#paint37_linear_503_224)"/>
<path d="M71.7856 16.2429V28.4707C73.422 28.3768 74.9649 28.283 76.3676 28.1891V16.2429H71.7856V16.2429Z" fill="url(#paint38_linear_503_224)"/>
<path d="M63.043 16.2429V28.8462C64.6326 28.7993 66.1521 28.7289 67.6249 28.682V16.2429H63.043V16.2429Z" fill="url(#paint39_linear_503_224)"/>
<path d="M54.7207 16.2429V29.034C56.287 29.0105 57.8065 28.9871 59.3026 28.9401V16.2429H54.7207V16.2429Z" fill="url(#paint40_linear_503_224)"/>
<path d="M45.79 16.2427V29.1042C47.3329 29.1042 48.8524 29.0808 50.3719 29.0808V16.2427H45.79Z" fill="url(#paint41_linear_503_224)"/>
<path d="M37.4683 16.2432V29.0812C38.9644 29.1047 40.4839 29.1047 42.0501 29.1047V16.2432H37.4683Z" fill="url(#paint42_linear_503_224)"/>
<path d="M28.7256 16.2429V28.9401C30.2217 28.9636 31.7412 29.0105 33.3075 29.034V16.2429H28.7256V16.2429Z" fill="url(#paint43_linear_503_224)"/>
<path d="M20.3799 16.2429V28.6585C21.8526 28.7289 23.3722 28.7758 24.9618 28.8228V16.2429H20.3799V16.2429Z" fill="url(#paint44_linear_503_224)"/>
<path d="M11.9175 16.2429V28.1891C13.3201 28.283 14.8396 28.3768 16.4993 28.4707V16.2429H11.9175V16.2429Z" fill="url(#paint45_linear_503_224)"/>
<path d="M3.57178 16.243V27.2269C4.64712 27.4616 6.21334 27.6729 8.15363 27.8606V16.243H3.57178V16.243Z" fill="url(#paint46_linear_503_224)"/>
</g>
<path d="M44.1306 18.8951C67.512 18.8951 86.4663 17.7078 86.4663 16.243C86.4663 14.7783 67.512 13.5909 44.1306 13.5909C20.7493 13.5909 1.79492 14.7783 1.79492 16.243C1.79492 17.7078 20.7493 18.8951 44.1306 18.8951Z" fill="url(#paint47_linear_503_224)"/>
<path d="M3.45459 5.07117V15.2806C3.45459 15.5387 4.08573 15.7969 5.23121 16.0551C6.30655 16.2898 7.87283 16.501 9.81311 16.6888C10.9352 16.8061 12.1975 16.9 13.5768 17.0173C14.9794 17.1112 16.4989 17.2051 18.1587 17.299C19.3977 17.3694 20.7068 17.4163 22.0626 17.4867C23.5354 17.5571 25.0549 17.6041 26.6445 17.651C27.8601 17.698 29.1225 17.7214 30.4082 17.7684C31.9043 17.7918 33.4238 17.8388 34.9901 17.8623C36.346 17.8857 37.7486 17.9092 39.1512 17.9092C40.6473 17.9327 42.1668 17.9327 43.7331 17.9327C44.4344 17.9327 45.1357 17.9327 45.837 17.9327C46.398 17.9327 46.9357 17.9327 47.4968 17.9327C49.0397 17.9327 50.5592 17.9092 52.0787 17.9092C53.5514 17.8857 55.0008 17.8857 56.4268 17.8623C57.993 17.8388 59.5125 17.8153 61.0087 17.7684C62.2944 17.7449 63.5567 17.698 64.7723 17.6745C66.362 17.6275 67.8815 17.5571 69.3542 17.5102C70.8036 17.4398 72.2062 17.3928 73.5154 17.3224C75.1517 17.2286 76.6946 17.1347 78.0972 17.0408C79.4764 16.9469 80.7388 16.8296 81.8609 16.7122C83.8012 16.5245 85.3441 16.3132 86.4428 16.0785C87.5883 15.8438 88.2194 15.5857 88.2194 15.304V5.09464H3.45459V5.07117Z" fill="url(#paint48_radial_503_224)"/>
<g opacity="0.7">
<path d="M81.791 5.07117V16.6888C83.7313 16.501 85.2742 16.2898 86.3729 16.0551V5.07117H81.791Z" fill="url(#paint49_linear_503_224)"/>
<path d="M73.4458 5.07117V17.299C75.0822 17.2051 76.6251 17.1112 78.0277 17.0173V5.07117H73.4458V5.07117Z" fill="url(#paint50_linear_503_224)"/>
<path d="M64.7031 5.07104V17.6744C66.2928 17.6274 67.8122 17.557 69.285 17.5101V5.07104H64.7031Z" fill="url(#paint51_linear_503_224)"/>
<path d="M56.3809 5.07141V17.8625C57.9471 17.839 59.4666 17.8156 60.9628 17.7686V5.07141H56.3809Z" fill="url(#paint52_linear_503_224)"/>
<path d="M47.4497 5.07104V17.9325C48.9926 17.9325 50.5121 17.9091 52.0316 17.9091V5.07104H47.4497Z" fill="url(#paint53_linear_503_224)"/>
<path d="M39.1045 5.07104V17.9091C40.6006 17.9325 42.1201 17.9325 43.6863 17.9325V5.07104H39.1045Z" fill="url(#paint54_linear_503_224)"/>
<path d="M30.3848 5.07104V17.7682C31.8809 17.7917 33.4004 17.8387 34.9666 17.8621V5.07104H30.3848Z" fill="url(#paint55_linear_503_224)"/>
<path d="M22.0396 5.07141V17.487C23.5123 17.5574 25.0318 17.6043 26.6214 17.6513V5.07141H22.0396V5.07141Z" fill="url(#paint56_linear_503_224)"/>
<path d="M13.5537 5.07117V17.0173C14.9563 17.1112 16.4758 17.2051 18.1356 17.299V5.07117H13.5537V5.07117Z" fill="url(#paint57_linear_503_224)"/>
<path d="M5.23145 5.07141V16.0553C6.30679 16.29 7.87307 16.5012 9.81335 16.689V5.07141H5.23145Z" fill="url(#paint58_linear_503_224)"/>
</g>
<path d="M88.1493 2.41919H3.45459V7.72338H88.1493V2.41919Z" fill="#FFB048"/>
<path d="M8.34077 4.01491C8.43428 5.44657 8.90183 6.8313 9.69665 8.14561V7.98132H88.3602V2.20773H8.48106V1.87915C8.34079 2.58325 8.29402 3.31081 8.34077 4.01491Z" fill="#FFB048"/>
<path d="M8.90181 3.99144C8.99531 5.4231 9.46287 6.78436 10.2577 8.09867V7.98132H88.3835V2.20773H9.04209V1.87915C8.90183 2.55978 8.85505 3.26387 8.90181 3.99144Z" fill="#FFB149"/>
<path d="M9.4394 3.94477C9.53291 5.35297 10.0004 6.71422 10.7719 8.00507V7.9816H88.3601V2.20801H9.57969V1.85596C9.43943 2.53658 9.39265 3.24068 9.4394 3.94477Z" fill="#FFB14A"/>
<path d="M10.0004 3.92131C10.094 5.3295 10.5381 6.66728 11.3329 7.93465C11.5199 8.26323 11.7537 8.56834 11.9875 8.87345V7.9816H88.3834V2.20801H10.1407V1.85596C10.0004 2.51311 9.95369 3.21721 10.0004 3.92131Z" fill="#FFB24B"/>
<path d="M10.5614 3.87428C10.6549 5.259 11.0991 6.57331 11.8705 7.84069C12.0575 8.1458 12.2679 8.47438 12.5017 8.77948V7.98151H88.3599V2.20792H10.6783V1.8324C10.5614 2.48955 10.5146 3.19365 10.5614 3.87428Z" fill="#FFB34C"/>
<path d="M11.099 3.85084C11.1925 5.21209 11.6366 6.5264 12.3847 7.77031C12.7587 8.40399 13.2263 8.99074 13.7639 9.57748V7.98154H88.3598V2.20794H11.2159V1.80896C11.099 2.46612 11.0522 3.14674 11.099 3.85084Z" fill="#FFB34D"/>
<path d="M11.6605 3.8039C11.754 5.16515 12.1982 6.456 12.9462 7.67643C13.3203 8.28665 13.7878 8.89686 14.3021 9.48361V7.98154H88.3604V2.20794H11.7774V1.80896C11.6605 2.44265 11.6137 3.12327 11.6605 3.8039Z" fill="#FFB44E"/>
<path d="M12.2212 3.75724C12.3147 5.09502 12.7354 6.38586 13.4835 7.60629C13.8575 8.21651 14.3017 8.80326 14.8394 9.39001V7.98181H88.3833V2.20822H12.3614V1.78577C12.2211 2.41945 12.1744 3.10008 12.2212 3.75724Z" fill="#FFB54F"/>
<path d="M12.7591 3.73355C12.8526 5.04787 13.2735 6.31524 14.0215 7.53568C14.3955 8.14589 14.8397 8.73264 15.354 9.29592V7.9816H88.3603V2.20801H12.876V1.76208C12.7591 2.41924 12.7124 3.0764 12.7591 3.73355Z" fill="#FFB550"/>
<path d="M13.3197 3.68662C13.4132 5.00093 13.834 6.24483 14.5587 7.4418C14.9327 8.02855 15.3534 8.61529 15.8677 9.17857V7.9816H88.3597V2.20801H13.4366V1.76208C13.3197 2.39577 13.2729 3.02946 13.3197 3.68662Z" fill="#FFB651"/>
<path d="M13.8812 3.66306C13.9747 4.9539 14.3955 6.1978 15.0968 7.3713C15.4474 7.95804 15.8916 8.52133 16.4059 9.0846V7.98151H88.3836V2.20792H13.9981V1.73853C13.8812 2.37221 13.8344 3.0059 13.8812 3.66306Z" fill="#FFB652"/>
<path d="M14.4188 3.61612C14.5123 4.88349 14.9097 6.12739 15.6344 7.27742C15.985 7.86416 16.4292 8.42744 16.9201 8.96725V7.98151H88.3602V2.20792H14.5357V1.73853C14.4188 2.34874 14.372 2.98243 14.4188 3.61612Z" fill="#FFB753"/>
<path d="M14.9793 3.59268C15.0728 4.86005 15.4703 6.08049 16.1716 7.23051C16.5222 7.81726 16.943 8.35707 17.4339 8.89687V7.98155H88.3597V2.20796H15.0962V1.71509C14.9793 2.3253 14.9326 2.95899 14.9793 3.59268Z" fill="#FFB854"/>
<path d="M15.5404 3.54577C15.6339 4.78967 16.0313 5.98663 16.7326 7.13666C17.0832 7.69993 17.504 8.26321 17.995 8.80302V7.98157H88.383V2.20798H15.6573V1.69165C15.5404 2.30187 15.4936 2.91208 15.5404 3.54577Z" fill="#FFB855"/>
<path d="M16.0785 3.49883C16.1486 4.74273 16.5694 5.91623 17.2473 7.04278C17.598 7.60606 17.9953 8.14586 18.4862 8.68567V7.98157H88.36V2.20798H16.1953V1.69165C16.0785 2.2784 16.0317 2.88861 16.0785 3.49883Z" fill="#FFB956"/>
<path d="M16.6395 3.47542C16.7096 4.69586 17.107 5.86936 17.7849 6.97244C18.1356 7.53572 18.533 8.07552 19.0239 8.59186V7.98164H88.3834V2.20805H16.7564V1.64478C16.6395 2.25499 16.5927 2.86521 16.6395 3.47542Z" fill="#FFBA57"/>
<path d="M17.1766 3.42849C17.2467 4.62545 17.6441 5.79894 18.3221 6.87856C18.6493 7.41836 19.0701 7.95817 19.5376 8.47451V7.98164H88.3595V2.20805H17.2935V1.64478C17.1766 2.23152 17.1532 2.84174 17.1766 3.42849Z" fill="#FFBA58"/>
<path d="M17.7381 3.40502C17.8082 4.60198 18.2056 5.72853 18.8602 6.80815C19.1874 7.34796 19.5849 7.88777 20.0524 8.38063V7.98164H88.3599V2.20805H17.8316V1.64478C17.7381 2.20805 17.6913 2.7948 17.7381 3.40502Z" fill="#FFBB59"/>
<path d="M18.2991 3.35799C18.3692 4.53148 18.7666 5.65804 19.4212 6.73765C19.7484 7.27746 20.1459 7.79379 20.6134 8.28666V7.98155H88.3832V2.20796H18.3926V1.62122C18.2991 2.18449 18.2524 2.77124 18.2991 3.35799Z" fill="#FFBC5A"/>
<path d="M18.8368 3.33452C18.9069 4.48454 19.281 5.61109 19.9355 6.66724C20.2628 7.18358 20.6602 7.69992 21.1044 8.21625V7.98155H88.3599V2.20796H18.9536V1.62122C18.8368 2.16102 18.8134 2.74777 18.8368 3.33452Z" fill="#FFBC5B"/>
<path d="M19.3977 3.28773C19.538 5.58778 20.8938 7.6766 23.1614 9.53072V7.98171H88.3598V2.20812H19.4912V1.5979C19.3977 2.13771 19.351 2.72446 19.3977 3.28773Z" fill="#FFBD5C"/>
<path d="M19.9588 3.26417C20.0991 5.51728 21.4316 7.6061 23.6758 9.41328V7.98161H88.3832V2.20802H20.0757V1.57434C19.9588 2.11415 19.9121 2.67742 19.9588 3.26417Z" fill="#FFBE5D"/>
<path d="M20.4967 3.21723C20.637 5.44687 21.9461 7.48875 24.1669 9.29593V7.98161H88.3601V2.20802H20.5902V1.57434C20.4967 2.11415 20.4733 2.65396 20.4967 3.21723Z" fill="#FFBE5E"/>
<path d="M21.0574 3.17008C21.1977 5.37625 22.4834 7.39466 24.6808 9.1549V7.9814H88.3597V2.20781H21.1509V1.55066C21.0574 2.09047 21.0106 2.63027 21.0574 3.17008Z" fill="#FFBF5F"/>
<path d="M21.6185 3.14661C21.7588 5.32931 23.0211 7.30078 25.1952 9.06102V7.9814H88.3831V2.20781H21.7354V1.55066C21.6185 2.067 21.5717 2.6068 21.6185 3.14661Z" fill="#FFC060"/>
<path d="M22.1564 3.09983C22.2966 5.23559 23.5356 7.20705 25.6863 8.92036V7.98156H88.3599V2.20797H22.2499V1.52734C22.1564 2.04368 22.133 2.56002 22.1564 3.09983Z" fill="#FFC061"/>
<path d="M22.7171 3.07627C22.8574 5.18856 24.0964 7.13656 26.2003 8.82639V7.98147H88.383V2.20788H22.834V1.50378C22.7171 2.02012 22.6704 2.53646 22.7171 3.07627Z" fill="#FFC162"/>
<path d="M23.2781 3.02933C23.4184 5.11815 24.634 7.01921 26.7146 8.68557V7.98147H88.383V2.20788H23.3716V1.50378C23.2781 1.99665 23.2313 2.51299 23.2781 3.02933Z" fill="#FFC163"/>
<path d="M23.8163 3.00601C23.9565 5.04789 25.1487 6.94895 27.2059 8.59185V7.98163H88.3834V2.20804H23.9331V1.48047C23.8163 1.97334 23.7929 2.48967 23.8163 3.00601Z" fill="#FFC264"/>
<path d="M24.3772 2.95898C24.5175 4.97739 25.6863 6.83151 27.6968 8.4744V7.98153H88.36V2.20794H24.4707V1.45691C24.3772 1.94978 24.3305 2.44264 24.3772 2.95898Z" fill="#FFC365"/>
<path d="M24.9381 2.91204C25.0784 4.90698 26.2238 6.73763 28.2109 8.33358V7.98153H88.3832V2.20794H25.0316V1.45691C24.9147 1.92631 24.8914 2.41917 24.9381 2.91204Z" fill="#FFC366"/>
<path d="M25.4757 2.88863C25.616 4.8601 26.7381 6.64382 28.7018 8.23977V7.9816H88.3598V2.20801H25.5692V1.41003C25.4757 1.9029 25.4523 2.39577 25.4757 2.88863Z" fill="#FFC467"/>
<path d="M26.0369 2.8417C26.1538 4.76623 27.2993 6.54994 29.2162 8.09895V7.9816H88.3599V2.20801H26.107V1.41003C26.0369 1.87943 25.9901 2.3723 26.0369 2.8417Z" fill="#FFC568"/>
<path d="M26.5744 2.81823C26.6912 4.71929 27.8133 6.47953 29.7068 8.00507V7.9816H87.6116V8.56835C88.3831 8.19283 89.1311 7.81731 89.8325 7.4418H88.3597V2.20801H26.6678V1.41003C26.5743 1.85596 26.551 2.34883 26.5744 2.81823Z" fill="#FFC569"/>
<path d="M27.1357 2.7712C27.2526 4.64879 28.3514 6.36209 30.2215 7.86416C30.6891 8.23968 31.2033 8.6152 31.7644 8.94378V7.98151H87.2145V8.42744C87.986 8.07539 88.7107 7.69988 89.3886 7.32436H88.36V2.20792H27.2059V1.38647C27.1357 1.8324 27.1123 2.3018 27.1357 2.7712Z" fill="#FFC66A"/>
<path d="M27.697 2.74777C27.8139 4.60189 28.8893 6.29172 30.736 7.77032C31.2036 8.14584 31.6945 8.49789 32.2555 8.84993V7.98155H86.8174V8.31012C87.5654 7.95807 88.2901 7.58256 88.968 7.20704H88.3603V2.18448H27.7672V1.36304C27.6971 1.80896 27.6503 2.27837 27.697 2.74777Z" fill="#FFC76B"/>
<path d="M28.2345 2.70082C28.3514 4.508 29.4033 6.17436 31.2267 7.6295C31.6709 8.00501 32.1852 8.35706 32.7229 8.68564V7.98154H86.4198V8.19277C87.1678 7.84072 87.8691 7.48867 88.5237 7.11316H88.3601V2.20795H28.328V1.36304C28.2345 1.80896 28.2111 2.2549 28.2345 2.70082Z" fill="#FFC76C"/>
<path d="M28.7955 2.67726C28.9124 4.46097 29.9644 6.10386 31.7411 7.53552C32.6294 8.26309 33.7047 8.92025 34.9437 9.53046V7.98145H86.0224V8.05186C87.4951 7.37123 88.8042 6.64367 89.9497 5.86916H88.3834V2.18439H28.889V1.33948C28.7955 1.78541 28.7722 2.23133 28.7955 2.67726Z" fill="#FFC86D"/>
<path d="M29.3563 2.63048C29.4732 4.39072 30.5018 5.98667 32.2551 7.41833C33.12 8.12243 34.1954 8.77958 35.411 9.36633V7.98161H83.3805V8.89693C84.1753 8.59182 84.9234 8.26325 85.648 7.9112C87.074 7.23057 88.3831 6.52648 89.5052 5.77544H88.4065V2.18454H29.4732V1.31616C29.3563 1.76209 29.3095 2.18455 29.3563 2.63048Z" fill="#FFC96E"/>
<path d="M29.8939 2.58345C30.0108 4.32022 31.0161 5.8927 32.7226 7.27742C33.5875 7.98152 34.6161 8.61521 35.8083 9.20195V7.98152H82.9597V8.75602C83.7311 8.45091 84.4792 8.12234 85.1805 7.79376C86.5831 7.13661 87.8688 6.43251 88.9675 5.68147H88.3364V2.18446H29.9407V1.2926C29.8939 1.73853 29.8706 2.16099 29.8939 2.58345Z" fill="#FFC96F"/>
<path d="M30.4551 2.56006C30.5719 4.24989 31.5538 5.82238 33.2369 7.18363C34.0785 7.86426 35.1071 8.49795 36.2759 9.08469V7.98161H80.248V9.48368C81.8844 8.9204 83.4273 8.33366 84.8065 7.6765C86.1858 7.01934 87.4481 6.33871 88.5234 5.61115H88.3598V2.20801H30.5251V1.31616C30.455 1.71515 30.4317 2.1376 30.4551 2.56006Z" fill="#FFCA70"/>
<path d="M31.016 2.51301C31.1328 4.17937 32.0913 5.70491 33.7511 7.04269C34.5926 7.72332 35.5745 8.33354 36.7433 8.89681V7.95802H79.944V9.2958C81.557 8.756 83.0531 8.14578 84.4323 7.51209C85.8116 6.87841 87.0272 6.19778 88.1025 5.47021C88.6402 5.11816 89.1311 4.74265 89.5987 4.36713H88.4064V2.13749H31.1328V1.22217C31.016 1.69157 30.9692 2.11402 31.016 2.51301Z" fill="#FFCA71"/>
<path d="M31.5542 2.4896C31.6711 4.13249 32.6061 5.63457 34.2425 6.94888C35.0607 7.60604 36.0425 8.21625 37.188 8.77953V7.98155H79.6172V9.17852C81.2068 8.63871 82.6796 8.05196 84.0121 7.44175C85.3446 6.80806 86.5602 6.1509 87.6122 5.44681C88.1265 5.09476 88.6174 4.74271 89.0615 4.36719H88.3602V2.20796H31.6243V1.26917C31.5542 1.66815 31.5308 2.06714 31.5542 2.4896Z" fill="#FFCB72"/>
<path d="M32.1147 2.44257C32.2316 4.03852 33.1667 5.51713 34.7563 6.80797C35.5511 7.46513 36.533 8.05187 37.6317 8.59168V7.98146H79.2895V9.01414C80.8557 8.4978 82.3051 7.91106 83.6142 7.30084C86.2558 6.0804 88.3597 4.67221 89.7624 3.17014H88.3597V2.1844H32.1849V1.24561C32.1147 1.64459 32.0913 2.04358 32.1147 2.44257Z" fill="#FFCC73"/>
<path d="M32.6761 2.41913C32.7696 3.99161 33.7046 5.44674 35.2709 6.71412C36.0657 7.3478 37.0008 7.93455 38.0995 8.47436V7.98149H78.9858V8.84988C80.5287 8.33354 81.9313 7.77026 83.2404 7.16004C85.8119 5.93961 87.8924 4.57835 89.2717 3.12322H88.3833V2.18443H32.7461V1.22217C32.676 1.62116 32.6293 2.02014 32.6761 2.41913Z" fill="#FFCC74"/>
<path d="M33.2138 2.37216C33.3074 3.92118 34.2191 5.32937 35.762 6.57327C36.5334 7.18349 37.4685 7.77023 38.5438 8.31004V7.98146H78.6587V8.68556C80.1548 8.19269 81.5575 7.62942 82.8198 7.04267C85.3445 5.8457 87.3783 4.50792 88.7341 3.07626H88.3601V2.20787H33.284V1.24561C33.2139 1.59765 33.1905 1.99665 33.2138 2.37216Z" fill="#FFCD75"/>
<path d="M33.7749 2.32528C33.9853 5.35289 37.3048 7.88764 42.5412 9.554V7.98152H78.3313V8.5448C79.8041 8.05193 81.1833 7.51212 82.4223 6.92538C84.9003 5.75188 86.8873 4.43757 88.2432 3.02938C88.9211 2.32528 89.412 1.59772 89.7393 0.84668L88.3834 2.18446H33.845V1.19873C33.7749 1.57425 33.7515 1.94976 33.7749 2.32528Z" fill="#FFCE76"/>
<path d="M34.312 2.30184C34.499 5.28252 37.7717 7.77033 42.9147 9.38975V7.98155H78.0035V8.38055C79.4529 7.88768 80.7854 7.37134 82.001 6.78459C84.4322 5.63457 86.3959 4.34373 87.705 2.959C88.3595 2.27838 88.8505 1.55081 89.1777 0.823242L88.3595 2.18449H34.3821V1.17529C34.312 1.55081 34.2886 1.92632 34.312 2.30184Z" fill="#FFCE77"/>
<path d="M34.8732 2.25487C35.0602 5.16514 38.2628 7.60601 43.2889 9.20196V7.98152H73.1413V9.50706C76.3439 8.75603 79.2193 7.79376 81.6037 6.66721C83.9882 5.54065 85.9051 4.27328 87.1908 2.9355C87.8454 2.25487 88.3129 1.55078 88.6402 0.84668L88.383 2.20793H34.9667V1.17526C34.8732 1.5273 34.8498 1.90282 34.8732 2.25487Z" fill="#FFCF79"/>
<path d="M35.4347 2.2314C35.6217 5.09473 38.7542 7.46518 43.6868 9.03767V7.98152H72.9314V9.31931C76.0639 8.59174 78.8691 7.62947 81.2302 6.54986C83.5679 5.44677 85.438 4.20287 86.7004 2.88855C87.3316 2.2314 87.7991 1.55078 88.1264 0.84668V2.20793H35.5282V1.17526C35.4347 1.50383 35.4113 1.87935 35.4347 2.2314Z" fill="#FFD07A"/>
<path d="M35.9721 2.18449C36.1592 4.97741 39.2216 7.3244 44.0606 8.84994V7.98155H72.6974V9.13158C75.7831 8.40401 78.5182 7.48868 80.8092 6.40907C83.1001 5.32946 84.9235 4.10903 86.1625 2.81818C86.7703 2.16103 87.2379 1.50387 87.5418 0.823242V2.20796H36.0423V1.17529C35.9722 1.4804 35.9488 1.83244 35.9721 2.18449Z" fill="#FFD07B"/>
<path d="M36.5332 2.16106C36.7202 4.90704 39.7124 7.18361 44.4345 8.66221V7.95812H72.4402V8.92038C75.4558 8.21629 78.1441 7.30096 80.3883 6.26829C82.6325 5.21215 84.4326 4.03865 85.6248 2.74781C86.2326 2.11412 86.6767 1.45696 86.9806 0.799805V2.18453H36.5098V2.16106H36.5332Z" fill="#FFD17C"/>
<path d="M37.0942 2.11412C37.2813 4.78969 40.2034 7.01933 44.832 8.47446V7.98159H72.2298V8.75609C75.1753 8.07547 77.8169 7.18362 79.991 6.15094C82.1884 5.11827 83.9417 3.96824 85.1105 2.72434C85.6949 2.11412 86.1391 1.45696 86.443 0.799805V2.18453H37.0942V2.11412Z" fill="#FFD27D"/>
<path d="M37.6313 2.09065C37.795 4.71927 40.6937 6.90197 45.2055 8.31017V7.98159H71.9955V8.56834C74.8709 7.88771 77.4423 7.01933 79.593 6.03359C81.7437 5.02439 83.4502 3.89783 84.5957 2.67739C85.1801 2.06718 85.6009 1.43349 85.9048 0.799805V2.18453H37.6313V2.09065Z" fill="#FFD27E"/>
<path d="M38.1929 2.04371C38.3565 4.60193 41.1851 6.73769 45.58 8.12241V7.98159H71.7622V8.40404C74.5675 7.74689 77.0922 6.90198 79.1961 5.91624C81.3 4.93051 82.9598 3.82742 84.1053 2.63046C84.6663 2.04371 85.1105 1.43349 85.3676 0.799805V2.208H38.1929V2.04371Z" fill="#FFD37F"/>
<path d="M38.7539 1.99677C38.9175 4.48458 41.676 6.57339 45.9774 7.93465C48.128 8.61527 50.6762 9.10814 53.4814 9.38978V7.98159H62.575V9.5306C68.9803 9.10814 74.731 7.69995 78.822 5.79889C80.8792 4.83663 82.5156 3.75701 83.6143 2.58352C84.1753 1.99677 84.5961 1.41002 84.8533 0.799805V2.208H38.7772V1.99677H38.7539Z" fill="#FFD480"/>
<path d="M39.292 1.97321C39.4556 4.41408 42.144 6.45596 46.3519 7.77027C48.4558 8.42743 50.9337 8.9203 53.6688 9.17847V7.9815H62.5287V9.29582C68.7938 8.87336 74.3809 7.5121 78.3783 5.63451C80.3654 4.69572 81.9784 3.63958 83.0537 2.51302C83.5914 1.94974 84.0122 1.36299 84.2693 0.776245V2.18444H39.292V1.97321Z" fill="#FFD481"/>
<path d="M39.8525 1.92634C40.0162 4.29679 42.6344 6.29173 46.7253 7.58257C50.8397 8.87341 56.4268 9.48363 62.5282 9.06118C68.6296 8.66219 74.0998 7.3244 78.0037 5.49375C79.944 4.57843 81.5103 3.54575 82.5623 2.44267C83.0765 1.87939 83.4974 1.31612 83.7545 0.72937V2.16103H39.8759V1.92634H39.8525Z" fill="#FFD582"/>
<path d="M40.4141 1.90283C40.5777 4.22635 43.1258 6.17435 47.1232 7.41825C51.1207 8.66216 56.5676 9.27237 62.5287 8.87338C68.4898 8.47439 73.8198 7.18355 77.6068 5.39984C79.5004 4.50799 81.0199 3.49878 82.0485 2.41916C82.5628 1.87936 82.9602 1.31608 83.1939 0.752808V2.18446H40.4141V1.90283Z" fill="#FFD583"/>
<path d="M40.9512 1.85592C41.2551 6.38561 50.8864 9.41322 62.5047 8.63871C68.3022 8.2632 73.4919 6.99582 77.2089 5.25905C79.0557 4.39067 80.5518 3.40493 81.5336 2.34879C82.0245 1.83245 82.4219 1.29265 82.6557 0.72937V2.16103H40.9746V1.85592H40.9512Z" fill="#FFD684"/>
<path d="M41.5121 1.83239C41.7926 6.24473 51.1902 9.20193 62.4813 8.4509C68.1385 8.07538 73.1879 6.85495 76.788 5.16512C78.588 4.3202 80.0374 3.35793 80.9958 2.34873C81.4868 1.83239 81.8608 1.31605 82.0946 0.776245V2.23138H41.4888V1.83239H41.5121Z" fill="#FFD785"/>
<path d="M42.0737 1.78551C42.3543 6.05703 51.4947 8.94383 62.4818 8.21626C67.9754 7.84074 72.8846 6.64377 76.4145 5.00088C78.1677 4.17944 79.5704 3.24065 80.5054 2.25491C80.973 1.76204 81.347 1.24571 81.5808 0.72937V2.1845H42.0737V1.78551Z" fill="#FFD786"/>
<path d="M42.6108 1.73857C42.8914 5.89274 51.7746 8.70913 62.4579 8.00503C67.8112 7.65298 72.5801 6.47949 75.9931 4.88353C77.6996 4.08556 79.0555 3.17023 79.9906 2.20797C80.4581 1.7151 80.8088 1.22224 81.0192 0.72937V2.1845H42.6108V1.73857Z" fill="#FFD887"/>
<path d="M43.1724 1.71509C43.4295 5.75191 52.079 8.47442 62.4584 7.79379C67.648 7.44174 72.3001 6.31518 75.5962 4.76617C77.256 3.99167 78.5885 3.09982 79.4768 2.16102V2.18449H43.1724V1.71509Z" fill="#FFD988"/>
<path d="M43.71 1.66809C43.9671 5.58756 52.3361 8.23966 62.4115 7.55903C67.4376 7.23045 71.9493 6.12737 75.1753 4.6253C76.7883 3.87426 78.0741 3.02934 78.939 2.11402V2.18442H43.71V1.66809Z" fill="#FFD989"/>
<path d="M44.271 1.64478C44.5281 5.4469 52.64 8.00511 62.4115 7.37142C67.2973 7.04285 71.6688 5.9867 74.7779 4.53157C76.3442 3.804 77.5832 2.98256 78.4248 2.0907V2.20805H44.271V1.64478Z" fill="#FFDA8A"/>
<path d="M44.832 1.5979C45.0658 5.28267 52.9438 7.77048 62.4115 7.13679C67.1337 6.83169 71.3883 5.79901 74.4039 4.36735C75.9234 3.66325 77.1156 2.86528 77.9338 1.99689V2.16118H44.832V1.5979Z" fill="#FFDB8B"/>
<path d="M45.3691 1.57434C45.6029 5.14176 53.2238 7.53569 62.3876 6.92547C66.9695 6.62036 71.0605 5.63463 73.9826 4.24991C75.4553 3.56928 76.6241 2.79477 77.3956 1.94985V2.18455H45.3691V1.57434Z" fill="#FFDB8C"/>
<path d="M45.9307 1.52734C46.1644 4.97742 53.5282 7.30094 62.3647 6.71419C66.7829 6.40908 70.757 5.44682 73.5856 4.1325C74.9883 3.47535 76.1337 2.72431 76.8818 1.92633V2.20797H45.9307V1.52734Z" fill="#FFDC8D"/>
<path d="M46.4916 1.48047C46.702 4.81319 53.8086 7.04283 62.3646 6.47956C66.6426 6.19792 70.453 5.25912 73.1881 3.99175C74.544 3.35806 75.6427 2.63049 76.3674 1.85599V2.18457H46.4683V1.48047H46.4916Z" fill="#FFDD8E"/>
<path d="M47.0298 1.45691C47.2402 4.67228 54.0896 6.8315 62.3417 6.2917C66.456 6.01006 70.1496 5.11821 72.7912 3.89777C74.1003 3.28756 75.1523 2.58346 75.8769 1.83242V2.20794H47.0532V1.45691H47.0298Z" fill="#FFDD8F"/>
<path d="M47.5903 1.41003C47.8007 4.50806 54.3931 6.5734 62.3412 6.05707C66.3153 5.7989 69.8686 4.93051 72.3933 3.73355C73.6557 3.1468 74.6843 2.46618 75.3622 1.73861V2.16107H47.6137V1.41003H47.5903Z" fill="#FFDE90"/>
<path d="M48.1514 1.38647C48.3384 4.36715 54.6969 6.36209 62.3178 5.84575C66.1282 5.58758 69.5413 4.76614 71.9959 3.61611C73.2115 3.05284 74.1933 2.39568 74.8479 1.71505V2.18445H48.1514V1.38647Z" fill="#FFDF91"/>
<path d="M48.689 1.33948C48.876 4.2028 54.9774 6.10386 62.2943 5.63446C65.9645 5.39976 69.2373 4.60179 71.575 3.4987C72.7438 2.95889 73.6789 2.32521 74.3101 1.66805V2.18439H48.689V1.33948V1.33948Z" fill="#FFDF92"/>
<path d="M49.25 1.31616C49.437 4.06214 55.2579 5.89279 62.2944 5.42339C65.8009 5.18869 68.9568 4.41418 71.1776 3.38151C72.2997 2.86517 73.188 2.25495 73.7958 1.62127V2.18454H49.25V1.31616Z" fill="#FFE093"/>
<path d="M49.8115 1.26917C49.9752 3.89779 55.5623 5.65804 62.2949 5.21211C65.6611 5.00088 68.6534 4.24984 70.8041 3.2641C71.8794 2.77124 72.7443 2.18449 73.3054 1.57428V2.20796H49.8115V1.26917Z" fill="#FFE094"/>
<path d="M50.349 1.24561C50.5127 3.73341 55.8426 5.42324 62.2479 5.00079C65.4506 4.78956 68.3259 4.08546 70.3597 3.1232C71.3883 2.6538 72.2065 2.09052 72.7442 1.52725V2.20787H50.3257V1.24561H50.349Z" fill="#FFE195"/>
<path d="M50.9102 1.19873C51.0738 3.56919 56.1466 5.1886 62.248 4.76615C65.3104 4.55492 68.0221 3.89777 69.9857 2.98244C70.9676 2.53651 71.739 1.99671 72.2533 1.4569V2.18446H50.9102V1.19873V1.19873Z" fill="#FFE296"/>
<path d="M51.4473 1.15173C51.5875 3.40484 56.4266 4.93038 62.2241 4.55487C65.1228 4.36711 67.7176 3.73342 69.5644 2.86504C70.4995 2.44258 71.2242 1.94971 71.7385 1.4099V2.18441H51.4473V1.15173Z" fill="#FFE297"/>
<path d="M52.0093 1.1283C52.1495 3.26405 56.708 4.71919 62.225 4.34367C64.9835 4.15591 67.4381 3.56917 69.1914 2.74772C70.0797 2.34874 70.781 1.87933 71.2485 1.36299V2.18444H52.0326V1.1283H52.0093Z" fill="#FFE398"/>
<path d="M52.5698 1.08154C52.7101 3.09995 57.0114 4.4612 62.2011 4.10916C64.796 3.94487 67.1103 3.38159 68.7701 2.60708C69.5883 2.2081 70.2662 1.78564 70.7104 1.31624V2.18462H52.5698V1.08154Z" fill="#FFE499"/>
<path d="M53.1069 1.05798C53.2238 2.95904 57.2914 4.24989 62.1772 3.92131C64.6084 3.75702 66.8058 3.21721 68.3721 2.48965C69.1435 2.11413 69.7747 1.71514 70.1955 1.26921V2.18453H53.1069V1.05798V1.05798Z" fill="#FFE49A"/>
<path d="M53.668 1.01111C53.7849 2.79482 57.5953 3.99179 62.1772 3.68668C64.4682 3.54586 66.5253 3.02952 67.9747 2.34889C68.6994 1.99685 69.2838 1.62133 69.6812 1.19887V2.16114H53.668V1.01111V1.01111Z" fill="#FFE59B"/>
<path d="M54.2295 0.987427C54.3464 2.65379 57.8997 3.78034 62.1777 3.4987C64.305 3.35788 66.2219 2.88849 67.6011 2.2548C68.279 1.92622 68.8401 1.57417 69.1908 1.17518V2.20786H54.2528V0.987427H54.2295Z" fill="#FFE69C"/>
<path d="M54.7676 0.940552C54.8611 2.48956 58.1806 3.52224 62.1313 3.26407C64.1184 3.12325 65.895 2.70079 67.1574 2.11405V2.18445H54.7676V0.940552Z" fill="#FFE69D"/>
<path d="M55.3281 0.893677C55.4216 2.32534 58.4607 3.28761 62.1308 3.02944C63.9543 2.91209 65.5906 2.5131 66.7828 1.94982V2.16106H55.3281V0.893677Z" fill="#FFE79E"/>
<path d="M55.8892 0.870239C55.9827 2.18455 58.7646 3.05294 62.1309 2.84171C63.814 2.72436 65.3101 2.37231 66.3855 1.85597V2.18455H55.8892V0.870239V0.870239Z" fill="#FFE89F"/>
<path d="M56.4268 0.823242C56.4969 2.02021 59.045 2.81818 62.1074 2.60695C63.6269 2.51307 65.0061 2.18449 65.9646 1.71509V2.18449H56.4268V0.823242Z" fill="#FFE8A0"/>
<path d="M56.9883 0.799805C57.0584 1.87942 59.3493 2.58351 62.0844 2.41922C63.4637 2.32535 64.6793 2.02024 65.5676 1.62125V2.208H56.9883V0.799805V0.799805Z" fill="#FFE9A1"/>
<path d="M57.5493 0.752808C57.6194 1.71507 59.6532 2.34875 62.0844 2.18446H57.5493V0.752808Z" fill="#FFE9A2"/>
<defs>
<radialGradient id="paint0_radial_503_224" cx="0" cy="0" r="1" gradientUnits="userSpaceOnUse" gradientTransform="translate(93.3801 35.5729) rotate(180) scale(90.6051 90.9652)">
<stop stop-color="#FFEEA9"/>
<stop offset="1" stop-color="#FFB048"/>
</radialGradient>
<linearGradient id="paint1_linear_503_224" x1="-28.6403" y1="87.1227" x2="49.04" y2="65.1437" gradientUnits="userSpaceOnUse">
<stop stop-color="#C45A12"/>
<stop offset="1" stop-color="#FFB048"/>
</linearGradient>
<linearGradient id="paint2_linear_503_224" x1="-29.1347" y1="85.3676" x2="48.5446" y2="63.3891" gradientUnits="userSpaceOnUse">
<stop stop-color="#C45A12"/>
<stop offset="1" stop-color="#FFB048"/>
</linearGradient>
<linearGradient id="paint3_linear_503_224" x1="-29.7257" y1="83.2859" x2="47.954" y2="61.307" gradientUnits="userSpaceOnUse">
<stop stop-color="#C45A12"/>
<stop offset="1" stop-color="#FFB048"/>
</linearGradient>
<linearGradient id="paint4_linear_503_224" x1="-30.3114" y1="81.2102" x2="47.3676" y2="59.2318" gradientUnits="userSpaceOnUse">
<stop stop-color="#C45A12"/>
<stop offset="1" stop-color="#FFB048"/>
</linearGradient>
<linearGradient id="paint5_linear_503_224" x1="-30.9574" y1="78.9241" x2="46.7217" y2="56.9457" gradientUnits="userSpaceOnUse">
<stop stop-color="#C45A12"/>
<stop offset="1" stop-color="#FFB048"/>
</linearGradient>
<linearGradient id="paint6_linear_503_224" x1="-31.5777" y1="76.7361" x2="46.1023" y2="54.7572" gradientUnits="userSpaceOnUse">
<stop stop-color="#C45A12"/>
<stop offset="1" stop-color="#FFB048"/>
</linearGradient>
<linearGradient id="paint7_linear_503_224" x1="-32.2413" y1="74.3895" x2="45.4376" y2="52.4112" gradientUnits="userSpaceOnUse">
<stop stop-color="#C45A12"/>
<stop offset="1" stop-color="#FFB048"/>
</linearGradient>
<linearGradient id="paint8_linear_503_224" x1="-32.8904" y1="72.0982" x2="44.789" y2="50.1195" gradientUnits="userSpaceOnUse">
<stop stop-color="#C45A12"/>
<stop offset="1" stop-color="#FFB048"/>
</linearGradient>
<linearGradient id="paint9_linear_503_224" x1="-33.5692" y1="69.6978" x2="44.1107" y2="47.7189" gradientUnits="userSpaceOnUse">
<stop stop-color="#C45A12"/>
<stop offset="1" stop-color="#FFB048"/>
</linearGradient>
<linearGradient id="paint10_linear_503_224" x1="-34.2722" y1="67.2147" x2="43.4076" y2="45.2359" gradientUnits="userSpaceOnUse">
<stop stop-color="#C45A12"/>
<stop offset="1" stop-color="#FFB048"/>
</linearGradient>
<linearGradient id="paint11_linear_503_224" x1="-39.1388" y1="64.6914" x2="107.198" y2="39.3268" gradientUnits="userSpaceOnUse">
<stop stop-color="#C45A12"/>
<stop offset="1" stop-color="#FFB048"/>
</linearGradient>
<radialGradient id="paint12_radial_503_224" cx="0" cy="0" r="1" gradientUnits="userSpaceOnUse" gradientTransform="translate(95.485 23.9743) rotate(180) scale(90.6051 90.9652)">
<stop stop-color="#FFEEA9"/>
<stop offset="1" stop-color="#FFB048"/>
</radialGradient>
<linearGradient id="paint13_linear_503_224" x1="-26.5343" y1="75.5242" x2="51.146" y2="53.5452" gradientUnits="userSpaceOnUse">
<stop stop-color="#C45A12"/>
<stop offset="1" stop-color="#FFB048"/>
</linearGradient>
<linearGradient id="paint14_linear_503_224" x1="-27.0292" y1="73.7691" x2="50.6502" y2="51.7906" gradientUnits="userSpaceOnUse">
<stop stop-color="#C45A12"/>
<stop offset="1" stop-color="#FFB048"/>
</linearGradient>
<linearGradient id="paint15_linear_503_224" x1="-27.6198" y1="71.6875" x2="50.06" y2="49.7086" gradientUnits="userSpaceOnUse">
<stop stop-color="#C45A12"/>
<stop offset="1" stop-color="#FFB048"/>
</linearGradient>
<linearGradient id="paint16_linear_503_224" x1="-28.2054" y1="69.6117" x2="49.4736" y2="47.6333" gradientUnits="userSpaceOnUse">
<stop stop-color="#C45A12"/>
<stop offset="1" stop-color="#FFB048"/>
</linearGradient>
<linearGradient id="paint17_linear_503_224" x1="-28.8528" y1="67.3257" x2="48.8261" y2="45.3474" gradientUnits="userSpaceOnUse">
<stop stop-color="#C45A12"/>
<stop offset="1" stop-color="#FFB048"/>
</linearGradient>
<linearGradient id="paint18_linear_503_224" x1="-29.4731" y1="65.1377" x2="48.2067" y2="43.1588" gradientUnits="userSpaceOnUse">
<stop stop-color="#C45A12"/>
<stop offset="1" stop-color="#FFB048"/>
</linearGradient>
<linearGradient id="paint19_linear_503_224" x1="-30.1359" y1="62.7911" x2="47.5431" y2="40.8127" gradientUnits="userSpaceOnUse">
<stop stop-color="#C45A12"/>
<stop offset="1" stop-color="#FFB048"/>
</linearGradient>
<linearGradient id="paint20_linear_503_224" x1="-30.785" y1="60.4997" x2="46.8944" y2="38.521" gradientUnits="userSpaceOnUse">
<stop stop-color="#C45A12"/>
<stop offset="1" stop-color="#FFB048"/>
</linearGradient>
<linearGradient id="paint21_linear_503_224" x1="-31.4641" y1="58.0993" x2="46.2157" y2="36.1204" gradientUnits="userSpaceOnUse">
<stop stop-color="#C45A12"/>
<stop offset="1" stop-color="#FFB048"/>
</linearGradient>
<linearGradient id="paint22_linear_503_224" x1="-32.1668" y1="55.6162" x2="45.513" y2="33.6373" gradientUnits="userSpaceOnUse">
<stop stop-color="#C45A12"/>
<stop offset="1" stop-color="#FFB048"/>
</linearGradient>
<linearGradient id="paint23_linear_503_224" x1="-37.0342" y1="53.0929" x2="109.303" y2="27.7282" gradientUnits="userSpaceOnUse">
<stop stop-color="#C45A12"/>
<stop offset="1" stop-color="#FFB048"/>
</linearGradient>
<radialGradient id="paint24_radial_503_224" cx="0" cy="0" r="1" gradientUnits="userSpaceOnUse" gradientTransform="translate(97.3232 12.2208) rotate(180) scale(90.605 90.9652)">
<stop stop-color="#FFEEA9"/>
<stop offset="1" stop-color="#FFB048"/>
</radialGradient>
<linearGradient id="paint25_linear_503_224" x1="-24.6962" y1="63.7704" x2="52.9839" y2="41.7915" gradientUnits="userSpaceOnUse">
<stop stop-color="#C45A12"/>
<stop offset="1" stop-color="#FFB048"/>
</linearGradient>
<linearGradient id="paint26_linear_503_224" x1="-25.1927" y1="62.0154" x2="52.4875" y2="40.0364" gradientUnits="userSpaceOnUse">
<stop stop-color="#C45A12"/>
<stop offset="1" stop-color="#FFB048"/>
</linearGradient>
<linearGradient id="paint27_linear_503_224" x1="-25.7802" y1="59.9336" x2="51.8985" y2="37.9553" gradientUnits="userSpaceOnUse">
<stop stop-color="#C45A12"/>
<stop offset="1" stop-color="#FFB048"/>
</linearGradient>
<linearGradient id="paint28_linear_503_224" x1="-26.3675" y1="57.8579" x2="51.3112" y2="35.8796" gradientUnits="userSpaceOnUse">
<stop stop-color="#C45A12"/>
<stop offset="1" stop-color="#FFB048"/>
</linearGradient>
<linearGradient id="paint29_linear_503_224" x1="-27.0159" y1="55.5719" x2="50.6642" y2="33.5929" gradientUnits="userSpaceOnUse">
<stop stop-color="#C45A12"/>
<stop offset="1" stop-color="#FFB048"/>
</linearGradient>
<linearGradient id="paint30_linear_503_224" x1="-27.6339" y1="53.3838" x2="50.0449" y2="31.4055" gradientUnits="userSpaceOnUse">
<stop stop-color="#C45A12"/>
<stop offset="1" stop-color="#FFB048"/>
</linearGradient>
<linearGradient id="paint31_linear_503_224" x1="-28.2991" y1="51.0374" x2="49.3809" y2="29.0584" gradientUnits="userSpaceOnUse">
<stop stop-color="#C45A12"/>
<stop offset="1" stop-color="#FFB048"/>
</linearGradient>
<linearGradient id="paint32_linear_503_224" x1="-28.9467" y1="48.7461" x2="48.7321" y2="26.7678" gradientUnits="userSpaceOnUse">
<stop stop-color="#C45A12"/>
<stop offset="1" stop-color="#FFB048"/>
</linearGradient>
<linearGradient id="paint33_linear_503_224" x1="-29.6259" y1="46.3456" x2="48.0537" y2="24.3668" gradientUnits="userSpaceOnUse">
<stop stop-color="#C45A12"/>
<stop offset="1" stop-color="#FFB048"/>
</linearGradient>
<linearGradient id="paint34_linear_503_224" x1="-30.3285" y1="43.8626" x2="47.3513" y2="21.8838" gradientUnits="userSpaceOnUse">
<stop stop-color="#C45A12"/>
<stop offset="1" stop-color="#FFB048"/>
</linearGradient>
<linearGradient id="paint35_linear_503_224" x1="-35.196" y1="41.3395" x2="111.141" y2="15.9749" gradientUnits="userSpaceOnUse">
<stop stop-color="#C45A12"/>
<stop offset="1" stop-color="#FFB048"/>
</linearGradient>
<radialGradient id="paint36_radial_503_224" cx="0" cy="0" r="1" gradientUnits="userSpaceOnUse" gradientTransform="translate(95.0381 1.38523) rotate(180) scale(90.6051 90.9651)">
<stop stop-color="#FFEEA9"/>
<stop offset="1" stop-color="#FFB048"/>
</radialGradient>
<linearGradient id="paint37_linear_503_224" x1="-26.9809" y1="52.935" x2="50.6986" y2="30.9564" gradientUnits="userSpaceOnUse">
<stop stop-color="#C45A12"/>
<stop offset="1" stop-color="#FFB048"/>
</linearGradient>
<linearGradient id="paint38_linear_503_224" x1="-27.4782" y1="51.1797" x2="50.2019" y2="29.2008" gradientUnits="userSpaceOnUse">
<stop stop-color="#C45A12"/>
<stop offset="1" stop-color="#FFB048"/>
</linearGradient>
<linearGradient id="paint39_linear_503_224" x1="-28.0674" y1="49.0981" x2="49.6125" y2="27.1193" gradientUnits="userSpaceOnUse">
<stop stop-color="#C45A12"/>
<stop offset="1" stop-color="#FFB048"/>
</linearGradient>
<linearGradient id="paint40_linear_503_224" x1="-28.6543" y1="47.0224" x2="49.0254" y2="25.0435" gradientUnits="userSpaceOnUse">
<stop stop-color="#C45A12"/>
<stop offset="1" stop-color="#FFB048"/>
</linearGradient>
<linearGradient id="paint41_linear_503_224" x1="-29.3021" y1="44.7362" x2="48.378" y2="22.7573" gradientUnits="userSpaceOnUse">
<stop stop-color="#C45A12"/>
<stop offset="1" stop-color="#FFB048"/>
</linearGradient>
<linearGradient id="paint42_linear_503_224" x1="-29.9198" y1="42.5486" x2="47.7592" y2="20.5702" gradientUnits="userSpaceOnUse">
<stop stop-color="#C45A12"/>
<stop offset="1" stop-color="#FFB048"/>
</linearGradient>
<linearGradient id="paint43_linear_503_224" x1="-30.5842" y1="40.2018" x2="47.0957" y2="18.2229" gradientUnits="userSpaceOnUse">
<stop stop-color="#C45A12"/>
<stop offset="1" stop-color="#FFB048"/>
</linearGradient>
<linearGradient id="paint44_linear_503_224" x1="-31.2326" y1="37.9105" x2="46.4471" y2="15.9317" gradientUnits="userSpaceOnUse">
<stop stop-color="#C45A12"/>
<stop offset="1" stop-color="#FFB048"/>
</linearGradient>
<linearGradient id="paint45_linear_503_224" x1="-31.9111" y1="35.5101" x2="45.7679" y2="13.5317" gradientUnits="userSpaceOnUse">
<stop stop-color="#C45A12"/>
<stop offset="1" stop-color="#FFB048"/>
</linearGradient>
<linearGradient id="paint46_linear_503_224" x1="-32.6138" y1="33.0271" x2="45.0653" y2="11.0487" gradientUnits="userSpaceOnUse">
<stop stop-color="#C45A12"/>
<stop offset="1" stop-color="#FFB048"/>
</linearGradient>
<linearGradient id="paint47_linear_503_224" x1="-37.4817" y1="30.5039" x2="108.855" y2="5.13931" gradientUnits="userSpaceOnUse">
<stop stop-color="#C45A12"/>
<stop offset="1" stop-color="#FFB048"/>
</linearGradient>
<radialGradient id="paint48_radial_503_224" cx="0" cy="0" r="1" gradientUnits="userSpaceOnUse" gradientTransform="translate(96.6946 -9.77855) rotate(180) scale(90.605 90.9651)">
<stop stop-color="#FFEEA9"/>
<stop offset="1" stop-color="#FFB048"/>
</radialGradient>
<linearGradient id="paint49_linear_503_224" x1="-25.3251" y1="41.7712" x2="52.3551" y2="19.7923" gradientUnits="userSpaceOnUse">
<stop stop-color="#C45A12"/>
<stop offset="1" stop-color="#FFB048"/>
</linearGradient>
<linearGradient id="paint50_linear_503_224" x1="-25.821" y1="40.0162" x2="51.8593" y2="18.0372" gradientUnits="userSpaceOnUse">
<stop stop-color="#C45A12"/>
<stop offset="1" stop-color="#FFB048"/>
</linearGradient>
<linearGradient id="paint51_linear_503_224" x1="-26.4085" y1="37.9343" x2="51.2703" y2="15.9559" gradientUnits="userSpaceOnUse">
<stop stop-color="#C45A12"/>
<stop offset="1" stop-color="#FFB048"/>
</linearGradient>
<linearGradient id="paint52_linear_503_224" x1="-26.9966" y1="35.8589" x2="50.6829" y2="13.8801" gradientUnits="userSpaceOnUse">
<stop stop-color="#C45A12"/>
<stop offset="1" stop-color="#FFB048"/>
</linearGradient>
<linearGradient id="paint53_linear_503_224" x1="-27.6441" y1="33.5726" x2="50.0352" y2="11.5942" gradientUnits="userSpaceOnUse">
<stop stop-color="#C45A12"/>
<stop offset="1" stop-color="#FFB048"/>
</linearGradient>
<linearGradient id="paint54_linear_503_224" x1="-28.2629" y1="31.3846" x2="49.4163" y2="9.40617" gradientUnits="userSpaceOnUse">
<stop stop-color="#C45A12"/>
<stop offset="1" stop-color="#FFB048"/>
</linearGradient>
<linearGradient id="paint55_linear_503_224" x1="-28.927" y1="29.038" x2="48.7522" y2="7.05958" gradientUnits="userSpaceOnUse">
<stop stop-color="#C45A12"/>
<stop offset="1" stop-color="#FFB048"/>
</linearGradient>
<linearGradient id="paint56_linear_503_224" x1="-29.575" y1="26.7471" x2="48.1038" y2="4.7688" gradientUnits="userSpaceOnUse">
<stop stop-color="#C45A12"/>
<stop offset="1" stop-color="#FFB048"/>
</linearGradient>
<linearGradient id="paint57_linear_503_224" x1="-30.2541" y1="24.3464" x2="47.4248" y2="2.36804" gradientUnits="userSpaceOnUse">
<stop stop-color="#C45A12"/>
<stop offset="1" stop-color="#FFB048"/>
</linearGradient>
<linearGradient id="paint58_linear_503_224" x1="-30.9572" y1="21.8635" x2="46.7225" y2="-0.115313" gradientUnits="userSpaceOnUse">
<stop stop-color="#C45A12"/>
<stop offset="1" stop-color="#FFB048"/>
</linearGradient>
</defs>
</svg>
