<svg width="274" height="274" viewBox="0 0 274 274" fill="none" xmlns="http://www.w3.org/2000/svg">
<path fill-rule="evenodd" clip-rule="evenodd" d="M137.395 0.743652C153.991 68.9698 201.933 120.6 273.847 137.196C205.621 153.792 153.991 201.734 137.395 273.648C120.8 205.422 72.8569 153.792 0.942871 137.196C67.3251 122.444 120.8 74.5017 137.395 0.743652Z" fill="#FCF1FF"/>
<path fill-rule="evenodd" clip-rule="evenodd" d="M36.1822 39.449C39.6833 53.8423 49.7976 64.7346 64.969 68.2357C50.5756 71.7368 39.6833 81.8511 36.1822 97.0224C32.6812 82.6291 22.5669 71.7368 7.39551 68.2357C21.3999 65.1236 32.6812 55.0094 36.1822 39.449Z" fill="#FCF1FF"/>
<path fill-rule="evenodd" clip-rule="evenodd" d="M233.187 179.377C235.121 187.326 240.706 193.341 249.085 195.275C241.136 197.208 235.121 202.794 233.187 211.173C231.253 203.224 225.668 197.208 217.289 195.275C225.023 193.556 231.253 187.97 233.187 179.377Z" fill="#FCF1FF"/>
<path fill-rule="evenodd" clip-rule="evenodd" d="M208.187 60.3767C210.121 68.3257 215.706 74.3411 224.085 76.2747C216.136 78.2082 210.121 83.7939 208.187 92.1726C206.253 84.2236 200.668 78.2082 192.289 76.2747C200.023 74.556 206.253 68.9702 208.187 60.3767Z" fill="#FCF1FF"/>
</svg>
