<svg width="131" height="123" viewBox="0 0 131 123" fill="none" xmlns="http://www.w3.org/2000/svg">
<mask id="path-1-inside-1_503_425" fill="white">
<path d="M129.065 110.51H120.775V41.037C120.775 36.6111 117.175 33.0105 112.749 33.0105H88.276C87.2222 33.0105 86.3678 33.8648 86.3678 34.9186C86.3678 35.9725 87.2222 36.8268 88.276 36.8268H112.749C115.07 36.8268 116.959 38.7156 116.959 41.037V110.511H110.428C110.526 109.79 110.578 109.065 110.578 108.34C110.578 99.4157 103.317 92.1553 94.3933 92.1553C93.1934 92.1553 91.9954 92.2924 90.8143 92.5639C88.7556 88.597 84.6545 86.0367 80.1172 86.0367C78.637 86.0367 77.1992 86.3067 75.8457 86.831C75.2898 81.8026 71.015 77.8787 65.8408 77.8787C60.6667 77.8787 56.3919 81.8026 55.836 86.831C54.4825 86.3067 53.0447 86.0367 51.5645 86.0367C47.0271 86.0367 42.9259 88.597 40.8674 92.5639C39.6861 92.2922 38.4883 92.1553 37.2884 92.1553C28.3641 92.1553 21.1039 99.4157 21.1039 108.34C21.1039 109.065 21.1556 109.79 21.254 110.511H14.7228V41.037C14.7228 38.7154 16.6113 36.8268 18.9329 36.8268H43.4065C44.4603 36.8268 45.3146 35.9725 45.3146 34.9186C45.3146 33.8648 44.4603 33.0105 43.4065 33.0105H18.9329C14.507 33.0105 10.9064 36.6113 10.9064 41.037V110.511H2.61714C1.56333 110.511 0.708984 111.365 0.708984 112.419V116.498C0.708984 119.799 3.39491 122.485 6.69603 122.485H124.986C128.287 122.485 130.973 119.799 130.973 116.498V112.419C130.973 111.365 130.118 110.51 129.065 110.51ZM127.156 116.498C127.156 117.695 126.182 118.668 124.986 118.668H6.69603C5.49897 118.668 4.5253 117.694 4.5253 116.498V114.327H29.1296C30.1834 114.327 31.0378 113.472 31.0378 112.419C31.0378 111.365 30.1834 110.511 29.1296 110.511H25.1154C24.9859 109.791 24.92 109.065 24.92 108.34C24.92 101.52 30.4684 95.9716 37.2882 95.9716C38.6465 95.9716 40.0066 96.2042 41.3309 96.6626C41.8105 96.8288 42.3361 96.797 42.7923 96.5746C43.2482 96.352 43.5968 95.9571 43.7611 95.477C44.9114 92.1133 48.0474 89.8533 51.5648 89.8533C53.4935 89.8533 55.3254 90.5359 56.8626 91.8276C57.5116 92.3728 58.4423 92.4247 59.1478 91.9548C59.8533 91.4849 60.1642 90.6061 59.9113 89.7973C59.693 89.0987 59.5912 88.5102 59.5912 87.9451C59.5912 84.499 62.395 81.6955 65.8408 81.6955C69.2867 81.6955 72.0904 84.4992 72.0904 87.9451C72.0904 88.5102 71.9887 89.0987 71.7704 89.7973C71.5175 90.6064 71.8286 91.4852 72.5339 91.9548C73.2394 92.4245 74.1701 92.3728 74.8191 91.8276C76.3563 90.5362 78.1884 89.8533 80.1169 89.8533C83.6343 89.8533 86.7703 92.1133 87.9205 95.477C88.0849 95.9571 88.4335 96.352 88.8894 96.5746C89.3456 96.7972 89.8714 96.829 90.3508 96.6626C91.675 96.2042 93.0349 95.9716 94.3935 95.9716C101.214 95.9716 106.762 101.52 106.762 108.34C106.762 109.065 106.696 109.791 106.566 110.511H37.2889C36.2351 110.511 35.3808 111.365 35.3808 112.419C35.3808 113.472 36.2351 114.327 37.2889 114.327H127.156V116.498Z"/>
<path d="M41.3195 56.4689C40.1199 57.9084 39.4591 59.7334 39.4591 61.6074V67.5502C39.4591 68.2285 39.8194 68.8559 40.4051 69.1981C40.7022 69.3716 41.0348 69.4584 41.3673 69.4584C41.6907 69.4584 42.014 69.3764 42.3051 69.2121L55.8937 61.5446C56.4115 62.49 56.9605 63.4202 57.5403 64.3333L55.8322 71.1663C55.6894 71.7365 55.8177 72.3402 56.1792 72.8035C56.5407 73.2668 57.0956 73.5375 57.6833 73.5375H73.9991C74.5868 73.5375 75.1415 73.2668 75.5033 72.8035C75.8648 72.3405 75.993 71.7365 75.8503 71.1663L74.1421 64.3333C74.7219 63.4202 75.271 62.4903 75.7887 61.5446L89.3774 69.2121C89.6687 69.3764 89.9918 69.4584 90.3152 69.4584C90.6477 69.4584 90.9802 69.3714 91.2774 69.1981C91.8631 68.8562 92.2233 68.2288 92.2233 67.5502V61.6074C92.2233 59.7334 91.5626 57.9084 90.363 56.4689L81.3046 45.6023C81.7816 42.7678 82.0259 39.8778 82.0259 36.9581C82.0259 29.9994 80.6787 23.273 78.0218 16.9662C75.4592 10.8835 71.8116 5.48718 67.1801 0.927189C66.4375 0.195982 65.2455 0.195982 64.5028 0.927189C59.8714 5.48693 56.2237 10.8832 53.6612 16.9662C51.0043 23.2733 49.6571 29.9994 49.6571 36.9581C49.6571 39.8732 49.9006 42.7589 50.3761 45.5891L41.3195 56.4689ZM43.2755 64.2824V61.6074C43.2755 60.6244 43.622 59.6672 44.2512 58.9121L51.4035 50.3295C52.1181 53.0029 53.047 55.6102 54.1858 58.1264L43.2755 64.2824ZM60.1271 69.7209L61.2124 65.3795H70.4695L71.5549 69.7209H60.1271ZM87.4305 58.9121C88.0597 59.6672 88.4062 60.6244 88.4062 61.6074V64.2824L77.4959 58.1262C78.6344 55.61 79.5636 53.0029 80.2782 50.3292L87.4305 58.9121ZM65.8408 5.02388C69.0453 8.46849 71.6882 12.4181 73.6969 16.6947H57.9848C59.9935 12.4181 62.6364 8.46849 65.8408 5.02388ZM56.3947 20.5108H75.2868C77.1947 25.7124 78.2088 31.2891 78.2088 36.9578C78.2088 45.7323 75.8483 54.216 71.372 61.5629H60.3095C55.8332 54.216 53.4727 45.7323 53.4727 36.9578C53.4727 31.2891 54.487 25.7127 56.3947 20.5108Z"/>
<path d="M73.8673 34.9184C73.8673 30.4925 70.2668 26.8919 65.8408 26.8919C61.4149 26.8919 57.8144 30.4927 57.8144 34.9184C57.8144 39.344 61.4149 42.9449 65.8408 42.9449C70.2668 42.9449 73.8673 39.3443 73.8673 34.9184ZM61.6307 34.9184C61.6307 32.5968 63.5192 30.7082 65.8408 30.7082C68.1624 30.7082 70.051 32.597 70.051 34.9184C70.051 37.2397 68.1624 39.1286 65.8408 39.1286C63.5192 39.1286 61.6307 37.24 61.6307 34.9184Z"/>
</mask>
<path d="M129.065 110.51H120.775V41.037C120.775 36.6111 117.175 33.0105 112.749 33.0105H88.276C87.2222 33.0105 86.3678 33.8648 86.3678 34.9186C86.3678 35.9725 87.2222 36.8268 88.276 36.8268H112.749C115.07 36.8268 116.959 38.7156 116.959 41.037V110.511H110.428C110.526 109.79 110.578 109.065 110.578 108.34C110.578 99.4157 103.317 92.1553 94.3933 92.1553C93.1934 92.1553 91.9954 92.2924 90.8143 92.5639C88.7556 88.597 84.6545 86.0367 80.1172 86.0367C78.637 86.0367 77.1992 86.3067 75.8457 86.831C75.2898 81.8026 71.015 77.8787 65.8408 77.8787C60.6667 77.8787 56.3919 81.8026 55.836 86.831C54.4825 86.3067 53.0447 86.0367 51.5645 86.0367C47.0271 86.0367 42.9259 88.597 40.8674 92.5639C39.6861 92.2922 38.4883 92.1553 37.2884 92.1553C28.3641 92.1553 21.1039 99.4157 21.1039 108.34C21.1039 109.065 21.1556 109.79 21.254 110.511H14.7228V41.037C14.7228 38.7154 16.6113 36.8268 18.9329 36.8268H43.4065C44.4603 36.8268 45.3146 35.9725 45.3146 34.9186C45.3146 33.8648 44.4603 33.0105 43.4065 33.0105H18.9329C14.507 33.0105 10.9064 36.6113 10.9064 41.037V110.511H2.61714C1.56333 110.511 0.708984 111.365 0.708984 112.419V116.498C0.708984 119.799 3.39491 122.485 6.69603 122.485H124.986C128.287 122.485 130.973 119.799 130.973 116.498V112.419C130.973 111.365 130.118 110.51 129.065 110.51ZM127.156 116.498C127.156 117.695 126.182 118.668 124.986 118.668H6.69603C5.49897 118.668 4.5253 117.694 4.5253 116.498V114.327H29.1296C30.1834 114.327 31.0378 113.472 31.0378 112.419C31.0378 111.365 30.1834 110.511 29.1296 110.511H25.1154C24.9859 109.791 24.92 109.065 24.92 108.34C24.92 101.52 30.4684 95.9716 37.2882 95.9716C38.6465 95.9716 40.0066 96.2042 41.3309 96.6626C41.8105 96.8288 42.3361 96.797 42.7923 96.5746C43.2482 96.352 43.5968 95.9571 43.7611 95.477C44.9114 92.1133 48.0474 89.8533 51.5648 89.8533C53.4935 89.8533 55.3254 90.5359 56.8626 91.8276C57.5116 92.3728 58.4423 92.4247 59.1478 91.9548C59.8533 91.4849 60.1642 90.6061 59.9113 89.7973C59.693 89.0987 59.5912 88.5102 59.5912 87.9451C59.5912 84.499 62.395 81.6955 65.8408 81.6955C69.2867 81.6955 72.0904 84.4992 72.0904 87.9451C72.0904 88.5102 71.9887 89.0987 71.7704 89.7973C71.5175 90.6064 71.8286 91.4852 72.5339 91.9548C73.2394 92.4245 74.1701 92.3728 74.8191 91.8276C76.3563 90.5362 78.1884 89.8533 80.1169 89.8533C83.6343 89.8533 86.7703 92.1133 87.9205 95.477C88.0849 95.9571 88.4335 96.352 88.8894 96.5746C89.3456 96.7972 89.8714 96.829 90.3508 96.6626C91.675 96.2042 93.0349 95.9716 94.3935 95.9716C101.214 95.9716 106.762 101.52 106.762 108.34C106.762 109.065 106.696 109.791 106.566 110.511H37.2889C36.2351 110.511 35.3808 111.365 35.3808 112.419C35.3808 113.472 36.2351 114.327 37.2889 114.327H127.156V116.498Z" fill="#9900CC"/>
<path d="M41.3195 56.4689C40.1199 57.9084 39.4591 59.7334 39.4591 61.6074V67.5502C39.4591 68.2285 39.8194 68.8559 40.4051 69.1981C40.7022 69.3716 41.0348 69.4584 41.3673 69.4584C41.6907 69.4584 42.014 69.3764 42.3051 69.2121L55.8937 61.5446C56.4115 62.49 56.9605 63.4202 57.5403 64.3333L55.8322 71.1663C55.6894 71.7365 55.8177 72.3402 56.1792 72.8035C56.5407 73.2668 57.0956 73.5375 57.6833 73.5375H73.9991C74.5868 73.5375 75.1415 73.2668 75.5033 72.8035C75.8648 72.3405 75.993 71.7365 75.8503 71.1663L74.1421 64.3333C74.7219 63.4202 75.271 62.4903 75.7887 61.5446L89.3774 69.2121C89.6687 69.3764 89.9918 69.4584 90.3152 69.4584C90.6477 69.4584 90.9802 69.3714 91.2774 69.1981C91.8631 68.8562 92.2233 68.2288 92.2233 67.5502V61.6074C92.2233 59.7334 91.5626 57.9084 90.363 56.4689L81.3046 45.6023C81.7816 42.7678 82.0259 39.8778 82.0259 36.9581C82.0259 29.9994 80.6787 23.273 78.0218 16.9662C75.4592 10.8835 71.8116 5.48718 67.1801 0.927189C66.4375 0.195982 65.2455 0.195982 64.5028 0.927189C59.8714 5.48693 56.2237 10.8832 53.6612 16.9662C51.0043 23.2733 49.6571 29.9994 49.6571 36.9581C49.6571 39.8732 49.9006 42.7589 50.3761 45.5891L41.3195 56.4689ZM43.2755 64.2824V61.6074C43.2755 60.6244 43.622 59.6672 44.2512 58.9121L51.4035 50.3295C52.1181 53.0029 53.047 55.6102 54.1858 58.1264L43.2755 64.2824ZM60.1271 69.7209L61.2124 65.3795H70.4695L71.5549 69.7209H60.1271ZM87.4305 58.9121C88.0597 59.6672 88.4062 60.6244 88.4062 61.6074V64.2824L77.4959 58.1262C78.6344 55.61 79.5636 53.0029 80.2782 50.3292L87.4305 58.9121ZM65.8408 5.02388C69.0453 8.46849 71.6882 12.4181 73.6969 16.6947H57.9848C59.9935 12.4181 62.6364 8.46849 65.8408 5.02388ZM56.3947 20.5108H75.2868C77.1947 25.7124 78.2088 31.2891 78.2088 36.9578C78.2088 45.7323 75.8483 54.216 71.372 61.5629H60.3095C55.8332 54.216 53.4727 45.7323 53.4727 36.9578C53.4727 31.2891 54.487 25.7127 56.3947 20.5108Z" fill="#9900CC"/>
<path d="M73.8673 34.9184C73.8673 30.4925 70.2668 26.8919 65.8408 26.8919C61.4149 26.8919 57.8144 30.4927 57.8144 34.9184C57.8144 39.344 61.4149 42.9449 65.8408 42.9449C70.2668 42.9449 73.8673 39.3443 73.8673 34.9184ZM61.6307 34.9184C61.6307 32.5968 63.5192 30.7082 65.8408 30.7082C68.1624 30.7082 70.051 32.597 70.051 34.9184C70.051 37.2397 68.1624 39.1286 65.8408 39.1286C63.5192 39.1286 61.6307 37.24 61.6307 34.9184Z" fill="#9900CC"/>
<path d="M129.065 110.51H120.775V41.037C120.775 36.6111 117.175 33.0105 112.749 33.0105H88.276C87.2222 33.0105 86.3678 33.8648 86.3678 34.9186C86.3678 35.9725 87.2222 36.8268 88.276 36.8268H112.749C115.07 36.8268 116.959 38.7156 116.959 41.037V110.511H110.428C110.526 109.79 110.578 109.065 110.578 108.34C110.578 99.4157 103.317 92.1553 94.3933 92.1553C93.1934 92.1553 91.9954 92.2924 90.8143 92.5639C88.7556 88.597 84.6545 86.0367 80.1172 86.0367C78.637 86.0367 77.1992 86.3067 75.8457 86.831C75.2898 81.8026 71.015 77.8787 65.8408 77.8787C60.6667 77.8787 56.3919 81.8026 55.836 86.831C54.4825 86.3067 53.0447 86.0367 51.5645 86.0367C47.0271 86.0367 42.9259 88.597 40.8674 92.5639C39.6861 92.2922 38.4883 92.1553 37.2884 92.1553C28.3641 92.1553 21.1039 99.4157 21.1039 108.34C21.1039 109.065 21.1556 109.79 21.254 110.511H14.7228V41.037C14.7228 38.7154 16.6113 36.8268 18.9329 36.8268H43.4065C44.4603 36.8268 45.3146 35.9725 45.3146 34.9186C45.3146 33.8648 44.4603 33.0105 43.4065 33.0105H18.9329C14.507 33.0105 10.9064 36.6113 10.9064 41.037V110.511H2.61714C1.56333 110.511 0.708984 111.365 0.708984 112.419V116.498C0.708984 119.799 3.39491 122.485 6.69603 122.485H124.986C128.287 122.485 130.973 119.799 130.973 116.498V112.419C130.973 111.365 130.118 110.51 129.065 110.51ZM127.156 116.498C127.156 117.695 126.182 118.668 124.986 118.668H6.69603C5.49897 118.668 4.5253 117.694 4.5253 116.498V114.327H29.1296C30.1834 114.327 31.0378 113.472 31.0378 112.419C31.0378 111.365 30.1834 110.511 29.1296 110.511H25.1154C24.9859 109.791 24.92 109.065 24.92 108.34C24.92 101.52 30.4684 95.9716 37.2882 95.9716C38.6465 95.9716 40.0066 96.2042 41.3309 96.6626C41.8105 96.8288 42.3361 96.797 42.7923 96.5746C43.2482 96.352 43.5968 95.9571 43.7611 95.477C44.9114 92.1133 48.0474 89.8533 51.5648 89.8533C53.4935 89.8533 55.3254 90.5359 56.8626 91.8276C57.5116 92.3728 58.4423 92.4247 59.1478 91.9548C59.8533 91.4849 60.1642 90.6061 59.9113 89.7973C59.693 89.0987 59.5912 88.5102 59.5912 87.9451C59.5912 84.499 62.395 81.6955 65.8408 81.6955C69.2867 81.6955 72.0904 84.4992 72.0904 87.9451C72.0904 88.5102 71.9887 89.0987 71.7704 89.7973C71.5175 90.6064 71.8286 91.4852 72.5339 91.9548C73.2394 92.4245 74.1701 92.3728 74.8191 91.8276C76.3563 90.5362 78.1884 89.8533 80.1169 89.8533C83.6343 89.8533 86.7703 92.1133 87.9205 95.477C88.0849 95.9571 88.4335 96.352 88.8894 96.5746C89.3456 96.7972 89.8714 96.829 90.3508 96.6626C91.675 96.2042 93.0349 95.9716 94.3935 95.9716C101.214 95.9716 106.762 101.52 106.762 108.34C106.762 109.065 106.696 109.791 106.566 110.511H37.2889C36.2351 110.511 35.3808 111.365 35.3808 112.419C35.3808 113.472 36.2351 114.327 37.2889 114.327H127.156V116.498Z" stroke="#9900CC" strokeWidth="2" mask="url(#path-1-inside-1_503_425)"/>
<path d="M41.3195 56.4689C40.1199 57.9084 39.4591 59.7334 39.4591 61.6074V67.5502C39.4591 68.2285 39.8194 68.8559 40.4051 69.1981C40.7022 69.3716 41.0348 69.4584 41.3673 69.4584C41.6907 69.4584 42.014 69.3764 42.3051 69.2121L55.8937 61.5446C56.4115 62.49 56.9605 63.4202 57.5403 64.3333L55.8322 71.1663C55.6894 71.7365 55.8177 72.3402 56.1792 72.8035C56.5407 73.2668 57.0956 73.5375 57.6833 73.5375H73.9991C74.5868 73.5375 75.1415 73.2668 75.5033 72.8035C75.8648 72.3405 75.993 71.7365 75.8503 71.1663L74.1421 64.3333C74.7219 63.4202 75.271 62.4903 75.7887 61.5446L89.3774 69.2121C89.6687 69.3764 89.9918 69.4584 90.3152 69.4584C90.6477 69.4584 90.9802 69.3714 91.2774 69.1981C91.8631 68.8562 92.2233 68.2288 92.2233 67.5502V61.6074C92.2233 59.7334 91.5626 57.9084 90.363 56.4689L81.3046 45.6023C81.7816 42.7678 82.0259 39.8778 82.0259 36.9581C82.0259 29.9994 80.6787 23.273 78.0218 16.9662C75.4592 10.8835 71.8116 5.48718 67.1801 0.927189C66.4375 0.195982 65.2455 0.195982 64.5028 0.927189C59.8714 5.48693 56.2237 10.8832 53.6612 16.9662C51.0043 23.2733 49.6571 29.9994 49.6571 36.9581C49.6571 39.8732 49.9006 42.7589 50.3761 45.5891L41.3195 56.4689ZM43.2755 64.2824V61.6074C43.2755 60.6244 43.622 59.6672 44.2512 58.9121L51.4035 50.3295C52.1181 53.0029 53.047 55.6102 54.1858 58.1264L43.2755 64.2824ZM60.1271 69.7209L61.2124 65.3795H70.4695L71.5549 69.7209H60.1271ZM87.4305 58.9121C88.0597 59.6672 88.4062 60.6244 88.4062 61.6074V64.2824L77.4959 58.1262C78.6344 55.61 79.5636 53.0029 80.2782 50.3292L87.4305 58.9121ZM65.8408 5.02388C69.0453 8.46849 71.6882 12.4181 73.6969 16.6947H57.9848C59.9935 12.4181 62.6364 8.46849 65.8408 5.02388ZM56.3947 20.5108H75.2868C77.1947 25.7124 78.2088 31.2891 78.2088 36.9578C78.2088 45.7323 75.8483 54.216 71.372 61.5629H60.3095C55.8332 54.216 53.4727 45.7323 53.4727 36.9578C53.4727 31.2891 54.487 25.7127 56.3947 20.5108Z" stroke="#9900CC" strokeWidth="2" mask="url(#path-1-inside-1_503_425)"/>
<path d="M73.8673 34.9184C73.8673 30.4925 70.2668 26.8919 65.8408 26.8919C61.4149 26.8919 57.8144 30.4927 57.8144 34.9184C57.8144 39.344 61.4149 42.9449 65.8408 42.9449C70.2668 42.9449 73.8673 39.3443 73.8673 34.9184ZM61.6307 34.9184C61.6307 32.5968 63.5192 30.7082 65.8408 30.7082C68.1624 30.7082 70.051 32.597 70.051 34.9184C70.051 37.2397 68.1624 39.1286 65.8408 39.1286C63.5192 39.1286 61.6307 37.24 61.6307 34.9184Z" stroke="#9900CC" strokeWidth="2" mask="url(#path-1-inside-1_503_425)"/>
</svg>
