<?xml version="1.0" encoding="UTF-8"?>
<svg xmlns="http://www.w3.org/2000/svg" xmlns:xlink="http://www.w3.org/1999/xlink" viewBox="0 0 48 48" width="48px" height="48px">
<g id="surface69128260">
<path style=" stroke:none;fill-rule:nonzero;fill:#fff;fill-opacity:1;" d="M 8 4 C 5.789062 4 4 5.789062 4 8 L 4 26 C 4 28.210938 5.789062 30 8 30 L 10 30 L 10 34 L 14 38 L 18 38 L 18 40 C 18 42.210938 19.789062 44 22 44 L 40 44 C 42.210938 44 44 42.210938 44 40 L 44 22 C 44 19.789062 42.210938 18 40 18 L 30 18 L 30 8 C 30 5.789062 28.210938 4 26 4 Z M 8 8 L 26 8 L 26 18 L 22 18 C 20.679688 18 19.539062 18.640625 18.8125 19.625 C 18.492188 19.40625 18.21875 19.148438 17.9375 18.9375 C 19.203125 17.609375 20.46875 16 21.5 14 L 24 14 L 24 12 L 18 12 L 18 10 L 16 10 L 16 12 L 10 12 L 10 14 L 12.25 14 C 12.007812 14.273438 11.9375 14.65625 12.0625 15 C 12.0625 15 12.398438 16.015625 13.4375 17.375 C 13.8125 17.867188 14.335938 18.414062 14.9375 19 C 12.648438 20.945312 10.6875 21.8125 10.6875 21.8125 C 10.171875 22.023438 9.914062 22.609375 10.125 23.125 C 10.335938 23.640625 10.921875 23.898438 11.4375 23.6875 C 11.4375 23.6875 13.828125 22.710938 16.5 20.375 C 16.96875 20.734375 17.5 21.070312 18.0625 21.4375 C 18.039062 21.625 18 21.804688 18 22 L 18 26 L 8 26 Z M 13.75 14 L 19.125 14 C 18.273438 15.445312 17.34375 16.6875 16.375 17.6875 C 15.804688 17.148438 15.335938 16.625 15 16.1875 C 14.125 15.046875 14 14.4375 14 14.4375 C 13.953125 14.273438 13.867188 14.125 13.75 14 Z M 29.6875 24 L 32.3125 24 L 38 40 L 35.6875 40 L 34.1875 35.625 L 27.6875 35.625 L 26.25 40 L 24 40 Z M 30.875 25.8125 C 30.625 26.765625 28.3125 34 28.3125 34 L 33.625 34 C 33.625 34 31.1875 26.742188 30.9375 25.8125 Z M 14 30 L 18 30 L 18 34 L 14 34 Z M 14 30 "/>
</g>
</svg>
