<svg width="1920" height="978" viewBox="0 0 1920 978" fill="none" xmlns="http://www.w3.org/2000/svg">
<mask id="mask0_609_3" style="mask-type:alpha" maskUnits="userSpaceOnUse" x="0" y="0" width="1920" height="978">
<rect y="0.735352" width="1920" height="976.56" fill="white"/>
</mask>
<g mask="url(#mask0_609_3)">
<rect y="0.735352" width="1920" height="976.56" fill="white"/>
<rect opacity="0.1" x="960" y="-219.315" width="1191.24" height="893.942" fill="url(#paint0_radial_609_3)"/>
<rect opacity="0.2" x="-994.952" y="-54.6389" width="1912.15" height="1434.94" fill="url(#paint1_radial_609_3)"/>
<path fill-rule="evenodd" clip-rule="evenodd" d="M236.497 417.642C247.594 463.262 279.651 497.786 327.738 508.883C282.117 519.98 247.594 552.037 236.497 600.124C225.4 554.503 193.342 519.98 145.256 508.883C189.643 499.019 225.4 466.961 236.497 417.642Z" fill="#FEE7DA"/>
<path fill-rule="evenodd" clip-rule="evenodd" d="M1786.16 584.322C1802.44 651.241 1849.46 701.882 1920 718.16C1853.08 734.438 1802.44 781.462 1786.16 851.998C1769.88 785.079 1722.86 734.438 1652.32 718.16C1717.43 703.691 1769.88 656.667 1786.16 584.322Z" fill="#FBF0FF"/>
<path fill-rule="evenodd" clip-rule="evenodd" d="M86.3173 181.799C89.1059 193.263 97.1619 201.939 109.246 204.728C97.7816 207.516 89.1059 215.572 86.3173 227.656C83.5287 216.192 75.4727 207.516 63.3887 204.728C74.5431 202.249 83.5287 194.193 86.3173 181.799Z" fill="white"/>
<path fill-rule="evenodd" clip-rule="evenodd" d="M120.592 747.277C127.549 775.879 147.647 797.523 177.795 804.48C149.193 811.437 127.549 831.536 120.592 861.683C113.635 833.082 93.5362 811.437 63.3887 804.48C91.2172 798.296 113.635 778.198 120.592 747.277Z" fill="white"/>
<path fill-rule="evenodd" clip-rule="evenodd" d="M1706.12 193.469C1711.14 214.141 1725.67 229.785 1747.46 234.813C1726.79 239.841 1711.14 254.367 1706.12 276.156C1701.09 255.485 1686.56 239.841 1664.77 234.813C1684.89 230.343 1701.09 215.817 1706.12 193.469Z" fill="white"/>
</g>
<defs>
<radialGradient id="paint0_radial_609_3" cx="0" cy="0" r="1" gradientUnits="userSpaceOnUse" gradientTransform="translate(1555.62 227.656) rotate(90) scale(446.971 595.619)">
<stop stop-color="#AC59FF"/>
<stop offset="1" stop-color="#A54AFF" stop-opacity="0"/>
</radialGradient>
<radialGradient id="paint1_radial_609_3" cx="0" cy="0" r="1" gradientUnits="userSpaceOnUse" gradientTransform="translate(-38.8779 662.829) rotate(90) scale(717.468 956.074)">
<stop stop-color="#F96E20"/>
<stop offset="1" stop-color="#F96E20" stop-opacity="0"/>
</radialGradient>
</defs>
</svg>
