<svg width="94" height="108" viewBox="0 0 94 108" fill="none" xmlns="http://www.w3.org/2000/svg">
<g opacity="0.2">
<path fill-rule="evenodd" clip-rule="evenodd" d="M59.2494 38.2058C63.1831 54.924 74.9842 67.7085 93.6692 72.6256C76.951 76.5593 64.1665 88.3604 59.2494 107.045C55.3157 90.3273 43.5146 77.5428 24.8296 72.6256C41.5478 67.7085 54.3323 55.9074 59.2494 38.2058Z" fill="#9900CC"/>
<path fill-rule="evenodd" clip-rule="evenodd" d="M14.8634 18.6089C16.46 25.3943 21.2497 30.5831 28.8333 32.5788C22.048 34.1753 16.8591 38.965 14.8634 46.5487C13.2669 39.7633 8.47721 34.5745 0.893555 32.5788C7.67893 30.5831 12.8677 25.7934 14.8634 18.6089Z" fill="#9900CC"/>
<path fill-rule="evenodd" clip-rule="evenodd" d="M67.964 0.762695C68.7169 3.96214 70.9753 6.40878 74.5511 7.34979C71.3517 8.1026 68.9051 10.361 67.964 13.9369C67.2112 10.7374 64.9528 8.2908 61.377 7.34979C64.5764 6.40878 67.023 4.15034 67.964 0.762695Z" fill="#9900CC"/>
</g>
</svg>
