<svg width="93" height="107" viewBox="0 0 93 107" fill="none" xmlns="http://www.w3.org/2000/svg">
<path fill-rule="evenodd" clip-rule="evenodd" d="M58.4887 37.6458C62.4224 54.364 74.2234 67.1485 92.9085 72.0656C76.1903 75.9993 63.4058 87.8004 58.4887 106.485C54.555 89.7672 42.7539 76.9827 24.0688 72.0656C40.7871 67.1485 53.5716 55.3474 58.4887 37.6458Z" fill="#72028e"/>
<path fill-rule="evenodd" clip-rule="evenodd" d="M14.1027 18.0488C15.6993 24.8342 20.4889 30.023 28.0726 32.0187C21.2872 33.6153 16.0984 38.405 14.1027 45.9886C12.5061 39.2032 7.71647 34.0144 0.132812 32.0187C6.91819 30.023 12.107 25.2333 14.1027 18.0488Z" fill="#72028e"/>
<path fill-rule="evenodd" clip-rule="evenodd" d="M67.2033 0.202637C67.9561 3.40208 70.2145 5.84872 73.7904 6.78973C70.591 7.54254 68.1443 9.80097 67.2033 13.3768C66.4505 10.1774 64.1921 7.73074 60.6162 6.78973C63.8157 5.84872 66.2623 3.59029 67.2033 0.202637Z" fill="#72028e"/>
</svg>
