<svg width="1920" height="825" viewBox="0 0 1920 825" fill="none" xmlns="http://www.w3.org/2000/svg">
<mask id="mask0_1066_2" style="mask-type:alpha" maskUnits="userSpaceOnUse" x="0" y="0" width="1920" height="820">
<rect width="1920" height="819.717" fill="url(#paint0_linear_1066_2)"/>
</mask>
<g mask="url(#mask0_1066_2)">
<rect width="1920" height="819.717" fill="url(#paint1_linear_1066_2)"/>
<g style="mix-blend-mode:soft-light" opacity="0.2">
<path d="M1682.06 159.893C1895.41 132.688 2037.64 218.6 2097.3 287.329L1988.48 927.373L6.78027 818.551C864.467 807.096 843.726 553.64 1156.57 593.748C1374.3 621.663 1341.03 203.381 1682.06 159.893Z" fill="white"/>
</g>
<g style="mix-blend-mode:soft-light" opacity="0.2">
<path d="M1408.06 -58.238C1690.9 -54.3124 1875.99 -102.739 1954.5 -15.5742V912.543L-147.371 895.793C-285.651 797.382 -383.511 655.916 -185.664 580.057C367.458 842.487 339.681 300.261 648.472 283.76C917.053 269.409 678.194 -68.3677 1408.06 -58.238Z" fill="white"/>
</g>
<g style="mix-blend-mode:overlay" opacity="0.2">
<path fill-rule="evenodd" clip-rule="evenodd" d="M187.507 311.211C200.503 364.64 238.047 405.072 294.364 418.068C240.935 431.065 200.503 468.609 187.507 524.926C174.511 471.497 136.966 431.065 80.6494 418.068C132.634 406.516 174.511 368.972 187.507 311.211Z" fill="white"/>
</g>
<g style="mix-blend-mode:overlay" opacity="0.2">
<path fill-rule="evenodd" clip-rule="evenodd" d="M966.533 162.406C976.011 201.371 1003.39 230.858 1044.46 240.336C1005.5 249.814 976.011 277.195 966.533 318.266C957.055 279.301 929.674 249.814 888.603 240.336C926.515 231.911 957.055 204.53 966.533 162.406Z" fill="white"/>
</g>
<g style="mix-blend-mode:overlay">
<path fill-rule="evenodd" clip-rule="evenodd" d="M1265.02 227.416C1267.78 238.457 1275.6 247.198 1287.57 249.959C1276.52 252.719 1267.78 260.541 1265.02 272.502C1262.26 261.461 1254.44 252.719 1242.48 249.959C1253.52 247.198 1262.26 239.377 1265.02 227.416Z" fill="white"/>
</g>
<g style="mix-blend-mode:overlay">
<path fill-rule="evenodd" clip-rule="evenodd" d="M1807.19 210.569C1813.97 239.392 1834.31 261.432 1866.53 269.909C1837.7 276.691 1815.66 297.036 1807.19 329.249C1800.4 300.427 1780.06 278.386 1747.85 269.909C1776.67 261.432 1798.71 241.087 1807.19 210.569Z" fill="white"/>
</g>
<path fill-rule="evenodd" clip-rule="evenodd" d="M97.2219 175.557C99.9365 186.716 107.779 195.162 119.542 197.876C108.382 200.591 99.9365 208.433 97.2219 220.196C94.5074 209.036 86.6654 200.591 74.9023 197.876C85.7605 195.463 94.5074 187.621 97.2219 175.557Z" fill="white"/>
<path fill-rule="evenodd" clip-rule="evenodd" d="M933.966 502.296C936.456 512.531 943.648 520.277 954.437 522.766C944.202 525.256 936.456 532.448 933.966 543.237C931.477 533.001 924.285 525.256 913.496 522.766C923.455 520.553 931.477 513.361 933.966 502.296Z" fill="white"/>
<path opacity="0.1" fill-rule="evenodd" clip-rule="evenodd" d="M634.483 137.14C638.35 153.036 649.52 165.065 666.275 168.932C650.379 172.798 638.35 183.968 634.483 200.723C630.617 184.828 619.447 172.798 602.691 168.932C618.158 165.495 630.617 154.325 634.483 137.14Z" fill="white"/>
<path fill-rule="evenodd" clip-rule="evenodd" d="M1751.1 60.1009C1752.33 64.4428 1755.52 67.6471 1760.18 68.5469C1755.84 69.7694 1752.63 72.9662 1751.73 77.6212C1750.51 73.2793 1747.31 70.0751 1742.66 69.1752C1746.88 68.0753 1750.21 64.8743 1751.1 60.1009Z" fill="white"/>
</g>
<path d="M1287.57 516.747L1412.56 690.713L1417.45 528.588L1287.57 516.747Z" fill="url(#paint2_linear_1066_2)"/>
<path d="M1409.72 688.738L1471.81 820.36H1512.68L1465.02 532.142L1413.35 528.509L1409.72 688.738Z" fill="url(#paint3_linear_1066_2)"/>
<path d="M1670.74 515.74H1834.03L1752.75 819.949H1620.49L1670.74 515.74Z" fill="url(#paint4_linear_1066_2)"/>
<path d="M1829.44 515.864L1959.28 503.732V819.949H1747.85L1829.44 515.864Z" fill="url(#paint5_linear_1066_2)"/>
<path d="M1893.31 499.784H1959.28L1948.77 825L1893.31 499.784Z" fill="url(#paint6_linear_1066_2)"/>
<path d="M1811.08 419.591L1287.53 516.747C1287.53 516.747 1320.68 529.804 1468.67 532.671C1616.66 535.538 1954.5 508.513 1954.5 508.513V442.538L1811.08 419.591Z" fill="url(#paint7_linear_1066_2)"/>
<path opacity="0.22" d="M1590.42 476.958L1622.45 488.232V495.128L1724.63 522.287L1798.65 515.314L1744.24 495.128L1712.17 466.226L1590.42 476.958Z" fill="url(#paint8_linear_1066_2)"/>
<path opacity="0.22" d="M1401.33 518.258L1450.65 532.981L1674.39 526.123L1591.27 487.574L1558.12 492.92L1619.48 522.559L1434.48 512.912L1401.33 518.258Z" fill="url(#paint9_linear_1066_2)"/>
<path d="M1450.65 532.981C1450.65 532.981 1570.39 499.313 1674.35 526.162L1642.36 820.321H1498.31L1450.65 532.981Z" fill="url(#paint10_linear_1066_2)"/>
<path d="M-2.75293 821.394L1132.28 676.005H1278.76L1095.38 819.735L-2.75293 821.394Z" fill="url(#paint11_linear_1066_2)"/>
<path d="M1278.76 676.005L1239.03 820.325L1094.79 819.735L1278.76 676.005Z" fill="url(#paint12_linear_1066_2)"/>
<path opacity="0.22" d="M1204.4 686.543L1035.79 791.696L856.419 822.081L1179.86 686.543H1204.4Z" fill="url(#paint13_linear_1066_2)"/>
<path d="M1058.33 357.829L1054.14 386.623L1051.04 407.943C1051.04 407.943 1028.44 417.974 1021.78 434.101C1019.9 438.664 1019.31 444.8 1019.39 451.252C1019.62 467.773 1024.44 486.496 1024.44 486.496L1015.86 489.014C1015.86 489.014 992.51 452.668 999.17 419.272C1005.75 385.876 1058.33 357.829 1058.33 357.829Z" fill="url(#paint14_linear_1066_2)"/>
<path opacity="0.22" d="M1054.1 386.623L1051.01 407.943C1051.01 407.943 1028.4 417.974 1021.74 434.101C1019.86 438.664 1019.27 444.801 1019.35 451.252C1018.72 450.347 1018.09 449.324 1017.47 448.183C997.212 410.893 1044.66 378.245 1044.66 378.245L1054.1 386.623Z" fill="url(#paint15_linear_1066_2)"/>
<path d="M1030.32 429.263L961.009 462.816L994.43 527.169L1073.93 472.729L1030.32 429.263Z" fill="url(#paint16_linear_1066_2)"/>
<path opacity="0.22" d="M1030.32 429.263L1021.74 434.101C1021.74 434.101 1015.08 455.146 1017.51 462.855C1017.51 462.855 1003.91 482.523 1004.22 520.521L1019.9 509.547L1030.32 429.263Z" fill="url(#paint17_linear_1066_2)"/>
<path d="M1069.07 528.232C1069.07 528.232 1081.1 650.836 1000.5 750.85L991.041 744.381C1004.09 721.724 1026.72 642.785 1024.88 621.976C1010.94 563.262 1007.79 516.156 1021.74 494.757C1035.69 473.358 1067.81 493.577 1069.07 528.232Z" fill="url(#paint18_linear_1066_2)"/>
<path d="M1001.88 749.752C1001.88 749.752 1004.84 767.413 1018.07 774.153L1016.75 778.203L991.572 762.267L990.041 754.463L985.704 759.139L980.816 756.722L991.074 743.572L1001.88 749L1001.88 749.752Z" fill="url(#paint19_linear_1066_2)"/>
<path d="M1031.02 712.401H994.038L994.233 712.086C1010.02 684.709 1017.19 661.697 1015.59 643.721C1011.47 597.738 1006.77 517.218 1021.54 494.639C1026.44 487.165 1034.04 484.215 1042.39 486.575C1049.09 488.463 1055.51 493.42 1060.45 500.579C1065.85 508.406 1068.91 517.965 1069.26 528.232C1069.26 528.507 1068.48 556.829 1063.43 593.489C1058.72 627.318 1049.32 675.426 1031.1 712.283L1031.02 712.401ZM994.782 711.968H1030.75C1048.93 675.15 1058.33 627.2 1062.99 593.411C1068.05 556.947 1068.83 528.782 1068.83 528.192C1068.48 518.044 1065.46 508.564 1060.09 500.775C1055.28 493.813 1048.77 488.739 1042.27 486.929C1034.12 484.648 1026.67 487.519 1021.89 494.836C1015.66 504.355 1012.33 525.399 1011.94 557.419C1011.59 587.392 1013.94 620.867 1015.98 643.642C1017.62 661.658 1010.49 684.63 994.782 711.968Z" fill="#6B4482"/>
<path d="M1168.07 657.725H1156.09C1156.09 657.725 1142.76 576.221 1166.74 551.518C1166.74 551.518 1049.67 536.138 1041.01 506.754C1035.25 487.126 1051.87 474.106 1063.54 467.615C1069.34 464.39 1073.93 462.777 1073.93 462.777C1075.22 463.446 1186.72 521.505 1192.68 536.099C1198.67 550.85 1168.07 657.725 1168.07 657.725Z" fill="url(#paint20_linear_1066_2)"/>
<path d="M1168.08 657.724H1160.55C1166.51 631.684 1185.12 548.647 1181.83 540.425C1177.91 530.631 1071.65 489.407 1071.65 489.407L1063.54 467.654L1058.29 453.612L1073.93 462.855C1075.22 463.524 1186.72 521.584 1192.68 536.177C1198.67 550.849 1168.08 657.724 1168.08 657.724Z" fill="url(#paint21_linear_1066_2)"/>
<path d="M1092.11 337.729L1092.77 357.83H1073.93L1084.74 332.694L1092.11 337.729Z" fill="url(#paint22_linear_1066_2)"/>
<path opacity="0.19" d="M1084.54 334.346L1092.5 349.962L1092.11 337.729L1084.54 334.346Z" fill="url(#paint23_linear_1066_2)"/>
<path d="M1093.95 327.738L1099.55 337.768C1099.55 337.768 1092.81 344.062 1087.21 337.768C1081.61 331.475 1080.12 325.063 1080.12 325.063C1080.12 325.063 1088.34 317.707 1093.95 327.738Z" fill="url(#paint24_linear_1066_2)"/>
<path d="M1079.33 345.281C1079.33 345.281 1070.99 330.57 1076.86 324.394C1076.86 324.394 1077.61 320.382 1088.34 318.218C1091.28 317.628 1094.22 315.622 1094.22 315.622C1094.22 315.622 1095.71 326.597 1083.33 326.833C1083.37 326.833 1086.23 338.909 1079.33 345.281Z" fill="url(#paint25_linear_1066_2)"/>
<path d="M1084.54 334.346L1082.23 330.412C1082.23 330.412 1080.12 330.806 1080.63 332.694C1081.13 334.582 1084.35 335.998 1084.54 334.346Z" fill="url(#paint26_linear_1066_2)"/>
<path d="M1024.4 462.816C1024.4 462.816 1037.29 370.416 1058.33 357.829C1079.37 345.242 1127.52 351.024 1127.52 351.024L1073.93 462.816C1073.93 462.816 1077.61 498.769 1057.63 508.091C1037.68 517.453 998.426 539.756 1024.4 462.816Z" fill="url(#paint27_linear_1066_2)"/>
<path d="M1127.52 351.064L1180.61 357.869C1180.61 357.869 1216.7 342.882 1253.29 338.751L1261.01 345.321L1196.68 377.851L1109.93 387.685C1109.93 387.685 1106.21 361.645 1127.52 351.064Z" fill="url(#paint28_linear_1066_2)"/>
<path d="M1168.07 657.724C1168.07 657.724 1175.95 672.829 1189.9 675.032V679.084L1162.43 672.082L1158.75 665.474L1156.2 670.981L1151.07 670.233L1156.13 657.685H1168.07V657.724Z" fill="url(#paint29_linear_1066_2)"/>
<path d="M1253.25 338.712L1264.26 326.046L1272.33 322.467C1272.33 322.467 1273.43 325.22 1268.65 327.777L1264.26 332.694C1264.26 332.694 1281.11 323.372 1282.95 324.473C1284.79 325.574 1278.92 328.17 1278.92 328.17C1278.92 328.17 1285.14 325.614 1284.79 328.524C1284.44 331.475 1280.4 331.514 1280.4 331.514C1280.4 331.514 1284.44 328.879 1284.44 331.475C1284.44 334.031 1260.97 345.281 1260.97 345.281L1253.25 338.712Z" fill="url(#paint30_linear_1066_2)"/>
<path d="M1572.59 456.618V473.471C1572.59 473.897 1573.63 474.324 1575.52 474.75C1577.3 475.137 1579.88 475.486 1583.09 475.796C1584.94 475.99 1587.02 476.144 1589.3 476.338C1591.62 476.493 1594.12 476.648 1596.86 476.803C1598.91 476.919 1601.07 476.997 1603.31 477.113C1605.74 477.229 1608.25 477.307 1610.87 477.384C1612.88 477.462 1614.96 477.501 1617.08 477.578C1619.55 477.617 1622.06 477.694 1624.65 477.733C1626.89 477.772 1629.2 477.81 1631.52 477.81C1633.99 477.849 1636.5 477.849 1639.08 477.849C1640.24 477.849 1641.4 477.849 1642.55 477.849C1643.48 477.849 1644.37 477.849 1645.29 477.849C1647.84 477.849 1650.35 477.81 1652.86 477.81C1655.29 477.772 1657.68 477.772 1660.04 477.733C1662.62 477.694 1665.13 477.655 1667.6 477.578C1669.72 477.539 1671.81 477.462 1673.81 477.423C1676.44 477.346 1678.94 477.229 1681.38 477.152C1683.77 477.036 1686.08 476.958 1688.24 476.842C1690.95 476.687 1693.49 476.532 1695.81 476.377C1698.09 476.222 1700.17 476.028 1702.02 475.835C1705.22 475.525 1707.77 475.176 1709.58 474.788C1711.48 474.401 1712.52 473.975 1712.52 473.51V456.657H1572.59V456.618Z" fill="url(#paint31_radial_1066_2)"/>
<g opacity="0.7">
<path d="M1701.91 456.618V475.796C1705.11 475.486 1707.66 475.137 1709.47 474.75V456.618H1701.91Z" fill="url(#paint32_linear_1066_2)"/>
<path d="M1688.13 456.618V476.803C1690.83 476.648 1693.38 476.493 1695.69 476.338V456.618H1688.13Z" fill="url(#paint33_linear_1066_2)"/>
<path d="M1673.73 456.618V477.423C1676.36 477.346 1678.87 477.229 1681.3 477.152V456.618H1673.73Z" fill="url(#paint34_linear_1066_2)"/>
<path d="M1659.96 456.618V477.733C1662.54 477.694 1665.05 477.655 1667.52 477.578V456.618H1659.96Z" fill="url(#paint35_linear_1066_2)"/>
<path d="M1645.22 456.618V477.849C1647.76 477.849 1650.27 477.81 1652.78 477.81V456.618H1645.22V456.618Z" fill="url(#paint36_linear_1066_2)"/>
<path d="M1631.48 456.618V477.81C1633.95 477.849 1636.46 477.849 1639.04 477.849V456.618H1631.48V456.618Z" fill="url(#paint37_linear_1066_2)"/>
<path d="M1617.05 456.618V477.578C1619.52 477.617 1622.02 477.694 1624.61 477.733V456.618H1617.05Z" fill="url(#paint38_linear_1066_2)"/>
<path d="M1603.27 456.618V477.113C1605.7 477.229 1608.21 477.307 1610.83 477.384V456.618H1603.27Z" fill="url(#paint39_linear_1066_2)"/>
<path d="M1589.3 456.618V476.338C1591.62 476.493 1594.12 476.648 1596.86 476.803V456.618H1589.3Z" fill="url(#paint40_linear_1066_2)"/>
<path d="M1575.52 456.618V474.75C1577.3 475.137 1579.88 475.486 1583.09 475.796V456.618H1575.52Z" fill="url(#paint41_linear_1066_2)"/>
</g>
<path d="M1642.48 460.996C1681.07 460.996 1712.36 459.036 1712.36 456.618C1712.36 454.2 1681.07 452.24 1642.48 452.24C1603.88 452.24 1572.59 454.2 1572.59 456.618C1572.59 459.036 1603.88 460.996 1642.48 460.996Z" fill="url(#paint42_linear_1066_2)"/>
<path d="M1576.06 437.479V454.332C1576.06 454.758 1577.11 455.185 1579 455.611C1580.77 455.998 1583.36 456.347 1586.56 456.657C1588.41 456.851 1590.5 457.006 1592.77 457.199C1595.09 457.354 1597.6 457.509 1600.34 457.664C1602.38 457.78 1604.54 457.858 1606.78 457.974C1609.21 458.09 1611.72 458.168 1614.35 458.245C1616.35 458.323 1618.44 458.362 1620.56 458.439C1623.03 458.478 1625.54 458.555 1628.12 458.594C1630.36 458.633 1632.68 458.672 1634.99 458.672C1637.46 458.71 1639.97 458.71 1642.55 458.71C1643.71 458.71 1644.87 458.71 1646.03 458.71C1646.95 458.71 1647.84 458.71 1648.77 458.71C1651.31 458.71 1653.82 458.672 1656.33 458.672C1658.76 458.633 1661.15 458.633 1663.51 458.594C1666.09 458.555 1668.6 458.517 1671.07 458.439C1673.19 458.4 1675.28 458.323 1677.29 458.284C1679.91 458.207 1682.42 458.09 1684.85 458.013C1687.24 457.897 1689.56 457.819 1691.72 457.703C1694.42 457.548 1696.97 457.393 1699.28 457.238C1701.56 457.083 1703.64 456.889 1705.49 456.696C1708.7 456.386 1711.24 456.037 1713.06 455.65C1714.95 455.262 1715.99 454.836 1715.99 454.371V437.518H1576.06V437.479Z" fill="url(#paint43_radial_1066_2)"/>
<g opacity="0.7">
<path d="M1705.38 437.479V456.657C1708.58 456.347 1711.13 455.998 1712.94 455.611V437.479H1705.38Z" fill="url(#paint44_linear_1066_2)"/>
<path d="M1691.6 437.479V457.664C1694.3 457.509 1696.85 457.354 1699.17 457.199V437.479H1691.6Z" fill="url(#paint45_linear_1066_2)"/>
<path d="M1677.21 437.479V458.284C1679.83 458.207 1682.34 458.09 1684.77 458.013V437.479H1677.21Z" fill="url(#paint46_linear_1066_2)"/>
<path d="M1663.43 437.479V458.594C1666.02 458.555 1668.53 458.517 1671 458.439V437.479H1663.43Z" fill="url(#paint47_linear_1066_2)"/>
<path d="M1648.69 437.479V458.71C1651.24 458.71 1653.75 458.672 1656.25 458.672V437.479H1648.69V437.479Z" fill="url(#paint48_linear_1066_2)"/>
<path d="M1634.95 437.479V458.672C1637.42 458.71 1639.93 458.71 1642.52 458.71V437.479H1634.95V437.479Z" fill="url(#paint49_linear_1066_2)"/>
<path d="M1620.52 437.479V458.439C1622.99 458.478 1625.5 458.555 1628.08 458.594V437.479H1620.52Z" fill="url(#paint50_linear_1066_2)"/>
<path d="M1606.74 437.479V457.974C1609.17 458.09 1611.68 458.168 1614.31 458.245V437.479H1606.74Z" fill="url(#paint51_linear_1066_2)"/>
<path d="M1592.77 437.479V457.199C1595.09 457.354 1597.6 457.509 1600.34 457.664V437.479H1592.77Z" fill="url(#paint52_linear_1066_2)"/>
<path d="M1579 437.479V455.611C1580.77 455.998 1583.36 456.347 1586.56 456.657V437.479H1579Z" fill="url(#paint53_linear_1066_2)"/>
</g>
<path d="M1645.95 441.857C1684.55 441.857 1715.84 439.897 1715.84 437.479C1715.84 435.061 1684.55 433.101 1645.95 433.101C1607.35 433.101 1576.06 435.061 1576.06 437.479C1576.06 439.897 1607.35 441.857 1645.95 441.857Z" fill="url(#paint54_linear_1066_2)"/>
<path d="M1579.11 418.068V434.922C1579.11 435.348 1580.15 435.774 1582.05 436.2C1583.82 436.588 1586.41 436.936 1589.61 437.246C1591.46 437.44 1593.54 437.595 1595.82 437.789C1598.14 437.944 1600.65 438.099 1603.39 438.254C1605.43 438.37 1607.59 438.447 1609.83 438.564C1612.26 438.68 1614.77 438.757 1617.39 438.835C1619.4 438.912 1621.48 438.951 1623.61 439.028C1626.08 439.067 1628.58 439.145 1631.17 439.183C1633.41 439.222 1635.72 439.261 1638.04 439.261C1640.51 439.3 1643.02 439.3 1645.6 439.3C1646.76 439.3 1647.92 439.3 1649.08 439.3C1650 439.3 1650.89 439.3 1651.82 439.3C1654.36 439.3 1656.87 439.261 1659.38 439.261C1661.81 439.222 1664.2 439.222 1666.56 439.183C1669.14 439.145 1671.65 439.106 1674.12 439.028C1676.24 438.99 1678.33 438.912 1680.33 438.873C1682.96 438.796 1685.47 438.68 1687.9 438.602C1690.29 438.486 1692.6 438.409 1694.77 438.292C1697.47 438.137 1700.01 437.982 1702.33 437.827C1704.61 437.672 1706.69 437.479 1708.54 437.285C1711.75 436.975 1714.29 436.626 1716.11 436.239C1718 435.851 1719.04 435.425 1719.04 434.96V418.107H1579.11V418.068Z" fill="url(#paint55_radial_1066_2)"/>
<g opacity="0.7">
<path d="M1708.43 418.068V437.246C1711.63 436.936 1714.18 436.588 1715.99 436.2V418.068H1708.43V418.068Z" fill="url(#paint56_linear_1066_2)"/>
<path d="M1694.65 418.068V438.254C1697.35 438.099 1699.9 437.944 1702.21 437.789V418.068H1694.65Z" fill="url(#paint57_linear_1066_2)"/>
<path d="M1680.22 418.068V438.873C1682.84 438.796 1685.35 438.68 1687.78 438.602V418.068H1680.22Z" fill="url(#paint58_linear_1066_2)"/>
<path d="M1666.44 418.068V439.183C1669.03 439.145 1671.54 439.106 1674 439.028V418.068H1666.44Z" fill="url(#paint59_linear_1066_2)"/>
<path d="M1651.74 418.068V439.3C1654.29 439.3 1656.79 439.261 1659.3 439.261V418.068H1651.74V418.068Z" fill="url(#paint60_linear_1066_2)"/>
<path d="M1637.96 418.068V439.261C1640.43 439.3 1642.94 439.3 1645.53 439.3V418.068H1637.96V418.068Z" fill="url(#paint61_linear_1066_2)"/>
<path d="M1623.53 418.068V439.028C1626 439.067 1628.51 439.145 1631.09 439.183V418.068H1623.53Z" fill="url(#paint62_linear_1066_2)"/>
<path d="M1609.79 418.068V438.564C1612.22 438.68 1614.73 438.757 1617.36 438.835V418.068H1609.79Z" fill="url(#paint63_linear_1066_2)"/>
<path d="M1595.78 418.068V437.789C1598.1 437.944 1600.61 438.099 1603.35 438.254V418.068H1595.78Z" fill="url(#paint64_linear_1066_2)"/>
<path d="M1582.05 418.068V436.2C1583.82 436.588 1586.41 436.936 1589.61 437.246V418.068H1582.05Z" fill="url(#paint65_linear_1066_2)"/>
</g>
<path d="M1649 422.446C1687.6 422.446 1718.88 420.486 1718.88 418.068C1718.88 415.651 1687.6 413.69 1649 413.69C1610.4 413.69 1579.11 415.651 1579.11 418.068C1579.11 420.486 1610.4 422.446 1649 422.446Z" fill="url(#paint66_linear_1066_2)"/>
<path d="M1575.33 400.169V417.022C1575.33 417.449 1576.37 417.875 1578.26 418.301C1580.04 418.688 1582.62 419.037 1585.83 419.347C1587.68 419.541 1589.76 419.696 1592.04 419.889C1594.36 420.044 1596.86 420.199 1599.6 420.354C1601.65 420.471 1603.81 420.548 1606.05 420.664C1608.48 420.781 1610.99 420.858 1613.61 420.936C1615.62 421.013 1617.7 421.052 1619.82 421.129C1622.29 421.168 1624.8 421.245 1627.39 421.284C1629.63 421.323 1631.94 421.362 1634.26 421.362C1636.73 421.4 1639.24 421.4 1641.82 421.4C1642.98 421.4 1644.14 421.4 1645.29 421.4C1646.22 421.4 1647.11 421.4 1648.03 421.4C1650.58 421.4 1653.09 421.362 1655.6 421.362C1658.03 421.323 1660.42 421.323 1662.78 421.284C1665.36 421.245 1667.87 421.207 1670.34 421.129C1672.46 421.091 1674.55 421.013 1676.55 420.974C1679.18 420.897 1681.68 420.781 1684.12 420.703C1686.51 420.587 1688.82 420.509 1690.98 420.393C1693.69 420.238 1696.23 420.083 1698.55 419.928C1700.82 419.773 1702.91 419.58 1704.76 419.386C1707.96 419.076 1710.51 418.727 1712.32 418.34C1714.22 417.952 1715.26 417.526 1715.26 417.061V400.208H1575.33V400.169Z" fill="url(#paint67_radial_1066_2)"/>
<g opacity="0.7">
<path d="M1704.65 400.169V419.347C1707.85 419.037 1710.4 418.688 1712.21 418.301V400.169H1704.65V400.169Z" fill="url(#paint68_linear_1066_2)"/>
<path d="M1690.87 400.169V420.354C1693.57 420.199 1696.12 420.044 1698.43 419.889V400.169H1690.87V400.169Z" fill="url(#paint69_linear_1066_2)"/>
<path d="M1676.44 400.169V420.974C1679.06 420.897 1681.57 420.781 1684 420.703V400.169H1676.44V400.169Z" fill="url(#paint70_linear_1066_2)"/>
<path d="M1662.7 400.169V421.284C1665.28 421.245 1667.79 421.207 1670.26 421.129V400.169H1662.7V400.169Z" fill="url(#paint71_linear_1066_2)"/>
<path d="M1647.96 400.169V421.4C1650.5 421.4 1653.01 421.362 1655.52 421.362V400.169H1647.96Z" fill="url(#paint72_linear_1066_2)"/>
<path d="M1634.22 400.169V421.362C1636.69 421.4 1639.2 421.4 1641.78 421.4V400.169H1634.22Z" fill="url(#paint73_linear_1066_2)"/>
<path d="M1619.79 400.169V421.129C1622.26 421.168 1624.76 421.245 1627.35 421.284V400.169H1619.79V400.169Z" fill="url(#paint74_linear_1066_2)"/>
<path d="M1606.01 400.169V420.664C1608.44 420.781 1610.95 420.858 1613.57 420.936V400.169H1606.01V400.169Z" fill="url(#paint75_linear_1066_2)"/>
<path d="M1592.04 400.169V419.889C1594.36 420.044 1596.86 420.199 1599.6 420.354V400.169H1592.04V400.169Z" fill="url(#paint76_linear_1066_2)"/>
<path d="M1578.26 400.169V418.301C1580.04 418.688 1582.62 419.037 1585.83 419.347V400.169H1578.26V400.169Z" fill="url(#paint77_linear_1066_2)"/>
</g>
<path d="M1645.22 404.547C1683.81 404.547 1715.1 402.587 1715.1 400.169C1715.1 397.751 1683.81 395.791 1645.22 395.791C1606.62 395.791 1575.33 397.751 1575.33 400.169C1575.33 402.587 1606.62 404.547 1645.22 404.547Z" fill="url(#paint78_linear_1066_2)"/>
<path d="M1578.07 381.727V398.581C1578.07 399.007 1579.11 399.433 1581 399.859C1582.78 400.247 1585.36 400.595 1588.57 400.905C1590.42 401.099 1592.5 401.254 1594.78 401.448C1597.1 401.603 1599.6 401.758 1602.34 401.913C1604.39 402.029 1606.55 402.106 1608.79 402.222C1611.22 402.339 1613.73 402.416 1616.35 402.494C1618.36 402.571 1620.44 402.61 1622.56 402.687C1625.03 402.726 1627.54 402.804 1630.13 402.842C1632.37 402.881 1634.68 402.92 1637 402.92C1639.47 402.959 1641.98 402.959 1644.56 402.959C1645.72 402.959 1646.88 402.959 1648.03 402.959C1648.96 402.959 1649.85 402.959 1650.77 402.959C1653.32 402.959 1655.83 402.92 1658.34 402.92C1660.77 402.881 1663.16 402.881 1665.51 402.842C1668.1 402.804 1670.61 402.765 1673.08 402.687C1675.2 402.649 1677.28 402.571 1679.29 402.532C1681.92 402.455 1684.42 402.339 1686.86 402.261C1689.25 402.145 1691.56 402.067 1693.72 401.951C1696.43 401.796 1698.97 401.641 1701.29 401.486C1703.56 401.331 1705.65 401.138 1707.5 400.944C1710.7 400.634 1713.25 400.285 1715.06 399.898C1716.96 399.51 1718 399.084 1718 398.619V381.766H1578.07V381.727Z" fill="url(#paint79_radial_1066_2)"/>
<g opacity="0.7">
<path d="M1707.38 381.727V400.905C1710.59 400.595 1713.13 400.247 1714.95 399.859V381.727H1707.38Z" fill="url(#paint80_linear_1066_2)"/>
<path d="M1693.61 381.727V401.913C1696.31 401.758 1698.86 401.603 1701.17 401.448V381.727H1693.61V381.727Z" fill="url(#paint81_linear_1066_2)"/>
<path d="M1679.18 381.727V402.532C1681.8 402.455 1684.31 402.339 1686.74 402.261V381.727H1679.18Z" fill="url(#paint82_linear_1066_2)"/>
<path d="M1665.44 381.727V402.842C1668.02 402.804 1670.53 402.765 1673 402.687V381.727H1665.44Z" fill="url(#paint83_linear_1066_2)"/>
<path d="M1650.7 381.727V402.959C1653.24 402.959 1655.75 402.92 1658.26 402.92V381.727H1650.7Z" fill="url(#paint84_linear_1066_2)"/>
<path d="M1636.92 381.727V402.92C1639.39 402.959 1641.9 402.959 1644.48 402.959V381.727H1636.92Z" fill="url(#paint85_linear_1066_2)"/>
<path d="M1622.53 381.727V402.687C1625 402.726 1627.5 402.804 1630.09 402.842V381.727H1622.53Z" fill="url(#paint86_linear_1066_2)"/>
<path d="M1608.75 381.727V402.222C1611.18 402.339 1613.69 402.416 1616.31 402.494V381.727H1608.75V381.727Z" fill="url(#paint87_linear_1066_2)"/>
<path d="M1594.74 381.727V401.448C1597.06 401.603 1599.56 401.758 1602.3 401.913V381.727H1594.74V381.727Z" fill="url(#paint88_linear_1066_2)"/>
<path d="M1581 381.727V399.859C1582.78 400.247 1585.36 400.595 1588.57 400.905V381.727H1581Z" fill="url(#paint89_linear_1066_2)"/>
</g>
<path d="M1717.88 377.349H1578.07V386.105H1717.88V377.349Z" fill="#FFB048"/>
<path d="M1586.14 379.984C1586.29 382.347 1587.06 384.633 1588.37 386.802V386.531H1718.23V377H1586.37V376.458C1586.14 377.62 1586.06 378.821 1586.14 379.984Z" fill="#FFB048"/>
<path d="M1587.06 379.945C1587.22 382.308 1587.99 384.555 1589.3 386.725V386.531H1718.27V377H1587.29V376.458C1587.06 377.582 1586.98 378.744 1587.06 379.945Z" fill="#FFB149"/>
<path d="M1587.95 379.868C1588.1 382.192 1588.88 384.439 1590.15 386.57V386.531H1718.23V377.001H1588.18V376.419C1587.95 377.543 1587.87 378.705 1587.95 379.868Z" fill="#FFB14A"/>
<path d="M1588.88 379.829C1589.03 382.153 1589.76 384.362 1591.08 386.454C1591.38 386.996 1591.77 387.5 1592.16 388.004V386.531H1718.27V377.001H1589.11V376.419C1588.88 377.504 1588.8 378.667 1588.88 379.829Z" fill="#FFB24B"/>
<path d="M1589.8 379.752C1589.96 382.037 1590.69 384.207 1591.96 386.299C1592.27 386.803 1592.62 387.345 1593 387.849V386.532H1718.23V377.001H1589.99V376.381C1589.8 377.466 1589.72 378.628 1589.8 379.752Z" fill="#FFB34C"/>
<path d="M1590.69 379.713C1590.84 381.96 1591.58 384.129 1592.81 386.183C1593.43 387.229 1594.2 388.197 1595.09 389.166V386.532H1718.23V377.001H1590.88V376.342C1590.69 377.427 1590.61 378.55 1590.69 379.713Z" fill="#FFB34D"/>
<path d="M1591.62 379.635C1591.77 381.882 1592.5 384.013 1593.74 386.028C1594.36 387.035 1595.13 388.042 1595.98 389.011V386.531H1718.23V377.001H1591.81V376.342C1591.62 377.388 1591.54 378.512 1591.62 379.635Z" fill="#FFB44E"/>
<path d="M1592.54 379.558C1592.7 381.766 1593.39 383.897 1594.63 385.912C1595.24 386.919 1595.98 387.887 1596.86 388.856V386.531H1718.27V377.001H1592.77V376.303C1592.54 377.349 1592.46 378.473 1592.54 379.558Z" fill="#FFB54F"/>
<path d="M1593.43 379.519C1593.58 381.689 1594.28 383.781 1595.51 385.795C1596.13 386.803 1596.86 387.771 1597.71 388.701V386.532H1718.23V377.001H1593.62V376.265C1593.43 377.349 1593.35 378.434 1593.43 379.519Z" fill="#FFB550"/>
<path d="M1594.35 379.442C1594.51 381.611 1595.2 383.665 1596.4 385.641C1597.02 386.609 1597.71 387.578 1598.56 388.508V386.532H1718.23V377.001H1594.55V376.265C1594.35 377.311 1594.28 378.357 1594.35 379.442Z" fill="#FFB651"/>
<path d="M1595.28 379.403C1595.44 381.534 1596.13 383.587 1597.29 385.524C1597.87 386.493 1598.6 387.423 1599.45 388.352V386.532H1718.27V377.001H1595.47V376.226C1595.28 377.272 1595.2 378.318 1595.28 379.403Z" fill="#FFB652"/>
<path d="M1596.17 379.325C1596.32 381.417 1596.98 383.471 1598.18 385.369C1598.75 386.338 1599.49 387.268 1600.3 388.159V386.532H1718.23V377.001H1596.36V376.226C1596.17 377.233 1596.09 378.279 1596.17 379.325Z" fill="#FFB753"/>
<path d="M1597.1 379.286C1597.25 381.379 1597.91 383.393 1599.06 385.292C1599.64 386.26 1600.34 387.151 1601.15 388.042V386.531H1718.23V377.001H1597.29V376.187C1597.1 377.194 1597.02 378.24 1597.1 379.286Z" fill="#FFB854"/>
<path d="M1598.02 379.209C1598.18 381.262 1598.83 383.238 1599.99 385.137C1600.57 386.066 1601.26 386.996 1602.07 387.887V386.531H1718.27V377.001H1598.21V376.148C1598.02 377.156 1597.94 378.163 1598.02 379.209Z" fill="#FFB855"/>
<path d="M1598.91 379.131C1599.02 381.185 1599.72 383.122 1600.84 384.982C1601.42 385.911 1602.07 386.803 1602.88 387.694V386.531H1718.23V377.001H1599.1V376.148C1598.91 377.117 1598.83 378.124 1598.91 379.131Z" fill="#FFB956"/>
<path d="M1599.84 379.093C1599.95 381.107 1600.61 383.045 1601.73 384.866C1602.3 385.795 1602.96 386.686 1603.77 387.539V386.531H1718.27V377.001H1600.03V376.071C1599.84 377.078 1599.76 378.085 1599.84 379.093Z" fill="#FFBA57"/>
<path d="M1600.72 379.015C1600.84 380.991 1601.49 382.928 1602.61 384.711C1603.15 385.602 1603.85 386.493 1604.62 387.345V386.531H1718.23V377.001H1600.92V376.071C1600.72 377.039 1600.68 378.047 1600.72 379.015Z" fill="#FFBA58"/>
<path d="M1601.65 378.977C1601.76 380.952 1602.42 382.812 1603.5 384.594C1604.04 385.485 1604.7 386.376 1605.47 387.19V386.531H1718.23V377.001H1601.8V376.071C1601.65 377.001 1601.57 377.969 1601.65 378.977Z" fill="#FFBB59"/>
<path d="M1602.58 378.899C1602.69 380.836 1603.35 382.696 1604.43 384.478C1604.97 385.369 1605.62 386.221 1606.4 387.035V386.531H1718.27V377.001H1602.73V376.032C1602.58 376.962 1602.5 377.93 1602.58 378.899Z" fill="#FFBC5A"/>
<path d="M1603.46 378.86C1603.58 380.759 1604.2 382.618 1605.28 384.362C1605.82 385.214 1606.47 386.066 1607.21 386.919V386.531H1718.23V377.001H1603.66V376.032C1603.46 376.923 1603.42 377.892 1603.46 378.86Z" fill="#FFBC5B"/>
<path d="M1604.39 378.783C1604.62 382.58 1606.86 386.028 1610.6 389.088V386.531H1718.23V377H1604.54V375.993C1604.39 376.884 1604.31 377.853 1604.39 378.783Z" fill="#FFBD5C"/>
<path d="M1605.31 378.744C1605.55 382.463 1607.75 385.912 1611.45 388.895V386.531H1718.27V377.001H1605.51V375.955C1605.31 376.846 1605.24 377.776 1605.31 378.744Z" fill="#FFBE5D"/>
<path d="M1606.2 378.667C1606.43 382.347 1608.59 385.718 1612.26 388.701V386.531H1718.23V377.001H1606.36V375.955C1606.2 376.846 1606.16 377.737 1606.2 378.667Z" fill="#FFBE5E"/>
<path d="M1607.13 378.589C1607.36 382.231 1609.48 385.563 1613.11 388.469V386.531H1718.23V377.001H1607.28V375.916C1607.13 376.807 1607.05 377.698 1607.13 378.589Z" fill="#FFBF5F"/>
<path d="M1608.05 378.55C1608.29 382.153 1610.37 385.408 1613.96 388.314V386.531H1718.27V377.001H1608.25V375.916C1608.05 376.768 1607.98 377.659 1608.05 378.55Z" fill="#FFC060"/>
<path d="M1608.94 378.473C1609.17 381.998 1611.22 385.253 1614.77 388.081V386.531H1718.23V377.001H1609.1V375.877C1608.94 376.729 1608.9 377.582 1608.94 378.473Z" fill="#FFC061"/>
<path d="M1609.87 378.434C1610.1 381.921 1612.15 385.137 1615.62 387.926V386.532H1718.27V377.001H1610.06V375.838C1609.87 376.691 1609.79 377.543 1609.87 378.434Z" fill="#FFC162"/>
<path d="M1610.79 378.357C1611.03 381.805 1613.03 384.943 1616.47 387.694V386.532H1718.27V377.001H1610.95V375.838C1610.79 376.652 1610.72 377.504 1610.79 378.357Z" fill="#FFC163"/>
<path d="M1611.68 378.318C1611.91 381.689 1613.88 384.827 1617.28 387.539V386.531H1718.27V377.001H1611.87V375.8C1611.68 376.613 1611.64 377.466 1611.68 378.318Z" fill="#FFC264"/>
<path d="M1612.61 378.24C1612.84 381.572 1614.77 384.633 1618.09 387.345V386.531H1718.23V377.001H1612.76V375.761C1612.61 376.574 1612.53 377.388 1612.61 378.24Z" fill="#FFC365"/>
<path d="M1613.53 378.163C1613.77 381.456 1615.66 384.478 1618.94 387.112V386.531H1718.27V377.001H1613.69V375.761C1613.5 376.536 1613.46 377.349 1613.53 378.163Z" fill="#FFC366"/>
<path d="M1614.42 378.124C1614.65 381.379 1616.51 384.323 1619.75 386.958V386.531H1718.23V377.001H1614.58V375.683C1614.42 376.497 1614.38 377.311 1614.42 378.124Z" fill="#FFC467"/>
<path d="M1615.35 378.047C1615.54 381.224 1617.43 384.168 1620.6 386.725V386.531H1718.23V377.001H1615.46V375.683C1615.35 376.458 1615.27 377.272 1615.35 378.047Z" fill="#FFC568"/>
<path d="M1616.24 378.008C1616.43 381.146 1618.28 384.052 1621.41 386.57V386.531H1716.99V387.5C1718.27 386.88 1719.5 386.26 1720.66 385.64H1718.23V377.001H1616.39V375.683C1616.24 376.419 1616.2 377.233 1616.24 378.008Z" fill="#FFC569"/>
<path d="M1617.16 377.93C1617.35 381.03 1619.17 383.858 1622.26 386.338C1623.03 386.958 1623.88 387.577 1624.8 388.12V386.531H1716.34V387.267C1717.61 386.686 1718.81 386.066 1719.93 385.447H1718.23V377.001H1617.28V375.645C1617.16 376.381 1617.12 377.156 1617.16 377.93Z" fill="#FFC66A"/>
<path d="M1618.09 377.892C1618.28 380.952 1620.06 383.742 1623.1 386.183C1623.88 386.803 1624.69 387.384 1625.61 387.965V386.531H1715.68V387.074C1716.92 386.493 1718.11 385.873 1719.23 385.253H1718.23V376.962H1618.2V375.606C1618.09 376.342 1618.01 377.117 1618.09 377.892Z" fill="#FFC76B"/>
<path d="M1618.98 377.814C1619.17 380.797 1620.91 383.548 1623.92 385.95C1624.65 386.57 1625.5 387.151 1626.39 387.694V386.531H1715.03V386.88C1716.26 386.299 1717.42 385.718 1718.5 385.098H1718.23V377H1619.13V375.606C1618.98 376.342 1618.94 377.078 1618.98 377.814Z" fill="#FFC76C"/>
<path d="M1619.9 377.775C1620.09 380.72 1621.83 383.432 1624.76 385.795C1626.23 386.996 1628.01 388.081 1630.05 389.089V386.531H1714.37V386.648C1716.8 385.524 1718.96 384.323 1720.85 383.045H1718.27V376.962H1620.06V375.567C1619.9 376.303 1619.86 377.039 1619.9 377.775Z" fill="#FFC86D"/>
<path d="M1620.83 377.698C1621.02 380.604 1622.72 383.238 1625.61 385.602C1627.04 386.764 1628.82 387.849 1630.82 388.817V386.531H1710.01V388.042C1711.32 387.539 1712.56 386.996 1713.75 386.415C1716.11 385.292 1718.27 384.129 1720.12 382.89H1718.31V376.962H1621.02V375.528C1620.83 376.264 1620.75 376.962 1620.83 377.698Z" fill="#FFC96E"/>
<path d="M1621.72 377.62C1621.91 380.487 1623.57 383.083 1626.38 385.369C1627.81 386.531 1629.51 387.577 1631.48 388.546V386.531H1709.31V387.81C1710.59 387.306 1711.82 386.764 1712.98 386.221C1715.3 385.137 1717.42 383.974 1719.23 382.734H1718.19V376.962H1621.79V375.49C1621.72 376.226 1621.68 376.923 1621.72 377.62Z" fill="#FFC96F"/>
<path d="M1622.64 377.582C1622.83 380.371 1624.46 382.967 1627.23 385.214C1628.62 386.338 1630.32 387.384 1632.25 388.352V386.531H1704.84V389.011C1707.54 388.081 1710.09 387.113 1712.36 386.028C1714.64 384.943 1716.72 383.819 1718.5 382.618H1718.23V377.001H1622.76V375.528C1622.64 376.187 1622.6 376.884 1622.64 377.582Z" fill="#FFCA70"/>
<path d="M1623.57 377.504C1623.76 380.255 1625.34 382.773 1628.08 384.982C1629.47 386.105 1631.09 387.112 1633.02 388.042V386.493H1704.34V388.701C1707 387.81 1709.47 386.803 1711.75 385.756C1714.02 384.71 1716.03 383.587 1717.8 382.386C1718.69 381.805 1719.5 381.185 1720.27 380.565H1718.31V376.884H1623.76V375.373C1623.57 376.148 1623.49 376.846 1623.57 377.504Z" fill="#FFCA71"/>
<path d="M1624.46 377.465C1624.65 380.177 1626.19 382.657 1628.89 384.827C1630.24 385.911 1631.86 386.919 1633.76 387.849V386.531H1703.8V388.507C1706.42 387.616 1708.85 386.647 1711.05 385.64C1713.25 384.594 1715.26 383.509 1716.99 382.347C1717.84 381.766 1718.65 381.185 1719.39 380.565H1718.23V377H1624.57V375.451C1624.46 376.109 1624.42 376.768 1624.46 377.465Z" fill="#FFCB72"/>
<path d="M1625.38 377.388C1625.57 380.023 1627.12 382.463 1629.74 384.594C1631.05 385.679 1632.67 386.648 1634.49 387.539V386.531H1703.26V388.236C1705.84 387.384 1708.23 386.415 1710.39 385.408C1714.76 383.393 1718.23 381.069 1720.54 378.589H1718.23V376.962H1625.5V375.412C1625.38 376.071 1625.34 376.729 1625.38 377.388Z" fill="#FFCC73"/>
<path d="M1626.31 377.349C1626.46 379.945 1628.01 382.347 1630.59 384.439C1631.9 385.485 1633.45 386.454 1635.26 387.345V386.531H1702.75V387.965C1705.3 387.112 1707.62 386.183 1709.78 385.175C1714.02 383.161 1717.46 380.914 1719.73 378.511H1718.27V376.962H1626.42V375.373C1626.31 376.032 1626.23 376.691 1626.31 377.349Z" fill="#FFCC74"/>
<path d="M1627.2 377.272C1627.35 379.829 1628.85 382.153 1631.4 384.207C1632.67 385.214 1634.22 386.183 1635.99 387.074V386.531H1702.21V387.694C1704.68 386.88 1707 385.95 1709.08 384.982C1713.25 383.006 1716.61 380.797 1718.85 378.434H1718.23V377.001H1627.31V375.412C1627.2 375.993 1627.16 376.652 1627.2 377.272Z" fill="#FFCD75"/>
<path d="M1628.12 377.194C1628.47 382.192 1633.95 386.376 1642.59 389.127V386.531H1701.67V387.461C1704.1 386.648 1706.38 385.756 1708.43 384.788C1712.52 382.851 1715.8 380.681 1718.04 378.357C1719.15 377.194 1719.97 375.993 1720.51 374.753L1718.27 376.962H1628.24V375.335C1628.12 375.954 1628.08 376.574 1628.12 377.194Z" fill="#FFCE76"/>
<path d="M1629.01 377.156C1629.32 382.076 1634.72 386.183 1643.21 388.856V386.532H1701.13V387.19C1703.53 386.377 1705.73 385.524 1707.73 384.556C1711.75 382.657 1714.99 380.526 1717.15 378.24C1718.23 377.117 1719.04 375.916 1719.58 374.715L1718.23 376.962H1629.12V375.296C1629.01 375.916 1628.97 376.536 1629.01 377.156Z" fill="#FFCE77"/>
<path d="M1629.94 377.078C1630.24 381.882 1635.53 385.911 1643.83 388.546V386.531H1693.11V389.05C1698.39 387.81 1703.14 386.221 1707.08 384.362C1711.01 382.502 1714.18 380.41 1716.3 378.202C1717.38 377.078 1718.15 375.916 1718.69 374.753L1718.27 377.001H1630.09V375.296C1629.94 375.877 1629.9 376.497 1629.94 377.078Z" fill="#FFCF79"/>
<path d="M1630.86 377.039C1631.17 381.766 1636.34 385.679 1644.48 388.275V386.531H1692.76V388.74C1697.93 387.539 1702.56 385.95 1706.46 384.168C1710.32 382.347 1713.41 380.294 1715.49 378.124C1716.53 377.039 1717.3 375.916 1717.84 374.753V377.001H1631.02V375.296C1630.86 375.838 1630.82 376.458 1630.86 377.039Z" fill="#FFD07A"/>
<path d="M1631.75 376.962C1632.06 381.572 1637.11 385.447 1645.1 387.965V386.532H1692.37V388.43C1697.47 387.229 1701.98 385.718 1705.76 383.936C1709.55 382.154 1712.56 380.139 1714.6 378.008C1715.6 376.923 1716.38 375.838 1716.88 374.715V377.001H1631.86V375.296C1631.75 375.8 1631.71 376.381 1631.75 376.962Z" fill="#FFD07B"/>
<path d="M1632.68 376.923C1632.98 381.456 1637.92 385.214 1645.72 387.655V386.493H1691.95V388.081C1696.93 386.919 1701.37 385.408 1705.07 383.703C1708.77 381.96 1711.75 380.023 1713.71 377.892C1714.72 376.846 1715.45 375.761 1715.95 374.676V376.962H1632.64V376.923H1632.68Z" fill="#FFD17C"/>
<path d="M1633.6 376.846C1633.91 381.262 1638.73 384.943 1646.37 387.345V386.531H1691.6V387.81C1696.46 386.686 1700.82 385.214 1704.41 383.509C1708.04 381.805 1710.94 379.906 1712.86 377.853C1713.83 376.846 1714.56 375.761 1715.06 374.676V376.962H1633.6V376.846Z" fill="#FFD27D"/>
<path d="M1634.49 376.807C1634.76 381.146 1639.54 384.749 1646.99 387.074V386.531H1691.22V387.5C1695.96 386.376 1700.21 384.943 1703.76 383.316C1707.31 381.65 1710.12 379.79 1712.02 377.775C1712.98 376.768 1713.68 375.722 1714.18 374.676V376.962H1634.49V376.807Z" fill="#FFD27E"/>
<path d="M1635.42 376.729C1635.69 380.952 1640.35 384.478 1647.61 386.764V386.531H1690.83V387.229C1695.46 386.144 1699.63 384.749 1703.1 383.122C1706.57 381.495 1709.31 379.674 1711.21 377.698C1712.13 376.729 1712.86 375.722 1713.29 374.676V377.001H1635.42V376.729Z" fill="#FFD37F"/>
<path d="M1636.34 376.652C1636.61 380.759 1641.17 384.207 1648.27 386.454C1651.82 387.578 1656.02 388.391 1660.65 388.856V386.531H1675.66V389.089C1686.24 388.391 1695.73 386.067 1702.48 382.928C1705.88 381.34 1708.58 379.558 1710.4 377.621C1711.32 376.652 1712.02 375.683 1712.44 374.676V377.001H1636.38V376.652H1636.34Z" fill="#FFD480"/>
<path d="M1637.23 376.613C1637.5 380.642 1641.94 384.013 1648.88 386.183C1652.36 387.268 1656.45 388.081 1660.96 388.507V386.531H1675.59V388.701C1685.93 388.004 1695.15 385.757 1701.75 382.657C1705.03 381.107 1707.69 379.364 1709.47 377.504C1710.36 376.574 1711.05 375.606 1711.48 374.637V376.962H1637.23V376.613Z" fill="#FFD481"/>
<path d="M1638.15 376.536C1638.42 380.449 1642.75 383.742 1649.5 385.873C1656.29 388.004 1665.51 389.011 1675.59 388.314C1685.66 387.655 1694.69 385.447 1701.13 382.425C1704.34 380.914 1706.92 379.209 1708.66 377.388C1709.51 376.458 1710.2 375.528 1710.63 374.56V376.923H1638.19V376.536H1638.15Z" fill="#FFD582"/>
<path d="M1639.08 376.497C1639.35 380.332 1643.56 383.548 1650.16 385.601C1656.75 387.655 1665.75 388.662 1675.59 388.004C1685.43 387.345 1694.23 385.214 1700.48 382.27C1703.6 380.797 1706.11 379.131 1707.81 377.349C1708.66 376.458 1709.31 375.528 1709.7 374.598V376.962H1639.08V376.497Z" fill="#FFD583"/>
<path d="M1639.97 376.419C1640.47 383.897 1656.37 388.895 1675.55 387.616C1685.12 386.996 1693.69 384.904 1699.82 382.037C1702.87 380.604 1705.34 378.977 1706.96 377.233C1707.77 376.381 1708.43 375.49 1708.81 374.56V376.923H1640.01V376.419H1639.97Z" fill="#FFD684"/>
<path d="M1640.89 376.381C1641.36 383.664 1656.87 388.546 1675.51 387.306C1684.85 386.686 1693.18 384.672 1699.13 381.882C1702.1 380.487 1704.49 378.899 1706.07 377.233C1706.88 376.381 1707.5 375.528 1707.89 374.637V377.039H1640.86V376.381H1640.89Z" fill="#FFD785"/>
<path d="M1641.82 376.303C1642.28 383.355 1657.37 388.12 1675.51 386.919C1684.58 386.299 1692.68 384.323 1698.51 381.611C1701.4 380.255 1703.72 378.705 1705.26 377.078C1706.03 376.265 1706.65 375.412 1707.04 374.56V376.962H1641.82V376.303Z" fill="#FFD786"/>
<path d="M1642.71 376.226C1643.17 383.083 1657.84 387.733 1675.47 386.57C1684.31 385.989 1692.18 384.052 1697.81 381.417C1700.63 380.1 1702.87 378.589 1704.41 377.001C1705.19 376.187 1705.76 375.373 1706.11 374.56V376.962H1642.71V376.226Z" fill="#FFD887"/>
<path d="M1643.63 376.187C1644.06 382.851 1658.34 387.345 1675.47 386.222C1684.04 385.64 1691.72 383.781 1697.16 381.224C1699.9 379.945 1702.1 378.473 1703.56 376.923V376.962H1643.63V376.187Z" fill="#FFD988"/>
<path d="M1644.52 376.11C1644.95 382.58 1658.76 386.958 1675.39 385.834C1683.69 385.292 1691.14 383.471 1696.46 380.991C1699.13 379.751 1701.25 378.357 1702.68 376.846V376.962H1644.52V376.11Z" fill="#FFD989"/>
<path d="M1645.45 376.071C1645.87 382.347 1659.26 386.57 1675.39 385.524C1683.46 384.982 1690.68 383.238 1695.81 380.836C1698.39 379.635 1700.44 378.279 1701.83 376.807V377.001H1645.45V376.071Z" fill="#FFDA8A"/>
<path d="M1646.37 375.993C1646.76 382.076 1659.76 386.183 1675.39 385.137C1683.19 384.633 1690.21 382.928 1695.19 380.565C1697.7 379.403 1699.67 378.085 1701.02 376.652V376.923H1646.37V375.993Z" fill="#FFDB8B"/>
<path d="M1647.26 375.955C1647.65 381.844 1660.23 385.795 1675.36 384.788C1682.92 384.284 1689.67 382.657 1694.5 380.371C1696.93 379.248 1698.86 377.969 1700.13 376.574V376.962H1647.26V375.955Z" fill="#FFDB8C"/>
<path d="M1648.19 375.877C1648.57 381.572 1660.73 385.408 1675.32 384.439C1682.61 383.936 1689.17 382.347 1693.84 380.177C1696.16 379.093 1698.05 377.853 1699.28 376.536V377.001H1648.19V375.877Z" fill="#FFDC8D"/>
<path d="M1649.11 375.8C1649.46 381.301 1661.19 384.982 1675.32 384.052C1682.38 383.587 1688.67 382.037 1693.18 379.945C1695.42 378.899 1697.24 377.698 1698.43 376.419V376.962H1649.08V375.8H1649.11Z" fill="#FFDD8E"/>
<path d="M1650 375.761C1650.35 381.069 1661.66 384.633 1675.28 383.742C1682.07 383.277 1688.17 381.805 1692.53 379.79C1694.69 378.783 1696.43 377.62 1697.62 376.381V377.001H1650.04V375.761H1650Z" fill="#FFDD8F"/>
<path d="M1650.93 375.683C1651.28 380.797 1662.16 384.207 1675.28 383.355C1681.84 382.928 1687.7 381.495 1691.87 379.519C1693.96 378.55 1695.65 377.427 1696.77 376.226V376.923H1650.97V375.683H1650.93Z" fill="#FFDE90"/>
<path d="M1651.85 375.645C1652.16 380.565 1662.66 383.858 1675.24 383.006C1681.53 382.58 1687.16 381.224 1691.22 379.325C1693.22 378.395 1694.84 377.31 1695.92 376.187V376.962H1651.85V375.645Z" fill="#FFDF91"/>
<path d="M1652.74 375.567C1653.05 380.294 1663.12 383.432 1675.2 382.657C1681.26 382.27 1686.66 380.952 1690.52 379.132C1692.45 378.24 1693.99 377.194 1695.04 376.11V376.962H1652.74V375.567V375.567Z" fill="#FFDF92"/>
<path d="M1653.67 375.528C1653.98 380.061 1663.59 383.083 1675.2 382.308C1680.99 381.921 1686.2 380.642 1689.86 378.938C1691.72 378.085 1693.18 377.078 1694.19 376.032V376.962H1653.67V375.528Z" fill="#FFE093"/>
<path d="M1654.59 375.451C1654.86 379.79 1664.09 382.696 1675.2 381.96C1680.76 381.611 1685.7 380.371 1689.25 378.744C1691.02 377.93 1692.45 376.962 1693.38 375.954V377H1654.59V375.451Z" fill="#FFE094"/>
<path d="M1655.48 375.412C1655.75 379.519 1664.55 382.308 1675.12 381.611C1680.41 381.262 1685.16 380.1 1688.51 378.512C1690.21 377.737 1691.56 376.807 1692.45 375.877V377.001H1655.44V375.412H1655.48Z" fill="#FFE195"/>
<path d="M1656.41 375.334C1656.68 379.248 1665.05 381.921 1675.12 381.223C1680.18 380.875 1684.66 379.79 1687.9 378.279C1689.52 377.543 1690.79 376.652 1691.64 375.761V376.962H1656.41V375.334V375.334Z" fill="#FFE296"/>
<path d="M1657.3 375.257C1657.53 378.976 1665.52 381.495 1675.09 380.875C1679.87 380.565 1684.15 379.519 1687.2 378.085C1688.75 377.388 1689.94 376.574 1690.79 375.683V376.962H1657.3V375.257Z" fill="#FFE297"/>
<path d="M1658.22 375.218C1658.45 378.744 1665.98 381.146 1675.09 380.526C1679.64 380.216 1683.69 379.248 1686.59 377.892C1688.05 377.233 1689.21 376.458 1689.98 375.606V376.962H1658.26V375.218H1658.22Z" fill="#FFE398"/>
<path d="M1659.15 375.141C1659.38 378.473 1666.48 380.72 1675.05 380.139C1679.33 379.868 1683.15 378.938 1685.89 377.659C1687.24 377.001 1688.36 376.303 1689.09 375.529V376.962H1659.15V375.141Z" fill="#FFE499"/>
<path d="M1660.03 375.102C1660.23 378.24 1666.94 380.371 1675.01 379.829C1679.02 379.558 1682.65 378.667 1685.23 377.466C1686.51 376.846 1687.55 376.187 1688.24 375.451V376.962H1660.03V375.102V375.102Z" fill="#FFE49A"/>
<path d="M1660.96 375.025C1661.15 377.969 1667.44 379.945 1675.01 379.441C1678.79 379.209 1682.19 378.357 1684.58 377.233C1685.77 376.652 1686.74 376.032 1687.39 375.335V376.923H1660.96V375.025V375.025Z" fill="#FFE59B"/>
<path d="M1661.89 374.986C1662.08 377.737 1667.95 379.597 1675.01 379.132C1678.52 378.899 1681.68 378.124 1683.96 377.078C1685.08 376.536 1686.01 375.955 1686.59 375.296V377.001H1661.93V374.986H1661.89Z" fill="#FFE69C"/>
<path d="M1662.77 374.908C1662.93 377.465 1668.41 379.17 1674.93 378.744C1678.21 378.512 1681.14 377.814 1683.23 376.846V376.962H1662.77V374.908Z" fill="#FFE69D"/>
<path d="M1663.7 374.831C1663.86 377.194 1668.87 378.783 1674.93 378.357C1677.94 378.163 1680.64 377.504 1682.61 376.574V376.923H1663.7V374.831Z" fill="#FFE79E"/>
<path d="M1664.63 374.792C1664.78 376.962 1669.37 378.395 1674.93 378.047C1677.71 377.853 1680.18 377.272 1681.95 376.419V376.962H1664.63V374.792V374.792Z" fill="#FFE89F"/>
<path d="M1665.52 374.715C1665.63 376.691 1669.84 378.008 1674.89 377.659C1677.4 377.504 1679.68 376.962 1681.26 376.187V376.962H1665.52V374.715Z" fill="#FFE8A0"/>
<path d="M1666.44 374.676C1666.56 376.458 1670.34 377.621 1674.85 377.349C1677.13 377.194 1679.14 376.691 1680.6 376.032V377.001H1666.44V374.676V374.676Z" fill="#FFE9A1"/>
<path d="M1667.37 374.598C1667.48 376.187 1670.84 377.233 1674.85 376.962H1667.37V374.598Z" fill="#FFE9A2"/>
<path d="M1754.2 422.175H1632.44V423.88H1754.2V422.175Z" fill="#A1D6EB"/>
<path d="M1754.2 423.88H1632.44V425.585H1754.2V423.88Z" fill="#6DB1C6"/>
<path d="M1754.2 425.584H1632.44V427.289H1754.2V425.584Z" fill="#A1D6EB"/>
<path d="M1754.2 427.328H1632.44V429.033H1754.2V427.328Z" fill="#6DB1C6"/>
<path d="M1754.2 429.033H1632.44V430.737H1754.2V429.033Z" fill="#A1D6EB"/>
<path d="M1754.2 430.737H1632.44V432.442H1754.2V430.737Z" fill="#6DB1C6"/>
<path d="M1754.2 432.442H1632.44V434.147H1754.2V432.442Z" fill="#A1D6EB"/>
<path d="M1754.2 434.185H1632.44V435.89H1754.2V434.185Z" fill="#6DB1C6"/>
<path d="M1754.2 435.89H1632.44V437.595H1754.2V435.89Z" fill="#A1D6EB"/>
<path d="M1754.2 437.595H1632.44V439.3H1754.2V437.595Z" fill="#6DB1C6"/>
<path d="M1754.2 439.338H1632.44V441.043H1754.2V439.338Z" fill="#A1D6EB"/>
<path d="M1754.2 441.043H1632.44V442.748H1754.2V441.043Z" fill="#6DB1C6"/>
<path d="M1754.2 442.748H1632.44V444.453H1754.2V442.748Z" fill="#A1D6EB"/>
<path d="M1754.2 444.491H1632.44V446.196H1754.2V444.491Z" fill="#6DB1C6"/>
<path d="M1754.2 446.196H1632.44V447.901H1754.2V446.196Z" fill="#A1D6EB"/>
<path d="M1754.2 447.901H1632.44V449.605H1754.2V447.901Z" fill="#6DB1C6"/>
<path d="M1685.78 422.175H1664.86V449.644H1685.78V422.175Z" fill="url(#paint90_linear_1066_2)"/>
<path d="M1668.33 422.175H1667.52V449.644H1668.33V422.175Z" fill="url(#paint91_linear_1066_2)"/>
<path d="M1682.65 422.175H1681.84V449.644H1682.65V422.175Z" fill="url(#paint92_linear_1066_2)"/>
<path opacity="0.15" d="M1692.22 422.175H1685.78V449.644H1692.22V422.175Z" fill="#000707"/>
<path d="M1751.42 449.334H1629.67V451.039H1751.42V449.334Z" fill="#A1D6EB"/>
<path d="M1751.42 451.039H1629.67V452.744H1751.42V451.039Z" fill="#6DB1C6"/>
<path d="M1751.42 452.782H1629.67V454.487H1751.42V452.782Z" fill="#A1D6EB"/>
<path d="M1751.42 454.487H1629.67V456.192H1751.42V454.487Z" fill="#6DB1C6"/>
<path d="M1751.42 456.192H1629.67V457.897H1751.42V456.192Z" fill="#A1D6EB"/>
<path d="M1751.42 457.935H1629.67V459.64H1751.42V457.935Z" fill="#6DB1C6"/>
<path d="M1751.42 459.64H1629.67V461.345H1751.42V459.64Z" fill="#A1D6EB"/>
<path d="M1751.42 461.344H1629.67V463.049H1751.42V461.344Z" fill="#6DB1C6"/>
<path d="M1751.42 463.088H1629.67V464.793H1751.42V463.088Z" fill="#A1D6EB"/>
<path d="M1751.42 464.793H1629.67V466.498H1751.42V464.793Z" fill="#6DB1C6"/>
<path d="M1751.42 466.497H1629.67V468.202H1751.42V466.497Z" fill="#A1D6EB"/>
<path d="M1751.42 468.241H1629.67V469.946H1751.42V468.241Z" fill="#6DB1C6"/>
<path d="M1751.42 469.946H1629.67V471.651H1751.42V469.946Z" fill="#A1D6EB"/>
<path d="M1751.42 471.65H1629.67V473.355H1751.42V471.65Z" fill="#6DB1C6"/>
<path d="M1751.42 473.394H1629.67V475.098H1751.42V473.394Z" fill="#A1D6EB"/>
<path d="M1751.42 475.098H1629.67V476.803H1751.42V475.098Z" fill="#6DB1C6"/>
<path d="M1683 449.334H1662.08V476.803H1683V449.334Z" fill="url(#paint93_linear_1066_2)"/>
<path d="M1665.55 449.334H1664.74V476.803H1665.55V449.334Z" fill="url(#paint94_linear_1066_2)"/>
<path d="M1679.83 449.334H1679.02V476.803H1679.83V449.334Z" fill="url(#paint95_linear_1066_2)"/>
<path opacity="0.15" d="M1689.44 449.334H1683V476.803H1689.44V449.334Z" fill="#000707"/>
<path d="M1670.99 261.631C1670.99 261.631 1673.44 272.12 1671.3 273.994C1669.17 275.824 1661.26 275.601 1661.26 275.601L1661.17 269.219L1670.99 261.631Z" fill="url(#paint96_linear_1066_2)"/>
<path d="M1670.99 261.631L1660.59 263.327C1659.88 262.479 1615.11 208.432 1545.5 212.047L1533.23 201.201L1512.87 183.171C1512.87 183.126 1635.21 174.958 1670.99 261.631Z" fill="url(#paint97_linear_1066_2)"/>
<path opacity="0.22" d="M1660.59 263.327C1659.88 262.479 1615.11 208.431 1545.5 212.046L1533.23 201.201C1533.23 201.201 1623.69 194.328 1660.59 263.327Z" fill="url(#paint98_linear_1066_2)"/>
<path d="M1494.73 236.683C1494.73 236.683 1520.69 263.327 1510.42 279.662C1500.11 295.997 1489.71 304.432 1489.71 304.432L1489.8 319.071L1500.73 315.59C1500.73 315.59 1524.61 289.615 1521.32 273.191C1517.98 256.722 1513.89 248.331 1502.11 239.807C1490.33 231.327 1494.73 236.683 1494.73 236.683Z" fill="url(#paint99_linear_1066_2)"/>
<path d="M1378.08 344.778C1378.08 344.778 1375.06 339.646 1367.1 339.646C1359.15 339.646 1359.15 339.646 1359.15 339.646C1359.15 339.646 1358.35 344.332 1365.9 342.681C1365.9 342.681 1350.57 345.18 1347.9 345.582C1345.28 346.028 1347.06 348.706 1348.34 348.483C1348.34 348.483 1343.99 348.706 1346.17 351.83C1346.17 351.83 1347.28 352.544 1348.61 352.321C1348.61 352.321 1347.23 353.169 1348.26 354.463C1349.32 355.757 1349.32 355.757 1349.32 355.757C1349.32 355.757 1349.41 357.364 1350.75 357.32C1352.08 357.275 1369.5 356.07 1379.2 351.919C1388.89 347.724 1378.08 344.778 1378.08 344.778Z" fill="url(#paint100_linear_1066_2)"/>
<path d="M1571.42 328.265L1544.92 399.808C1544.92 399.808 1611.29 414.447 1633.21 470.682L1620.63 472.735L1536.92 429.041C1524.25 422.436 1517.05 408.601 1518.92 394.408L1524.61 350L1571.42 328.265Z" fill="url(#paint101_linear_1066_2)"/>
<path d="M1454.95 180.939L1489.09 193.391L1481.17 214.814L1454.5 194.328L1454.95 180.939Z" fill="url(#paint102_linear_1066_2)"/>
<path opacity="0.19" d="M1459.08 186.83C1459.08 186.83 1464.95 191.963 1473.26 208.744L1460.24 199.148L1459.08 186.83Z" fill="url(#paint103_linear_1066_2)"/>
<path d="M1445.34 189.196L1452.19 204.102C1452.19 204.102 1463.97 200.085 1461.92 194.016C1459.88 187.946 1453.7 179.109 1453.7 179.109C1453.7 179.109 1439.65 176.833 1445.34 189.196Z" fill="url(#paint104_linear_1066_2)"/>
<path d="M1449.6 198.609L1452.07 206.361C1452.07 206.361 1465.48 200.086 1463.44 194.016C1461.39 187.946 1457.56 185.797 1457.56 185.797C1457.56 185.797 1461.76 197.102 1449.6 198.609Z" fill="#252264"/>
<path d="M1512.87 183.126C1512.87 183.126 1483.89 180.269 1466.24 231.372C1466.24 231.372 1537.54 250.429 1544.92 274.083L1588 269.129C1588 269.129 1533.58 187.589 1512.87 183.126Z" fill="url(#paint105_linear_1066_2)"/>
<path d="M1544.92 274.083C1544.92 274.083 1485.49 354.731 1463.44 420.294C1441.39 485.856 1436.19 502.504 1436.19 502.504L1452.59 499.87C1452.59 499.87 1504.42 437.968 1508.42 392.757C1508.42 392.757 1614.14 305.682 1588 269.129L1544.92 274.083Z" fill="url(#paint106_linear_1066_2)"/>
<path d="M1501.8 243.467C1493.62 276.404 1471.04 300.996 1447.3 318.491C1413.34 343.573 1377.02 354.196 1377.02 354.196L1374.75 339.914C1455.75 309.342 1466.19 231.372 1466.19 231.372C1470.77 229.765 1478.51 232.13 1485.62 235.165C1494.2 238.825 1501.8 243.467 1501.8 243.467Z" fill="url(#paint107_linear_1066_2)"/>
<path d="M1544.92 274.083C1544.92 274.083 1564.26 325.944 1585.68 324.739C1607.11 323.534 1620.05 314.965 1620.05 314.965L1582.62 261.23L1544.92 274.083Z" fill="url(#paint108_linear_1066_2)"/>
<path d="M1436.19 502.504C1436.19 502.504 1432.9 511.653 1414.67 513.706L1415.38 518.258L1441.65 514.018L1444.81 507.324L1445.79 513.349L1453.57 512.099L1452.59 499.87L1436.19 502.504Z" fill="url(#paint109_linear_1066_2)"/>
<path d="M1620.63 472.69C1620.63 472.69 1613.47 482.42 1595.29 484.517L1596 489.07L1622.27 484.83L1625.43 478.135L1626.41 484.16L1634.18 482.911L1633.21 470.682L1620.63 472.69Z" fill="url(#paint110_linear_1066_2)"/>
<path d="M1472.77 212.894C1472.77 212.894 1473.62 186.25 1497.8 187.143C1497.8 187.143 1481.57 200.8 1472.5 216.108L1472.77 212.894Z" fill="url(#paint111_linear_1066_2)"/>
<path d="M1452.41 181.34C1452.41 181.34 1444.23 188.348 1439.74 186.652C1435.25 185 1434.81 183.081 1434.81 183.081C1434.81 183.081 1446.14 174.333 1451.48 175.583C1451.48 175.583 1455.35 175.405 1460.28 180.046C1465.21 184.688 1466.1 185 1466.1 185C1466.1 185 1460.06 191.784 1452.41 181.34Z" fill="url(#paint112_linear_1066_2)"/>
<path d="M1459.08 186.83L1454.95 180.939C1454.95 180.939 1457.75 179.778 1459.75 183.438C1461.75 187.142 1459.08 186.83 1459.08 186.83Z" fill="url(#paint113_linear_1066_2)"/>
<path opacity="0.22" d="M1501.8 243.466C1493.62 276.404 1471.04 300.995 1447.3 318.491C1495.62 268.281 1485.62 235.165 1485.62 235.165C1494.2 238.825 1501.8 243.466 1501.8 243.466Z" fill="url(#paint114_linear_1066_2)"/>
<path d="M1649.61 285.821C1649.61 285.821 1652.9 274.708 1665.61 273.503C1678.33 272.298 1682.46 280.51 1682.46 280.51L1686.28 279.885C1686.28 279.885 1681.17 269.576 1665.57 270.959C1649.97 272.343 1646.14 283.411 1644.9 287.829L1649.61 285.821Z" fill="url(#paint115_linear_1066_2)"/>
<path d="M1623.51 292.784L1701.35 270.513L1709.76 322.82C1709.76 322.82 1630.81 341.788 1631.12 340.048C1631.34 338.262 1623.51 292.784 1623.51 292.784Z" fill="url(#paint116_linear_1066_2)"/>
<path d="M1701.35 270.513L1707.89 276.315L1718.69 326.168L1709.71 322.82L1701.35 270.513Z" fill="url(#paint117_linear_1066_2)"/>
<path d="M1718.69 326.167L1642.19 342.725L1631.07 340.003L1709.71 322.82L1718.69 326.167Z" fill="url(#paint118_linear_1066_2)"/>
<path fill-rule="evenodd" clip-rule="evenodd" d="M1641.86 332.773L1652.1 308.666L1657.2 310.033L1666.35 290.114L1684.76 308.198L1687.82 305.512L1700.38 320.25L1687.7 311.952L1683.78 315.09L1672.86 304.544L1671.42 306.777L1666.1 300.913L1659.34 314.546L1653.81 312.949L1641.86 332.773Z" fill="white"/>
<path fill-rule="evenodd" clip-rule="evenodd" d="M1652.91 294.754C1653.78 296.546 1655.41 297.693 1657.51 297.727C1655.71 298.591 1654.57 300.227 1654.53 302.318C1653.67 300.526 1652.03 299.379 1649.94 299.345C1651.69 298.543 1652.89 296.897 1652.91 294.754Z" fill="white"/>
<path fill-rule="evenodd" clip-rule="evenodd" d="M1644.54 291.841C1645.11 293.002 1646.19 293.788 1647.58 293.81C1646.42 294.379 1645.63 295.456 1645.61 296.851C1645.04 295.689 1643.97 294.904 1642.57 294.882C1643.73 294.313 1644.52 293.236 1644.54 291.841Z" fill="white"/>
<path fill-rule="evenodd" clip-rule="evenodd" d="M1644.34 304.393C1644.73 305.218 1645.48 305.751 1646.51 305.799C1645.69 306.189 1645.15 306.945 1645.1 307.971C1644.71 307.145 1643.96 306.612 1642.93 306.564C1643.75 306.123 1644.28 305.367 1644.34 304.393Z" fill="white"/>
<path d="M1672.33 269.888C1672.33 269.888 1669.61 266.362 1661.17 269.263C1658.23 270.245 1658.28 276.806 1658.28 276.806C1658.28 276.806 1673.66 278.145 1672.33 269.888Z" fill="url(#paint119_linear_1066_2)"/>
<path d="M1660.59 263.327L1657.52 272.298L1665.57 271.004C1665.57 271.004 1664.81 266.228 1661.17 269.263C1661.17 269.263 1670.81 266.407 1670.99 261.676L1660.59 263.327Z" fill="url(#paint120_linear_1066_2)"/>
<path d="M1447.34 194.042L1459.08 194.716L1458.8 196.072L1449.06 197.787L1447.34 194.042Z" fill="#252264"/>
<defs>
<linearGradient id="paint0_linear_1066_2" x1="960" y1="0" x2="960" y2="819.717" gradientUnits="userSpaceOnUse">
<stop stop-color="#32003F"/>
<stop offset="1" stop-color="#4D0160"/>
</linearGradient>
<linearGradient id="paint1_linear_1066_2" x1="960" y1="0" x2="960" y2="819.717" gradientUnits="userSpaceOnUse">
<stop stop-color="#32003F"/>
<stop offset="1" stop-color="#4D0160"/>
</linearGradient>
<linearGradient id="paint2_linear_1066_2" x1="1294.24" y1="532.246" x2="1399.16" y2="698.142" gradientUnits="userSpaceOnUse">
<stop stop-color="#240087"/>
<stop offset="1" stop-color="#E87BF8"/>
</linearGradient>
<linearGradient id="paint3_linear_1066_2" x1="1415.01" y1="554.51" x2="1601.83" y2="694.078" gradientUnits="userSpaceOnUse">
<stop stop-color="#240087"/>
<stop offset="1" stop-color="#E87BF8"/>
</linearGradient>
<linearGradient id="paint4_linear_1066_2" x1="1631.47" y1="542.842" x2="1819.56" y2="822.441" gradientUnits="userSpaceOnUse">
<stop stop-color="#240087"/>
<stop offset="1" stop-color="#E87BF8"/>
</linearGradient>
<linearGradient id="paint5_linear_1066_2" x1="1758.71" y1="531.904" x2="1957.64" y2="813.586" gradientUnits="userSpaceOnUse">
<stop stop-color="#240087"/>
<stop offset="1" stop-color="#E87BF8"/>
</linearGradient>
<linearGradient id="paint6_linear_1066_2" x1="1896.7" y1="796.026" x2="2054.16" y2="728.378" gradientUnits="userSpaceOnUse">
<stop stop-color="#240087"/>
<stop offset="1" stop-color="#E87BF8"/>
</linearGradient>
<linearGradient id="paint7_linear_1066_2" x1="1890.73" y1="606.841" x2="1620.99" y2="505.131" gradientUnits="userSpaceOnUse">
<stop stop-color="#A92B6D"/>
<stop offset="1" stop-color="#684ABA"/>
</linearGradient>
<linearGradient id="paint8_linear_1066_2" x1="1841.91" y1="547.018" x2="1724.25" y2="502.652" gradientUnits="userSpaceOnUse">
<stop offset="0.00498992" stop-color="#231E5D"/>
<stop offset="1" stop-color="#2C327E"/>
</linearGradient>
<linearGradient id="paint9_linear_1066_2" x1="1401.34" y1="510.275" x2="1674.38" y2="510.275" gradientUnits="userSpaceOnUse">
<stop offset="0.00498992" stop-color="#231E5D"/>
<stop offset="1" stop-color="#2C327E"/>
</linearGradient>
<linearGradient id="paint10_linear_1066_2" x1="1462.14" y1="542.904" x2="1647.09" y2="830.599" gradientUnits="userSpaceOnUse">
<stop stop-color="#240087"/>
<stop offset="1" stop-color="#E87BF8"/>
</linearGradient>
<linearGradient id="paint11_linear_1066_2" x1="1126.01" y1="729.319" x2="637.762" y2="820.089" gradientUnits="userSpaceOnUse">
<stop stop-color="#9F307A"/>
<stop offset="1" stop-color="#684ABA"/>
</linearGradient>
<linearGradient id="paint12_linear_1066_2" x1="1152.43" y1="748.165" x2="1177.17" y2="830.135" gradientUnits="userSpaceOnUse">
<stop stop-color="#240087"/>
<stop offset="1" stop-color="#E87BF8"/>
</linearGradient>
<linearGradient id="paint13_linear_1066_2" x1="1067.5" y1="702.852" x2="1204.4" y2="702.852" gradientUnits="userSpaceOnUse">
<stop offset="0.00498992" stop-color="#231E5D"/>
<stop offset="1" stop-color="#2C327E"/>
</linearGradient>
<linearGradient id="paint14_linear_1066_2" x1="1082.19" y1="439.785" x2="854.798" y2="357.955" gradientUnits="userSpaceOnUse">
<stop stop-color="#31439A"/>
<stop offset="1" stop-color="#49BCBB"/>
</linearGradient>
<linearGradient id="paint15_linear_1066_2" x1="1042.38" y1="422.435" x2="1023.87" y2="408.839" gradientUnits="userSpaceOnUse">
<stop offset="0.00498992" stop-color="#231E5D"/>
<stop offset="1" stop-color="#2C327E"/>
</linearGradient>
<linearGradient id="paint16_linear_1066_2" x1="1089" y1="526.12" x2="977.365" y2="456.867" gradientUnits="userSpaceOnUse">
<stop stop-color="#BF0000"/>
<stop offset="1" stop-color="#FF7B22"/>
</linearGradient>
<linearGradient id="paint17_linear_1066_2" x1="1037.36" y1="489.738" x2="1008.25" y2="468.355" gradientUnits="userSpaceOnUse">
<stop offset="0.00498992" stop-color="#231E5D"/>
<stop offset="1" stop-color="#2C327E"/>
</linearGradient>
<linearGradient id="paint18_linear_1066_2" x1="1075.13" y1="567.1" x2="702.815" y2="835.469" gradientUnits="userSpaceOnUse">
<stop stop-color="#31439A"/>
<stop offset="1" stop-color="#49BCBB"/>
</linearGradient>
<linearGradient id="paint19_linear_1066_2" x1="981.404" y1="754.891" x2="1020.23" y2="767.528" gradientUnits="userSpaceOnUse">
<stop offset="0.00498992" stop-color="#231E5D"/>
<stop offset="1" stop-color="#2C327E"/>
</linearGradient>
<linearGradient id="paint20_linear_1066_2" x1="997.352" y1="557.375" x2="1316.87" y2="565.161" gradientUnits="userSpaceOnUse">
<stop stop-color="#31439A"/>
<stop offset="1" stop-color="#49BCBB"/>
</linearGradient>
<linearGradient id="paint21_linear_1066_2" x1="1062.69" y1="592.978" x2="1194.48" y2="496.36" gradientUnits="userSpaceOnUse">
<stop stop-color="#31439A"/>
<stop offset="1" stop-color="#49BCBB"/>
</linearGradient>
<linearGradient id="paint22_linear_1066_2" x1="1063.01" y1="341.484" x2="1088.43" y2="347.326" gradientUnits="userSpaceOnUse">
<stop offset="0.00134137" stop-color="#FFF4DE"/>
<stop offset="1" stop-color="#D26666"/>
</linearGradient>
<linearGradient id="paint23_linear_1066_2" x1="1096.05" y1="346.629" x2="1085.48" y2="338.864" gradientUnits="userSpaceOnUse">
<stop offset="0.00498992" stop-color="#231E5D"/>
<stop offset="1" stop-color="#2C327E"/>
</linearGradient>
<linearGradient id="paint24_linear_1066_2" x1="1103.1" y1="324.076" x2="1074.22" y2="340.002" gradientUnits="userSpaceOnUse">
<stop offset="0.00134137" stop-color="#FFF4DE"/>
<stop offset="1" stop-color="#D26666"/>
</linearGradient>
<linearGradient id="paint25_linear_1066_2" x1="1074.78" y1="330.432" x2="1094.32" y2="330.432" gradientUnits="userSpaceOnUse">
<stop offset="0.00498992" stop-color="#231E5D"/>
<stop offset="1" stop-color="#2C327E"/>
</linearGradient>
<linearGradient id="paint26_linear_1066_2" x1="1080.54" y1="332.752" x2="1084.55" y2="332.752" gradientUnits="userSpaceOnUse">
<stop offset="0.00134137" stop-color="#FFF4DE"/>
<stop offset="1" stop-color="#D26666"/>
</linearGradient>
<linearGradient id="paint27_linear_1066_2" x1="934.278" y1="583.708" x2="1208.91" y2="253.695" gradientUnits="userSpaceOnUse">
<stop stop-color="#31439A"/>
<stop offset="1" stop-color="#49BCBB"/>
</linearGradient>
<linearGradient id="paint28_linear_1066_2" x1="985.574" y1="388.966" x2="1239.9" y2="353.924" gradientUnits="userSpaceOnUse">
<stop stop-color="#31439A"/>
<stop offset="1" stop-color="#49BCBB"/>
</linearGradient>
<linearGradient id="paint29_linear_1066_2" x1="1151.06" y1="668.403" x2="1189.9" y2="668.403" gradientUnits="userSpaceOnUse">
<stop offset="0.00498992" stop-color="#231E5D"/>
<stop offset="1" stop-color="#2C327E"/>
</linearGradient>
<linearGradient id="paint30_linear_1066_2" x1="1307.51" y1="317.128" x2="1222.4" y2="351.717" gradientUnits="userSpaceOnUse">
<stop offset="0.00134137" stop-color="#FFF4DE"/>
<stop offset="1" stop-color="#D26666"/>
</linearGradient>
<radialGradient id="paint31_radial_1066_2" cx="0" cy="0" r="1" gradientUnits="userSpaceOnUse" gradientTransform="translate(1726.52 432.078) rotate(180) scale(149.568 150.162)">
<stop stop-color="#FFEEA9"/>
<stop offset="1" stop-color="#FFB048"/>
</radialGradient>
<linearGradient id="paint32_linear_1066_2" x1="1525.09" y1="517.175" x2="1653.32" y2="480.892" gradientUnits="userSpaceOnUse">
<stop stop-color="#C45A12"/>
<stop offset="1" stop-color="#FFB048"/>
</linearGradient>
<linearGradient id="paint33_linear_1066_2" x1="1524.27" y1="514.277" x2="1652.5" y2="477.996" gradientUnits="userSpaceOnUse">
<stop stop-color="#C45A12"/>
<stop offset="1" stop-color="#FFB048"/>
</linearGradient>
<linearGradient id="paint34_linear_1066_2" x1="1523.3" y1="510.841" x2="1651.53" y2="474.559" gradientUnits="userSpaceOnUse">
<stop stop-color="#C45A12"/>
<stop offset="1" stop-color="#FFB048"/>
</linearGradient>
<linearGradient id="paint35_linear_1066_2" x1="1522.33" y1="507.414" x2="1650.56" y2="471.133" gradientUnits="userSpaceOnUse">
<stop stop-color="#C45A12"/>
<stop offset="1" stop-color="#FFB048"/>
</linearGradient>
<linearGradient id="paint36_linear_1066_2" x1="1521.26" y1="503.641" x2="1649.49" y2="467.36" gradientUnits="userSpaceOnUse">
<stop stop-color="#C45A12"/>
<stop offset="1" stop-color="#FFB048"/>
</linearGradient>
<linearGradient id="paint37_linear_1066_2" x1="1520.24" y1="500.029" x2="1648.47" y2="463.747" gradientUnits="userSpaceOnUse">
<stop stop-color="#C45A12"/>
<stop offset="1" stop-color="#FFB048"/>
</linearGradient>
<linearGradient id="paint38_linear_1066_2" x1="1519.15" y1="496.155" x2="1647.38" y2="459.874" gradientUnits="userSpaceOnUse">
<stop stop-color="#C45A12"/>
<stop offset="1" stop-color="#FFB048"/>
</linearGradient>
<linearGradient id="paint39_linear_1066_2" x1="1518.07" y1="492.373" x2="1646.3" y2="456.091" gradientUnits="userSpaceOnUse">
<stop stop-color="#C45A12"/>
<stop offset="1" stop-color="#FFB048"/>
</linearGradient>
<linearGradient id="paint40_linear_1066_2" x1="1516.95" y1="488.41" x2="1645.18" y2="452.128" gradientUnits="userSpaceOnUse">
<stop stop-color="#C45A12"/>
<stop offset="1" stop-color="#FFB048"/>
</linearGradient>
<linearGradient id="paint41_linear_1066_2" x1="1515.79" y1="484.311" x2="1644.02" y2="448.029" gradientUnits="userSpaceOnUse">
<stop stop-color="#C45A12"/>
<stop offset="1" stop-color="#FFB048"/>
</linearGradient>
<linearGradient id="paint42_linear_1066_2" x1="1507.76" y1="480.146" x2="1749.33" y2="438.275" gradientUnits="userSpaceOnUse">
<stop stop-color="#C45A12"/>
<stop offset="1" stop-color="#FFB048"/>
</linearGradient>
<radialGradient id="paint43_radial_1066_2" cx="0" cy="0" r="1" gradientUnits="userSpaceOnUse" gradientTransform="translate(1729.99 412.932) rotate(180) scale(149.568 150.162)">
<stop stop-color="#FFEEA9"/>
<stop offset="1" stop-color="#FFB048"/>
</radialGradient>
<linearGradient id="paint44_linear_1066_2" x1="1528.57" y1="498.028" x2="1656.8" y2="461.746" gradientUnits="userSpaceOnUse">
<stop stop-color="#C45A12"/>
<stop offset="1" stop-color="#FFB048"/>
</linearGradient>
<linearGradient id="paint45_linear_1066_2" x1="1527.75" y1="495.131" x2="1655.98" y2="458.85" gradientUnits="userSpaceOnUse">
<stop stop-color="#C45A12"/>
<stop offset="1" stop-color="#FFB048"/>
</linearGradient>
<linearGradient id="paint46_linear_1066_2" x1="1526.77" y1="491.695" x2="1655" y2="455.413" gradientUnits="userSpaceOnUse">
<stop stop-color="#C45A12"/>
<stop offset="1" stop-color="#FFB048"/>
</linearGradient>
<linearGradient id="paint47_linear_1066_2" x1="1525.81" y1="488.268" x2="1654.04" y2="451.987" gradientUnits="userSpaceOnUse">
<stop stop-color="#C45A12"/>
<stop offset="1" stop-color="#FFB048"/>
</linearGradient>
<linearGradient id="paint48_linear_1066_2" x1="1524.74" y1="484.494" x2="1652.97" y2="448.213" gradientUnits="userSpaceOnUse">
<stop stop-color="#C45A12"/>
<stop offset="1" stop-color="#FFB048"/>
</linearGradient>
<linearGradient id="paint49_linear_1066_2" x1="1523.72" y1="480.882" x2="1651.95" y2="444.6" gradientUnits="userSpaceOnUse">
<stop stop-color="#C45A12"/>
<stop offset="1" stop-color="#FFB048"/>
</linearGradient>
<linearGradient id="paint50_linear_1066_2" x1="1522.62" y1="477.009" x2="1650.85" y2="440.728" gradientUnits="userSpaceOnUse">
<stop stop-color="#C45A12"/>
<stop offset="1" stop-color="#FFB048"/>
</linearGradient>
<linearGradient id="paint51_linear_1066_2" x1="1521.55" y1="473.226" x2="1649.78" y2="436.945" gradientUnits="userSpaceOnUse">
<stop stop-color="#C45A12"/>
<stop offset="1" stop-color="#FFB048"/>
</linearGradient>
<linearGradient id="paint52_linear_1066_2" x1="1520.43" y1="469.264" x2="1648.66" y2="432.982" gradientUnits="userSpaceOnUse">
<stop stop-color="#C45A12"/>
<stop offset="1" stop-color="#FFB048"/>
</linearGradient>
<linearGradient id="paint53_linear_1066_2" x1="1519.27" y1="465.165" x2="1647.5" y2="428.883" gradientUnits="userSpaceOnUse">
<stop stop-color="#C45A12"/>
<stop offset="1" stop-color="#FFB048"/>
</linearGradient>
<linearGradient id="paint54_linear_1066_2" x1="1511.23" y1="460.999" x2="1752.8" y2="419.128" gradientUnits="userSpaceOnUse">
<stop stop-color="#C45A12"/>
<stop offset="1" stop-color="#FFB048"/>
</linearGradient>
<radialGradient id="paint55_radial_1066_2" cx="0" cy="0" r="1" gradientUnits="userSpaceOnUse" gradientTransform="translate(1733.03 393.529) rotate(180) scale(149.567 150.162)">
<stop stop-color="#FFEEA9"/>
<stop offset="1" stop-color="#FFB048"/>
</radialGradient>
<linearGradient id="paint56_linear_1066_2" x1="1531.6" y1="478.626" x2="1659.83" y2="442.344" gradientUnits="userSpaceOnUse">
<stop stop-color="#C45A12"/>
<stop offset="1" stop-color="#FFB048"/>
</linearGradient>
<linearGradient id="paint57_linear_1066_2" x1="1530.78" y1="475.729" x2="1659.01" y2="439.447" gradientUnits="userSpaceOnUse">
<stop stop-color="#C45A12"/>
<stop offset="1" stop-color="#FFB048"/>
</linearGradient>
<linearGradient id="paint58_linear_1066_2" x1="1529.81" y1="472.292" x2="1658.04" y2="436.011" gradientUnits="userSpaceOnUse">
<stop stop-color="#C45A12"/>
<stop offset="1" stop-color="#FFB048"/>
</linearGradient>
<linearGradient id="paint59_linear_1066_2" x1="1528.84" y1="468.866" x2="1657.07" y2="432.585" gradientUnits="userSpaceOnUse">
<stop stop-color="#C45A12"/>
<stop offset="1" stop-color="#FFB048"/>
</linearGradient>
<linearGradient id="paint60_linear_1066_2" x1="1527.77" y1="465.092" x2="1656" y2="428.81" gradientUnits="userSpaceOnUse">
<stop stop-color="#C45A12"/>
<stop offset="1" stop-color="#FFB048"/>
</linearGradient>
<linearGradient id="paint61_linear_1066_2" x1="1526.75" y1="461.48" x2="1654.98" y2="425.199" gradientUnits="userSpaceOnUse">
<stop stop-color="#C45A12"/>
<stop offset="1" stop-color="#FFB048"/>
</linearGradient>
<linearGradient id="paint62_linear_1066_2" x1="1525.65" y1="457.607" x2="1653.88" y2="421.325" gradientUnits="userSpaceOnUse">
<stop stop-color="#C45A12"/>
<stop offset="1" stop-color="#FFB048"/>
</linearGradient>
<linearGradient id="paint63_linear_1066_2" x1="1524.58" y1="453.824" x2="1652.81" y2="417.543" gradientUnits="userSpaceOnUse">
<stop stop-color="#C45A12"/>
<stop offset="1" stop-color="#FFB048"/>
</linearGradient>
<linearGradient id="paint64_linear_1066_2" x1="1523.46" y1="449.862" x2="1651.69" y2="413.58" gradientUnits="userSpaceOnUse">
<stop stop-color="#C45A12"/>
<stop offset="1" stop-color="#FFB048"/>
</linearGradient>
<linearGradient id="paint65_linear_1066_2" x1="1522.3" y1="445.763" x2="1650.53" y2="409.481" gradientUnits="userSpaceOnUse">
<stop stop-color="#C45A12"/>
<stop offset="1" stop-color="#FFB048"/>
</linearGradient>
<linearGradient id="paint66_linear_1066_2" x1="1514.27" y1="441.598" x2="1755.84" y2="399.727" gradientUnits="userSpaceOnUse">
<stop stop-color="#C45A12"/>
<stop offset="1" stop-color="#FFB048"/>
</linearGradient>
<radialGradient id="paint67_radial_1066_2" cx="0" cy="0" r="1" gradientUnits="userSpaceOnUse" gradientTransform="translate(1729.25 375.642) rotate(180) scale(149.568 150.162)">
<stop stop-color="#FFEEA9"/>
<stop offset="1" stop-color="#FFB048"/>
</radialGradient>
<linearGradient id="paint68_linear_1066_2" x1="1527.83" y1="460.739" x2="1656.06" y2="424.458" gradientUnits="userSpaceOnUse">
<stop stop-color="#C45A12"/>
<stop offset="1" stop-color="#FFB048"/>
</linearGradient>
<linearGradient id="paint69_linear_1066_2" x1="1527.01" y1="457.842" x2="1655.24" y2="421.56" gradientUnits="userSpaceOnUse">
<stop stop-color="#C45A12"/>
<stop offset="1" stop-color="#FFB048"/>
</linearGradient>
<linearGradient id="paint70_linear_1066_2" x1="1526.03" y1="454.405" x2="1654.27" y2="418.123" gradientUnits="userSpaceOnUse">
<stop stop-color="#C45A12"/>
<stop offset="1" stop-color="#FFB048"/>
</linearGradient>
<linearGradient id="paint71_linear_1066_2" x1="1525.07" y1="450.979" x2="1653.3" y2="414.697" gradientUnits="userSpaceOnUse">
<stop stop-color="#C45A12"/>
<stop offset="1" stop-color="#FFB048"/>
</linearGradient>
<linearGradient id="paint72_linear_1066_2" x1="1524" y1="447.205" x2="1652.23" y2="410.923" gradientUnits="userSpaceOnUse">
<stop stop-color="#C45A12"/>
<stop offset="1" stop-color="#FFB048"/>
</linearGradient>
<linearGradient id="paint73_linear_1066_2" x1="1522.98" y1="443.593" x2="1651.21" y2="407.312" gradientUnits="userSpaceOnUse">
<stop stop-color="#C45A12"/>
<stop offset="1" stop-color="#FFB048"/>
</linearGradient>
<linearGradient id="paint74_linear_1066_2" x1="1521.88" y1="439.72" x2="1650.11" y2="403.438" gradientUnits="userSpaceOnUse">
<stop stop-color="#C45A12"/>
<stop offset="1" stop-color="#FFB048"/>
</linearGradient>
<linearGradient id="paint75_linear_1066_2" x1="1520.81" y1="435.937" x2="1649.04" y2="399.655" gradientUnits="userSpaceOnUse">
<stop stop-color="#C45A12"/>
<stop offset="1" stop-color="#FFB048"/>
</linearGradient>
<linearGradient id="paint76_linear_1066_2" x1="1519.69" y1="431.975" x2="1647.92" y2="395.694" gradientUnits="userSpaceOnUse">
<stop stop-color="#C45A12"/>
<stop offset="1" stop-color="#FFB048"/>
</linearGradient>
<linearGradient id="paint77_linear_1066_2" x1="1518.53" y1="427.876" x2="1646.76" y2="391.595" gradientUnits="userSpaceOnUse">
<stop stop-color="#C45A12"/>
<stop offset="1" stop-color="#FFB048"/>
</linearGradient>
<linearGradient id="paint78_linear_1066_2" x1="1510.49" y1="423.71" x2="1752.06" y2="381.839" gradientUnits="userSpaceOnUse">
<stop stop-color="#C45A12"/>
<stop offset="1" stop-color="#FFB048"/>
</linearGradient>
<radialGradient id="paint79_radial_1066_2" cx="0" cy="0" r="1" gradientUnits="userSpaceOnUse" gradientTransform="translate(1731.99 357.214) rotate(180) scale(149.567 150.162)">
<stop stop-color="#FFEEA9"/>
<stop offset="1" stop-color="#FFB048"/>
</radialGradient>
<linearGradient id="paint80_linear_1066_2" x1="1530.56" y1="442.31" x2="1658.79" y2="406.028" gradientUnits="userSpaceOnUse">
<stop stop-color="#C45A12"/>
<stop offset="1" stop-color="#FFB048"/>
</linearGradient>
<linearGradient id="paint81_linear_1066_2" x1="1529.74" y1="439.413" x2="1657.97" y2="403.131" gradientUnits="userSpaceOnUse">
<stop stop-color="#C45A12"/>
<stop offset="1" stop-color="#FFB048"/>
</linearGradient>
<linearGradient id="paint82_linear_1066_2" x1="1528.77" y1="435.977" x2="1657" y2="399.696" gradientUnits="userSpaceOnUse">
<stop stop-color="#C45A12"/>
<stop offset="1" stop-color="#FFB048"/>
</linearGradient>
<linearGradient id="paint83_linear_1066_2" x1="1527.8" y1="432.55" x2="1656.03" y2="396.268" gradientUnits="userSpaceOnUse">
<stop stop-color="#C45A12"/>
<stop offset="1" stop-color="#FFB048"/>
</linearGradient>
<linearGradient id="paint84_linear_1066_2" x1="1526.73" y1="428.777" x2="1654.96" y2="392.495" gradientUnits="userSpaceOnUse">
<stop stop-color="#C45A12"/>
<stop offset="1" stop-color="#FFB048"/>
</linearGradient>
<linearGradient id="paint85_linear_1066_2" x1="1525.71" y1="425.165" x2="1653.94" y2="388.884" gradientUnits="userSpaceOnUse">
<stop stop-color="#C45A12"/>
<stop offset="1" stop-color="#FFB048"/>
</linearGradient>
<linearGradient id="paint86_linear_1066_2" x1="1524.62" y1="421.291" x2="1652.85" y2="385.01" gradientUnits="userSpaceOnUse">
<stop stop-color="#C45A12"/>
<stop offset="1" stop-color="#FFB048"/>
</linearGradient>
<linearGradient id="paint87_linear_1066_2" x1="1523.55" y1="417.509" x2="1651.78" y2="381.228" gradientUnits="userSpaceOnUse">
<stop stop-color="#C45A12"/>
<stop offset="1" stop-color="#FFB048"/>
</linearGradient>
<linearGradient id="paint88_linear_1066_2" x1="1522.42" y1="413.546" x2="1650.65" y2="377.265" gradientUnits="userSpaceOnUse">
<stop stop-color="#C45A12"/>
<stop offset="1" stop-color="#FFB048"/>
</linearGradient>
<linearGradient id="paint89_linear_1066_2" x1="1521.26" y1="409.447" x2="1649.5" y2="373.165" gradientUnits="userSpaceOnUse">
<stop stop-color="#C45A12"/>
<stop offset="1" stop-color="#FFB048"/>
</linearGradient>
<linearGradient id="paint90_linear_1066_2" x1="1651.18" y1="396.441" x2="1755.83" y2="566.289" gradientUnits="userSpaceOnUse">
<stop offset="0.00134137" stop-color="#FFF4DE"/>
<stop offset="1" stop-color="#D26666"/>
</linearGradient>
<linearGradient id="paint91_linear_1066_2" x1="1699.69" y1="484.414" x2="1676.13" y2="448.707" gradientUnits="userSpaceOnUse">
<stop stop-color="#BF0000"/>
<stop offset="1" stop-color="#FF7B22"/>
</linearGradient>
<linearGradient id="paint92_linear_1066_2" x1="1713.99" y1="484.414" x2="1690.44" y2="448.707" gradientUnits="userSpaceOnUse">
<stop stop-color="#BF0000"/>
<stop offset="1" stop-color="#FF7B22"/>
</linearGradient>
<linearGradient id="paint93_linear_1066_2" x1="1648.41" y1="423.621" x2="1753.05" y2="593.47" gradientUnits="userSpaceOnUse">
<stop offset="0.00134137" stop-color="#FFF4DE"/>
<stop offset="1" stop-color="#D26666"/>
</linearGradient>
<linearGradient id="paint94_linear_1066_2" x1="1696.91" y1="511.595" x2="1673.36" y2="475.887" gradientUnits="userSpaceOnUse">
<stop stop-color="#BF0000"/>
<stop offset="1" stop-color="#FF7B22"/>
</linearGradient>
<linearGradient id="paint95_linear_1066_2" x1="1711.21" y1="511.595" x2="1687.66" y2="475.887" gradientUnits="userSpaceOnUse">
<stop stop-color="#BF0000"/>
<stop offset="1" stop-color="#FF7B22"/>
</linearGradient>
<linearGradient id="paint96_linear_1066_2" x1="1656.8" y1="253.329" x2="1664.74" y2="266.24" gradientUnits="userSpaceOnUse">
<stop offset="0.00134137" stop-color="#FFF4DE"/>
<stop offset="1" stop-color="#D26666"/>
</linearGradient>
<linearGradient id="paint97_linear_1066_2" x1="1512.86" y1="223.13" x2="1671.01" y2="223.13" gradientUnits="userSpaceOnUse">
<stop stop-color="#31439A"/>
<stop offset="1" stop-color="#49BCBB"/>
</linearGradient>
<linearGradient id="paint98_linear_1066_2" x1="1533.24" y1="232.153" x2="1660.6" y2="232.153" gradientUnits="userSpaceOnUse">
<stop offset="0.00498992" stop-color="#231E5D"/>
<stop offset="1" stop-color="#2C327E"/>
</linearGradient>
<linearGradient id="paint99_linear_1066_2" x1="1489.68" y1="277.031" x2="1521.62" y2="277.031" gradientUnits="userSpaceOnUse">
<stop stop-color="#BF0000"/>
<stop offset="1" stop-color="#FF7B22"/>
</linearGradient>
<linearGradient id="paint100_linear_1066_2" x1="1345.55" y1="348.436" x2="1383.23" y2="348.436" gradientUnits="userSpaceOnUse">
<stop offset="0.00134137" stop-color="#FFF4DE"/>
<stop offset="1" stop-color="#D26666"/>
</linearGradient>
<linearGradient id="paint101_linear_1066_2" x1="1539.58" y1="400.481" x2="1654.18" y2="400.481" gradientUnits="userSpaceOnUse">
<stop stop-color="#31439A"/>
<stop offset="1" stop-color="#49BCBB"/>
</linearGradient>
<linearGradient id="paint102_linear_1066_2" x1="1505.04" y1="205.859" x2="1460.54" y2="196.332" gradientUnits="userSpaceOnUse">
<stop offset="0.00134137" stop-color="#FFF4DE"/>
<stop offset="1" stop-color="#D26666"/>
</linearGradient>
<linearGradient id="paint103_linear_1066_2" x1="1459.09" y1="197.804" x2="1473.29" y2="197.804" gradientUnits="userSpaceOnUse">
<stop offset="0.00498992" stop-color="#231E5D"/>
<stop offset="1" stop-color="#2C327E"/>
</linearGradient>
<linearGradient id="paint104_linear_1066_2" x1="1443.97" y1="191.53" x2="1462.16" y2="191.53" gradientUnits="userSpaceOnUse">
<stop offset="0.00134137" stop-color="#FFF4DE"/>
<stop offset="1" stop-color="#D26666"/>
</linearGradient>
<linearGradient id="paint105_linear_1066_2" x1="1466.22" y1="228.598" x2="1587.99" y2="228.598" gradientUnits="userSpaceOnUse">
<stop stop-color="#31439A"/>
<stop offset="1" stop-color="#49BCBB"/>
</linearGradient>
<linearGradient id="paint106_linear_1066_2" x1="1455.99" y1="358.515" x2="1564.25" y2="410.769" gradientUnits="userSpaceOnUse">
<stop stop-color="#31439A"/>
<stop offset="1" stop-color="#49BCBB"/>
</linearGradient>
<linearGradient id="paint107_linear_1066_2" x1="1531.78" y1="225.435" x2="1299.24" y2="378.188" gradientUnits="userSpaceOnUse">
<stop stop-color="#31439A"/>
<stop offset="1" stop-color="#49BCBB"/>
</linearGradient>
<linearGradient id="paint108_linear_1066_2" x1="1638" y1="362.651" x2="1556.14" y2="266.137" gradientUnits="userSpaceOnUse">
<stop stop-color="#31439A"/>
<stop offset="1" stop-color="#49BCBB"/>
</linearGradient>
<linearGradient id="paint109_linear_1066_2" x1="1414.67" y1="509.04" x2="1453.57" y2="509.04" gradientUnits="userSpaceOnUse">
<stop offset="0.00498992" stop-color="#231E5D"/>
<stop offset="1" stop-color="#2C327E"/>
</linearGradient>
<linearGradient id="paint110_linear_1066_2" x1="1595.27" y1="479.874" x2="1634.17" y2="479.874" gradientUnits="userSpaceOnUse">
<stop offset="0.00498992" stop-color="#231E5D"/>
<stop offset="1" stop-color="#2C327E"/>
</linearGradient>
<linearGradient id="paint111_linear_1066_2" x1="1482.65" y1="153.409" x2="1483.49" y2="169.27" gradientUnits="userSpaceOnUse">
<stop stop-color="#31439A"/>
<stop offset="1" stop-color="#49BCBB"/>
</linearGradient>
<linearGradient id="paint112_linear_1066_2" x1="1434.83" y1="181.33" x2="1466.13" y2="181.33" gradientUnits="userSpaceOnUse">
<stop offset="0.00498992" stop-color="#231E5D"/>
<stop offset="1" stop-color="#2C327E"/>
</linearGradient>
<linearGradient id="paint113_linear_1066_2" x1="1454.93" y1="183.808" x2="1460.48" y2="183.808" gradientUnits="userSpaceOnUse">
<stop offset="0.00134137" stop-color="#FFF4DE"/>
<stop offset="1" stop-color="#D26666"/>
</linearGradient>
<linearGradient id="paint114_linear_1066_2" x1="1447.33" y1="276.826" x2="1501.81" y2="276.826" gradientUnits="userSpaceOnUse">
<stop offset="0.00498992" stop-color="#231E5D"/>
<stop offset="1" stop-color="#2C327E"/>
</linearGradient>
<linearGradient id="paint115_linear_1066_2" x1="1644.89" y1="279.343" x2="1686.29" y2="279.343" gradientUnits="userSpaceOnUse">
<stop stop-color="#BF0000"/>
<stop offset="1" stop-color="#FF7B22"/>
</linearGradient>
<linearGradient id="paint116_linear_1066_2" x1="1623.5" y1="305.312" x2="1709.72" y2="305.312" gradientUnits="userSpaceOnUse">
<stop stop-color="#BF0000"/>
<stop offset="1" stop-color="#FF7B22"/>
</linearGradient>
<linearGradient id="paint117_linear_1066_2" x1="1701.34" y1="298.328" x2="1718.68" y2="298.328" gradientUnits="userSpaceOnUse">
<stop stop-color="#BF0000"/>
<stop offset="1" stop-color="#FF7B22"/>
</linearGradient>
<linearGradient id="paint118_linear_1066_2" x1="1631.07" y1="332.772" x2="1718.68" y2="332.772" gradientUnits="userSpaceOnUse">
<stop stop-color="#BF0000"/>
<stop offset="1" stop-color="#FF7B22"/>
</linearGradient>
<linearGradient id="paint119_linear_1066_2" x1="1658.27" y1="272.482" x2="1672.41" y2="272.482" gradientUnits="userSpaceOnUse">
<stop offset="0.00134137" stop-color="#FFF4DE"/>
<stop offset="1" stop-color="#D26666"/>
</linearGradient>
<linearGradient id="paint120_linear_1066_2" x1="1671.84" y1="283.038" x2="1643.8" y2="223.854" gradientUnits="userSpaceOnUse">
<stop offset="0.00134137" stop-color="#FFF4DE"/>
<stop offset="1" stop-color="#D26666"/>
</linearGradient>
</defs>
</svg>
