<svg width="93" height="37" viewBox="0 0 93 37" fill="none" xmlns="http://www.w3.org/2000/svg">
<path fill-rule="evenodd" clip-rule="evenodd" d="M18.5172 1.73361L18.1448 1.36133L17.7724 1.73361L1.3736 18.1279L1.00122 18.5002L1.3736 18.8725L17.7724 35.2668L18.1448 35.6391L18.5172 35.2668L34.916 18.8725L35.0012 18.7874H34.2564L34.1713 18.8725L18.5172 34.5223L18.1448 34.8946L17.7724 34.5223L2.11836 18.8725L1.74598 18.5002L2.11836 18.1279L17.7724 2.47816L18.1448 2.10588L18.5172 2.47816L29.5639 13.5219H30.3087L18.5172 1.73361Z" fill="#FFA500"/>
<path d="M18.1448 1.36133L18.3954 1.11071L18.1448 0.860235L17.8943 1.11071L18.1448 1.36133ZM18.5172 1.73361L18.2666 1.98422L18.2666 1.98422L18.5172 1.73361ZM17.7724 1.73361L18.023 1.98422L18.023 1.98422L17.7724 1.73361ZM1.3736 18.1279L1.62415 18.3786H1.62415L1.3736 18.1279ZM1.00122 18.5002L0.750675 18.2496L0.49999 18.5002L0.750674 18.7508L1.00122 18.5002ZM1.3736 18.8725L1.12305 19.1231L1.12305 19.1231L1.3736 18.8725ZM17.7724 35.2668L17.5219 35.5175L17.7724 35.2668ZM18.1448 35.6391L17.8943 35.8897L18.1448 36.1402L18.3954 35.8897L18.1448 35.6391ZM18.5172 35.2668L18.7677 35.5175L18.5172 35.2668ZM34.916 18.8725L34.6655 18.6219V18.6219L34.916 18.8725ZM35.0012 18.7874L35.2517 19.038L35.8569 18.433H35.0012V18.7874ZM34.2564 18.7874V18.433H34.1097L34.0059 18.5368L34.2564 18.7874ZM34.1713 18.8725L33.9207 18.6219V18.6219L34.1713 18.8725ZM18.5172 34.5223L18.2666 34.2717H18.2666L18.5172 34.5223ZM18.1448 34.8946L17.8943 35.1452L18.1448 35.3957L18.3954 35.1452L18.1448 34.8946ZM17.7724 34.5223L18.023 34.2717H18.023L17.7724 34.5223ZM2.11836 18.8725L1.86781 19.1231L1.86781 19.1231L2.11836 18.8725ZM1.74598 18.5002L1.49543 18.2496L1.24475 18.5002L1.49543 18.7508L1.74598 18.5002ZM2.11836 18.1279L2.36891 18.3786H2.36891L2.11836 18.1279ZM17.7724 2.47816L18.023 2.72878L18.023 2.72878L17.7724 2.47816ZM18.1448 2.10588L18.3954 1.85527L18.1448 1.60479L17.8943 1.85527L18.1448 2.10588ZM18.5172 2.47816L18.2666 2.72878L18.2666 2.72878L18.5172 2.47816ZM29.5639 13.5219L29.3134 13.7725L29.4172 13.8762H29.5639V13.5219ZM30.3087 13.5219V13.8762H31.1644L30.5592 13.2712L30.3087 13.5219ZM17.8943 1.61194L18.2666 1.98422L18.7677 1.48299L18.3954 1.11071L17.8943 1.61194ZM18.023 1.98422L18.3954 1.61194L17.8943 1.11071L17.5219 1.48299L18.023 1.98422ZM1.62415 18.3786L18.023 1.98422L17.5219 1.48299L1.12305 17.8773L1.62415 18.3786ZM1.25177 18.7508L1.62415 18.3786L1.12305 17.8773L0.750675 18.2496L1.25177 18.7508ZM1.62415 18.6219L1.25177 18.2496L0.750674 18.7508L1.12305 19.1231L1.62415 18.6219ZM18.023 35.0162L1.62415 18.6219L1.12305 19.1231L17.5219 35.5175L18.023 35.0162ZM18.3954 35.3885L18.023 35.0162L17.5219 35.5175L17.8943 35.8897L18.3954 35.3885ZM18.2666 35.0162L17.8943 35.3885L18.3954 35.8897L18.7677 35.5175L18.2666 35.0162ZM34.6655 18.6219L18.2666 35.0162L18.7677 35.5175L35.1666 19.1231L34.6655 18.6219ZM34.7506 18.5368L34.6655 18.6219L35.1666 19.1231L35.2517 19.038L34.7506 18.5368ZM35.0012 18.433H34.2564V19.1418H35.0012V18.433ZM34.4218 19.1231L34.507 19.038L34.0059 18.5368L33.9207 18.6219L34.4218 19.1231ZM18.7677 34.7729L34.4218 19.1231L33.9207 18.6219L18.2666 34.2717L18.7677 34.7729ZM18.3954 35.1452L18.7677 34.7729L18.2666 34.2717L17.8943 34.6439L18.3954 35.1452ZM17.5219 34.7729L17.8943 35.1452L18.3954 34.6439L18.023 34.2717L17.5219 34.7729ZM1.86781 19.1231L17.5219 34.7729L18.023 34.2717L2.36891 18.6219L1.86781 19.1231ZM1.49543 18.7508L1.86781 19.1231L2.36891 18.6219L1.99653 18.2496L1.49543 18.7508ZM1.86781 17.8773L1.49543 18.2496L1.99653 18.7508L2.36891 18.3786L1.86781 17.8773ZM17.5219 2.22755L1.86781 17.8773L2.36891 18.3786L18.023 2.72878L17.5219 2.22755ZM17.8943 1.85527L17.5219 2.22755L18.023 2.72878L18.3954 2.3565L17.8943 1.85527ZM18.7677 2.22755L18.3954 1.85527L17.8943 2.3565L18.2666 2.72878L18.7677 2.22755ZM29.8145 13.2712L18.7677 2.22755L18.2666 2.72878L29.3134 13.7725L29.8145 13.2712ZM29.5639 13.8762H30.3087V13.1675H29.5639V13.8762ZM18.2666 1.98422L30.0581 13.7725L30.5592 13.2712L18.7677 1.48299L18.2666 1.98422Z" fill="#FFA500"/>
<path d="M4.90508 15.0498H32.1476L34.973 17.5304H2.46875L4.90508 15.0498Z" fill="#FFA500"/>
<path d="M2.51562 18.8594H27.9846L25.504 21.34H4.95195L2.51562 18.8594Z" fill="#FFA500"/>
<path d="M6.32422 22.6685H24.1759L21.6952 25.1491H8.76055L6.32422 22.6685Z" fill="#FFA500"/>
<path d="M44.981 25.3613L39.847 13.4613H42.822L47.31 24.0013H45.559L50.115 13.4613H52.852L47.701 25.3613H44.981ZM53.8456 25.3613V13.4613H56.5996V25.3613H53.8456ZM61.8887 22.6413L61.7357 19.4623L67.4307 13.4613H70.4907L65.3567 18.9863L63.8267 20.6183L61.8887 22.6413ZM59.4237 25.3613V13.4613H62.1607V25.3613H59.4237ZM67.5667 25.3613L63.3337 20.1763L65.1357 18.2213L70.7797 25.3613H67.5667ZM74.5407 18.2553H80.2697V20.3973H74.5407V18.2553ZM74.7447 23.1513H81.2217V25.3613H72.0077V13.4613H81.0007V15.6713H74.7447V23.1513ZM85.878 25.3613V15.7053H82.07V13.4613H92.44V15.7053H88.632V25.3613H85.878Z" fill="#080B27"/>
</svg>
