<svg width="249" height="61" viewBox="0 0 249 61" fill="none" xmlns="http://www.w3.org/2000/svg">
<path fill-rule="evenodd" clip-rule="evenodd" d="M0.0327148 60.8611L23.187 27.8983L30.4228 31.5966L50.6024 4.58321L72.4704 37.7068L77.9374 34.6517L92.0872 60.8611L75.6862 44.2993L68.7721 47.7564L55.7478 28.3807L52.8535 31.275L46.7433 20.743L32.1915 39.0735L24.393 34.8929L0.0327148 60.8611Z" fill="#9900CC"/>
<path fill-rule="evenodd" clip-rule="evenodd" d="M28.8952 7.23631C29.6188 10.211 31.7091 12.4621 34.8446 13.1857C31.8699 13.9093 29.6188 15.9996 28.8952 19.1351C28.1717 16.1604 26.0813 13.9093 22.9458 13.1857C25.8401 12.5425 28.1717 10.4522 28.8952 7.23631Z" fill="#9900CC"/>
<path fill-rule="evenodd" clip-rule="evenodd" d="M17.2377 0.161377C17.72 2.0909 19.0868 3.61845 21.1771 4.10083C19.2476 4.58321 17.72 5.94996 17.2377 8.04028C16.7553 6.11075 15.3885 4.58321 13.2982 4.10083C15.2277 3.61845 16.7553 2.2517 17.2377 0.161377Z" fill="#9900CC"/>
<path fill-rule="evenodd" clip-rule="evenodd" d="M12.8962 18.9743C13.2178 20.341 14.1826 21.3862 15.7101 21.7882C14.3434 22.1097 13.2982 23.0745 12.8962 24.6021C12.5746 23.2353 11.6099 22.1901 10.0823 21.7882C11.4491 21.3862 12.4942 20.4214 12.8962 18.9743Z" fill="#9900CC"/>
<path d="M93.1324 27.9787L87.3438 12.3817H90.5597L95.5443 25.9688L100.449 12.3817H103.664L97.8758 27.9787C97.3934 29.3455 96.5895 30.069 95.4639 30.069C94.9011 30.069 94.4991 29.9083 94.0972 29.5867C93.7756 29.1847 93.454 28.7023 93.1324 27.9787ZM121.03 22.4313V29.6671H117.975V21.0646C117.975 19.2155 117.493 17.7683 116.448 16.6428C115.402 15.5172 114.116 14.9544 112.508 14.9544C110.9 14.9544 109.533 15.5172 108.488 16.6428C107.443 17.7683 106.88 19.2155 106.88 20.9038C106.88 21.7882 107.041 22.6725 107.282 23.3961C107.604 24.1197 108.006 24.7628 108.488 25.3256C108.971 25.8884 109.614 26.2904 110.337 26.612C111.061 26.9336 111.784 27.0944 112.588 27.0944C114.116 27.0944 115.563 26.5316 116.93 25.4864L115.724 29.3455C114.759 29.7475 113.553 29.9083 112.267 29.9083C111.141 29.9083 110.096 29.6671 109.051 29.2651C108.006 28.8631 107.121 28.2199 106.317 27.4159C105.514 26.612 104.951 25.7276 104.468 24.6021C103.986 23.4765 103.745 22.2705 103.745 20.9038C103.745 19.6174 103.986 18.4115 104.388 17.2859C104.79 16.1604 105.433 15.276 106.237 14.472C107.041 13.6681 107.925 13.1053 108.971 12.6229C110.016 12.1405 111.141 11.9797 112.428 11.9797C114.036 11.9797 115.563 12.3817 117.01 13.1857C118.377 13.9897 119.422 15.1152 120.146 16.6428C120.387 17.1251 120.548 17.6075 120.709 18.0095C120.869 18.4115 120.95 18.8939 120.95 19.2959C121.03 19.6978 121.03 20.1802 121.03 20.6626C121.03 21.3058 121.03 21.7882 121.03 22.4313ZM126.899 19.6978V29.6671H123.844V20.2606C123.844 18.9743 124.005 17.8487 124.407 16.8035C124.809 15.7584 125.291 14.9544 125.934 14.2308C126.578 13.5073 127.382 13.0249 128.266 12.6229C129.15 12.2209 130.115 12.0601 131.241 12.0601C133.411 12.0601 135.18 12.7837 136.547 14.2308C137.913 15.678 138.557 17.6879 138.557 20.1802V29.5867H135.502V19.6978C135.502 18.3311 135.1 17.2055 134.296 16.4016C133.492 15.5172 132.447 15.1152 131.241 15.1152C129.954 15.1152 128.909 15.5976 128.105 16.482C127.301 17.2859 126.899 18.4115 126.899 19.6978ZM154.877 20.9842V4.42242H157.932V19.6174C157.932 20.8234 157.932 21.7882 157.852 22.5921C157.772 23.3961 157.53 24.2805 157.048 25.2452C156.324 26.6924 155.279 27.8179 153.912 28.7023C152.546 29.5063 151.018 29.9886 149.33 29.9886C148.124 29.9886 146.918 29.7475 145.873 29.3455C144.828 28.8631 143.863 28.3003 143.139 27.4963C142.335 26.6924 141.773 25.7276 141.29 24.6021C140.808 23.4765 140.647 22.2705 140.647 20.9842C140.647 19.7782 140.888 18.6527 141.29 17.5271C141.773 16.482 142.335 15.5172 143.139 14.7132C143.943 13.9093 144.828 13.2661 145.873 12.7837C146.918 12.3013 148.044 12.0601 149.169 12.0601C150.375 12.0601 151.501 12.2209 152.626 12.6229L153.832 16.482C152.465 15.4368 151.018 14.874 149.491 14.874C147.802 14.874 146.436 15.4368 145.39 16.5624C144.345 17.6879 143.782 19.1351 143.782 20.8234C143.782 22.6725 144.345 24.1197 145.39 25.2452C146.436 26.3708 147.802 26.9336 149.41 26.9336C151.018 26.9336 152.385 26.3708 153.35 25.2452C154.314 24.2805 154.877 22.8333 154.877 20.9842ZM159.942 20.9842C159.942 19.7782 160.183 18.6527 160.666 17.6075C161.148 16.5624 161.791 15.5976 162.515 14.7936C163.319 13.9897 164.203 13.3465 165.248 12.8641C166.294 12.3817 167.419 12.1405 168.625 12.1405C169.831 12.1405 170.957 12.3817 172.002 12.8641C173.047 13.3465 174.012 13.9897 174.816 14.7936C175.62 15.5976 176.263 16.5624 176.745 17.6075C177.228 18.6527 177.469 19.7782 177.469 20.9842C177.469 21.4666 177.469 21.8686 177.388 22.3509H163.399C163.641 23.6373 164.284 24.7628 165.248 25.6472C166.213 26.5316 167.419 27.014 168.706 27.014C170.635 27.014 172.163 26.1296 173.288 24.4413L175.539 26.5316C174.816 27.5767 173.771 28.3807 172.565 29.0239C171.359 29.6671 170.072 29.9886 168.706 29.9886C167.5 29.9886 166.294 29.7475 165.248 29.2651C164.203 28.7827 163.239 28.1395 162.515 27.3355C161.711 26.5316 161.148 25.5668 160.666 24.4413C160.183 23.3157 159.942 22.1901 159.942 20.9842ZM168.625 14.9544C167.258 14.9544 166.133 15.4368 165.168 16.3212C164.203 17.2055 163.56 18.3311 163.319 19.6174H174.092C173.851 18.2507 173.208 17.1251 172.243 16.2408C171.117 15.4368 169.992 14.9544 168.625 14.9544ZM182.695 19.6978V29.6671H179.64V19.6978C179.64 18.4115 179.8 17.2859 180.202 16.3212C180.604 15.3564 181.087 14.5524 181.649 13.9093C182.293 13.2661 183.016 12.7837 183.82 12.5425C184.624 12.2209 185.508 12.0601 186.473 12.0601C188.564 12.0601 190.332 12.8641 191.699 14.5524L189.609 16.6428C189.368 16.1604 188.966 15.7584 188.403 15.4368C187.84 15.1152 187.197 14.9544 186.554 14.9544C185.267 14.9544 184.303 15.3564 183.74 16.2408C183.016 17.2055 182.695 18.2507 182.695 19.6978ZM101.494 42.7718C101.494 41.5658 101.735 40.4403 102.217 39.3951C102.7 38.3499 103.343 37.3852 104.066 36.5812C104.87 35.7772 105.755 35.1341 106.8 34.6517C107.845 34.1693 108.971 33.9281 110.177 33.9281C112.99 33.9281 115.402 35.2145 117.332 37.7872L115 39.9579C114.518 38.9931 113.875 38.1891 112.99 37.6264C112.106 37.0636 111.141 36.8224 110.177 36.8224C109.373 36.8224 108.649 36.9832 108.006 37.3048C107.363 37.6264 106.719 38.0283 106.237 38.5911C105.755 39.1539 105.353 39.7971 105.112 40.5206C104.79 41.2442 104.71 42.0482 104.71 42.8522C104.71 43.6561 104.87 44.4601 105.112 45.1837C105.433 45.9072 105.755 46.5504 106.317 47.1132C106.8 47.676 107.443 48.078 108.086 48.3996C108.729 48.7211 109.453 48.8819 110.257 48.8819C111.383 48.8819 112.347 48.5603 113.151 47.9976C113.955 47.4348 114.598 46.6308 115.081 45.7465L117.573 47.8368C116.769 49.0427 115.724 50.0075 114.438 50.7311C113.151 51.4546 111.784 51.8566 110.257 51.8566C109.051 51.8566 107.925 51.6154 106.88 51.133C105.835 50.6507 104.87 50.0075 104.147 49.1231C103.343 48.3192 102.7 47.3544 102.298 46.2288C101.735 45.1033 101.494 43.9777 101.494 42.7718ZM127.06 33.8477C128.266 33.8477 129.391 34.0889 130.437 34.5713C131.482 35.0537 132.447 35.6968 133.17 36.5008C133.974 37.3048 134.617 38.2695 135.019 39.3951C135.502 40.4403 135.743 41.5658 135.743 42.7718C135.743 43.9777 135.502 45.1033 135.019 46.2288C134.537 47.274 133.974 48.2388 133.17 49.1231C132.366 49.9271 131.482 50.5703 130.356 51.0527C129.311 51.535 128.105 51.7762 126.899 51.7762C125.693 51.7762 124.568 51.535 123.522 51.0527C122.477 50.5703 121.513 49.9271 120.789 49.1231C119.985 48.3192 119.342 47.3544 118.94 46.2288C118.457 45.1837 118.216 43.9777 118.216 42.8522C118.216 41.6462 118.457 40.5207 118.94 39.4755C119.422 38.4303 119.985 37.4656 120.789 36.6616C121.593 35.8576 122.477 35.2145 123.522 34.7321C124.728 34.0889 125.854 33.8477 127.06 33.8477ZM127.06 36.742C126.256 36.742 125.532 36.9028 124.889 37.2244C124.246 37.546 123.603 38.0283 123.201 38.5107C122.718 39.0735 122.316 39.7167 122.075 40.4403C121.834 41.1638 121.673 41.8874 121.673 42.6914C121.673 43.4953 121.834 44.2189 122.075 44.9425C122.316 45.6661 122.718 46.3092 123.201 46.872C123.683 47.4348 124.246 47.8368 124.889 48.2388C125.532 48.5603 126.336 48.7211 127.14 48.7211C127.864 48.7211 128.587 48.5603 129.311 48.2388C129.954 47.9172 130.597 47.5152 131.08 46.9524C131.562 46.3896 131.964 45.7465 132.286 45.0229C132.607 44.2993 132.688 43.4953 132.688 42.6914C132.688 41.8874 132.527 41.0834 132.286 40.3599C131.964 39.6363 131.643 38.9931 131.08 38.4303C130.597 37.8675 129.954 37.4656 129.311 37.144C128.507 36.9028 127.783 36.742 127.06 36.742ZM140.808 41.4854V51.4546H137.753V42.0482C137.753 40.7618 137.914 39.6363 138.315 38.5911C138.717 37.546 139.2 36.742 139.843 36.0184C140.486 35.2948 141.29 34.8125 142.175 34.4105C143.059 34.0085 144.024 33.8477 145.149 33.8477C147.32 33.8477 149.089 34.5713 150.455 36.0184C151.822 37.4656 152.465 39.4755 152.465 41.9678V51.3742H149.41V41.4854C149.41 40.1187 149.008 38.9931 148.204 38.1891C147.4 37.3048 146.355 36.9028 145.149 36.9028C143.863 36.9028 142.818 37.3852 142.014 38.2695C141.21 39.0735 140.808 40.1991 140.808 41.4854ZM157.209 51.4546H154.716V48.4799H156.566C157.128 48.4799 157.611 48.3996 158.093 48.1584C158.576 47.9976 158.978 47.5956 159.379 47.1132C159.781 46.6308 160.183 45.9876 160.505 45.1033C160.907 44.2993 161.229 43.1737 161.631 41.8874C162.435 39.3147 163.399 37.3048 164.605 35.938C165.731 34.5713 167.017 33.9281 168.464 33.9281H170.957V36.8224H169.108C168.384 36.8224 167.741 37.0636 167.258 37.546C166.696 38.0283 166.294 38.6715 165.892 39.3951C165.49 40.1187 165.168 40.9226 164.927 41.807C164.686 42.611 164.445 43.4149 164.203 44.1385C163.882 45.1033 163.56 46.068 163.158 46.9524C162.756 47.8368 162.354 48.5603 161.791 49.2035C161.229 49.8467 160.585 50.3291 159.862 50.7311C159.138 51.2938 158.254 51.4546 157.209 51.4546ZM184.142 44.1385V34.0889H187.197V43.5757C187.197 46.1484 186.554 48.1584 185.187 49.5251C183.82 50.9723 182.051 51.6958 179.881 51.6958C178.675 51.6958 177.63 51.4546 176.745 51.0527C175.861 50.6507 175.057 50.0879 174.414 49.3643C173.771 48.6407 173.369 47.7564 173.047 46.7916C172.725 45.8268 172.565 44.7013 172.565 43.5757V34.0889H175.62V44.1385C175.62 45.4249 176.022 46.47 176.826 47.4348C177.63 48.3192 178.675 48.8015 179.961 48.8015C181.167 48.8015 182.212 48.3996 183.016 47.5152C183.74 46.6308 184.142 45.5053 184.142 44.1385ZM190.252 26.2904H193.307V51.4546H190.252V26.2904ZM196.443 45.3445V29.5867H199.498V34.1693H204.723V37.0636H199.498V44.7817C199.498 46.068 199.739 47.0328 200.302 47.7564C200.864 48.3996 201.507 48.8015 202.392 48.8015C203.919 48.8015 205.206 48.3996 206.331 47.5956L207.055 50.5703C206.492 50.8919 205.769 51.2134 204.884 51.3742C204 51.6154 203.196 51.6958 202.472 51.6958C200.623 51.6958 199.096 51.1331 198.05 49.9271C197.005 48.7211 196.443 47.1936 196.443 45.3445ZM208.743 34.1693H211.798V51.4546H208.743V34.1693ZM217.908 41.4854V51.4546H214.853V42.0482C214.853 40.7618 215.014 39.6363 215.416 38.5911C215.818 37.546 216.301 36.742 216.944 36.0184C217.587 35.2948 218.391 34.8125 219.275 34.4105C220.16 34.0085 221.124 33.8477 222.25 33.8477C224.421 33.8477 226.189 34.5713 227.556 36.0184C228.923 37.4656 229.566 39.4755 229.566 41.9678V51.3742H226.511V41.4854C226.511 40.1187 226.109 38.9931 225.305 38.1891C224.501 37.3048 223.456 36.9028 222.25 36.9028C220.964 36.9028 219.918 37.3852 219.114 38.2695C218.31 39.0735 217.908 40.1991 217.908 41.4854ZM240.339 33.8477C242.028 33.8477 243.555 34.3301 244.922 35.1341C246.289 35.938 247.334 37.0636 248.057 38.5911C248.54 39.5559 248.861 40.4403 248.861 41.3246C248.942 42.1286 248.942 43.1738 248.942 44.2993V50.4899C248.942 53.3038 248.138 55.5549 246.53 57.1628C244.922 58.7708 242.832 59.5747 240.098 59.5747C238.651 59.5747 236.802 59.2531 234.631 58.61L235.355 55.6353C237.204 56.2785 238.812 56.6 240.178 56.6C241.947 56.6 243.314 56.1177 244.359 55.0725C245.404 54.0273 245.887 52.6606 245.887 50.8115V42.9326C245.887 41.0834 245.404 39.6363 244.359 38.5107C243.314 37.3852 242.028 36.8224 240.42 36.8224C238.812 36.8224 237.445 37.3852 236.4 38.5107C235.355 39.6363 234.792 41.0834 234.792 42.7718C234.792 43.6561 234.953 44.5405 235.194 45.2641C235.515 45.9876 235.917 46.6308 236.4 47.1936C236.882 47.7564 237.525 48.1584 238.249 48.4799C238.972 48.8015 239.696 48.9623 240.5 48.9623C241.947 48.9623 243.394 48.3996 244.841 47.3544L243.636 51.2938C242.51 51.6958 241.384 51.8566 240.178 51.8566C238.41 51.8566 236.882 51.3742 235.515 50.4095C234.309 49.5251 233.345 48.4799 232.702 47.1936C232.058 45.9072 231.737 44.4601 231.737 42.9326C231.737 41.6462 231.978 40.4403 232.38 39.3951C232.782 38.2695 233.425 37.3048 234.229 36.5008C235.033 35.6968 235.917 35.0537 236.963 34.6517C237.927 34.0085 239.133 33.8477 240.339 33.8477Z" fill="white"/>
<path fill-rule="evenodd" clip-rule="evenodd" d="M210.351 23.4765C210.914 25.6472 212.441 27.4159 214.773 27.8983C212.602 28.4611 210.834 29.9886 210.351 32.3202C209.788 30.1494 208.261 28.3807 205.929 27.8983C208.02 27.3355 209.788 25.808 210.351 23.4765Z" fill="#9900CC"/>
</svg>
