<svg width="375" height="743" viewBox="0 0 375 743" fill="none" xmlns="http://www.w3.org/2000/svg">
<mask id="mask0_517_867" style="mask-type:alpha" maskUnits="userSpaceOnUse" x="-11" y="-26" width="404" height="769">
<rect x="-10.2695" y="-25.4124" width="402.605" height="767.423" fill="#3C014A"/>
</mask>
<g mask="url(#mask0_517_867)">
<rect x="-10.2695" y="-25.4124" width="402.605" height="854.264" fill="#390147"/>
<g style="mix-blend-mode:overlay" opacity="0.2">
<path fill-rule="evenodd" clip-rule="evenodd" d="M46.8895 366.536C56.4418 405.807 84.0376 435.526 125.431 445.078C86.1603 454.631 56.4418 482.226 46.8895 523.62C37.3371 484.349 9.7413 454.631 -31.6523 445.078C6.55717 436.587 37.3371 408.991 46.8895 366.536Z" fill="white"/>
</g>
<path d="M174.136 630.885L236.278 717.373L238.71 636.772L174.136 630.885Z" fill="url(#paint0_linear_517_867)"/>
<path d="M234.865 716.391L265.734 781.827H286.051L262.357 638.539L236.669 636.732L234.865 716.391Z" fill="url(#paint1_linear_517_867)"/>
<path d="M364.629 630.384H445.81L405.405 781.623H339.651L364.629 630.384Z" fill="url(#paint2_linear_517_867)"/>
<path d="M434.402 582.583L174.116 630.885C174.116 630.885 190.596 637.376 264.171 638.801C337.745 640.227 505.705 626.791 505.705 626.791V593.992L434.402 582.583Z" fill="url(#paint3_linear_517_867)"/>
<path opacity="0.22" d="M324.699 611.104L340.623 616.709V620.137L391.425 633.639L428.222 630.172L401.171 620.137L385.228 605.768L324.699 611.104Z" fill="url(#paint4_linear_517_867)"/>
<path opacity="0.22" d="M230.693 631.636L255.212 638.956L366.447 635.546L325.122 616.381L308.642 619.039L339.146 633.774L247.173 628.978L230.693 631.636Z" fill="url(#paint5_linear_517_867)"/>
<path d="M255.211 638.955C255.211 638.955 314.742 622.217 366.427 635.565L350.522 781.807H278.904L255.211 638.955Z" fill="url(#paint6_linear_517_867)"/>
<path d="M-467.374 782.341L96.908 710.06H169.734L78.5669 781.516L-467.374 782.341Z" fill="url(#paint7_linear_517_867)"/>
<path d="M169.733 710.06L149.981 781.809L78.2705 781.516L169.733 710.06Z" fill="url(#paint8_linear_517_867)"/>
<path opacity="0.22" d="M132.765 715.299L48.9406 767.576L-40.2344 782.682L120.563 715.299H132.765Z" fill="url(#paint9_linear_517_867)"/>
<path d="M60.1726 551.879L58.0884 566.194L56.5496 576.793C56.5496 576.793 45.3105 581.78 41.9992 589.797C41.0643 592.066 40.7721 595.117 40.811 598.324C40.9279 606.537 43.3238 615.846 43.3238 615.846L39.058 617.097C39.058 617.097 27.4489 599.028 30.7602 582.425C34.0326 565.822 60.1726 551.879 60.1726 551.879Z" fill="url(#paint10_linear_517_867)"/>
<path opacity="0.22" d="M58.0692 566.193L56.5304 576.793C56.5304 576.793 45.2914 581.779 41.98 589.797C41.0451 592.066 40.7529 595.117 40.7918 598.324C40.4802 597.874 40.1685 597.365 39.8569 596.798C29.7865 578.259 53.3749 562.028 53.3749 562.028L58.0692 566.193Z" fill="url(#paint11_linear_517_867)"/>
<path d="M46.2454 587.392L11.7881 604.073L28.4032 636.067L67.9249 609.001L46.2454 587.392Z" fill="url(#paint12_linear_517_867)"/>
<path opacity="0.22" d="M46.2458 587.392L41.98 589.797C41.98 589.797 38.6687 600.26 39.8763 604.093C39.8763 604.093 33.1173 613.871 33.2732 632.762L41.0645 627.306L46.2458 587.392Z" fill="url(#paint13_linear_517_867)"/>
<path d="M65.5089 636.594C65.5089 636.594 71.4924 697.547 31.4179 747.269L26.7178 744.054C33.2041 732.789 44.4547 693.545 43.5392 683.2C36.6127 654.01 35.0447 630.591 41.979 619.952C48.9133 609.314 64.8856 619.366 65.5089 636.594Z" fill="url(#paint14_linear_517_867)"/>
<path d="M46.5947 728.155H28.207L28.3044 727.998C36.1542 714.387 39.7188 702.947 38.9202 694.01C36.8749 671.15 34.5375 631.119 41.8809 619.894C44.3157 616.178 48.0945 614.711 52.2434 615.885C55.5742 616.823 58.7687 619.287 61.2229 622.847C63.911 626.738 65.4303 631.49 65.6056 636.594C65.6056 636.731 65.216 650.811 62.7033 669.038C60.3659 685.856 55.6911 709.772 46.6336 728.096L46.5947 728.155ZM28.5771 727.94H46.4583C55.4963 709.635 60.1711 685.797 62.489 668.998C65.0017 650.87 65.3913 636.868 65.3913 636.575C65.216 631.529 63.7162 626.816 61.0476 622.944C58.6518 619.483 55.4184 616.96 52.185 616.061C48.1335 614.927 44.4326 616.354 42.0562 619.991C38.9591 624.724 37.3035 635.186 37.1087 651.105C36.9334 666.006 38.1021 682.648 39.1149 693.971C39.933 702.928 36.388 714.348 28.5771 727.94Z" fill="#6B4482"/>
<path d="M114.731 700.972H108.771C108.771 700.972 102.148 660.453 114.069 648.172C114.069 648.172 55.8672 640.525 51.5624 625.917C48.6991 616.159 56.958 609.686 62.7625 606.459C65.6453 604.856 67.9243 604.054 67.9243 604.054C68.5671 604.386 124.003 633.251 126.963 640.506C129.944 647.839 114.731 700.972 114.731 700.972Z" fill="url(#paint15_linear_517_867)"/>
<path d="M114.732 700.972H110.992C113.953 688.026 123.205 646.744 121.569 642.657C119.621 637.787 66.7955 617.293 66.7955 617.293L62.7634 606.479L60.1533 599.497L67.9252 604.093C68.568 604.425 124.004 633.29 126.964 640.545C129.944 647.839 114.732 700.972 114.732 700.972Z" fill="url(#paint16_linear_517_867)"/>
<path d="M76.9628 541.886L77.2939 551.879H67.9248L73.3008 539.383L76.9628 541.886Z" fill="url(#paint17_linear_517_867)"/>
<path opacity="0.19" d="M73.2031 540.204L77.1572 547.968L76.9625 541.886L73.2031 540.204Z" fill="url(#paint18_linear_517_867)"/>
<path d="M77.8778 536.919L80.6632 541.905C80.6632 541.905 77.313 545.034 74.5275 541.905C71.7421 538.776 71.002 535.589 71.002 535.589C71.002 535.589 75.0924 531.932 77.8778 536.919Z" fill="url(#paint19_linear_517_867)"/>
<path d="M70.6131 545.64C70.6131 545.64 66.4642 538.326 69.386 535.256C69.386 535.256 69.7561 533.262 75.0932 532.186C76.554 531.893 78.0149 530.895 78.0149 530.895C78.0149 530.895 78.7551 536.351 72.5999 536.469C72.6194 536.469 74.0413 542.472 70.6131 545.64Z" fill="url(#paint20_linear_517_867)"/>
<path d="M73.203 540.204L72.0538 538.248C72.0538 538.248 71.0019 538.444 71.2552 539.382C71.5084 540.321 73.1056 541.025 73.203 540.204Z" fill="url(#paint21_linear_517_867)"/>
<path d="M43.3033 604.073C43.3033 604.073 49.7117 558.136 60.1716 551.878C70.6315 545.621 94.5705 548.495 94.5705 548.495L67.924 604.073C67.924 604.073 69.755 621.947 59.821 626.582C49.9065 631.236 30.3891 642.324 43.3033 604.073Z" fill="url(#paint22_linear_517_867)"/>
<path d="M94.571 548.515L120.964 551.898C120.964 551.898 138.904 544.447 157.097 542.394L160.934 545.66L128.95 561.833L85.8252 566.721C85.8252 566.721 83.9747 553.776 94.571 548.515Z" fill="url(#paint23_linear_517_867)"/>
<path d="M114.732 700.972C114.732 700.972 118.647 708.482 125.581 709.577V711.591L111.927 708.11L110.096 704.825L108.83 707.563L106.278 707.191L108.791 700.953H114.732V700.972Z" fill="url(#paint24_linear_517_867)"/>
<path d="M157.077 542.374L162.551 536.077L166.563 534.298C166.563 534.298 167.109 535.667 164.732 536.938L162.551 539.382C162.551 539.382 170.926 534.748 171.842 535.295C172.757 535.843 169.836 537.133 169.836 537.133C169.836 537.133 172.933 535.862 172.757 537.309C172.582 538.776 170.576 538.796 170.576 538.796C170.576 538.796 172.582 537.485 172.582 538.776C172.582 540.047 160.914 545.64 160.914 545.64L157.077 542.374Z" fill="url(#paint25_linear_517_867)"/>
<path d="M315.835 600.991V609.37C315.835 609.582 316.353 609.794 317.293 610.005C318.176 610.198 319.461 610.371 321.053 610.526C321.974 610.622 323.01 610.699 324.142 610.795C325.293 610.872 326.54 610.949 327.902 611.026C328.919 611.084 329.994 611.123 331.106 611.18C332.315 611.238 333.562 611.277 334.867 611.315C335.864 611.354 336.9 611.373 337.955 611.412C339.183 611.431 340.43 611.469 341.716 611.489C342.828 611.508 343.979 611.527 345.131 611.527C346.358 611.546 347.605 611.546 348.891 611.546C349.466 611.546 350.042 611.546 350.617 611.546C351.078 611.546 351.519 611.546 351.98 611.546C353.246 611.546 354.493 611.527 355.74 611.527C356.948 611.508 358.138 611.508 359.308 611.489C360.594 611.469 361.841 611.45 363.069 611.412C364.124 611.392 365.16 611.354 366.157 611.335C367.462 611.296 368.709 611.238 369.918 611.2C371.107 611.142 372.258 611.103 373.333 611.046C374.676 610.969 375.942 610.892 377.093 610.814C378.225 610.737 379.261 610.641 380.182 610.545C381.774 610.391 383.04 610.217 383.942 610.025C384.882 609.832 385.4 609.62 385.4 609.389V601.01H315.835V600.991Z" fill="url(#paint26_radial_517_867)"/>
<g opacity="0.7">
<path d="M373.274 600.991V611.026C374.617 610.949 375.884 610.872 377.035 610.795V600.991H373.274Z" fill="url(#paint27_linear_517_867)"/>
<path d="M366.119 600.991V611.335C367.424 611.296 368.671 611.238 369.879 611.2V600.991H366.119Z" fill="url(#paint28_linear_517_867)"/>
<path d="M359.271 600.991V611.489C360.556 611.469 361.803 611.45 363.031 611.412V600.991H359.271Z" fill="url(#paint29_linear_517_867)"/>
<path d="M351.942 600.991V611.546C353.209 611.546 354.456 611.527 355.703 611.527V600.991H351.942V600.991Z" fill="url(#paint30_linear_517_867)"/>
<path d="M345.112 600.991V611.527C346.34 611.546 347.587 611.546 348.873 611.546V600.991H345.112V600.991Z" fill="url(#paint31_linear_517_867)"/>
<path d="M337.937 600.991V611.412C339.164 611.431 340.411 611.469 341.697 611.489V600.991H337.937Z" fill="url(#paint32_linear_517_867)"/>
<path d="M331.087 600.991V611.18C332.296 611.238 333.543 611.277 334.847 611.315V600.991H331.087Z" fill="url(#paint33_linear_517_867)"/>
<path d="M324.143 600.991V610.795C325.294 610.872 326.541 610.949 327.903 611.026V600.991H324.143Z" fill="url(#paint34_linear_517_867)"/>
<path d="M317.293 600.991V610.005C318.175 610.198 319.461 610.371 321.053 610.526V600.991H317.293Z" fill="url(#paint35_linear_517_867)"/>
</g>
<path d="M350.579 603.168C369.768 603.168 385.323 602.193 385.323 600.991C385.323 599.789 369.768 598.815 350.579 598.815C331.39 598.815 315.835 599.789 315.835 600.991C315.835 602.193 331.39 603.168 350.579 603.168Z" fill="url(#paint36_linear_517_867)"/>
<path d="M317.563 591.476V599.855C317.563 600.067 318.081 600.279 319.022 600.491C319.904 600.683 321.189 600.857 322.782 601.011C323.703 601.107 324.739 601.184 325.871 601.28C327.022 601.357 328.269 601.434 329.631 601.511C330.648 601.569 331.722 601.608 332.835 601.666C334.043 601.723 335.29 601.762 336.595 601.8C337.593 601.839 338.629 601.858 339.684 601.897C340.912 601.916 342.159 601.954 343.444 601.974C344.557 601.993 345.708 602.012 346.859 602.012C348.087 602.032 349.334 602.032 350.619 602.032C351.195 602.032 351.77 602.032 352.346 602.032C352.806 602.032 353.248 602.032 353.708 602.032C354.974 602.032 356.221 602.012 357.468 602.012C358.677 601.993 359.867 601.993 361.037 601.974C362.322 601.954 363.569 601.935 364.797 601.897C365.852 601.877 366.888 601.839 367.886 601.82C369.19 601.781 370.437 601.723 371.646 601.685C372.836 601.627 373.987 601.588 375.061 601.531C376.404 601.454 377.67 601.377 378.821 601.3C379.953 601.223 380.989 601.126 381.91 601.03C383.502 600.876 384.769 600.702 385.67 600.51C386.61 600.317 387.128 600.105 387.128 599.874V591.496H317.563V591.476Z" fill="url(#paint37_radial_517_867)"/>
<g opacity="0.7">
<path d="M367.848 591.476V601.82C369.152 601.781 370.399 601.723 371.608 601.685V591.476H367.848Z" fill="url(#paint38_linear_517_867)"/>
<path d="M360.998 591.476V601.974C362.283 601.954 363.53 601.935 364.758 601.897V591.476H360.998Z" fill="url(#paint39_linear_517_867)"/>
<path d="M353.67 591.476V602.032C354.936 602.032 356.183 602.012 357.43 602.012V591.476H353.67V591.476Z" fill="url(#paint40_linear_517_867)"/>
<path d="M346.84 591.476V602.012C348.068 602.032 349.315 602.032 350.6 602.032V591.476H346.84V591.476Z" fill="url(#paint41_linear_517_867)"/>
<path d="M339.664 591.476V601.897C340.892 601.916 342.139 601.954 343.424 601.974V591.476H339.664Z" fill="url(#paint42_linear_517_867)"/>
<path d="M332.815 591.476V601.666C334.024 601.723 335.271 601.762 336.576 601.8V591.476H332.815Z" fill="url(#paint43_linear_517_867)"/>
<path d="M325.87 591.476V601.28C327.021 601.357 328.268 601.434 329.63 601.511V591.476H325.87Z" fill="url(#paint44_linear_517_867)"/>
<path d="M319.021 591.476V600.491C319.904 600.683 321.189 600.857 322.782 601.011V591.476H319.021Z" fill="url(#paint45_linear_517_867)"/>
</g>
<path d="M352.308 593.653C371.496 593.653 387.052 592.678 387.052 591.476C387.052 590.274 371.496 589.3 352.308 589.3C333.119 589.3 317.563 590.274 317.563 591.476C317.563 592.678 333.119 593.653 352.308 593.653Z" fill="url(#paint46_linear_517_867)"/>
<path d="M319.078 581.826V590.205C319.078 590.417 319.596 590.629 320.536 590.84C321.419 591.033 322.704 591.206 324.296 591.361C325.217 591.457 326.253 591.534 327.385 591.63C328.536 591.707 329.783 591.784 331.145 591.861C332.162 591.919 333.237 591.958 334.349 592.015C335.558 592.073 336.805 592.112 338.11 592.15C339.107 592.189 340.143 592.208 341.198 592.247C342.426 592.266 343.673 592.304 344.959 592.324C346.071 592.343 347.223 592.362 348.374 592.362C349.602 592.381 350.849 592.381 352.134 592.381C352.71 592.381 353.285 592.381 353.861 592.381C354.321 592.381 354.762 592.381 355.223 592.381C356.489 592.381 357.736 592.362 358.983 592.362C360.192 592.343 361.381 592.343 362.551 592.324C363.837 592.304 365.084 592.285 366.312 592.247C367.367 592.227 368.403 592.189 369.4 592.169C370.705 592.131 371.952 592.073 373.161 592.035C374.35 591.977 375.501 591.938 376.576 591.881C377.919 591.804 379.185 591.726 380.336 591.649C381.468 591.572 382.504 591.476 383.425 591.38C385.017 591.226 386.283 591.052 387.185 590.86C388.125 590.667 388.643 590.455 388.643 590.224V581.845H319.078V581.826Z" fill="url(#paint47_radial_517_867)"/>
<g opacity="0.7">
<path d="M369.341 581.826V592.17C370.645 592.131 371.892 592.073 373.101 592.035V581.826H369.341Z" fill="url(#paint48_linear_517_867)"/>
<path d="M362.492 581.826V592.324C363.778 592.305 365.025 592.285 366.252 592.247V581.826H362.492Z" fill="url(#paint49_linear_517_867)"/>
<path d="M355.184 581.826V592.382C356.45 592.382 357.697 592.362 358.944 592.362V581.826H355.184V581.826Z" fill="url(#paint50_linear_517_867)"/>
<path d="M348.335 581.826V592.362C349.563 592.382 350.81 592.382 352.095 592.382V581.826H348.335V581.826Z" fill="url(#paint51_linear_517_867)"/>
<path d="M341.159 581.826V592.247C342.387 592.266 343.634 592.305 344.919 592.324V581.826H341.159Z" fill="url(#paint52_linear_517_867)"/>
<path d="M334.33 581.826V592.016C335.539 592.073 336.786 592.112 338.09 592.15V581.826H334.33Z" fill="url(#paint53_linear_517_867)"/>
<path d="M327.366 581.826V591.63C328.517 591.707 329.764 591.784 331.126 591.861V581.826H327.366Z" fill="url(#paint54_linear_517_867)"/>
<path d="M320.536 581.826V590.84C321.419 591.033 322.704 591.206 324.296 591.361V581.826H320.536Z" fill="url(#paint55_linear_517_867)"/>
</g>
<path d="M353.822 584.003C373.011 584.003 388.566 583.028 388.566 581.826C388.566 580.624 373.011 579.65 353.822 579.65C334.634 579.65 319.078 580.624 319.078 581.826C319.078 583.028 334.634 584.003 353.822 584.003Z" fill="url(#paint56_linear_517_867)"/>
<path d="M317.198 572.928V581.306C317.198 581.518 317.716 581.73 318.656 581.942C319.539 582.135 320.824 582.308 322.417 582.462C323.337 582.558 324.373 582.635 325.505 582.732C326.656 582.809 327.903 582.886 329.266 582.963C330.282 583.021 331.357 583.059 332.47 583.117C333.678 583.175 334.925 583.213 336.23 583.252C337.227 583.29 338.263 583.31 339.319 583.348C340.546 583.367 341.793 583.406 343.079 583.425C344.192 583.444 345.343 583.464 346.494 583.464C347.722 583.483 348.969 583.483 350.254 583.483C350.83 583.483 351.405 583.483 351.981 583.483C352.441 583.483 352.882 583.483 353.343 583.483C354.609 583.483 355.856 583.464 357.103 583.464C358.312 583.444 359.501 583.444 360.672 583.425C361.957 583.406 363.204 583.387 364.432 583.348C365.487 583.329 366.523 583.29 367.521 583.271C368.825 583.233 370.072 583.175 371.281 583.136C372.47 583.078 373.621 583.04 374.696 582.982C376.039 582.905 377.305 582.828 378.456 582.751C379.588 582.674 380.624 582.578 381.545 582.481C383.137 582.327 384.403 582.154 385.305 581.961C386.245 581.769 386.763 581.557 386.763 581.326V572.947H317.198V572.928Z" fill="url(#paint57_radial_517_867)"/>
<g opacity="0.7">
<path d="M374.638 572.928V582.963C375.981 582.886 377.247 582.809 378.398 582.732V572.928H374.638V572.928Z" fill="url(#paint58_linear_517_867)"/>
<path d="M367.463 572.928V583.271C368.767 583.233 370.015 583.175 371.223 583.136V572.928H367.463V572.928Z" fill="url(#paint59_linear_517_867)"/>
<path d="M360.633 572.928V583.425C361.918 583.406 363.165 583.387 364.393 583.348V572.928H360.633V572.928Z" fill="url(#paint60_linear_517_867)"/>
<path d="M353.304 572.928V583.483C354.57 583.483 355.817 583.464 357.064 583.464V572.928H353.304Z" fill="url(#paint61_linear_517_867)"/>
<path d="M346.475 572.928V583.464C347.702 583.483 348.949 583.483 350.235 583.483V572.928H346.475Z" fill="url(#paint62_linear_517_867)"/>
<path d="M339.299 572.928V583.348C340.527 583.368 341.774 583.406 343.059 583.425V572.928H339.299V572.928Z" fill="url(#paint63_linear_517_867)"/>
<path d="M332.45 572.928V583.117C333.659 583.175 334.906 583.213 336.21 583.252V572.928H332.45V572.928Z" fill="url(#paint64_linear_517_867)"/>
<path d="M325.505 572.928V582.732C326.656 582.809 327.903 582.886 329.265 582.963V572.928H325.505V572.928Z" fill="url(#paint65_linear_517_867)"/>
<path d="M318.656 572.928V581.942C319.539 582.135 320.824 582.308 322.416 582.462V572.928H318.656V572.928Z" fill="url(#paint66_linear_517_867)"/>
</g>
<path d="M351.942 575.104C371.131 575.104 386.686 574.13 386.686 572.928C386.686 571.726 371.131 570.751 351.942 570.751C332.754 570.751 317.198 571.726 317.198 572.928C317.198 574.13 332.754 575.104 351.942 575.104Z" fill="url(#paint67_linear_517_867)"/>
<path d="M318.56 563.759V572.138C318.56 572.35 319.078 572.562 320.018 572.774C320.9 572.966 322.186 573.14 323.778 573.294C324.699 573.39 325.735 573.467 326.867 573.563C328.018 573.64 329.265 573.717 330.627 573.794C331.644 573.852 332.718 573.891 333.831 573.948C335.039 574.006 336.287 574.045 337.591 574.083C338.589 574.122 339.625 574.141 340.68 574.18C341.908 574.199 343.155 574.237 344.44 574.257C345.553 574.276 346.704 574.295 347.855 574.295C349.083 574.314 350.33 574.314 351.615 574.314C352.191 574.314 352.766 574.314 353.342 574.314C353.802 574.314 354.244 574.314 354.704 574.314C355.97 574.314 357.217 574.295 358.464 574.295C359.673 574.276 360.863 574.276 362.033 574.257C363.318 574.237 364.565 574.218 365.793 574.18C366.848 574.16 367.884 574.122 368.882 574.103C370.186 574.064 371.434 574.006 372.642 573.968C373.832 573.91 374.983 573.871 376.057 573.814C377.4 573.737 378.666 573.66 379.817 573.583C380.949 573.505 381.985 573.409 382.906 573.313C384.499 573.159 385.765 572.985 386.666 572.793C387.607 572.6 388.124 572.388 388.124 572.157V563.779H318.56V563.759Z" fill="url(#paint68_radial_517_867)"/>
<g opacity="0.7">
<path d="M368.823 563.759V574.103C370.128 574.064 371.375 574.006 372.583 573.968V563.759H368.823Z" fill="url(#paint69_linear_517_867)"/>
<path d="M361.993 563.759V574.257C363.279 574.237 364.526 574.218 365.753 574.18V563.759H361.993Z" fill="url(#paint70_linear_517_867)"/>
<path d="M354.663 563.76V574.315C355.929 574.315 357.176 574.295 358.423 574.295V563.76H354.663Z" fill="url(#paint71_linear_517_867)"/>
<path d="M347.814 563.76V574.295C349.042 574.315 350.289 574.315 351.575 574.315V563.76H347.814Z" fill="url(#paint72_linear_517_867)"/>
<path d="M340.658 563.759V574.18C341.886 574.199 343.133 574.237 344.418 574.257V563.759H340.658Z" fill="url(#paint73_linear_517_867)"/>
<path d="M333.81 563.759V573.948C335.018 574.006 336.265 574.045 337.57 574.083V563.759H333.81V563.759Z" fill="url(#paint74_linear_517_867)"/>
<path d="M326.847 563.759V573.563C327.998 573.64 329.245 573.717 330.607 573.794V563.759H326.847V563.759Z" fill="url(#paint75_linear_517_867)"/>
<path d="M320.017 563.759V572.774C320.899 572.966 322.185 573.14 323.777 573.294V563.759H320.017Z" fill="url(#paint76_linear_517_867)"/>
</g>
<path d="M388.066 561.583H318.559V565.936H388.066V561.583Z" fill="#FFB048"/>
<path d="M322.568 562.893C322.645 564.068 323.029 565.204 323.681 566.283V566.148H388.238V561.41H322.683V561.14C322.568 561.718 322.53 562.315 322.568 562.893Z" fill="#FFB048"/>
<path d="M323.029 562.873C323.106 564.048 323.489 565.166 324.142 566.244V566.148H388.258V561.41H323.144V561.14C323.029 561.698 322.991 562.276 323.029 562.873Z" fill="#FFB149"/>
<path d="M323.47 562.835C323.547 563.99 323.931 565.107 324.564 566.167V566.148H388.239V561.409H323.586V561.12C323.47 561.679 323.432 562.257 323.47 562.835Z" fill="#FFB14A"/>
<path d="M323.931 562.815C324.008 563.971 324.373 565.069 325.025 566.109C325.178 566.379 325.37 566.629 325.562 566.879V566.148H388.259V561.409H324.046V561.12C323.931 561.66 323.893 562.238 323.931 562.815Z" fill="#FFB24B"/>
<path d="M324.392 562.777C324.468 563.913 324.833 564.992 325.466 566.032C325.62 566.283 325.792 566.552 325.984 566.803V566.148H388.239V561.41H324.488V561.101C324.392 561.641 324.353 562.218 324.392 562.777Z" fill="#FFB34C"/>
<path d="M324.832 562.758C324.909 563.875 325.273 564.954 325.887 565.974C326.194 566.494 326.578 566.976 327.019 567.458V566.148H388.239V561.409H324.928V561.082C324.832 561.621 324.794 562.18 324.832 562.758Z" fill="#FFB34D"/>
<path d="M325.292 562.719C325.369 563.836 325.733 564.896 326.347 565.897C326.654 566.398 327.038 566.899 327.46 567.38V566.148H388.238V561.409H325.388V561.082C325.292 561.602 325.254 562.161 325.292 562.719Z" fill="#FFB44E"/>
<path d="M325.753 562.681C325.829 563.779 326.175 564.838 326.789 565.84C327.096 566.34 327.46 566.822 327.901 567.303V566.148H388.257V561.409H325.868V561.063C325.753 561.583 325.714 562.141 325.753 562.681Z" fill="#FFB54F"/>
<path d="M326.194 562.662C326.271 563.74 326.616 564.78 327.23 565.782C327.537 566.283 327.902 566.764 328.324 567.227V566.148H388.239V561.41H326.29V561.044C326.194 561.583 326.156 562.122 326.194 562.662Z" fill="#FFB550"/>
<path d="M326.654 562.623C326.731 563.702 327.076 564.723 327.671 565.705C327.978 566.186 328.323 566.668 328.746 567.13V566.148H388.238V561.41H326.75V561.044C326.654 561.564 326.616 562.084 326.654 562.623Z" fill="#FFB651"/>
<path d="M327.115 562.604C327.192 563.663 327.537 564.684 328.113 565.647C328.401 566.129 328.765 566.591 329.187 567.053V566.148H388.258V561.41H327.211V561.024C327.115 561.544 327.077 562.065 327.115 562.604Z" fill="#FFB652"/>
<path d="M327.557 562.565C327.633 563.605 327.96 564.626 328.554 565.57C328.842 566.052 329.207 566.514 329.609 566.957V566.148H388.239V561.41H327.653V561.024C327.557 561.525 327.518 562.045 327.557 562.565Z" fill="#FFB753"/>
<path d="M328.017 562.546C328.093 563.586 328.42 564.588 328.995 565.532C329.283 566.013 329.628 566.456 330.031 566.899V566.148H388.239V561.41H328.113V561.005C328.017 561.506 327.978 562.026 328.017 562.546Z" fill="#FFB854"/>
<path d="M328.478 562.507C328.554 563.528 328.88 564.51 329.456 565.454C329.744 565.916 330.089 566.379 330.492 566.822V566.148H388.258V561.409H328.574V560.986C328.478 561.486 328.439 561.987 328.478 562.507Z" fill="#FFB855"/>
<path d="M328.919 562.469C328.977 563.49 329.322 564.453 329.878 565.377C330.166 565.839 330.492 566.282 330.895 566.725V566.148H388.239V561.409H329.015V560.986C328.919 561.467 328.881 561.968 328.919 562.469Z" fill="#FFB956"/>
<path d="M329.38 562.45C329.437 563.451 329.764 564.414 330.32 565.32C330.608 565.782 330.934 566.225 331.337 566.649V566.148H388.259V561.41H329.476V560.947C329.38 561.448 329.342 561.949 329.38 562.45Z" fill="#FFBA57"/>
<path d="M329.82 562.411C329.878 563.393 330.204 564.357 330.76 565.243C331.029 565.686 331.374 566.129 331.758 566.552V566.148H388.239V561.41H329.916V560.947C329.82 561.429 329.801 561.93 329.82 562.411Z" fill="#FFBA58"/>
<path d="M330.281 562.392C330.338 563.374 330.664 564.299 331.202 565.185C331.47 565.628 331.796 566.071 332.18 566.475V566.148H388.239V561.41H330.357V560.947C330.281 561.41 330.242 561.891 330.281 562.392Z" fill="#FFBB59"/>
<path d="M330.741 562.353C330.798 563.316 331.124 564.241 331.661 565.127C331.93 565.57 332.256 565.994 332.64 566.398V566.148H388.257V561.41H330.817V560.928C330.741 561.39 330.702 561.872 330.741 562.353Z" fill="#FFBC5A"/>
<path d="M331.182 562.334C331.24 563.278 331.547 564.202 332.084 565.069C332.353 565.493 332.679 565.917 333.043 566.34V566.148H388.239V561.41H331.278V560.928C331.182 561.371 331.163 561.853 331.182 562.334Z" fill="#FFBC5B"/>
<path d="M331.643 562.296C331.758 564.183 332.871 565.897 334.732 567.419V566.148H388.239V561.409H331.72V560.909C331.643 561.352 331.605 561.833 331.643 562.296Z" fill="#FFBD5C"/>
<path d="M332.104 562.276C332.219 564.125 333.312 565.84 335.154 567.323V566.148H388.258V561.409H332.199V560.889C332.104 561.332 332.065 561.795 332.104 562.276Z" fill="#FFBE5D"/>
<path d="M332.545 562.238C332.66 564.068 333.734 565.743 335.557 567.226V566.148H388.239V561.409H332.622V560.889C332.545 561.332 332.526 561.775 332.545 562.238Z" fill="#FFBE5E"/>
<path d="M333.005 562.199C333.12 564.01 334.176 565.666 335.979 567.111V566.148H388.239V561.409H333.082V560.87C333.005 561.313 332.967 561.756 333.005 562.199Z" fill="#FFBF5F"/>
<path d="M333.465 562.18C333.58 563.971 334.616 565.589 336.4 567.034V566.148H388.257V561.409H333.561V560.87C333.465 561.294 333.427 561.737 333.465 562.18Z" fill="#FFC060"/>
<path d="M333.906 562.141C334.021 563.894 335.038 565.512 336.803 566.918V566.148H388.238V561.409H333.983V560.851C333.906 561.275 333.887 561.698 333.906 562.141Z" fill="#FFC061"/>
<path d="M334.367 562.122C334.482 563.856 335.499 565.454 337.226 566.841V566.148H388.258V561.409H334.463V560.832C334.367 561.255 334.329 561.679 334.367 562.122Z" fill="#FFC162"/>
<path d="M334.828 562.084C334.943 563.798 335.94 565.358 337.648 566.725V566.148H388.258V561.409H334.904V560.832C334.828 561.236 334.789 561.66 334.828 562.084Z" fill="#FFC163"/>
<path d="M335.268 562.064C335.384 563.74 336.362 565.3 338.05 566.649V566.148H388.257V561.41H335.364V560.812C335.268 561.217 335.249 561.641 335.268 562.064Z" fill="#FFC264"/>
<path d="M335.729 562.026C335.844 563.682 336.803 565.204 338.453 566.552V566.148H388.238V561.41H335.806V560.793C335.729 561.198 335.691 561.602 335.729 562.026Z" fill="#FFC365"/>
<path d="M336.189 561.987C336.305 563.625 337.245 565.127 338.875 566.437V566.148H388.258V561.41H336.266V560.793C336.17 561.178 336.151 561.583 336.189 561.987Z" fill="#FFC366"/>
<path d="M336.631 561.968C336.746 563.586 337.667 565.05 339.278 566.36V566.148H388.239V561.41H336.708V560.755C336.631 561.159 336.612 561.564 336.631 561.968Z" fill="#FFC467"/>
<path d="M337.092 561.93C337.188 563.509 338.128 564.973 339.701 566.244V566.148H388.239V561.41H337.149V560.755C337.092 561.14 337.053 561.544 337.092 561.93Z" fill="#FFC568"/>
<path d="M337.533 561.91C337.629 563.47 338.55 564.915 340.104 566.167V566.148H387.625V566.629C388.259 566.321 388.872 566.013 389.448 565.705H388.239V561.41H337.61V560.755C337.533 561.121 337.514 561.525 337.533 561.91Z" fill="#FFC569"/>
<path d="M337.994 561.872C338.089 563.413 338.991 564.819 340.526 566.051C340.91 566.36 341.332 566.668 341.792 566.937V566.148H387.299V566.514C387.932 566.225 388.527 565.917 389.083 565.608H388.239V561.409H338.051V560.735C337.994 561.101 337.974 561.487 337.994 561.872Z" fill="#FFC66A"/>
<path d="M338.454 561.852C338.55 563.374 339.432 564.761 340.948 565.974C341.332 566.283 341.735 566.571 342.195 566.86V566.148H386.973V566.417C387.587 566.128 388.182 565.82 388.738 565.512H388.239V561.39H338.511V560.716C338.454 561.082 338.416 561.467 338.454 561.852Z" fill="#FFC76B"/>
<path d="M338.895 561.814C338.991 563.297 339.854 564.665 341.35 565.859C341.715 566.167 342.137 566.456 342.578 566.726V566.148H386.646V566.321C387.26 566.032 387.836 565.743 388.373 565.435H388.239V561.409H338.971V560.716C338.895 561.082 338.875 561.448 338.895 561.814Z" fill="#FFC76C"/>
<path d="M339.355 561.795C339.451 563.259 340.314 564.607 341.772 565.782C342.501 566.379 343.383 566.918 344.4 567.419V566.148H386.32V566.205C387.528 565.647 388.603 565.05 389.543 564.414H388.257V561.39H339.431V560.697C339.355 561.063 339.335 561.429 339.355 561.795Z" fill="#FFC86D"/>
<path d="M339.815 561.756C339.911 563.201 340.756 564.511 342.194 565.686C342.904 566.264 343.787 566.803 344.784 567.284V566.148H384.152V566.899C384.804 566.649 385.418 566.379 386.013 566.09C387.183 565.532 388.258 564.954 389.179 564.337H388.277V561.39H339.911V560.678C339.815 561.044 339.777 561.39 339.815 561.756Z" fill="#FFC96E"/>
<path d="M340.257 561.718C340.352 563.143 341.177 564.433 342.578 565.57C343.288 566.148 344.132 566.668 345.11 567.149V566.148H383.807V566.783C384.44 566.533 385.054 566.263 385.629 565.994C386.78 565.454 387.835 564.876 388.737 564.26H388.219V561.39H340.295V560.658C340.257 561.024 340.237 561.371 340.257 561.718Z" fill="#FFC96F"/>
<path d="M340.717 561.699C340.813 563.085 341.619 564.376 343 565.493C343.691 566.052 344.535 566.572 345.494 567.053V566.148H381.581V567.381C382.924 566.918 384.19 566.437 385.322 565.898C386.454 565.358 387.49 564.8 388.373 564.203H388.238V561.41H340.775V560.678C340.717 561.005 340.698 561.352 340.717 561.699Z" fill="#FFCA70"/>
<path d="M341.178 561.66C341.274 563.028 342.06 564.279 343.422 565.377C344.113 565.936 344.919 566.437 345.878 566.899V566.129H381.332V567.226C382.656 566.783 383.884 566.283 385.016 565.763C386.148 565.243 387.145 564.684 388.028 564.087C388.469 563.798 388.872 563.49 389.256 563.182H388.277V561.352H341.274V560.601C341.178 560.986 341.139 561.333 341.178 561.66Z" fill="#FFCA71"/>
<path d="M341.619 561.641C341.715 562.989 342.483 564.222 343.826 565.3C344.497 565.839 345.303 566.34 346.243 566.803V566.148H381.064V567.13C382.368 566.687 383.577 566.205 384.671 565.705C385.764 565.185 386.762 564.645 387.625 564.067C388.047 563.779 388.45 563.49 388.815 563.181H388.239V561.409H341.677V560.639C341.62 560.966 341.6 561.294 341.619 561.641Z" fill="#FFCB72"/>
<path d="M342.079 561.602C342.175 562.912 342.943 564.125 344.247 565.185C344.9 565.724 345.705 566.205 346.607 566.648V566.148H380.795V566.995C382.08 566.571 383.27 566.09 384.344 565.589C386.512 564.587 388.239 563.432 389.39 562.199H388.239V561.39H342.137V560.62C342.079 560.947 342.06 561.275 342.079 561.602Z" fill="#FFCC73"/>
<path d="M342.54 561.583C342.617 562.873 343.384 564.068 344.669 565.108C345.322 565.628 346.089 566.109 346.991 566.552V566.148H380.545V566.861C381.812 566.437 382.963 565.974 384.037 565.474C386.147 564.472 387.855 563.355 388.987 562.161H388.258V561.39H342.597V560.601C342.54 560.928 342.501 561.255 342.54 561.583Z" fill="#FFCC74"/>
<path d="M342.982 561.544C343.059 562.815 343.807 563.971 345.073 564.992C345.706 565.493 346.473 565.974 347.356 566.417V566.148H380.278V566.725C381.505 566.321 382.656 565.859 383.692 565.377C385.764 564.395 387.434 563.297 388.546 562.122H388.239V561.409H343.039V560.62C342.982 560.909 342.963 561.236 342.982 561.544Z" fill="#FFCD75"/>
<path d="M343.442 561.506C343.614 563.99 346.339 566.071 350.636 567.438V566.148H380.008V566.61C381.217 566.205 382.349 565.762 383.366 565.281C385.399 564.318 387.03 563.239 388.143 562.084C388.699 561.506 389.102 560.909 389.371 560.292L388.258 561.39H343.499V560.581C343.442 560.889 343.423 561.198 343.442 561.506Z" fill="#FFCE76"/>
<path d="M343.882 561.487C344.036 563.933 346.722 565.975 350.942 567.304V566.148H379.739V566.475C380.928 566.071 382.022 565.647 383.02 565.166C385.015 564.222 386.626 563.162 387.701 562.026C388.238 561.467 388.641 560.87 388.909 560.273L388.238 561.39H343.94V560.562C343.882 560.87 343.863 561.178 343.882 561.487Z" fill="#FFCE77"/>
<path d="M344.343 561.448C344.496 563.836 347.125 565.839 351.249 567.149V566.148H375.749V567.4C378.377 566.783 380.737 565.994 382.694 565.069C384.651 564.144 386.224 563.104 387.279 562.006C387.816 561.448 388.2 560.87 388.468 560.292L388.257 561.409H344.42V560.562C344.343 560.851 344.324 561.159 344.343 561.448Z" fill="#FFCF79"/>
<path d="M344.804 561.429C344.957 563.779 347.528 565.724 351.576 567.014V566.148H375.577V567.246C378.147 566.648 380.45 565.859 382.387 564.973C384.306 564.067 385.841 563.047 386.877 561.968C387.395 561.429 387.778 560.87 388.047 560.292V561.409H344.881V560.562C344.804 560.832 344.785 561.14 344.804 561.429Z" fill="#FFD07A"/>
<path d="M345.245 561.39C345.399 563.682 347.912 565.609 351.884 566.861V566.148H375.385V567.092C377.918 566.495 380.162 565.743 382.042 564.857C383.923 563.971 385.419 562.97 386.436 561.91C386.935 561.371 387.318 560.832 387.568 560.273V561.41H345.303V560.562C345.245 560.813 345.226 561.101 345.245 561.39Z" fill="#FFD07B"/>
<path d="M345.706 561.371C345.859 563.625 348.315 565.493 352.19 566.706V566.129H375.174V566.918C377.649 566.34 379.855 565.589 381.697 564.742C383.539 563.875 385.016 562.912 385.994 561.853C386.493 561.333 386.858 560.793 387.107 560.254V561.39H345.687V561.371H345.706Z" fill="#FFD17C"/>
<path d="M346.166 561.333C346.319 563.528 348.718 565.358 352.516 566.552V566.148H375.001V566.783C377.418 566.225 379.586 565.493 381.371 564.645C383.174 563.798 384.613 562.854 385.572 561.833C386.052 561.333 386.416 560.793 386.666 560.254V561.39H346.166V561.333Z" fill="#FFD27D"/>
<path d="M346.607 561.313C346.742 563.471 349.121 565.262 352.823 566.418V566.148H374.809V566.629C377.169 566.071 379.28 565.358 381.045 564.549C382.81 563.721 384.21 562.796 385.15 561.795C385.63 561.294 385.975 560.774 386.225 560.254V561.39H346.607V561.313Z" fill="#FFD27E"/>
<path d="M347.068 561.275C347.203 563.374 349.524 565.127 353.131 566.263V566.148H374.618V566.495C376.92 565.955 378.992 565.262 380.719 564.453C382.446 563.644 383.808 562.739 384.748 561.756C385.208 561.275 385.573 560.774 385.784 560.254V561.41H347.068V561.275Z" fill="#FFD37F"/>
<path d="M347.528 561.236C347.663 563.278 349.926 564.992 353.456 566.109C355.222 566.668 357.313 567.072 359.615 567.304V566.148H367.078V567.419C372.335 567.072 377.054 565.917 380.411 564.357C382.1 563.567 383.443 562.681 384.344 561.718C384.805 561.236 385.15 560.755 385.361 560.254V561.41H347.547V561.236H347.528Z" fill="#FFD480"/>
<path d="M347.97 561.217C348.104 563.22 350.31 564.896 353.764 565.974C355.49 566.514 357.524 566.918 359.769 567.13V566.148H367.04V567.226C372.181 566.88 376.767 565.763 380.047 564.222C381.678 563.451 383.002 562.585 383.884 561.66C384.325 561.198 384.671 560.716 384.882 560.235V561.39H347.97V561.217Z" fill="#FFD481"/>
<path d="M348.431 561.178C348.565 563.124 350.714 564.761 354.071 565.82C357.448 566.88 362.033 567.381 367.04 567.034C372.047 566.706 376.537 565.608 379.741 564.106C381.333 563.355 382.618 562.507 383.482 561.602C383.904 561.14 384.249 560.678 384.46 560.196V561.371H348.45V561.178H348.431Z" fill="#FFD582"/>
<path d="M348.891 561.159C349.025 563.066 351.116 564.665 354.397 565.686C357.677 566.706 362.148 567.207 367.04 566.88C371.932 566.552 376.306 565.493 379.414 564.029C380.968 563.297 382.215 562.469 383.059 561.583C383.481 561.14 383.807 560.678 383.999 560.215V561.39H348.891V561.159Z" fill="#FFD583"/>
<path d="M349.331 561.121C349.58 564.838 357.485 567.323 367.02 566.687C371.778 566.379 376.037 565.339 379.087 563.913C380.603 563.201 381.831 562.392 382.636 561.525C383.039 561.101 383.365 560.658 383.557 560.196V561.371H349.35V561.121H349.331Z" fill="#FFD684"/>
<path d="M349.792 561.101C350.022 564.722 357.734 567.149 367.001 566.533C371.643 566.225 375.787 565.223 378.742 563.836C380.219 563.143 381.409 562.353 382.195 561.525C382.598 561.101 382.905 560.678 383.097 560.235V561.429H349.772V561.101H349.792Z" fill="#FFD785"/>
<path d="M350.252 561.063C350.482 564.568 357.984 566.937 367 566.34C371.509 566.032 375.538 565.05 378.435 563.702C379.874 563.027 381.025 562.257 381.792 561.448C382.176 561.044 382.483 560.62 382.675 560.196V561.39H350.252V561.063Z" fill="#FFD786"/>
<path d="M350.693 561.024C350.924 564.434 358.214 566.745 366.981 566.167C371.375 565.878 375.289 564.915 378.09 563.605C379.49 562.95 380.603 562.199 381.37 561.41C381.754 561.005 382.042 560.601 382.214 560.196V561.39H350.693V561.024Z" fill="#FFD887"/>
<path d="M351.154 561.005C351.365 564.318 358.464 566.552 366.982 565.994C371.241 565.705 375.059 564.78 377.764 563.509C379.126 562.873 380.22 562.142 380.949 561.371V561.39H351.154V561.005Z" fill="#FFD988"/>
<path d="M351.596 560.967C351.807 564.183 358.675 566.36 366.944 565.801C371.069 565.531 374.771 564.626 377.419 563.393C378.743 562.777 379.798 562.084 380.508 561.333V561.39H351.596V560.967Z" fill="#FFD989"/>
<path d="M352.056 560.947C352.267 564.068 358.924 566.167 366.943 565.647C370.953 565.377 374.541 564.511 377.092 563.316C378.378 562.719 379.394 562.045 380.085 561.313V561.41H352.056V560.947Z" fill="#FFDA8A"/>
<path d="M352.517 560.909C352.708 563.933 359.174 565.974 366.944 565.454C370.819 565.204 374.311 564.356 376.786 563.182C378.033 562.604 379.011 561.949 379.683 561.236V561.371H352.517V560.909Z" fill="#FFDB8B"/>
<path d="M352.958 560.889C353.15 563.817 359.404 565.782 366.925 565.281C370.685 565.031 374.042 564.222 376.441 563.085C377.649 562.527 378.608 561.891 379.242 561.198V561.39H352.958V560.889Z" fill="#FFDB8C"/>
<path d="M353.418 560.851C353.61 563.682 359.653 565.589 366.905 565.108C370.531 564.857 373.792 564.067 376.114 562.989C377.265 562.45 378.205 561.833 378.819 561.178V561.409H353.418V560.851Z" fill="#FFDC8D"/>
<path d="M353.878 560.812C354.05 563.548 359.883 565.377 366.904 564.915C370.415 564.684 373.542 563.914 375.787 562.873C376.9 562.353 377.801 561.756 378.396 561.121V561.39H353.858V560.812H353.878Z" fill="#FFDD8E"/>
<path d="M354.319 560.793C354.492 563.432 360.113 565.204 366.886 564.761C370.262 564.53 373.293 563.798 375.461 562.796C376.536 562.296 377.399 561.718 377.994 561.101V561.41H354.339V560.793H354.319Z" fill="#FFDD8F"/>
<path d="M354.779 560.755C354.952 563.297 360.362 564.992 366.885 564.568C370.147 564.356 373.063 563.644 375.135 562.662C376.171 562.18 377.015 561.621 377.571 561.024V561.371H354.799V560.755H354.779Z" fill="#FFDE90"/>
<path d="M355.24 560.735C355.394 563.182 360.612 564.819 366.866 564.395C369.994 564.183 372.795 563.509 374.809 562.565C375.807 562.103 376.612 561.564 377.15 561.005V561.39H355.24V560.735Z" fill="#FFDF91"/>
<path d="M355.682 560.697C355.835 563.047 360.842 564.607 366.847 564.222C369.859 564.029 372.545 563.374 374.464 562.469C375.423 562.026 376.19 561.506 376.708 560.966V561.39H355.682V560.697V560.697Z" fill="#FFDF92"/>
<path d="M356.143 560.678C356.296 562.931 361.073 564.434 366.848 564.048C369.726 563.856 372.316 563.22 374.138 562.373C375.059 561.949 375.788 561.448 376.287 560.928V561.39H356.143V560.678Z" fill="#FFE093"/>
<path d="M356.603 560.639C356.737 562.796 361.322 564.241 366.847 563.875C369.61 563.701 372.066 563.085 373.831 562.276C374.713 561.872 375.423 561.39 375.884 560.889V561.409H356.603V560.639Z" fill="#FFE094"/>
<path d="M357.044 560.62C357.178 562.661 361.552 564.048 366.809 563.701C369.437 563.528 371.797 562.95 373.466 562.161C374.31 561.775 374.982 561.313 375.423 560.851V561.409H357.024V560.62H357.044Z" fill="#FFE195"/>
<path d="M357.505 560.581C357.639 562.526 361.802 563.855 366.81 563.509C369.323 563.335 371.548 562.796 373.16 562.045C373.966 561.679 374.599 561.236 375.021 560.793V561.39H357.505V560.581V560.581Z" fill="#FFE296"/>
<path d="M357.945 560.543C358.06 562.392 362.032 563.644 366.79 563.336C369.169 563.182 371.298 562.661 372.814 561.949C373.581 561.602 374.176 561.198 374.598 560.755V561.39H357.945V560.543Z" fill="#FFE297"/>
<path d="M358.406 560.523C358.521 562.276 362.262 563.47 366.79 563.162C369.054 563.008 371.068 562.527 372.507 561.852C373.236 561.525 373.812 561.14 374.196 560.716V561.39H358.425V560.523H358.406Z" fill="#FFE398"/>
<path d="M358.867 560.485C358.982 562.142 362.512 563.259 366.771 562.97C368.901 562.835 370.8 562.373 372.162 561.737C372.834 561.41 373.39 561.063 373.755 560.678V561.39H358.867V560.485Z" fill="#FFE499"/>
<path d="M359.308 560.466C359.404 562.026 362.742 563.085 366.751 562.816C368.747 562.681 370.55 562.238 371.835 561.641C372.469 561.333 372.987 561.005 373.332 560.639V561.39H359.308V560.466V560.466Z" fill="#FFE49A"/>
<path d="M359.768 560.427C359.864 561.891 362.991 562.873 366.751 562.623C368.631 562.507 370.319 562.084 371.509 561.525C372.104 561.236 372.583 560.928 372.909 560.581V561.371H359.768V560.427V560.427Z" fill="#FFE59B"/>
<path d="M360.229 560.408C360.324 561.776 363.241 562.7 366.751 562.469C368.497 562.353 370.07 561.968 371.202 561.448C371.759 561.178 372.219 560.889 372.507 560.562V561.41H360.248V560.408H360.229Z" fill="#FFE69C"/>
<path d="M360.67 560.369C360.747 561.641 363.471 562.488 366.713 562.276C368.344 562.161 369.802 561.814 370.838 561.332V561.39H360.67V560.369Z" fill="#FFE69D"/>
<path d="M361.13 560.331C361.207 561.506 363.701 562.295 366.713 562.084C368.209 561.987 369.552 561.66 370.531 561.198V561.371H361.13V560.331Z" fill="#FFE79E"/>
<path d="M361.591 560.312C361.668 561.39 363.951 562.103 366.713 561.929C368.095 561.833 369.322 561.544 370.205 561.12V561.39H361.591V560.312V560.312Z" fill="#FFE89F"/>
<path d="M362.032 560.273C362.09 561.256 364.181 561.91 366.694 561.737C367.941 561.66 369.073 561.39 369.86 561.005V561.39H362.032V560.273Z" fill="#FFE8A0"/>
<path d="M362.492 560.254C362.55 561.14 364.43 561.718 366.674 561.583C367.806 561.506 368.804 561.255 369.533 560.928V561.41H362.492V560.254V560.254Z" fill="#FFE9A1"/>
<path d="M362.953 560.215C363.011 561.005 364.68 561.525 366.675 561.39H362.953V560.215Z" fill="#FFE9A2"/>
<path d="M406.121 583.868H345.592V584.715H406.121V583.868Z" fill="#A1D6EB"/>
<path d="M406.121 584.715H345.592V585.563H406.121V584.715Z" fill="#6DB1C6"/>
<path d="M406.121 585.563H345.592V586.41H406.121V585.563Z" fill="#A1D6EB"/>
<path d="M406.121 586.43H345.592V587.277H406.121V586.43Z" fill="#6DB1C6"/>
<path d="M406.121 587.277H345.592V588.125H406.121V587.277Z" fill="#A1D6EB"/>
<path d="M406.121 588.125H345.592V588.972H406.121V588.125Z" fill="#6DB1C6"/>
<path d="M406.121 588.972H345.592V589.82H406.121V588.972Z" fill="#A1D6EB"/>
<path d="M406.121 589.839H345.592V590.686H406.121V589.839Z" fill="#6DB1C6"/>
<path d="M406.121 590.687H345.592V591.534H406.121V590.687Z" fill="#A1D6EB"/>
<path d="M406.121 591.534H345.592V592.381H406.121V591.534Z" fill="#6DB1C6"/>
<path d="M406.121 592.401H345.592V593.248H406.121V592.401Z" fill="#A1D6EB"/>
<path d="M406.121 593.248H345.592V594.096H406.121V593.248Z" fill="#6DB1C6"/>
<path d="M406.121 594.096H345.592V594.943H406.121V594.096Z" fill="#A1D6EB"/>
<path d="M406.121 594.962H345.592V595.81H406.121V594.962Z" fill="#6DB1C6"/>
<path d="M406.121 595.81H345.592V596.658H406.121V595.81Z" fill="#A1D6EB"/>
<path d="M406.121 596.657H345.592V597.505H406.121V596.657Z" fill="#6DB1C6"/>
<path d="M372.105 583.868H361.707V597.524H372.105V583.868Z" fill="url(#paint77_linear_517_867)"/>
<path d="M363.434 583.868H363.031V597.524H363.434V583.868Z" fill="url(#paint78_linear_517_867)"/>
<path d="M370.552 583.868H370.149V597.524H370.552V583.868Z" fill="url(#paint79_linear_517_867)"/>
<path opacity="0.15" d="M375.309 583.868H372.105V597.524H375.309V583.868Z" fill="#000707"/>
<path d="M404.739 597.37H344.21V598.218H404.739V597.37Z" fill="#A1D6EB"/>
<path d="M404.739 598.218H344.21V599.065H404.739V598.218Z" fill="#6DB1C6"/>
<path d="M404.739 599.084H344.21V599.932H404.739V599.084Z" fill="#A1D6EB"/>
<path d="M404.739 599.932H344.21V600.779H404.739V599.932Z" fill="#6DB1C6"/>
<path d="M404.739 600.779H344.21V601.627H404.739V600.779Z" fill="#A1D6EB"/>
<path d="M404.739 601.646H344.21V602.493H404.739V601.646Z" fill="#6DB1C6"/>
<path d="M404.739 602.494H344.21V603.341H404.739V602.494Z" fill="#A1D6EB"/>
<path d="M404.739 603.341H344.21V604.189H404.739V603.341Z" fill="#6DB1C6"/>
<path d="M404.739 604.208H344.21V605.056H404.739V604.208Z" fill="#A1D6EB"/>
<path d="M404.739 605.055H344.21V605.903H404.739V605.055Z" fill="#6DB1C6"/>
<path d="M404.739 605.903H344.21V606.75H404.739V605.903Z" fill="#A1D6EB"/>
<path d="M404.739 606.77H344.21V607.617H404.739V606.77Z" fill="#6DB1C6"/>
<path d="M404.739 607.617H344.21V608.465H404.739V607.617Z" fill="#A1D6EB"/>
<path d="M404.739 608.465H344.21V609.312H404.739V608.465Z" fill="#6DB1C6"/>
<path d="M404.739 609.332H344.21V610.179H404.739V609.332Z" fill="#A1D6EB"/>
<path d="M404.739 610.179H344.21V611.026H404.739V610.179Z" fill="#6DB1C6"/>
<path d="M370.723 597.37H360.325V611.026H370.723V597.37Z" fill="url(#paint80_linear_517_867)"/>
<path d="M362.051 597.37H361.648V611.026H362.051V597.37Z" fill="url(#paint81_linear_517_867)"/>
<path d="M369.151 597.37H368.748V611.026H369.151V597.37Z" fill="url(#paint82_linear_517_867)"/>
<path opacity="0.15" d="M373.928 597.37H370.724V611.026H373.928V597.37Z" fill="#000707"/>
<path d="M364.757 504.053C364.757 504.053 365.973 509.267 364.912 510.199C363.851 511.109 359.917 510.998 359.917 510.998L359.873 507.825L364.757 504.053Z" fill="url(#paint83_linear_517_867)"/>
<path d="M364.757 504.053L359.585 504.897C359.232 504.475 336.977 477.605 302.367 479.402L296.268 474.01L286.146 465.046C286.146 465.024 346.966 460.964 364.757 504.053Z" fill="url(#paint84_linear_517_867)"/>
<path opacity="0.22" d="M359.585 504.896C359.232 504.475 336.977 477.605 302.367 479.402L296.268 474.01C296.268 474.01 341.242 470.593 359.585 504.896Z" fill="url(#paint85_linear_517_867)"/>
<path d="M277.129 491.65C277.129 491.65 290.036 504.897 284.931 513.018C279.803 521.138 274.632 525.332 274.632 525.332L274.676 532.61L280.113 530.879C280.113 530.879 291.981 517.966 290.345 509.8C288.688 501.613 286.654 497.441 280.798 493.203C274.941 488.988 277.129 491.65 277.129 491.65Z" fill="url(#paint86_linear_517_867)"/>
<path d="M219.137 545.39C219.137 545.39 217.634 542.838 213.678 542.838C209.722 542.838 209.722 542.838 209.722 542.838C209.722 542.838 209.325 545.168 213.082 544.347C213.082 544.347 205.457 545.59 204.131 545.789C202.827 546.011 203.711 547.343 204.352 547.232C204.352 547.232 202.186 547.343 203.269 548.896C203.269 548.896 203.822 549.251 204.485 549.14C204.485 549.14 203.799 549.561 204.308 550.205C204.838 550.848 204.838 550.848 204.838 550.848C204.838 550.848 204.882 551.647 205.545 551.625C206.208 551.603 214.872 551.004 219.69 548.94C224.508 546.854 219.137 545.39 219.137 545.39Z" fill="url(#paint87_linear_517_867)"/>
<path d="M315.252 537.18L302.08 572.748C302.08 572.748 335.076 580.026 345.972 607.983L339.717 609.004L298.102 587.282C291.803 583.998 288.223 577.119 289.151 570.063L291.98 547.986L315.252 537.18Z" fill="url(#paint88_linear_517_867)"/>
<path d="M257.349 463.937L274.322 470.128L270.388 480.778L257.128 470.594L257.349 463.937Z" fill="url(#paint89_linear_517_867)"/>
<path opacity="0.19" d="M259.404 466.866C259.404 466.866 262.322 469.417 266.454 477.76L259.979 472.99L259.404 466.866Z" fill="url(#paint90_linear_517_867)"/>
<path d="M252.575 468.042L255.978 475.453C255.978 475.453 261.835 473.456 260.818 470.438C259.802 467.421 256.73 463.027 256.73 463.027C256.73 463.027 249.746 461.896 252.575 468.042Z" fill="url(#paint91_linear_517_867)"/>
<path d="M254.689 472.722L255.921 476.576C255.921 476.576 262.587 473.456 261.57 470.438C260.553 467.421 258.65 466.352 258.65 466.352C258.65 466.352 260.738 471.972 254.689 472.722Z" fill="#252264"/>
<path d="M286.145 465.024C286.145 465.024 271.736 463.604 262.962 489.01C262.962 489.01 298.411 498.484 302.08 510.244L323.495 507.781C323.495 507.781 296.444 467.243 286.145 465.024Z" fill="url(#paint92_linear_517_867)"/>
<path d="M302.08 510.244C302.08 510.244 272.532 550.338 261.57 582.933C250.608 615.528 248.022 623.804 248.022 623.804L256.178 622.495C256.178 622.495 281.947 591.72 283.936 569.243C283.936 569.243 336.491 525.953 323.496 507.781L302.08 510.244Z" fill="url(#paint93_linear_517_867)"/>
<path d="M280.643 495.023C276.576 511.398 265.349 523.624 253.547 532.321C236.663 544.791 218.607 550.072 218.607 550.072L217.479 542.972C257.747 527.773 262.94 489.01 262.94 489.01C265.217 488.211 269.062 489.387 272.598 490.896C276.863 492.715 280.643 495.023 280.643 495.023Z" fill="url(#paint94_linear_517_867)"/>
<path d="M302.08 510.244C302.08 510.244 311.694 536.027 322.346 535.428C332.999 534.829 339.43 530.568 339.43 530.568L320.821 503.854L302.08 510.244Z" fill="url(#paint95_linear_517_867)"/>
<path d="M248.023 623.804C248.023 623.804 246.387 628.352 237.326 629.373L237.68 631.636L250.741 629.528L252.31 626.2L252.796 629.195L256.664 628.574L256.178 622.495L248.023 623.804Z" fill="url(#paint96_linear_517_867)"/>
<path d="M339.717 608.982C339.717 608.982 336.159 613.819 327.12 614.862L327.474 617.125L340.535 615.017L342.104 611.689L342.59 614.684L346.458 614.063L345.972 607.983L339.717 608.982Z" fill="url(#paint97_linear_517_867)"/>
<path d="M266.211 479.824C266.211 479.824 266.631 466.577 278.653 467.021C278.653 467.021 270.587 473.811 266.078 481.421L266.211 479.824Z" fill="url(#paint98_linear_517_867)"/>
<path d="M256.09 464.137C256.09 464.137 252.023 467.62 249.791 466.777C247.559 465.956 247.338 465.002 247.338 465.002C247.338 465.002 252.974 460.653 255.626 461.274C255.626 461.274 257.548 461.186 260.001 463.493C262.455 465.801 262.897 465.956 262.897 465.956C262.897 465.956 259.891 469.329 256.09 464.137Z" fill="url(#paint99_linear_517_867)"/>
<path d="M259.404 466.866L257.349 463.937C257.349 463.937 258.741 463.36 259.735 465.18C260.73 467.021 259.404 466.866 259.404 466.866Z" fill="url(#paint100_linear_517_867)"/>
<path opacity="0.22" d="M280.643 495.023C276.577 511.397 265.349 523.623 253.548 532.321C277.571 507.359 272.598 490.896 272.598 490.896C276.864 492.715 280.643 495.023 280.643 495.023Z" fill="url(#paint101_linear_517_867)"/>
<path d="M354.127 516.079C354.127 516.079 355.762 510.555 362.083 509.955C368.404 509.356 370.459 513.439 370.459 513.439L372.36 513.128C372.36 513.128 369.818 508.003 362.061 508.691C354.304 509.379 352.403 514.881 351.784 517.078L354.127 516.079Z" fill="url(#paint102_linear_517_867)"/>
<path d="M341.152 519.541L379.85 508.469L384.027 534.474C384.027 534.474 344.777 543.904 344.931 543.038C345.042 542.151 341.152 519.541 341.152 519.541Z" fill="url(#paint103_linear_517_867)"/>
<path d="M388.468 536.138L350.433 544.37L344.908 543.016L384.004 534.474L388.468 536.138Z" fill="url(#paint104_linear_517_867)"/>
<path fill-rule="evenodd" clip-rule="evenodd" d="M350.272 539.422L355.361 527.437L357.898 528.117L362.45 518.214L371.602 527.204L373.123 525.869L379.368 533.196L373.064 529.07L371.113 530.631L365.686 525.387L364.966 526.498L362.323 523.582L358.963 530.36L356.216 529.566L350.272 539.422Z" fill="white"/>
<path fill-rule="evenodd" clip-rule="evenodd" d="M355.768 520.52C356.198 521.412 357.011 521.982 358.051 521.998C357.16 522.428 356.589 523.241 356.573 524.281C356.143 523.39 355.33 522.82 354.29 522.803C355.161 522.404 355.757 521.586 355.768 520.52Z" fill="white"/>
<path fill-rule="evenodd" clip-rule="evenodd" d="M351.605 519.073C351.888 519.65 352.423 520.04 353.117 520.051C352.539 520.334 352.149 520.869 352.138 521.563C351.855 520.986 351.32 520.595 350.626 520.584C351.204 520.301 351.594 519.766 351.605 519.073Z" fill="white"/>
<path fill-rule="evenodd" clip-rule="evenodd" d="M351.505 525.312C351.699 525.723 352.075 525.988 352.585 526.011C352.175 526.206 351.909 526.581 351.886 527.091C351.692 526.681 351.316 526.416 350.806 526.392C351.211 526.173 351.476 525.797 351.505 525.312Z" fill="white"/>
<path d="M365.419 508.158C365.419 508.158 364.071 506.405 359.872 507.848C358.413 508.336 358.436 511.597 358.436 511.597C358.436 511.597 366.082 512.263 365.419 508.158Z" fill="url(#paint105_linear_517_867)"/>
<path d="M359.585 504.896L358.061 509.356L362.061 508.713C362.061 508.713 361.685 506.339 359.873 507.847C359.873 507.847 364.669 506.427 364.757 504.075L359.585 504.896Z" fill="url(#paint106_linear_517_867)"/>
<path d="M253.567 470.451L259.404 470.786L259.267 471.46L254.424 472.313L253.567 470.451Z" fill="#252264"/>
</g>
<defs>
<linearGradient id="paint0_linear_517_867" x1="177.454" y1="638.59" x2="229.616" y2="721.066" gradientUnits="userSpaceOnUse">
<stop stop-color="#240087"/>
<stop offset="1" stop-color="#E87BF8"/>
</linearGradient>
<linearGradient id="paint1_linear_517_867" x1="237.495" y1="649.659" x2="330.374" y2="719.046" gradientUnits="userSpaceOnUse">
<stop stop-color="#240087"/>
<stop offset="1" stop-color="#E87BF8"/>
</linearGradient>
<linearGradient id="paint2_linear_517_867" x1="345.107" y1="643.858" x2="438.618" y2="782.862" gradientUnits="userSpaceOnUse">
<stop stop-color="#240087"/>
<stop offset="1" stop-color="#E87BF8"/>
</linearGradient>
<linearGradient id="paint3_linear_517_867" x1="473.998" y1="675.676" x2="339.898" y2="625.11" gradientUnits="userSpaceOnUse">
<stop stop-color="#A92B6D"/>
<stop offset="1" stop-color="#684ABA"/>
</linearGradient>
<linearGradient id="paint4_linear_517_867" x1="449.73" y1="645.934" x2="391.235" y2="623.878" gradientUnits="userSpaceOnUse">
<stop offset="0.00498992" stop-color="#231E5D"/>
<stop offset="1" stop-color="#2C327E"/>
</linearGradient>
<linearGradient id="paint5_linear_517_867" x1="230.7" y1="627.667" x2="366.44" y2="627.667" gradientUnits="userSpaceOnUse">
<stop offset="0.00498992" stop-color="#231E5D"/>
<stop offset="1" stop-color="#2C327E"/>
</linearGradient>
<linearGradient id="paint6_linear_517_867" x1="260.926" y1="643.889" x2="352.873" y2="786.917" gradientUnits="userSpaceOnUse">
<stop stop-color="#240087"/>
<stop offset="1" stop-color="#E87BF8"/>
</linearGradient>
<linearGradient id="paint7_linear_517_867" x1="93.7929" y1="736.566" x2="-148.94" y2="781.692" gradientUnits="userSpaceOnUse">
<stop stop-color="#9F307A"/>
<stop offset="1" stop-color="#684ABA"/>
</linearGradient>
<linearGradient id="paint8_linear_517_867" x1="106.927" y1="745.935" x2="119.228" y2="786.687" gradientUnits="userSpaceOnUse">
<stop stop-color="#240087"/>
<stop offset="1" stop-color="#E87BF8"/>
</linearGradient>
<linearGradient id="paint9_linear_517_867" x1="64.7073" y1="723.407" x2="132.767" y2="723.407" gradientUnits="userSpaceOnUse">
<stop offset="0.00498992" stop-color="#231E5D"/>
<stop offset="1" stop-color="#2C327E"/>
</linearGradient>
<linearGradient id="paint10_linear_517_867" x1="72.0337" y1="592.623" x2="-41.0148" y2="551.941" gradientUnits="userSpaceOnUse">
<stop stop-color="#31439A"/>
<stop offset="1" stop-color="#49BCBB"/>
</linearGradient>
<linearGradient id="paint11_linear_517_867" x1="52.2433" y1="583.998" x2="43.0404" y2="577.238" gradientUnits="userSpaceOnUse">
<stop offset="0.00498992" stop-color="#231E5D"/>
<stop offset="1" stop-color="#2C327E"/>
</linearGradient>
<linearGradient id="paint12_linear_517_867" x1="75.4197" y1="635.545" x2="19.9194" y2="601.116" gradientUnits="userSpaceOnUse">
<stop stop-color="#BF0000"/>
<stop offset="1" stop-color="#FF7B22"/>
</linearGradient>
<linearGradient id="paint13_linear_517_867" x1="49.7472" y1="617.457" x2="35.2743" y2="606.827" gradientUnits="userSpaceOnUse">
<stop offset="0.00498992" stop-color="#231E5D"/>
<stop offset="1" stop-color="#2C327E"/>
</linearGradient>
<linearGradient id="paint14_linear_517_867" x1="68.5205" y1="655.918" x2="-116.575" y2="789.338" gradientUnits="userSpaceOnUse">
<stop stop-color="#31439A"/>
<stop offset="1" stop-color="#49BCBB"/>
</linearGradient>
<linearGradient id="paint15_linear_517_867" x1="29.8554" y1="651.084" x2="188.703" y2="654.954" gradientUnits="userSpaceOnUse">
<stop stop-color="#31439A"/>
<stop offset="1" stop-color="#49BCBB"/>
</linearGradient>
<linearGradient id="paint16_linear_517_867" x1="62.3391" y1="668.784" x2="127.857" y2="620.749" gradientUnits="userSpaceOnUse">
<stop stop-color="#31439A"/>
<stop offset="1" stop-color="#49BCBB"/>
</linearGradient>
<linearGradient id="paint17_linear_517_867" x1="62.4981" y1="543.752" x2="75.1332" y2="546.657" gradientUnits="userSpaceOnUse">
<stop offset="0.00134137" stop-color="#FFF4DE"/>
<stop offset="1" stop-color="#D26666"/>
</linearGradient>
<linearGradient id="paint18_linear_517_867" x1="78.9225" y1="546.31" x2="73.6672" y2="542.45" gradientUnits="userSpaceOnUse">
<stop offset="0.00498992" stop-color="#231E5D"/>
<stop offset="1" stop-color="#2C327E"/>
</linearGradient>
<linearGradient id="paint19_linear_517_867" x1="82.4297" y1="535.098" x2="68.0729" y2="543.016" gradientUnits="userSpaceOnUse">
<stop offset="0.00134137" stop-color="#FFF4DE"/>
<stop offset="1" stop-color="#D26666"/>
</linearGradient>
<linearGradient id="paint20_linear_517_867" x1="68.3481" y1="538.258" x2="78.0618" y2="538.258" gradientUnits="userSpaceOnUse">
<stop offset="0.00498992" stop-color="#231E5D"/>
<stop offset="1" stop-color="#2C327E"/>
</linearGradient>
<linearGradient id="paint21_linear_517_867" x1="71.2117" y1="539.411" x2="73.2042" y2="539.411" gradientUnits="userSpaceOnUse">
<stop offset="0.00134137" stop-color="#FFF4DE"/>
<stop offset="1" stop-color="#D26666"/>
</linearGradient>
<linearGradient id="paint22_linear_517_867" x1="-1.50198" y1="664.175" x2="135.032" y2="500.108" gradientUnits="userSpaceOnUse">
<stop stop-color="#31439A"/>
<stop offset="1" stop-color="#49BCBB"/>
</linearGradient>
<linearGradient id="paint23_linear_517_867" x1="24.0003" y1="567.358" x2="150.441" y2="549.937" gradientUnits="userSpaceOnUse">
<stop stop-color="#31439A"/>
<stop offset="1" stop-color="#49BCBB"/>
</linearGradient>
<linearGradient id="paint24_linear_517_867" x1="106.274" y1="706.281" x2="125.584" y2="706.281" gradientUnits="userSpaceOnUse">
<stop offset="0.00498992" stop-color="#231E5D"/>
<stop offset="1" stop-color="#2C327E"/>
</linearGradient>
<linearGradient id="paint25_linear_517_867" x1="184.051" y1="531.644" x2="141.741" y2="548.84" gradientUnits="userSpaceOnUse">
<stop offset="0.00134137" stop-color="#FFF4DE"/>
<stop offset="1" stop-color="#D26666"/>
</linearGradient>
<radialGradient id="paint26_radial_517_867" cx="0" cy="0" r="1" gradientUnits="userSpaceOnUse" gradientTransform="translate(392.36 588.791) rotate(180) scale(74.3579 74.6534)">
<stop stop-color="#FFEEA9"/>
<stop offset="1" stop-color="#FFB048"/>
</radialGradient>
<linearGradient id="paint27_linear_517_867" x1="291.813" y1="629.657" x2="355.563" y2="611.619" gradientUnits="userSpaceOnUse">
<stop stop-color="#C45A12"/>
<stop offset="1" stop-color="#FFB048"/>
</linearGradient>
<linearGradient id="paint28_linear_517_867" x1="291.33" y1="627.948" x2="355.08" y2="609.911" gradientUnits="userSpaceOnUse">
<stop stop-color="#C45A12"/>
<stop offset="1" stop-color="#FFB048"/>
</linearGradient>
<linearGradient id="paint29_linear_517_867" x1="290.849" y1="626.245" x2="354.599" y2="608.208" gradientUnits="userSpaceOnUse">
<stop stop-color="#C45A12"/>
<stop offset="1" stop-color="#FFB048"/>
</linearGradient>
<linearGradient id="paint30_linear_517_867" x1="290.319" y1="624.369" x2="354.069" y2="606.331" gradientUnits="userSpaceOnUse">
<stop stop-color="#C45A12"/>
<stop offset="1" stop-color="#FFB048"/>
</linearGradient>
<linearGradient id="paint31_linear_517_867" x1="289.81" y1="622.573" x2="353.56" y2="604.535" gradientUnits="userSpaceOnUse">
<stop stop-color="#C45A12"/>
<stop offset="1" stop-color="#FFB048"/>
</linearGradient>
<linearGradient id="paint32_linear_517_867" x1="289.265" y1="620.647" x2="353.015" y2="602.61" gradientUnits="userSpaceOnUse">
<stop stop-color="#C45A12"/>
<stop offset="1" stop-color="#FFB048"/>
</linearGradient>
<linearGradient id="paint33_linear_517_867" x1="288.732" y1="618.767" x2="352.482" y2="600.729" gradientUnits="userSpaceOnUse">
<stop stop-color="#C45A12"/>
<stop offset="1" stop-color="#FFB048"/>
</linearGradient>
<linearGradient id="paint34_linear_517_867" x1="288.175" y1="616.797" x2="351.925" y2="598.759" gradientUnits="userSpaceOnUse">
<stop stop-color="#C45A12"/>
<stop offset="1" stop-color="#FFB048"/>
</linearGradient>
<linearGradient id="paint35_linear_517_867" x1="287.598" y1="614.759" x2="351.348" y2="596.721" gradientUnits="userSpaceOnUse">
<stop stop-color="#C45A12"/>
<stop offset="1" stop-color="#FFB048"/>
</linearGradient>
<linearGradient id="paint36_linear_517_867" x1="283.604" y1="612.688" x2="403.699" y2="591.872" gradientUnits="userSpaceOnUse">
<stop stop-color="#C45A12"/>
<stop offset="1" stop-color="#FFB048"/>
</linearGradient>
<radialGradient id="paint37_radial_517_867" cx="0" cy="0" r="1" gradientUnits="userSpaceOnUse" gradientTransform="translate(394.089 579.273) rotate(180) scale(74.3579 74.6534)">
<stop stop-color="#FFEEA9"/>
<stop offset="1" stop-color="#FFB048"/>
</radialGradient>
<linearGradient id="paint38_linear_517_867" x1="293.059" y1="618.43" x2="356.809" y2="600.392" gradientUnits="userSpaceOnUse">
<stop stop-color="#C45A12"/>
<stop offset="1" stop-color="#FFB048"/>
</linearGradient>
<linearGradient id="paint39_linear_517_867" x1="292.578" y1="616.726" x2="356.327" y2="598.689" gradientUnits="userSpaceOnUse">
<stop stop-color="#C45A12"/>
<stop offset="1" stop-color="#FFB048"/>
</linearGradient>
<linearGradient id="paint40_linear_517_867" x1="292.047" y1="614.85" x2="355.797" y2="596.813" gradientUnits="userSpaceOnUse">
<stop stop-color="#C45A12"/>
<stop offset="1" stop-color="#FFB048"/>
</linearGradient>
<linearGradient id="paint41_linear_517_867" x1="291.538" y1="613.054" x2="355.288" y2="595.017" gradientUnits="userSpaceOnUse">
<stop stop-color="#C45A12"/>
<stop offset="1" stop-color="#FFB048"/>
</linearGradient>
<linearGradient id="paint42_linear_517_867" x1="290.993" y1="611.129" x2="354.743" y2="593.091" gradientUnits="userSpaceOnUse">
<stop stop-color="#C45A12"/>
<stop offset="1" stop-color="#FFB048"/>
</linearGradient>
<linearGradient id="paint43_linear_517_867" x1="290.461" y1="609.248" x2="354.211" y2="591.211" gradientUnits="userSpaceOnUse">
<stop stop-color="#C45A12"/>
<stop offset="1" stop-color="#FFB048"/>
</linearGradient>
<linearGradient id="paint44_linear_517_867" x1="289.903" y1="607.278" x2="353.654" y2="589.241" gradientUnits="userSpaceOnUse">
<stop stop-color="#C45A12"/>
<stop offset="1" stop-color="#FFB048"/>
</linearGradient>
<linearGradient id="paint45_linear_517_867" x1="289.327" y1="605.24" x2="353.078" y2="587.203" gradientUnits="userSpaceOnUse">
<stop stop-color="#C45A12"/>
<stop offset="1" stop-color="#FFB048"/>
</linearGradient>
<linearGradient id="paint46_linear_517_867" x1="285.333" y1="603.17" x2="405.429" y2="582.353" gradientUnits="userSpaceOnUse">
<stop stop-color="#C45A12"/>
<stop offset="1" stop-color="#FFB048"/>
</linearGradient>
<radialGradient id="paint47_radial_517_867" cx="0" cy="0" r="1" gradientUnits="userSpaceOnUse" gradientTransform="translate(395.597 569.627) rotate(180) scale(74.3578 74.6534)">
<stop stop-color="#FFEEA9"/>
<stop offset="1" stop-color="#FFB048"/>
</radialGradient>
<linearGradient id="paint48_linear_517_867" x1="294.566" y1="608.784" x2="358.315" y2="590.747" gradientUnits="userSpaceOnUse">
<stop stop-color="#C45A12"/>
<stop offset="1" stop-color="#FFB048"/>
</linearGradient>
<linearGradient id="paint49_linear_517_867" x1="294.084" y1="607.08" x2="357.834" y2="589.043" gradientUnits="userSpaceOnUse">
<stop stop-color="#C45A12"/>
<stop offset="1" stop-color="#FFB048"/>
</linearGradient>
<linearGradient id="paint50_linear_517_867" x1="293.553" y1="605.204" x2="357.304" y2="587.167" gradientUnits="userSpaceOnUse">
<stop stop-color="#C45A12"/>
<stop offset="1" stop-color="#FFB048"/>
</linearGradient>
<linearGradient id="paint51_linear_517_867" x1="293.046" y1="603.409" x2="356.796" y2="585.372" gradientUnits="userSpaceOnUse">
<stop stop-color="#C45A12"/>
<stop offset="1" stop-color="#FFB048"/>
</linearGradient>
<linearGradient id="paint52_linear_517_867" x1="292.5" y1="601.483" x2="356.25" y2="583.445" gradientUnits="userSpaceOnUse">
<stop stop-color="#C45A12"/>
<stop offset="1" stop-color="#FFB048"/>
</linearGradient>
<linearGradient id="paint53_linear_517_867" x1="291.969" y1="599.603" x2="355.719" y2="581.565" gradientUnits="userSpaceOnUse">
<stop stop-color="#C45A12"/>
<stop offset="1" stop-color="#FFB048"/>
</linearGradient>
<linearGradient id="paint54_linear_517_867" x1="291.412" y1="597.632" x2="355.162" y2="579.595" gradientUnits="userSpaceOnUse">
<stop stop-color="#C45A12"/>
<stop offset="1" stop-color="#FFB048"/>
</linearGradient>
<linearGradient id="paint55_linear_517_867" x1="290.835" y1="595.594" x2="354.585" y2="577.557" gradientUnits="userSpaceOnUse">
<stop stop-color="#C45A12"/>
<stop offset="1" stop-color="#FFB048"/>
</linearGradient>
<linearGradient id="paint56_linear_517_867" x1="286.841" y1="593.524" x2="406.936" y2="572.708" gradientUnits="userSpaceOnUse">
<stop stop-color="#C45A12"/>
<stop offset="1" stop-color="#FFB048"/>
</linearGradient>
<radialGradient id="paint57_radial_517_867" cx="0" cy="0" r="1" gradientUnits="userSpaceOnUse" gradientTransform="translate(393.721 560.734) rotate(180) scale(74.3579 74.6534)">
<stop stop-color="#FFEEA9"/>
<stop offset="1" stop-color="#FFB048"/>
</radialGradient>
<linearGradient id="paint58_linear_517_867" x1="293.174" y1="601.6" x2="356.924" y2="583.562" gradientUnits="userSpaceOnUse">
<stop stop-color="#C45A12"/>
<stop offset="1" stop-color="#FFB048"/>
</linearGradient>
<linearGradient id="paint59_linear_517_867" x1="292.69" y1="599.891" x2="356.441" y2="581.854" gradientUnits="userSpaceOnUse">
<stop stop-color="#C45A12"/>
<stop offset="1" stop-color="#FFB048"/>
</linearGradient>
<linearGradient id="paint60_linear_517_867" x1="292.208" y1="598.188" x2="355.959" y2="580.15" gradientUnits="userSpaceOnUse">
<stop stop-color="#C45A12"/>
<stop offset="1" stop-color="#FFB048"/>
</linearGradient>
<linearGradient id="paint61_linear_517_867" x1="291.677" y1="596.312" x2="355.428" y2="578.274" gradientUnits="userSpaceOnUse">
<stop stop-color="#C45A12"/>
<stop offset="1" stop-color="#FFB048"/>
</linearGradient>
<linearGradient id="paint62_linear_517_867" x1="291.171" y1="594.516" x2="354.92" y2="576.479" gradientUnits="userSpaceOnUse">
<stop stop-color="#C45A12"/>
<stop offset="1" stop-color="#FFB048"/>
</linearGradient>
<linearGradient id="paint63_linear_517_867" x1="290.624" y1="592.591" x2="354.375" y2="574.553" gradientUnits="userSpaceOnUse">
<stop stop-color="#C45A12"/>
<stop offset="1" stop-color="#FFB048"/>
</linearGradient>
<linearGradient id="paint64_linear_517_867" x1="290.093" y1="590.71" x2="353.843" y2="572.673" gradientUnits="userSpaceOnUse">
<stop stop-color="#C45A12"/>
<stop offset="1" stop-color="#FFB048"/>
</linearGradient>
<linearGradient id="paint65_linear_517_867" x1="289.536" y1="588.74" x2="353.285" y2="570.703" gradientUnits="userSpaceOnUse">
<stop stop-color="#C45A12"/>
<stop offset="1" stop-color="#FFB048"/>
</linearGradient>
<linearGradient id="paint66_linear_517_867" x1="288.959" y1="586.702" x2="352.709" y2="568.665" gradientUnits="userSpaceOnUse">
<stop stop-color="#C45A12"/>
<stop offset="1" stop-color="#FFB048"/>
</linearGradient>
<linearGradient id="paint67_linear_517_867" x1="284.965" y1="584.631" x2="405.061" y2="563.815" gradientUnits="userSpaceOnUse">
<stop stop-color="#C45A12"/>
<stop offset="1" stop-color="#FFB048"/>
</linearGradient>
<radialGradient id="paint68_radial_517_867" cx="0" cy="0" r="1" gradientUnits="userSpaceOnUse" gradientTransform="translate(395.08 551.572) rotate(180) scale(74.3578 74.6534)">
<stop stop-color="#FFEEA9"/>
<stop offset="1" stop-color="#FFB048"/>
</radialGradient>
<linearGradient id="paint69_linear_517_867" x1="294.05" y1="590.729" x2="357.799" y2="572.692" gradientUnits="userSpaceOnUse">
<stop stop-color="#C45A12"/>
<stop offset="1" stop-color="#FFB048"/>
</linearGradient>
<linearGradient id="paint70_linear_517_867" x1="293.567" y1="589.026" x2="357.317" y2="570.988" gradientUnits="userSpaceOnUse">
<stop stop-color="#C45A12"/>
<stop offset="1" stop-color="#FFB048"/>
</linearGradient>
<linearGradient id="paint71_linear_517_867" x1="293.035" y1="587.15" x2="356.785" y2="569.113" gradientUnits="userSpaceOnUse">
<stop stop-color="#C45A12"/>
<stop offset="1" stop-color="#FFB048"/>
</linearGradient>
<linearGradient id="paint72_linear_517_867" x1="292.527" y1="585.355" x2="356.277" y2="567.317" gradientUnits="userSpaceOnUse">
<stop stop-color="#C45A12"/>
<stop offset="1" stop-color="#FFB048"/>
</linearGradient>
<linearGradient id="paint73_linear_517_867" x1="291.982" y1="583.429" x2="355.732" y2="565.391" gradientUnits="userSpaceOnUse">
<stop stop-color="#C45A12"/>
<stop offset="1" stop-color="#FFB048"/>
</linearGradient>
<linearGradient id="paint74_linear_517_867" x1="291.451" y1="581.548" x2="355.2" y2="563.511" gradientUnits="userSpaceOnUse">
<stop stop-color="#C45A12"/>
<stop offset="1" stop-color="#FFB048"/>
</linearGradient>
<linearGradient id="paint75_linear_517_867" x1="290.894" y1="579.578" x2="354.644" y2="561.541" gradientUnits="userSpaceOnUse">
<stop stop-color="#C45A12"/>
<stop offset="1" stop-color="#FFB048"/>
</linearGradient>
<linearGradient id="paint76_linear_517_867" x1="290.317" y1="577.54" x2="354.068" y2="559.503" gradientUnits="userSpaceOnUse">
<stop stop-color="#C45A12"/>
<stop offset="1" stop-color="#FFB048"/>
</linearGradient>
<linearGradient id="paint77_linear_517_867" x1="354.909" y1="571.074" x2="406.935" y2="655.515" gradientUnits="userSpaceOnUse">
<stop offset="0.00134137" stop-color="#FFF4DE"/>
<stop offset="1" stop-color="#D26666"/>
</linearGradient>
<linearGradient id="paint78_linear_517_867" x1="379.021" y1="614.81" x2="367.313" y2="597.058" gradientUnits="userSpaceOnUse">
<stop stop-color="#BF0000"/>
<stop offset="1" stop-color="#FF7B22"/>
</linearGradient>
<linearGradient id="paint79_linear_517_867" x1="386.132" y1="614.81" x2="374.424" y2="597.058" gradientUnits="userSpaceOnUse">
<stop stop-color="#BF0000"/>
<stop offset="1" stop-color="#FF7B22"/>
</linearGradient>
<linearGradient id="paint80_linear_517_867" x1="353.526" y1="584.587" x2="405.553" y2="669.028" gradientUnits="userSpaceOnUse">
<stop offset="0.00134137" stop-color="#FFF4DE"/>
<stop offset="1" stop-color="#D26666"/>
</linearGradient>
<linearGradient id="paint81_linear_517_867" x1="377.638" y1="628.323" x2="365.93" y2="610.571" gradientUnits="userSpaceOnUse">
<stop stop-color="#BF0000"/>
<stop offset="1" stop-color="#FF7B22"/>
</linearGradient>
<linearGradient id="paint82_linear_517_867" x1="384.749" y1="628.323" x2="373.041" y2="610.571" gradientUnits="userSpaceOnUse">
<stop stop-color="#BF0000"/>
<stop offset="1" stop-color="#FF7B22"/>
</linearGradient>
<linearGradient id="paint83_linear_517_867" x1="357.701" y1="499.926" x2="361.65" y2="506.344" gradientUnits="userSpaceOnUse">
<stop offset="0.00134137" stop-color="#FFF4DE"/>
<stop offset="1" stop-color="#D26666"/>
</linearGradient>
<linearGradient id="paint84_linear_517_867" x1="286.143" y1="484.912" x2="364.764" y2="484.912" gradientUnits="userSpaceOnUse">
<stop stop-color="#31439A"/>
<stop offset="1" stop-color="#49BCBB"/>
</linearGradient>
<linearGradient id="paint85_linear_517_867" x1="296.274" y1="489.398" x2="359.591" y2="489.398" gradientUnits="userSpaceOnUse">
<stop offset="0.00498992" stop-color="#231E5D"/>
<stop offset="1" stop-color="#2C327E"/>
</linearGradient>
<linearGradient id="paint86_linear_517_867" x1="274.62" y1="511.709" x2="290.495" y2="511.709" gradientUnits="userSpaceOnUse">
<stop stop-color="#BF0000"/>
<stop offset="1" stop-color="#FF7B22"/>
</linearGradient>
<linearGradient id="paint87_linear_517_867" x1="202.963" y1="547.209" x2="221.695" y2="547.209" gradientUnits="userSpaceOnUse">
<stop offset="0.00134137" stop-color="#FFF4DE"/>
<stop offset="1" stop-color="#D26666"/>
</linearGradient>
<linearGradient id="paint88_linear_517_867" x1="299.427" y1="573.083" x2="356.398" y2="573.083" gradientUnits="userSpaceOnUse">
<stop stop-color="#31439A"/>
<stop offset="1" stop-color="#49BCBB"/>
</linearGradient>
<linearGradient id="paint89_linear_517_867" x1="282.251" y1="476.326" x2="260.128" y2="471.59" gradientUnits="userSpaceOnUse">
<stop offset="0.00134137" stop-color="#FFF4DE"/>
<stop offset="1" stop-color="#D26666"/>
</linearGradient>
<linearGradient id="paint90_linear_517_867" x1="259.408" y1="472.321" x2="266.467" y2="472.321" gradientUnits="userSpaceOnUse">
<stop offset="0.00498992" stop-color="#231E5D"/>
<stop offset="1" stop-color="#2C327E"/>
</linearGradient>
<linearGradient id="paint91_linear_517_867" x1="251.894" y1="469.202" x2="260.937" y2="469.202" gradientUnits="userSpaceOnUse">
<stop offset="0.00134137" stop-color="#FFF4DE"/>
<stop offset="1" stop-color="#D26666"/>
</linearGradient>
<linearGradient id="paint92_linear_517_867" x1="262.953" y1="487.631" x2="323.491" y2="487.631" gradientUnits="userSpaceOnUse">
<stop stop-color="#31439A"/>
<stop offset="1" stop-color="#49BCBB"/>
</linearGradient>
<linearGradient id="paint93_linear_517_867" x1="257.87" y1="552.219" x2="311.689" y2="578.198" gradientUnits="userSpaceOnUse">
<stop stop-color="#31439A"/>
<stop offset="1" stop-color="#49BCBB"/>
</linearGradient>
<linearGradient id="paint94_linear_517_867" x1="295.547" y1="486.059" x2="179.939" y2="562" gradientUnits="userSpaceOnUse">
<stop stop-color="#31439A"/>
<stop offset="1" stop-color="#49BCBB"/>
</linearGradient>
<linearGradient id="paint95_linear_517_867" x1="348.357" y1="554.276" x2="307.659" y2="506.293" gradientUnits="userSpaceOnUse">
<stop stop-color="#31439A"/>
<stop offset="1" stop-color="#49BCBB"/>
</linearGradient>
<linearGradient id="paint96_linear_517_867" x1="237.326" y1="627.053" x2="256.665" y2="627.053" gradientUnits="userSpaceOnUse">
<stop offset="0.00498992" stop-color="#231E5D"/>
<stop offset="1" stop-color="#2C327E"/>
</linearGradient>
<linearGradient id="paint97_linear_517_867" x1="327.113" y1="612.553" x2="346.452" y2="612.553" gradientUnits="userSpaceOnUse">
<stop offset="0.00498992" stop-color="#231E5D"/>
<stop offset="1" stop-color="#2C327E"/>
</linearGradient>
<linearGradient id="paint98_linear_517_867" x1="271.121" y1="450.25" x2="271.538" y2="458.135" gradientUnits="userSpaceOnUse">
<stop stop-color="#31439A"/>
<stop offset="1" stop-color="#49BCBB"/>
</linearGradient>
<linearGradient id="paint99_linear_517_867" x1="247.349" y1="464.132" x2="262.912" y2="464.132" gradientUnits="userSpaceOnUse">
<stop offset="0.00498992" stop-color="#231E5D"/>
<stop offset="1" stop-color="#2C327E"/>
</linearGradient>
<linearGradient id="paint100_linear_517_867" x1="257.341" y1="465.363" x2="260.102" y2="465.363" gradientUnits="userSpaceOnUse">
<stop offset="0.00134137" stop-color="#FFF4DE"/>
<stop offset="1" stop-color="#D26666"/>
</linearGradient>
<linearGradient id="paint101_linear_517_867" x1="253.563" y1="511.608" x2="280.65" y2="511.608" gradientUnits="userSpaceOnUse">
<stop offset="0.00498992" stop-color="#231E5D"/>
<stop offset="1" stop-color="#2C327E"/>
</linearGradient>
<linearGradient id="paint102_linear_517_867" x1="351.779" y1="512.859" x2="372.36" y2="512.859" gradientUnits="userSpaceOnUse">
<stop stop-color="#BF0000"/>
<stop offset="1" stop-color="#FF7B22"/>
</linearGradient>
<linearGradient id="paint103_linear_517_867" x1="341.145" y1="525.769" x2="384.011" y2="525.769" gradientUnits="userSpaceOnUse">
<stop stop-color="#BF0000"/>
<stop offset="1" stop-color="#FF7B22"/>
</linearGradient>
<linearGradient id="paint104_linear_517_867" x1="344.908" y1="539.422" x2="388.464" y2="539.422" gradientUnits="userSpaceOnUse">
<stop stop-color="#BF0000"/>
<stop offset="1" stop-color="#FF7B22"/>
</linearGradient>
<linearGradient id="paint105_linear_517_867" x1="358.432" y1="509.448" x2="365.46" y2="509.448" gradientUnits="userSpaceOnUse">
<stop offset="0.00134137" stop-color="#FFF4DE"/>
<stop offset="1" stop-color="#D26666"/>
</linearGradient>
<linearGradient id="paint106_linear_517_867" x1="365.177" y1="514.695" x2="351.239" y2="485.272" gradientUnits="userSpaceOnUse">
<stop offset="0.00134137" stop-color="#FFF4DE"/>
<stop offset="1" stop-color="#D26666"/>
</linearGradient>
</defs>
</svg>
