<svg width="1920" height="692" viewBox="0 0 1920 692" fill="none" xmlns="http://www.w3.org/2000/svg">
<mask id="mask0_1107_2" style="mask-type:alpha" maskUnits="userSpaceOnUse" x="0" y="101" width="1920" height="589">
<rect y="101.694" width="1920" height="588.019" fill="url(#paint0_linear_1107_2)"/>
</mask>
<g mask="url(#mask0_1107_2)">
<rect y="-130.005" width="1920" height="819.717" fill="url(#paint1_linear_1107_2)"/>
<g style="mix-blend-mode:soft-light" opacity="0.2">
<path d="M1682.06 29.8886C1895.41 2.6832 2037.64 88.595 2097.3 157.324L1988.48 797.368L6.78027 688.546C864.467 677.091 843.726 423.635 1156.57 463.743C1374.3 491.659 1341.03 73.3764 1682.06 29.8886Z" fill="white"/>
</g>
<g style="mix-blend-mode:soft-light" opacity="0.2">
<path d="M1408.06 -188.243C1690.9 -184.317 1875.99 -232.744 1954.5 -145.579V782.538L-147.371 765.789C-285.651 667.377 -383.511 525.911 -185.664 450.052C367.458 712.483 339.681 170.256 648.472 153.756C917.053 139.404 678.194 -198.372 1408.06 -188.243Z" fill="white"/>
</g>
<g style="mix-blend-mode:overlay" opacity="0.2">
<path fill-rule="evenodd" clip-rule="evenodd" d="M156.549 159.225C165.227 194.902 190.297 221.901 227.903 230.579C192.226 239.257 165.227 264.328 156.549 301.933C147.871 266.256 122.8 239.257 85.1948 230.579C119.908 222.865 147.871 197.795 156.549 159.225Z" fill="white"/>
</g>
<g style="mix-blend-mode:overlay">
<path fill-rule="evenodd" clip-rule="evenodd" d="M925.825 170.936C928.586 181.978 936.407 190.719 948.369 193.48C937.327 196.24 928.586 204.061 925.825 216.023C923.065 204.981 915.244 196.24 903.282 193.48C914.323 190.719 923.065 182.898 925.825 170.936Z" fill="white"/>
</g>
<g style="mix-blend-mode:overlay">
<path fill-rule="evenodd" clip-rule="evenodd" d="M1739.29 475.188C1746.07 504.01 1766.41 526.05 1798.63 534.528C1769.81 541.309 1747.77 561.654 1739.29 593.867C1732.51 565.045 1712.16 543.005 1679.95 534.528C1708.77 526.05 1730.81 505.705 1739.29 475.188Z" fill="white"/>
</g>
<path fill-rule="evenodd" clip-rule="evenodd" d="M1832.72 173.866C1835.43 185.026 1843.27 193.472 1855.03 196.186C1843.87 198.901 1835.43 206.743 1832.72 218.506C1830 207.346 1822.16 198.901 1810.4 196.186C1821.25 193.773 1830 185.931 1832.72 173.866Z" fill="white"/>
<path fill-rule="evenodd" clip-rule="evenodd" d="M261.161 573.397C263.65 583.632 270.843 591.378 281.631 593.867C271.396 596.357 263.65 603.549 261.161 614.338C258.671 604.103 251.479 596.357 240.69 593.867C250.649 591.654 258.671 584.462 261.161 573.397Z" fill="white"/>
</g>
<path d="M499.009 334.237C499.009 334.237 460.171 376.761 414.011 346.02L399.513 326.479C399.513 326.479 453.431 347.086 458.328 335.013C463.177 322.94 401.259 323.134 384.773 308.588C368.288 293.993 359.996 279.495 359.996 279.495C359.996 279.495 441.309 312.951 435.733 297.533C430.157 282.114 374.3 281.823 349.571 255.494C324.843 229.117 321.449 221.505 321.449 221.505C321.449 221.505 396.943 255.543 395.877 241.336C394.81 227.129 336.286 227.759 320.431 199.2C304.527 170.641 314.661 118.906 314.661 118.906C314.661 118.906 345.208 184.218 363.002 178.06C380.797 171.902 311.994 121.233 318.491 92.48C324.94 63.6785 338.031 47.1929 338.031 47.1929C338.031 47.1929 425.212 254.524 499.009 334.237Z" fill="url(#paint2_linear_1107_2)"/>
<path d="M499.009 334.237C499.009 334.237 543.569 332.395 556.321 260.828L541.387 229.311C541.387 229.311 531.447 304.563 499.058 292.926C466.62 281.192 526.744 225.868 522.428 194.206C518.113 162.544 502.209 154.689 502.209 154.689C502.209 154.689 479.808 263.01 457.213 252.488C434.618 241.966 516.852 164.435 479.469 126.954C442.037 89.4738 432.969 88.7949 432.969 88.7949C432.969 88.7949 428.121 202.498 411.975 185.479C395.828 168.459 427.975 89.9586 411.975 77.4974C395.925 65.0362 338.031 47.1929 338.031 47.1929C338.031 47.1929 398.01 244.536 499.009 334.237Z" fill="url(#paint3_linear_1107_2)"/>
<path d="M588.297 690.762H381.801V551.394H569.961L588.297 690.762Z" fill="url(#paint4_linear_1107_2)"/>
<path d="M677.24 243.678L670.812 229.398C665.964 218.544 670.812 205.793 681.666 200.893L800.221 147.78C811.075 142.932 823.827 147.78 828.727 158.634L835.155 172.914C840.003 183.768 835.155 196.519 824.301 201.419L705.693 254.532C694.839 259.432 682.088 254.585 677.24 243.678Z" fill="url(#paint5_linear_1107_2)"/>
<path d="M712.543 187.088V249.316C712.543 249.316 739.995 238.093 739.363 237.302C738.73 236.512 738.73 175.337 738.73 175.337L712.543 187.088Z" fill="url(#paint6_linear_1107_2)"/>
<path d="M455.305 364.551L566.588 279.033L647.311 507.186C647.311 507.186 609.426 595.338 485.022 595.338L455.305 364.551Z" fill="url(#paint7_linear_1107_2)"/>
<path opacity="0.13" d="M489.765 503.761C489.765 503.761 489.449 516.776 557.368 516.091C625.287 515.406 642.517 516.091 642.517 516.091L647.312 507.186L489.765 503.761Z" fill="#1B1E4C"/>
<path d="M712.543 44.4001V466.298C712.543 488.428 694.628 506.343 672.497 506.343H504.097C481.966 506.343 464.051 488.428 464.051 466.298V44.4001C464.051 22.2698 481.966 4.35486 504.097 4.35486H672.445C694.575 4.35486 712.543 22.2698 712.543 44.4001Z" fill="white"/>
<path d="M672.445 506.659H504.097C481.861 506.659 463.788 488.586 463.788 466.351V44.4001C463.788 22.1645 481.861 4.09143 504.097 4.09143H672.445C694.681 4.09143 712.754 22.1645 712.754 44.4001V466.298C712.806 488.586 694.681 506.659 672.445 506.659ZM504.097 4.61834C482.177 4.61834 464.315 22.4806 464.315 44.4001V466.298C464.315 476.942 468.478 486.9 475.96 494.435C483.495 501.97 493.453 506.08 504.097 506.08H672.445C683.089 506.08 693.047 501.917 700.582 494.435C708.117 486.9 712.227 476.942 712.227 466.298V44.4001C712.227 22.4806 694.364 4.61834 672.445 4.61834H504.097Z" fill="#5B71A8"/>
<path d="M704.35 49.6692V472.199C704.35 489.64 690.228 503.761 672.788 503.761H503.807C486.366 503.761 472.245 489.64 472.245 472.199V49.6692C472.245 32.2284 486.366 18.1072 503.807 18.1072H672.788C690.228 18.1072 704.35 32.2284 704.35 49.6692Z" fill="url(#paint8_linear_1107_2)"/>
<path fill-rule="evenodd" clip-rule="evenodd" d="M487.283 256.443L536.878 185.839L552.377 193.76L595.6 135.899L642.44 206.848L654.15 200.304L684.458 256.443L649.328 220.969L634.518 228.373L606.621 186.872L600.422 193.071L587.334 170.513L556.165 209.775L539.461 200.821L487.283 256.443Z" fill="white"/>
<path fill-rule="evenodd" clip-rule="evenodd" d="M549.105 141.582C550.655 147.954 555.132 152.776 561.848 154.325C555.476 155.875 550.655 160.353 549.105 167.069C547.555 160.697 543.078 155.875 536.362 154.325C542.561 152.948 547.555 148.47 549.105 141.582Z" fill="white"/>
<path fill-rule="evenodd" clip-rule="evenodd" d="M524.135 126.428C525.168 130.561 528.096 133.833 532.573 134.866C528.44 135.899 525.168 138.827 524.135 143.304C523.102 139.171 520.174 135.899 515.697 134.866C519.83 133.833 523.102 130.906 524.135 126.428Z" fill="white"/>
<path fill-rule="evenodd" clip-rule="evenodd" d="M514.836 166.724C515.525 169.652 517.591 171.89 520.863 172.751C517.936 173.44 515.697 175.507 514.836 178.778C514.147 175.851 512.081 173.612 508.809 172.751C511.736 171.89 513.975 169.824 514.836 166.724Z" fill="white"/>
<path opacity="0.13" d="M712.543 273.343V462.451L696.262 469.723C683.721 475.361 668.968 469.723 663.33 457.182L659.641 448.963C654.003 436.422 659.641 421.669 672.182 416.083L680.823 412.237C670.917 412.658 661.275 407.126 657.007 397.536L653.318 389.316C648.155 377.83 652.423 364.551 662.803 358.018C652.95 358.386 643.465 352.854 639.145 343.317L635.456 335.097C629.818 322.557 635.456 307.803 647.997 302.218L712.543 273.343Z" fill="#1B1E4C"/>
<path opacity="0.13" d="M487.183 219.335C487.183 219.335 511.895 218.755 507.1 255.375C502.358 291.996 462.26 347.69 462.26 347.69L458.888 309.753L487.183 219.335Z" fill="#1B1E4C"/>
<path d="M672.445 432.734L666.017 418.454C661.169 407.6 666.017 394.849 676.871 389.948L770.872 347.796C781.726 342.948 794.478 347.796 799.378 358.65L805.806 372.929C810.654 383.784 805.806 396.535 794.952 401.435L700.951 443.588C690.097 448.488 677.345 443.588 672.445 432.734Z" fill="url(#paint9_linear_1107_2)"/>
<path d="M708.591 431.733L704.059 433.788C693.099 438.688 680.243 433.788 675.343 422.88C670.442 411.921 675.343 399.064 686.302 394.164L690.834 392.109L708.591 431.733Z" fill="url(#paint10_linear_1107_2)"/>
<path d="M666.122 373.034L659.693 358.755C654.846 347.901 659.694 335.15 670.548 330.249L764.549 288.096C775.403 283.249 788.154 288.096 793.055 298.951L799.483 313.23C804.331 324.084 799.483 336.836 788.629 341.736L694.628 383.889C683.773 388.789 671.022 383.941 666.122 373.034Z" fill="url(#paint11_linear_1107_2)"/>
<path d="M702.268 372.086L697.736 374.141C686.777 379.041 673.92 374.141 669.02 363.234C664.12 352.274 669.02 339.418 679.98 334.517L684.511 332.462L702.268 372.086Z" fill="url(#paint12_linear_1107_2)"/>
<path d="M648.313 318.868L641.884 304.589C637.037 293.734 641.884 280.983 652.739 276.083L746.74 233.93C757.594 229.082 770.345 233.93 775.246 244.784L781.674 259.064C786.522 269.918 781.674 282.669 770.82 287.57L676.819 329.723C665.964 334.623 653.16 329.723 648.313 318.868Z" fill="url(#paint13_linear_1107_2)"/>
<path d="M684.458 317.867L679.927 319.922C668.967 324.822 656.111 319.922 651.21 309.015C646.31 298.055 651.21 285.198 662.17 280.298L666.701 278.243L684.458 317.867Z" fill="url(#paint14_linear_1107_2)"/>
<path d="M461.997 318.289C461.997 318.289 532.708 190.249 441.921 182.609L381.801 357.438C341.808 473.675 381.801 595.339 381.801 595.339H489.765V431.048C489.765 431.048 484.707 356.7 461.997 318.289Z" fill="url(#paint15_linear_1107_2)"/>
<path d="M588.087 620.946H364.255V690.92H588.087V620.946Z" fill="white"/>
<path d="M588.402 691.184H363.991V620.683H588.402V691.184ZM364.518 690.657H587.875V621.21H364.518V690.657Z" fill="#5B71A8"/>
<path d="M598.783 640.126H356.667V690.604H598.783V640.126Z" fill="url(#paint16_linear_1107_2)"/>
<path d="M699.95 134.976C737.198 134.976 767.394 104.78 767.394 67.5315C767.394 30.2829 737.198 0.0869141 699.95 0.0869141C662.701 0.0869141 632.505 30.2829 632.505 67.5315C632.505 104.78 662.701 134.976 699.95 134.976Z" fill="url(#paint17_linear_1107_2)"/>
<path d="M699.95 73.0115L736.201 47.1929H699.95H663.698L699.95 73.0115Z" fill="#F86D1E" stroke="white" strokeWidth="3" stroke-miterlimit="10" stroke-linejoin="round"/>
<path d="M663.698 47.1929V87.8177L692.257 67.5316L663.698 47.1929Z" fill="#F86D1E" stroke="white" strokeWidth="3" stroke-miterlimit="10" stroke-linejoin="round"/>
<path d="M736.201 47.1926V87.8175L707.643 67.5314L736.201 47.1926Z" fill="#F86D1E" stroke="white" strokeWidth="3" stroke-miterlimit="10" stroke-linejoin="round"/>
<path d="M663.698 87.8176H736.201L707.643 67.5315L699.95 73.0114L692.257 67.5315L663.698 87.8176Z" fill="#F86D1E" stroke="white" strokeWidth="3" stroke-miterlimit="10" stroke-linejoin="round"/>
<path d="M768.026 508.978C785.952 508.978 800.484 494.446 800.484 476.52C800.484 458.594 785.952 444.062 768.026 444.062C750.1 444.062 735.568 458.594 735.568 476.52C735.568 494.446 750.1 508.978 768.026 508.978Z" fill="url(#paint18_radial_1107_2)"/>
<path d="M768.026 505.816C784.206 505.816 797.323 492.7 797.323 476.52C797.323 460.34 784.206 447.224 768.026 447.224C751.846 447.224 738.73 460.34 738.73 476.52C738.73 492.7 751.846 505.816 768.026 505.816Z" fill="url(#paint19_radial_1107_2)"/>
<path d="M775.614 482.79C775.614 479.207 773.611 477.152 769.712 475.572V466.614C770.766 466.719 771.609 466.93 772.347 467.194C773.084 467.457 773.927 467.088 774.191 466.298C774.454 465.56 774.086 464.77 773.348 464.506C772.399 464.19 771.188 463.927 769.712 463.821V459.395C769.712 458.71 769.133 458.131 768.448 458.131C767.763 458.131 767.183 458.71 767.183 459.395V463.927C763.231 464.559 760.702 467.246 760.702 470.724C760.702 474.254 763.178 476.362 767.183 477.837V487.322C767.078 487.322 767.025 487.322 766.92 487.322C765.286 487.322 763.758 486.953 762.441 486.373C761.65 486.057 760.755 486.479 760.544 487.269C760.333 487.954 760.702 488.692 761.334 488.955C762.81 489.587 764.812 490.009 766.709 490.009C766.867 490.009 767.025 490.009 767.183 490.009V493.539C767.183 494.224 767.763 494.804 768.448 494.804C769.133 494.804 769.712 494.224 769.712 493.539V489.693C773.664 488.85 775.614 486.004 775.614 482.79ZM764.022 470.408C764.022 468.985 764.917 467.352 767.13 466.772V474.465C765.023 473.411 764.022 472.252 764.022 470.408ZM769.712 486.848V479.049C771.504 480.103 772.241 481.315 772.241 483.054C772.241 484.793 771.346 486.163 769.712 486.848Z" fill="white"/>
<defs>
<linearGradient id="paint0_linear_1107_2" x1="960" y1="101.694" x2="960" y2="689.713" gradientUnits="userSpaceOnUse">
<stop stop-color="#32003F"/>
<stop offset="1" stop-color="#4D0160"/>
</linearGradient>
<linearGradient id="paint1_linear_1107_2" x1="960" y1="-130.005" x2="960" y2="689.713" gradientUnits="userSpaceOnUse">
<stop stop-color="#32003F"/>
<stop offset="1" stop-color="#4D0160"/>
</linearGradient>
<linearGradient id="paint2_linear_1107_2" x1="349.126" y1="-104.924" x2="400.52" y2="262.951" gradientUnits="userSpaceOnUse">
<stop offset="0.00498992" stop-color="#AD2D24"/>
<stop offset="1" stop-color="#FBB037"/>
</linearGradient>
<linearGradient id="paint3_linear_1107_2" x1="408.122" y1="31.7135" x2="628.639" y2="722.493" gradientUnits="userSpaceOnUse">
<stop offset="0.00498992" stop-color="#AD2D24"/>
<stop offset="1" stop-color="#FBB037"/>
</linearGradient>
<linearGradient id="paint4_linear_1107_2" x1="356.387" y1="600.592" x2="498.985" y2="625.038" gradientUnits="userSpaceOnUse">
<stop offset="0.00134137" stop-color="#FFF4DE"/>
<stop offset="1" stop-color="#D26766"/>
</linearGradient>
<linearGradient id="paint5_linear_1107_2" x1="886.053" y1="148.576" x2="688.119" y2="226.797" gradientUnits="userSpaceOnUse">
<stop offset="0.00134137" stop-color="#FFF4DE"/>
<stop offset="1" stop-color="#D26766"/>
</linearGradient>
<linearGradient id="paint6_linear_1107_2" x1="800.681" y1="220.9" x2="782.857" y2="218.863" gradientUnits="userSpaceOnUse">
<stop offset="0.00134137" stop-color="#FFF4DE"/>
<stop offset="1" stop-color="#D26766"/>
</linearGradient>
<linearGradient id="paint7_linear_1107_2" x1="738.845" y1="463.099" x2="537.851" y2="438.653" gradientUnits="userSpaceOnUse">
<stop offset="0.00134137" stop-color="#FFF4DE"/>
<stop offset="1" stop-color="#D26766"/>
</linearGradient>
<linearGradient id="paint8_linear_1107_2" x1="1017.56" y1="670.193" x2="375.197" y2="57.7019" gradientUnits="userSpaceOnUse">
<stop stop-color="#304598"/>
<stop offset="1" stop-color="#4ABBBA"/>
</linearGradient>
<linearGradient id="paint9_linear_1107_2" x1="753.092" y1="435.362" x2="720.451" y2="359.88" gradientUnits="userSpaceOnUse">
<stop offset="0.00134137" stop-color="#FFF4DE"/>
<stop offset="1" stop-color="#D26766"/>
</linearGradient>
<linearGradient id="paint10_linear_1107_2" x1="552.824" y1="395.661" x2="916.108" y2="443.194" gradientUnits="userSpaceOnUse">
<stop offset="0.00134137" stop-color="#FFF4DE"/>
<stop offset="1" stop-color="#D26766"/>
</linearGradient>
<linearGradient id="paint11_linear_1107_2" x1="743.893" y1="374.881" x2="719.281" y2="307.883" gradientUnits="userSpaceOnUse">
<stop offset="0.00134137" stop-color="#FFF4DE"/>
<stop offset="1" stop-color="#D26766"/>
</linearGradient>
<linearGradient id="paint12_linear_1107_2" x1="560.395" y1="337.799" x2="923.679" y2="385.331" gradientUnits="userSpaceOnUse">
<stop offset="0.00134137" stop-color="#FFF4DE"/>
<stop offset="1" stop-color="#D26766"/>
</linearGradient>
<linearGradient id="paint13_linear_1107_2" x1="700.616" y1="245.759" x2="721.891" y2="314.39" gradientUnits="userSpaceOnUse">
<stop offset="0.00134137" stop-color="#FFF4DE"/>
<stop offset="1" stop-color="#D26766"/>
</linearGradient>
<linearGradient id="paint14_linear_1107_2" x1="567.066" y1="286.818" x2="930.349" y2="334.35" gradientUnits="userSpaceOnUse">
<stop offset="0.00134137" stop-color="#FFF4DE"/>
<stop offset="1" stop-color="#D26766"/>
</linearGradient>
<linearGradient id="paint15_linear_1107_2" x1="364.044" y1="388.989" x2="489.768" y2="388.989" gradientUnits="userSpaceOnUse">
<stop offset="0.00134137" stop-color="#FFF4DE"/>
<stop offset="1" stop-color="#D26766"/>
</linearGradient>
<linearGradient id="paint16_linear_1107_2" x1="144.33" y1="561.241" x2="1067.37" y2="849.525" gradientUnits="userSpaceOnUse">
<stop stop-color="#304598"/>
<stop offset="1" stop-color="#4ABBBA"/>
</linearGradient>
<linearGradient id="paint17_linear_1107_2" x1="785.403" y1="133.531" x2="642.164" y2="56.4857" gradientUnits="userSpaceOnUse">
<stop stop-color="#BF0000"/>
<stop offset="1" stop-color="#FF7B22"/>
</linearGradient>
<radialGradient id="paint18_radial_1107_2" cx="0" cy="0" r="1" gradientUnits="userSpaceOnUse" gradientTransform="translate(734.772 430.354) scale(127.244)">
<stop stop-color="#FFEEA9"/>
<stop offset="1" stop-color="#FFB048"/>
</radialGradient>
<radialGradient id="paint19_radial_1107_2" cx="0" cy="0" r="1" gradientUnits="userSpaceOnUse" gradientTransform="translate(734.207 422.845) scale(72.0355)">
<stop stop-color="#FFEEA9"/>
<stop offset="1" stop-color="#FFB048"/>
</radialGradient>
</defs>
</svg>
