<svg width="375" height="705" viewBox="0 0 375 705" fill="none" xmlns="http://www.w3.org/2000/svg">
<mask id="mask0_524_881" style="mask-type:alpha" maskUnits="userSpaceOnUse" x="-18" y="0" width="404" height="705">
<rect x="-17.2695" y="0.790039" width="402.605" height="704.149" fill="#3C014A"/>
</mask>
<g mask="url(#mask0_524_881)">
<rect x="-17.2695" y="0.790039" width="402.605" height="704.149" fill="#390147"/>
<g style="mix-blend-mode:overlay" opacity="0.2">
<path fill-rule="evenodd" clip-rule="evenodd" d="M39.8895 392.739C49.4418 432.01 77.0376 461.728 118.431 471.281C79.1603 480.833 49.4418 508.429 39.8895 549.822C30.3371 510.551 2.7413 480.833 -38.6523 471.281C-0.442825 462.79 30.3371 435.194 39.8895 392.739Z" fill="white"/>
</g>
<path d="M151.416 544.739C151.416 544.739 132.792 565.13 110.656 550.389L103.704 541.019C103.704 541.019 129.56 550.901 131.908 545.111C134.233 539.321 104.541 539.414 96.6356 532.439C88.7301 525.44 84.7541 518.488 84.7541 518.488C84.7541 518.488 123.747 534.532 121.073 527.138C118.399 519.744 91.6133 519.604 79.755 506.979C67.8968 494.33 66.2692 490.679 66.2692 490.679C66.2692 490.679 102.472 507.002 101.96 500.189C101.449 493.376 73.3841 493.679 65.7809 479.984C58.1544 466.289 63.014 441.479 63.014 441.479C63.014 441.479 77.6624 472.799 86.1957 469.846C94.729 466.893 61.7352 442.595 64.8509 428.807C67.9433 414.996 74.2212 407.09 74.2212 407.09C74.2212 407.09 116.027 506.514 151.416 544.739Z" fill="url(#paint0_linear_524_881)"/>
<path d="M151.416 544.739C151.416 544.739 172.784 543.855 178.899 509.536L171.738 494.423C171.738 494.423 166.971 530.509 151.439 524.929C135.884 519.302 164.716 492.772 162.646 477.589C160.577 462.406 152.951 458.639 152.951 458.639C152.951 458.639 142.208 510.583 131.373 505.537C120.538 500.491 159.973 463.312 142.046 445.339C124.096 427.366 119.748 427.04 119.748 427.04C119.748 427.04 117.422 481.565 109.68 473.403C101.937 465.242 117.353 427.598 109.68 421.622C101.983 415.647 74.2212 407.09 74.2212 407.09C74.2212 407.09 102.983 501.724 151.416 544.739Z" fill="url(#paint1_linear_524_881)"/>
<path d="M194.233 715.706H95.21V648.874H185.44L194.233 715.706Z" fill="url(#paint2_linear_524_881)"/>
<path d="M236.884 501.312L233.801 494.465C231.476 489.26 233.801 483.145 239.006 480.795L295.858 455.326C301.063 453.001 307.177 455.326 309.527 460.531L312.61 467.378C314.934 472.583 312.61 478.698 307.405 481.048L250.528 506.518C245.323 508.867 239.208 506.543 236.884 501.312Z" fill="url(#paint3_linear_524_881)"/>
<path d="M253.812 474.175V504.016C253.812 504.016 266.977 498.634 266.674 498.255C266.37 497.876 266.37 468.541 266.37 468.541L253.812 474.175Z" fill="url(#paint4_linear_524_881)"/>
<path d="M130.457 559.276L183.822 518.267L222.531 627.674C222.531 627.674 204.364 669.947 144.708 669.947L130.457 559.276Z" fill="url(#paint5_linear_524_881)"/>
<path opacity="0.13" d="M146.982 626.032C146.982 626.032 146.831 632.273 179.4 631.944C211.97 631.616 220.233 631.944 220.233 631.944L222.532 627.674L146.982 626.032Z" fill="#1B1E4C"/>
<path d="M253.813 405.751V608.067C253.813 618.679 245.222 627.27 234.61 627.27H153.856C143.243 627.27 134.652 618.679 134.652 608.067V405.751C134.652 395.139 143.243 386.548 153.856 386.548H234.585C245.197 386.548 253.813 395.139 253.813 405.751Z" fill="white"/>
<path d="M234.584 627.421H153.855C143.192 627.421 134.525 618.755 134.525 608.092V405.751C134.525 395.088 143.192 386.421 153.855 386.421H234.584C245.247 386.421 253.914 395.088 253.914 405.751V608.067C253.939 618.755 245.247 627.421 234.584 627.421ZM153.855 386.674C143.344 386.674 134.778 395.24 134.778 405.751V608.067C134.778 613.171 136.774 617.946 140.362 621.559C143.975 625.173 148.751 627.144 153.855 627.144H234.584C239.688 627.144 244.464 625.147 248.077 621.559C251.69 617.946 253.661 613.171 253.661 608.067V405.751C253.661 395.24 245.095 386.674 234.584 386.674H153.855Z" fill="#5B71A8"/>
<path d="M249.884 408.278V610.897C249.884 619.26 243.112 626.032 234.749 626.032H153.716C145.353 626.032 138.581 619.26 138.581 610.897V408.278C138.581 399.914 145.353 393.143 153.716 393.143H234.749C243.112 393.143 249.884 399.914 249.884 408.278Z" fill="url(#paint6_linear_524_881)"/>
<path fill-rule="evenodd" clip-rule="evenodd" d="M145.792 507.434L169.575 473.577L177.007 477.375L197.734 449.629L220.195 483.651L225.811 480.513L240.345 507.434L223.498 490.423L216.397 493.973L203.019 474.072L200.046 477.045L193.77 466.227L178.823 485.055L170.813 480.761L145.792 507.434Z" fill="white"/>
<path fill-rule="evenodd" clip-rule="evenodd" d="M175.438 452.354C176.181 455.409 178.328 457.721 181.549 458.465C178.493 459.208 176.181 461.355 175.438 464.575C174.695 461.52 172.547 459.208 169.327 458.465C172.3 457.804 174.695 455.657 175.438 452.354Z" fill="white"/>
<path fill-rule="evenodd" clip-rule="evenodd" d="M163.464 445.087C163.959 447.069 165.363 448.638 167.51 449.133C165.528 449.629 163.959 451.033 163.464 453.18C162.968 451.198 161.565 449.629 159.417 449.133C161.399 448.638 162.968 447.234 163.464 445.087Z" fill="white"/>
<path fill-rule="evenodd" clip-rule="evenodd" d="M159.005 464.41C159.335 465.814 160.326 466.888 161.895 467.301C160.491 467.631 159.417 468.622 159.005 470.191C158.674 468.787 157.683 467.713 156.114 467.301C157.518 466.888 158.592 465.897 159.005 464.41Z" fill="white"/>
<path opacity="0.13" d="M253.812 515.538V606.222L246.005 609.709C239.991 612.413 232.916 609.709 230.213 603.695L228.444 599.754C225.74 593.74 228.444 586.665 234.457 583.987L238.601 582.142C233.851 582.345 229.227 579.691 227.18 575.093L225.412 571.151C222.936 565.643 224.982 559.275 229.96 556.142C225.235 556.319 220.687 553.666 218.615 549.093L216.846 545.151C214.143 539.137 216.846 532.062 222.86 529.384L253.812 515.538Z" fill="#1B1E4C"/>
<path opacity="0.13" d="M145.744 489.639C145.744 489.639 157.595 489.361 155.295 506.922C153.021 524.483 133.793 551.19 133.793 551.19L132.176 532.998L145.744 489.639Z" fill="#1B1E4C"/>
<path d="M234.585 591.971L231.502 585.124C229.178 579.919 231.502 573.804 236.707 571.454L281.784 551.24C286.989 548.916 293.104 551.24 295.454 556.445L298.536 563.293C300.861 568.498 298.536 574.613 293.331 576.963L248.254 597.176C243.049 599.526 236.935 597.176 234.585 591.971Z" fill="url(#paint7_linear_524_881)"/>
<path d="M251.919 591.491L249.746 592.477C244.49 594.827 238.325 592.477 235.975 587.246C233.625 581.991 235.975 575.826 241.231 573.476L243.404 572.49L251.919 591.491Z" fill="url(#paint8_linear_524_881)"/>
<path d="M231.553 563.343L228.47 556.496C226.145 551.291 228.47 545.176 233.675 542.826L278.752 522.612C283.957 520.288 290.072 522.612 292.422 527.818L295.504 534.665C297.829 539.87 295.504 545.985 290.299 548.335L245.222 568.549C240.017 570.898 233.902 568.574 231.553 563.343Z" fill="url(#paint9_linear_524_881)"/>
<path d="M248.886 562.889L246.713 563.874C241.458 566.224 235.293 563.874 232.943 558.644C230.593 553.388 232.943 547.223 238.198 544.873L240.371 543.888L248.886 562.889Z" fill="url(#paint10_linear_524_881)"/>
<path d="M223.012 537.368L219.93 530.521C217.605 525.316 219.93 519.201 225.135 516.851L270.212 496.637C275.417 494.313 281.532 496.637 283.882 501.842L286.964 508.69C289.289 513.895 286.964 520.01 281.759 522.36L236.682 542.573C231.477 544.923 225.337 542.573 223.012 537.368Z" fill="url(#paint11_linear_524_881)"/>
<path d="M240.346 536.888L238.173 537.874C232.918 540.224 226.753 537.874 224.403 532.643C222.053 527.388 224.403 521.223 229.658 518.873L231.831 517.887L240.346 536.888Z" fill="url(#paint12_linear_524_881)"/>
<path d="M133.667 537.091C133.667 537.091 167.576 475.691 124.04 472.027L95.21 555.864C76.0321 611.604 95.21 669.947 95.21 669.947H146.983V591.163C146.983 591.163 144.557 555.511 133.667 537.091Z" fill="url(#paint13_linear_524_881)"/>
<path d="M194.132 682.227H86.7959V715.782H194.132V682.227Z" fill="white"/>
<path d="M194.284 715.908H86.6699V682.1H194.284V715.908ZM86.9226 715.655H194.031V682.353H86.9226V715.655Z" fill="#5B71A8"/>
<path d="M199.261 691.424H83.1572V715.63H199.261V691.424Z" fill="url(#paint14_linear_524_881)"/>
<path d="M247.774 449.186C265.636 449.186 280.116 434.706 280.116 416.844C280.116 398.982 265.636 384.501 247.774 384.501C229.912 384.501 215.432 398.982 215.432 416.844C215.432 434.706 229.912 449.186 247.774 449.186Z" fill="url(#paint15_linear_524_881)"/>
<path d="M247.775 419.471L265.159 407.09H247.775H230.391L247.775 419.471Z" fill="#F86D1E" stroke="white" strokeWidth="3" stroke-miterlimit="10" stroke-linejoin="round"/>
<path d="M230.391 407.09V426.571L244.086 416.844L230.391 407.09Z" fill="#F86D1E" stroke="white" strokeWidth="3" stroke-miterlimit="10" stroke-linejoin="round"/>
<path d="M265.159 407.09V426.571L251.464 416.844L265.159 407.09Z" fill="#F86D1E" stroke="white" strokeWidth="3" stroke-miterlimit="10" stroke-linejoin="round"/>
<path d="M230.391 426.572H265.159L251.464 416.844L247.775 419.472L244.086 416.844L230.391 426.572Z" fill="#F86D1E" stroke="white" strokeWidth="3" stroke-miterlimit="10" stroke-linejoin="round"/>
<path d="M280.419 628.534C289.015 628.534 295.984 621.565 295.984 612.969C295.984 604.373 289.015 597.404 280.419 597.404C271.823 597.404 264.854 604.373 264.854 612.969C264.854 621.565 271.823 628.534 280.419 628.534Z" fill="url(#paint16_radial_524_881)"/>
<path d="M280.419 627.018C288.178 627.018 294.467 620.728 294.467 612.969C294.467 605.21 288.178 598.92 280.419 598.92C272.66 598.92 266.37 605.21 266.37 612.969C266.37 620.728 272.66 627.018 280.419 627.018Z" fill="url(#paint17_radial_524_881)"/>
<path d="M284.058 615.976C284.058 614.257 283.098 613.272 281.228 612.514V608.218C281.733 608.269 282.137 608.37 282.491 608.496C282.845 608.623 283.249 608.446 283.376 608.067C283.502 607.713 283.325 607.334 282.971 607.208C282.516 607.056 281.935 606.93 281.228 606.879V604.757C281.228 604.428 280.95 604.15 280.621 604.15C280.293 604.15 280.015 604.428 280.015 604.757V606.93C278.12 607.233 276.907 608.522 276.907 610.189C276.907 611.882 278.095 612.893 280.015 613.6V618.149C279.964 618.149 279.939 618.149 279.889 618.149C279.105 618.149 278.373 617.972 277.741 617.694C277.362 617.542 276.932 617.744 276.831 618.123C276.73 618.452 276.907 618.805 277.21 618.932C277.918 619.235 278.878 619.437 279.788 619.437C279.863 619.437 279.939 619.437 280.015 619.437V621.13C280.015 621.459 280.293 621.736 280.621 621.736C280.95 621.736 281.228 621.459 281.228 621.13V619.286C283.123 618.881 284.058 617.517 284.058 615.976ZM278.499 610.038C278.499 609.355 278.928 608.572 279.99 608.294V611.983C278.979 611.478 278.499 610.922 278.499 610.038ZM281.228 617.921V614.182C282.087 614.687 282.441 615.268 282.441 616.102C282.441 616.936 282.011 617.593 281.228 617.921Z" fill="white"/>
</g>
<defs>
<linearGradient id="paint0_linear_524_881" x1="79.5416" y1="334.144" x2="104.187" y2="510.555" gradientUnits="userSpaceOnUse">
<stop offset="0.00498992" stop-color="#AD2D24"/>
<stop offset="1" stop-color="#FBB037"/>
</linearGradient>
<linearGradient id="paint1_linear_524_881" x1="107.832" y1="399.667" x2="213.579" y2="730.922" gradientUnits="userSpaceOnUse">
<stop offset="0.00498992" stop-color="#AD2D24"/>
<stop offset="1" stop-color="#FBB037"/>
</linearGradient>
<linearGradient id="paint2_linear_524_881" x1="83.0232" y1="672.466" x2="151.404" y2="684.188" gradientUnits="userSpaceOnUse">
<stop offset="0.00134137" stop-color="#FFF4DE"/>
<stop offset="1" stop-color="#D26766"/>
</linearGradient>
<linearGradient id="paint3_linear_524_881" x1="337.017" y1="455.707" x2="242.101" y2="493.217" gradientUnits="userSpaceOnUse">
<stop offset="0.00134137" stop-color="#FFF4DE"/>
<stop offset="1" stop-color="#D26766"/>
</linearGradient>
<linearGradient id="paint4_linear_524_881" x1="296.078" y1="490.389" x2="287.531" y2="489.413" gradientUnits="userSpaceOnUse">
<stop offset="0.00134137" stop-color="#FFF4DE"/>
<stop offset="1" stop-color="#D26766"/>
</linearGradient>
<linearGradient id="paint5_linear_524_881" x1="266.425" y1="606.533" x2="170.041" y2="594.81" gradientUnits="userSpaceOnUse">
<stop offset="0.00134137" stop-color="#FFF4DE"/>
<stop offset="1" stop-color="#D26766"/>
</linearGradient>
<linearGradient id="paint6_linear_524_881" x1="400.082" y1="705.842" x2="92.0427" y2="412.13" gradientUnits="userSpaceOnUse">
<stop stop-color="#304598"/>
<stop offset="1" stop-color="#4ABBBA"/>
</linearGradient>
<linearGradient id="paint7_linear_524_881" x1="273.258" y1="593.232" x2="257.606" y2="557.035" gradientUnits="userSpaceOnUse">
<stop offset="0.00134137" stop-color="#FFF4DE"/>
<stop offset="1" stop-color="#D26766"/>
</linearGradient>
<linearGradient id="paint8_linear_524_881" x1="177.223" y1="574.194" x2="351.431" y2="596.987" gradientUnits="userSpaceOnUse">
<stop offset="0.00134137" stop-color="#FFF4DE"/>
<stop offset="1" stop-color="#D26766"/>
</linearGradient>
<linearGradient id="paint9_linear_524_881" x1="268.847" y1="564.229" x2="257.045" y2="532.101" gradientUnits="userSpaceOnUse">
<stop offset="0.00134137" stop-color="#FFF4DE"/>
<stop offset="1" stop-color="#D26766"/>
</linearGradient>
<linearGradient id="paint10_linear_524_881" x1="180.853" y1="546.447" x2="355.061" y2="569.24" gradientUnits="userSpaceOnUse">
<stop offset="0.00134137" stop-color="#FFF4DE"/>
<stop offset="1" stop-color="#D26766"/>
</linearGradient>
<linearGradient id="paint11_linear_524_881" x1="248.094" y1="502.31" x2="258.296" y2="535.221" gradientUnits="userSpaceOnUse">
<stop offset="0.00134137" stop-color="#FFF4DE"/>
<stop offset="1" stop-color="#D26766"/>
</linearGradient>
<linearGradient id="paint12_linear_524_881" x1="184.052" y1="521.999" x2="358.26" y2="544.793" gradientUnits="userSpaceOnUse">
<stop offset="0.00134137" stop-color="#FFF4DE"/>
<stop offset="1" stop-color="#D26766"/>
</linearGradient>
<linearGradient id="paint13_linear_524_881" x1="86.6948" y1="570.994" x2="146.984" y2="570.994" gradientUnits="userSpaceOnUse">
<stop offset="0.00134137" stop-color="#FFF4DE"/>
<stop offset="1" stop-color="#D26766"/>
</linearGradient>
<linearGradient id="paint14_linear_524_881" x1="-18.6662" y1="653.595" x2="423.964" y2="791.838" gradientUnits="userSpaceOnUse">
<stop stop-color="#304598"/>
<stop offset="1" stop-color="#4ABBBA"/>
</linearGradient>
<linearGradient id="paint15_linear_524_881" x1="288.752" y1="448.493" x2="220.064" y2="411.547" gradientUnits="userSpaceOnUse">
<stop stop-color="#BF0000"/>
<stop offset="1" stop-color="#FF7B22"/>
</linearGradient>
<radialGradient id="paint16_radial_524_881" cx="0" cy="0" r="1" gradientUnits="userSpaceOnUse" gradientTransform="translate(264.473 590.83) scale(61.0185)">
<stop stop-color="#FFEEA9"/>
<stop offset="1" stop-color="#FFB048"/>
</radialGradient>
<radialGradient id="paint17_radial_524_881" cx="0" cy="0" r="1" gradientUnits="userSpaceOnUse" gradientTransform="translate(264.201 587.23) scale(34.5437)">
<stop stop-color="#FFEEA9"/>
<stop offset="1" stop-color="#FFB048"/>
</radialGradient>
</defs>
</svg>
