<svg width="1914" height="537" viewBox="0 0 1914 537" fill="none" xmlns="http://www.w3.org/2000/svg">
<mask id="mask0_1288_2" style="mask-type:alpha" maskUnits="userSpaceOnUse" x="0" y="0" width="1921" height="537">
<rect x="0.532715" y="0.522217" width="1920" height="536.429" fill="url(#paint0_linear_1288_2)"/>
</mask>
<g mask="url(#mask0_1288_2)">
<rect x="0.532715" y="0.522217" width="1920" height="819.717" fill="url(#paint1_linear_1288_2)"/>
<g style="mix-blend-mode:soft-light" opacity="0.2">
<path d="M1682.59 160.416C1895.94 133.21 2038.17 219.122 2097.84 287.851L1989.01 927.895L7.3125 819.073C865 807.618 844.258 554.162 1157.1 594.27C1374.84 622.185 1341.56 203.903 1682.59 160.416Z" fill="white"/>
</g>
<g style="mix-blend-mode:soft-light" opacity="0.2">
<path d="M1408.59 -57.7157C1691.44 -53.7902 1876.52 -102.217 1955.04 -15.052V913.065L-146.838 896.316C-285.118 797.904 -382.978 656.438 -185.131 580.579C367.991 843.009 340.213 300.783 649.005 284.283C917.586 269.931 678.726 -67.8455 1408.59 -57.7157Z" fill="white"/>
</g>
<g style="mix-blend-mode:overlay" opacity="0.2">
<path fill-rule="evenodd" clip-rule="evenodd" d="M965.603 148.354C975.081 187.319 1002.46 216.806 1043.53 226.284C1004.57 235.762 975.081 263.143 965.603 304.215C956.125 265.25 928.744 235.762 887.672 226.284C925.584 217.859 956.125 190.479 965.603 148.354Z" fill="white"/>
</g>
<g style="mix-blend-mode:overlay">
<path fill-rule="evenodd" clip-rule="evenodd" d="M1265.56 227.938C1268.32 238.979 1276.14 247.721 1288.1 250.481C1277.06 253.242 1268.32 261.063 1265.56 273.025C1262.8 261.983 1254.97 253.242 1243.01 250.481C1254.05 247.721 1262.8 239.9 1265.56 227.938Z" fill="white"/>
</g>
<g style="mix-blend-mode:overlay" opacity="0.2">
<path fill-rule="evenodd" clip-rule="evenodd" d="M1767.42 218.622C1774.2 247.444 1794.55 269.485 1826.76 277.962C1797.94 284.744 1775.9 305.089 1767.42 337.302C1760.64 308.48 1740.29 286.439 1708.08 277.962C1736.9 269.485 1758.94 249.14 1767.42 218.622Z" fill="white"/>
</g>
<g style="mix-blend-mode:overlay">
<path fill-rule="evenodd" clip-rule="evenodd" d="M186.459 82.425C197.782 130.546 231.749 167.344 285.531 181.497C237.41 192.819 200.612 226.787 186.459 280.568C175.137 232.448 141.169 195.65 87.3877 181.497C135.508 167.344 172.306 133.376 186.459 82.425Z" fill="white"/>
</g>
<path fill-rule="evenodd" clip-rule="evenodd" d="M295.01 395.742C297.724 406.901 305.566 415.347 317.329 418.061C306.169 420.776 297.724 428.618 295.01 440.381C292.295 429.221 284.453 420.776 272.69 418.061C283.548 415.648 292.295 407.806 295.01 395.742Z" fill="white"/>
<path fill-rule="evenodd" clip-rule="evenodd" d="M1751.64 60.6231C1752.86 64.965 1756.05 68.1693 1760.71 69.0692C1756.37 70.2916 1753.16 73.4884 1752.26 78.1434C1751.04 73.8016 1747.84 70.5973 1743.19 69.6974C1747.42 68.5975 1750.74 65.3966 1751.64 60.6231Z" fill="white"/>
</g>
<path fill-rule="evenodd" clip-rule="evenodd" d="M1620.08 386.631C1623.1 398.29 1631.3 407.79 1643.83 410.381C1632.17 413.404 1622.67 421.608 1620.08 434.131C1617.05 422.472 1608.85 412.972 1596.33 410.381C1607.55 407.358 1617.05 399.154 1620.08 386.631Z" fill="#9900CC"/>
<defs>
<linearGradient id="paint0_linear_1288_2" x1="960.533" y1="0.522217" x2="960.533" y2="536.951" gradientUnits="userSpaceOnUse">
<stop stop-color="#32003F"/>
<stop offset="1" stop-color="#4D0160"/>
</linearGradient>
<linearGradient id="paint1_linear_1288_2" x1="960.533" y1="0.522217" x2="960.533" y2="820.24" gradientUnits="userSpaceOnUse">
<stop stop-color="#32003F"/>
<stop offset="1" stop-color="#4D0160"/>
</linearGradient>
</defs>
</svg>
