<svg width="274" height="274" viewBox="0 0 274 274" fill="none" xmlns="http://www.w3.org/2000/svg">
<path fill-rule="evenodd" clip-rule="evenodd" d="M136.841 0.400146C153.436 68.6263 201.379 120.257 273.293 136.852C205.067 153.448 153.436 201.391 136.841 273.305C120.245 205.079 72.3022 153.448 0.388184 136.852C66.7704 122.101 120.245 74.1581 136.841 0.400146Z" fill="#FEE7DA"/>
<path fill-rule="evenodd" clip-rule="evenodd" d="M232.632 25.0593C236.134 39.4527 246.248 50.345 261.419 53.8461C247.026 57.3472 236.134 67.4614 232.632 82.6328C229.131 68.2394 219.017 57.3472 203.846 53.8461C217.85 50.734 229.131 40.6197 232.632 25.0593Z" fill="#FEE7DA"/>
<path fill-rule="evenodd" clip-rule="evenodd" d="M33.9907 66.7349C35.9243 74.6838 41.51 80.6993 49.8887 82.6328C41.9397 84.5663 35.9243 90.1521 33.9907 98.5307C32.0572 90.5818 26.4714 84.5663 18.0928 82.6328C25.8269 80.9141 32.0572 75.3283 33.9907 66.7349Z" fill="#FEE7DA"/>
</svg>
